<?xml version="1.0" encoding="utf-8"?>
<!-- Generator: Adobe Illustrator 24.0.1, SVG Export Plug-In . SVG Version: 6.00 Build 0)  -->
<svg version="1.1" xmlns="http://www.w3.org/2000/svg" xmlns:xlink="http://www.w3.org/1999/xlink" x="0px" y="0px"
	 viewBox="0 0 418.05 418.05" style="enable-background:new 0 0 418.05 418.05;" xml:space="preserve">
<style type="text/css">
	.st0{clip-path:url(#SVGID_2_);}
	.st1{clip-path:url(#SVGID_4_);}
	.st2{clip-path:url(#SVGID_6_);}
	.st3{clip-path:url(#SVGID_8_);}
	.st4{clip-path:url(#SVGID_10_);}
	.st5{clip-path:url(#SVGID_12_);}
	.st6{fill:none;stroke:#231F20;stroke-miterlimit:10;}
	.st7{opacity:0;fill:url(#SVGID_13_);}
	.st8{opacity:0.3;fill:url(#SVGID_14_);}
	.st9{fill:#A3A7E6;stroke:#000769;stroke-width:5;stroke-miterlimit:10;}
	.st10{fill:#939598;stroke:#000000;stroke-width:5;stroke-miterlimit:10;}
	.st11{fill:none;stroke:#231F20;stroke-width:10;stroke-miterlimit:10;}
	.st12{fill:#231F20;stroke:#231F20;stroke-miterlimit:10;}
	.st13{fill:#D1D3D4;stroke:#000000;stroke-width:5;stroke-miterlimit:10;}
	.st14{fill:none;stroke:#D1D3D4;stroke-width:15;stroke-linecap:round;stroke-miterlimit:10;}
	.st15{fill:none;stroke:#231F20;stroke-linecap:round;stroke-miterlimit:10;}
	.st16{fill:#F1F2F2;stroke:#000000;stroke-width:5;stroke-miterlimit:10;}
	.st17{fill:#D1D3D4;}
	.st18{fill:#FFFFFF;stroke:#231F20;stroke-width:5;stroke-miterlimit:10;}
	.st19{fill:#939598;}
	.st20{fill:none;}
	.st21{fill:#333DC9;stroke:#000769;stroke-width:5;stroke-miterlimit:10;}
	.st22{fill:#E2E9FC;stroke:#000769;stroke-width:5;stroke-miterlimit:10;}
	.st23{fill:#000769;}
	.st24{fill:#A3A7E6;}
	.st25{fill:#333DC9;}
	.st26{fill:#FFFFFF;}
	.st27{opacity:0.5;fill:url(#SVGID_15_);}
	.st28{opacity:0.5;fill:url(#SVGID_16_);}
	.st29{fill:#E2E9FC;}
	.st30{fill:#FFFFFF;stroke:#000769;stroke-width:5;stroke-miterlimit:10;}
	.st31{fill:url(#SVGID_17_);}
	.st32{opacity:0.5;fill:url(#SVGID_18_);}
	.st33{opacity:0.5;fill:url(#SVGID_19_);}
	.st34{opacity:0.5;fill:url(#SVGID_20_);}
	.st35{opacity:0.5;fill:url(#SVGID_21_);}
	.st36{opacity:0.5;fill:url(#SVGID_22_);}
	.st37{opacity:0.5;fill:url(#SVGID_23_);}
	.st38{opacity:0.5;fill:url(#SVGID_24_);}
	.st39{opacity:0.5;fill:url(#SVGID_25_);}
	.st40{opacity:0.5;fill:url(#SVGID_26_);}
	.st41{fill:none;stroke:#231F20;stroke-width:5;stroke-miterlimit:10;}
	.st42{fill:#231F20;}
	.st43{opacity:0.5;fill:url(#SVGID_27_);}
	.st44{opacity:0.5;fill:url(#SVGID_28_);}
	.st45{opacity:0.5;fill:url(#SVGID_29_);}
	.st46{fill:url(#SVGID_30_);stroke:#000769;stroke-width:5;stroke-miterlimit:10;}
	.st47{opacity:0.5;fill:url(#SVGID_31_);}
	.st48{opacity:0.5;fill:url(#SVGID_32_);}
	.st49{opacity:0.5;fill:url(#SVGID_33_);}
	.st50{opacity:0.5;fill:url(#SVGID_34_);}
	.st51{opacity:0.5;fill:url(#SVGID_35_);}
	.st52{opacity:0.5;fill:url(#SVGID_36_);}
	.st53{opacity:0.5;fill:url(#SVGID_37_);}
	.st54{opacity:0.5;fill:url(#SVGID_38_);}
	.st55{opacity:0.5;fill:url(#SVGID_39_);}
	.st56{opacity:0.5;fill:url(#SVGID_40_);}
	.st57{opacity:0.5;fill:url(#SVGID_41_);}
	.st58{opacity:0.5;fill:url(#SVGID_42_);}
	.st59{opacity:0.5;fill:url(#SVGID_43_);}
	.st60{opacity:0.5;fill:url(#SVGID_44_);}
	.st61{opacity:0.5;fill:url(#SVGID_45_);}
	.st62{opacity:0.5;fill:url(#SVGID_46_);}
	.st63{fill:#FFFFFF;stroke:#231F20;stroke-miterlimit:10;}
	.st64{fill:none;stroke:#231F20;stroke-width:5;stroke-linecap:round;stroke-miterlimit:10;}
	.st65{fill:#FFFFFF;stroke:#231F20;stroke-width:5;stroke-linecap:round;stroke-miterlimit:10;}
	.st66{opacity:0.5;fill:url(#SVGID_47_);}
	.st67{opacity:0.5;fill:url(#SVGID_48_);}
	.st68{opacity:0.5;fill:url(#SVGID_49_);}
	.st69{opacity:0.8;fill:url(#SVGID_50_);}
	.st70{opacity:0.8;fill:url(#SVGID_51_);}
	.st71{opacity:0.8;fill:url(#SVGID_52_);}
	.st72{opacity:0.8;fill:url(#SVGID_53_);}
	.st73{opacity:0.8;fill:url(#SVGID_54_);}
	.st74{opacity:0.8;fill:url(#SVGID_55_);}
	.st75{fill:none;stroke:#231F20;stroke-width:16;stroke-miterlimit:10;}
	.st76{fill:none;stroke:#231F20;stroke-width:16;stroke-linecap:round;stroke-miterlimit:10;}
	.st77{fill:#FFFFFF;stroke:#000769;stroke-width:5;stroke-linecap:round;stroke-miterlimit:10;}
	.st78{fill:#231F20;stroke:#231F20;stroke-width:5;stroke-miterlimit:10;}
	.st79{opacity:0.8;fill:url(#SVGID_56_);}
	.st80{fill:none;stroke:#000769;stroke-width:16;stroke-linecap:round;stroke-miterlimit:10;}
	.st81{opacity:0.5;fill:url(#SVGID_57_);}
	.st82{opacity:0.5;fill:url(#SVGID_58_);}
	.st83{opacity:0.5;fill:url(#SVGID_59_);}
	.st84{opacity:0.5;fill:url(#SVGID_60_);}
	.st85{opacity:0.5;fill:url(#SVGID_61_);}
	.st86{fill:none;stroke:#000769;stroke-width:5;stroke-linecap:round;stroke-miterlimit:10;}
	.st87{opacity:0.5;fill:url(#SVGID_62_);}
	.st88{opacity:0.5;fill:url(#SVGID_63_);}
	.st89{opacity:0.5;fill:url(#SVGID_64_);}
	.st90{opacity:0.5;fill:url(#SVGID_65_);}
	.st91{opacity:0.5;fill:url(#SVGID_66_);}
	.st92{opacity:0.5;fill:url(#SVGID_67_);}
	.st93{opacity:0.5;fill:url(#SVGID_68_);}
	.st94{opacity:0.5;fill:url(#SVGID_69_);}
	.st95{opacity:0.5;fill:url(#SVGID_70_);}
	.st96{opacity:0.5;fill:url(#SVGID_71_);}
	.st97{opacity:0.5;fill:url(#SVGID_72_);}
	.st98{opacity:0.5;fill:url(#SVGID_73_);}
	.st99{opacity:0.5;fill:url(#SVGID_74_);}
	.st100{opacity:0.5;fill:url(#SVGID_75_);}
	.st101{opacity:0.5;fill:url(#SVGID_76_);}
	.st102{opacity:0.5;fill:url(#SVGID_77_);}
	.st103{opacity:0.5;fill:url(#SVGID_78_);}
	.st104{opacity:0.5;fill:url(#SVGID_79_);}
	.st105{opacity:0.5;fill:url(#SVGID_80_);}
	.st106{opacity:0.5;fill:url(#SVGID_81_);}
	.st107{opacity:0.5;fill:url(#SVGID_82_);}
	.st108{opacity:0.5;fill:url(#SVGID_83_);}
	.st109{opacity:0.5;fill:url(#SVGID_84_);}
	.st110{fill:none;stroke:#000769;stroke-width:7;stroke-linecap:round;stroke-miterlimit:10;}
	.st111{opacity:0.5;fill:url(#SVGID_85_);}
	.st112{fill:none;stroke:#000769;stroke-width:8;stroke-linecap:round;stroke-miterlimit:10;}
	.st113{opacity:0.5;fill:url(#SVGID_86_);}
	.st114{opacity:0.5;fill:url(#SVGID_87_);}
	.st115{opacity:0.5;fill:url(#SVGID_88_);}
	.st116{opacity:0.5;fill:url(#SVGID_89_);}
	.st117{opacity:0.5;fill:url(#SVGID_90_);}
	.st118{opacity:0.5;fill:url(#SVGID_91_);}
	.st119{opacity:0.5;fill:url(#SVGID_92_);}
	.st120{opacity:0.5;fill:url(#SVGID_93_);}
	.st121{opacity:0.5;fill:url(#SVGID_94_);}
	.st122{opacity:0.5;fill:url(#SVGID_95_);}
	.st123{fill:#FFFFFF;stroke:#000769;stroke-width:7;stroke-miterlimit:10;}
	.st124{fill:none;stroke:#000769;stroke-width:10;stroke-linecap:round;stroke-miterlimit:10;}
	.st125{fill:#E2E9FC;stroke:#000769;stroke-width:10;stroke-miterlimit:10;}
	.st126{opacity:0.5;fill:url(#SVGID_96_);}
	.st127{opacity:0.5;fill:url(#SVGID_97_);}
	.st128{opacity:0.5;fill:url(#SVGID_98_);}
	.st129{opacity:0.3;fill:url(#SVGID_99_);}
	.st130{opacity:0.3;fill:url(#SVGID_100_);}
	.st131{opacity:0.3;fill:url(#SVGID_101_);}
	.st132{opacity:0.5;fill:url(#SVGID_102_);}
	.st133{opacity:0.3;fill:url(#SVGID_103_);}
	.st134{opacity:0.5;fill:url(#SVGID_104_);}
	.st135{opacity:0;fill:url(#SVGID_105_);}
	.st136{opacity:0.5;fill:url(#SVGID_106_);}
	.st137{opacity:0.5;fill:url(#SVGID_107_);}
	.st138{opacity:0.5;fill:url(#SVGID_108_);}
	.st139{opacity:0.5;fill:url(#SVGID_109_);}
	.st140{opacity:0.5;fill:url(#SVGID_110_);}
	.st141{opacity:0.5;fill:url(#SVGID_111_);}
	.st142{fill:none;stroke:#000769;stroke-width:12;stroke-linecap:round;stroke-miterlimit:10;}
	.st143{opacity:0.5;fill:url(#SVGID_112_);}
	.st144{opacity:0.5;fill:url(#SVGID_113_);}
	.st145{opacity:0.5;fill:url(#SVGID_114_);}
	.st146{opacity:0.5;fill:url(#SVGID_115_);}
	.st147{opacity:0.5;fill:url(#SVGID_116_);}
	.st148{opacity:0.5;fill:url(#SVGID_117_);}
	.st149{opacity:0.5;fill:url(#SVGID_118_);}
	.st150{opacity:0.5;fill:url(#SVGID_119_);}
	.st151{opacity:0.5;fill:url(#SVGID_120_);}
	.st152{opacity:0.5;fill:url(#SVGID_121_);}
	.st153{opacity:0.8;fill:url(#SVGID_122_);}
	.st154{opacity:0.5;fill:url(#SVGID_123_);}
	.st155{opacity:0.5;fill:url(#SVGID_124_);}
	.st156{opacity:0.5;fill:url(#SVGID_125_);}
	.st157{opacity:0.5;fill:url(#SVGID_126_);}
	.st158{opacity:0.5;fill:url(#SVGID_127_);}
	.st159{opacity:0.5;fill:url(#SVGID_128_);}
	.st160{opacity:0.5;fill:url(#SVGID_129_);}
	.st161{opacity:0.5;fill:url(#SVGID_130_);}
	.st162{opacity:0.5;fill:url(#SVGID_131_);}
	.st163{opacity:0.5;fill:url(#SVGID_132_);}
	.st164{opacity:0.5;fill:#FFFFFF;stroke:#000769;stroke-width:5;stroke-linecap:round;stroke-miterlimit:10;}
	.st165{opacity:0.5;fill:url(#SVGID_133_);}
	.st166{opacity:0.5;fill:url(#SVGID_134_);}
	.st167{opacity:0.5;fill:url(#SVGID_135_);}
	.st168{opacity:0.5;fill:url(#SVGID_136_);}
	.st169{opacity:0.5;fill:url(#SVGID_137_);}
	.st170{opacity:0.5;fill:url(#SVGID_138_);}
	.st171{opacity:0.5;fill:url(#SVGID_139_);}
	.st172{opacity:0.5;fill:url(#SVGID_140_);}
	.st173{opacity:0.5;fill:url(#SVGID_141_);}
	.st174{opacity:0.5;fill:url(#SVGID_142_);}
	.st175{opacity:0.5;fill:url(#SVGID_143_);}
	.st176{opacity:0.5;}
	.st177{opacity:0.5;fill:url(#SVGID_144_);}
	.st178{opacity:0.5;fill:url(#SVGID_145_);}
	.st179{opacity:0.5;fill:url(#SVGID_146_);}
	.st180{opacity:0.5;fill:url(#SVGID_147_);}
	.st181{opacity:0.5;fill:url(#SVGID_148_);}
	.st182{opacity:0.8;fill:url(#SVGID_149_);}
	.st183{opacity:0.5;fill:url(#SVGID_150_);}
	.st184{opacity:0.5;fill:url(#SVGID_151_);}
	.st185{opacity:0.5;fill:url(#SVGID_152_);}
	.st186{opacity:0.5;fill:url(#SVGID_153_);}
	.st187{opacity:0.5;fill:url(#SVGID_154_);}
	.st188{opacity:0.5;fill:url(#SVGID_155_);}
	.st189{opacity:0.5;fill:url(#SVGID_156_);}
	.st190{opacity:0.5;fill:url(#SVGID_157_);}
	.st191{opacity:0.5;fill:url(#SVGID_158_);}
	.st192{opacity:0.5;fill:url(#SVGID_159_);}
</style>
<g id="Sketch">
</g>
<g id="Layer_2">
	<g>
		<path class="st29" d="M230.28,46.76l-0.18-15c-0.03-2.61-2.87-4.21-5.12-2.88l-35.88,21.29c-2.24,1.33-2.21,4.59,0.07,5.87
			l36.37,20.44c2.27,1.28,5.08-0.39,5.05-2.99l-0.17-14.58c73.22,10.43,129.71,73.53,129.71,149.59c0,3.31,2.69,6,6,6
			c3.31,0,6-2.69,6-6C372.13,125.75,310.21,57.22,230.28,46.76z"/>
		<path class="st23" d="M226.71,28.41c1.76,0,3.37,1.39,3.4,3.35l0.18,15c79.93,10.45,141.85,78.99,141.85,161.72c0,3.31-2.69,6-6,6
			c-3.31,0-6-2.69-6-6c0-76.06-56.48-139.16-129.71-149.59l0.17,14.58c0.02,1.99-1.61,3.43-3.39,3.43c-0.55,0-1.12-0.14-1.66-0.44
			l-36.37-20.44c-2.27-1.28-2.31-4.54-0.07-5.87l35.88-21.29C225.54,28.56,226.13,28.41,226.71,28.41 M226.71,23.41
			c-1.5,0-2.97,0.41-4.27,1.18l-35.88,21.29c-2.61,1.55-4.14,4.28-4.11,7.31c0.04,3.03,1.64,5.73,4.28,7.22l36.37,20.43
			c1.26,0.71,2.68,1.08,4.11,1.08c2.23,0,4.41-0.91,5.98-2.51c1.58-1.6,2.44-3.73,2.41-5.99l-0.1-8.63
			c32.21,5.93,61.68,22.68,83.48,47.58c23.32,26.63,36.16,60.77,36.16,96.11c0,6.07,4.93,11,11,11s11-4.93,11-11
			c0-41-14.99-80.53-42.21-111.28c-26.01-29.39-61.27-48.73-99.69-54.78l-0.13-10.72C235.05,27.13,231.29,23.41,226.71,23.41
			L226.71,23.41z"/>
	</g>
	<g>
		<path class="st29" d="M228.87,362.22l-36.37-20.44c-2.27-1.28-5.08,0.39-5.05,3l0.16,13.3
			c-73.21-10.43-129.69-73.53-129.69-149.58c0-3.31-2.69-6-6-6c-3.31,0-6,2.69-6,6c0,82.73,61.91,151.26,141.83,161.72l0.19,16.29
			c0.03,2.61,2.87,4.21,5.12,2.88l35.88-21.29C231.18,366.76,231.14,363.49,228.87,362.22z"/>
		<path class="st23" d="M51.91,202.49c3.31,0,6,2.69,6,6c0,76.05,56.48,139.15,129.69,149.58l-0.16-13.3
			c-0.02-1.99,1.61-3.43,3.39-3.43c0.55,0,1.12,0.14,1.66,0.44l36.37,20.44c2.27,1.28,2.31,4.54,0.07,5.87l-35.88,21.29
			c-0.56,0.33-1.15,0.48-1.72,0.48c-1.75,0-3.37-1.39-3.4-3.35l-0.19-16.29c-79.92-10.46-141.83-78.99-141.83-161.72
			C45.91,205.17,48.6,202.49,51.91,202.49 M51.91,197.49c-6.07,0-11,4.93-11,11c0,41,14.99,80.52,42.2,111.28
			c26.01,29.39,61.27,48.73,99.68,54.78l0.14,12.01c0.05,4.57,3.82,8.3,8.39,8.3c1.5,0,2.97-0.41,4.27-1.18l35.88-21.29
			c2.61-1.55,4.14-4.28,4.11-7.31s-1.64-5.73-4.28-7.21l-36.37-20.44c-1.26-0.71-2.68-1.08-4.1-1.08c-2.23,0-4.41,0.91-5.98,2.51
			c-1.58,1.6-2.44,3.73-2.41,5.99l0.09,7.34c-32.21-5.93-61.67-22.68-83.47-47.59c-23.31-26.63-36.15-60.76-36.15-96.1
			C62.91,202.42,57.98,197.49,51.91,197.49L51.91,197.49z"/>
	</g>
	<g>
		<path class="st29" d="M398.57,111.24l5.03,9.2c0.28,0.5,0.69,0.92,1.19,1.19l9.2,5.03c2.08,1.14,2.08,4.13,0,5.26l-9.2,5.03
			c-0.5,0.28-0.92,0.69-1.19,1.19l-5.03,9.2c-1.14,2.08-4.13,2.08-5.26,0l-5.03-9.2c-0.28-0.5-0.69-0.92-1.19-1.19l-9.2-5.03
			c-2.08-1.14-2.08-4.13,0-5.26l9.2-5.03c0.5-0.28,0.92-0.69,1.19-1.19l5.03-9.2C394.44,109.16,397.43,109.16,398.57,111.24z"/>
		<path class="st23" d="M395.93,151.4c-2.01,0-3.86-1.1-4.83-2.86l-5.03-9.2c-0.05-0.08-0.11-0.15-0.2-0.2l-9.2-5.03
			c-1.76-0.97-2.86-2.81-2.86-4.83s1.1-3.86,2.86-4.83l9.2-5.03c0.08-0.05,0.15-0.11,0.2-0.2l5.03-9.2
			c0.97-1.76,2.81-2.86,4.83-2.86s3.86,1.1,4.83,2.86v0l5.03,9.2c0.05,0.08,0.11,0.15,0.2,0.2l9.2,5.03
			c1.76,0.97,2.86,2.81,2.86,4.83s-1.1,3.86-2.86,4.83l-9.2,5.03c-0.08,0.05-0.15,0.11-0.2,0.2l-5.03,9.2
			C399.8,150.3,397.95,151.4,395.93,151.4z M395.93,112.18c-0.2,0-0.34,0.09-0.44,0.26l-5.03,9.2c-0.51,0.92-1.26,1.68-2.19,2.19
			l-9.2,5.03c-0.17,0.09-0.26,0.24-0.26,0.44s0.09,0.34,0.26,0.44l9.2,5.03c0.92,0.51,1.68,1.26,2.19,2.19l5.03,9.2
			c0.19,0.35,0.69,0.35,0.88,0l5.03-9.2c0.51-0.92,1.26-1.68,2.19-2.19l9.2-5.03c0.17-0.09,0.26-0.24,0.26-0.44
			s-0.09-0.34-0.26-0.44l-9.2-5.03c-0.92-0.51-1.68-1.26-2.19-2.19l-5.03-9.2v0C396.28,112.27,396.13,112.18,395.93,112.18z"/>
	</g>
	<g>
		<path class="st29" d="M24.74,4.06l5.03,9.2c0.28,0.5,0.69,0.92,1.19,1.19l9.2,5.03c2.08,1.14,2.08,4.13,0,5.26l-9.2,5.03
			c-0.5,0.28-0.92,0.69-1.19,1.19l-5.03,9.2c-1.14,2.08-4.13,2.08-5.26,0l-5.03-9.2c-0.28-0.5-0.69-0.92-1.19-1.19l-9.2-5.03
			c-2.08-1.14-2.08-4.13,0-5.26l9.2-5.03c0.5-0.28,0.92-0.69,1.19-1.19l5.03-9.2C20.62,1.98,23.6,1.98,24.74,4.06z"/>
		<path class="st23" d="M22.11,44.22c-2.01,0-3.86-1.1-4.83-2.86l-5.03-9.2c-0.05-0.08-0.11-0.15-0.2-0.2l-9.2-5.03
			C1.1,25.97,0,24.12,0,22.11s1.1-3.86,2.86-4.83l9.2-5.03c0.08-0.05,0.15-0.11,0.2-0.2l5.03-9.2C18.25,1.1,20.1,0,22.11,0
			s3.86,1.1,4.83,2.86v0l5.03,9.2c0.05,0.08,0.11,0.15,0.2,0.2l9.2,5.03c1.76,0.97,2.86,2.81,2.86,4.83s-1.1,3.86-2.86,4.83
			l-9.2,5.03c-0.08,0.05-0.15,0.11-0.2,0.2l-5.03,9.2C25.97,43.12,24.12,44.22,22.11,44.22z M22.11,5c-0.2,0-0.34,0.09-0.44,0.26
			l-5.03,9.2c-0.51,0.92-1.26,1.68-2.19,2.19l-9.2,5.03C5.09,21.77,5,21.91,5,22.11s0.09,0.34,0.26,0.44l9.2,5.03
			c0.93,0.51,1.68,1.26,2.19,2.19l5.03,9.2c0.19,0.35,0.69,0.35,0.88,0l5.03-9.2c0.5-0.92,1.26-1.68,2.19-2.19l9.2-5.03
			c0.17-0.09,0.26-0.24,0.26-0.44s-0.09-0.34-0.26-0.44l-9.2-5.03c-0.92-0.51-1.68-1.26-2.19-2.19l-5.03-9.2
			C22.45,5.09,22.31,5,22.11,5z"/>
	</g>
	<g>
		<path class="st29" d="M332.23,377.88l5.03,9.2c0.28,0.5,0.69,0.92,1.19,1.19l9.2,5.03c2.08,1.14,2.08,4.13,0,5.26l-9.2,5.03
			c-0.5,0.28-0.92,0.69-1.19,1.19l-5.03,9.2c-1.14,2.08-4.13,2.08-5.26,0l-5.03-9.2c-0.28-0.5-0.69-0.92-1.19-1.19l-9.2-5.03
			c-2.08-1.14-2.08-4.13,0-5.26l9.2-5.03c0.5-0.28,0.92-0.69,1.19-1.19l5.03-9.2C328.11,375.8,331.1,375.8,332.23,377.88z"/>
		<path class="st23" d="M329.6,418.05c-2.01,0-3.86-1.1-4.83-2.86l-5.03-9.2c-0.05-0.08-0.11-0.15-0.2-0.2l-9.2-5.03
			c-1.76-0.97-2.86-2.81-2.86-4.83s1.1-3.86,2.86-4.83l9.2-5.03c0.08-0.05,0.15-0.11,0.2-0.2l5.03-9.2
			c0.97-1.76,2.81-2.86,4.83-2.86s3.86,1.1,4.83,2.86l5.03,9.2c0.05,0.08,0.11,0.15,0.2,0.2l9.2,5.03c1.76,0.97,2.86,2.81,2.86,4.83
			s-1.1,3.86-2.86,4.83l-9.2,5.03c-0.08,0.05-0.15,0.11-0.2,0.2l-5.03,9.2C333.46,416.95,331.61,418.05,329.6,418.05z M329.6,378.82
			c-0.2,0-0.34,0.09-0.44,0.26l-5.03,9.2c-0.5,0.92-1.26,1.68-2.19,2.19l-9.2,5.03c-0.17,0.09-0.26,0.24-0.26,0.44
			s0.09,0.34,0.26,0.44l9.2,5.03c0.92,0.51,1.68,1.26,2.19,2.19l5.03,9.2c0.19,0.35,0.69,0.35,0.88,0l5.03-9.2
			c0.51-0.92,1.26-1.68,2.19-2.19l9.2-5.03c0.17-0.09,0.26-0.24,0.26-0.44s-0.09-0.34-0.26-0.44l-9.2-5.03
			c-0.93-0.51-1.68-1.26-2.19-2.19l-5.03-9.2C329.95,378.91,329.8,378.82,329.6,378.82z"/>
	</g>
	<g>
		<path class="st29" d="M321.23,10.94l3.65,6.67c0.2,0.37,0.5,0.67,0.87,0.87l6.67,3.65c1.51,0.83,1.51,2.99,0,3.82l-6.67,3.65
			c-0.37,0.2-0.67,0.5-0.87,0.87l-3.65,6.67c-0.83,1.51-2.99,1.51-3.82,0l-3.65-6.67c-0.2-0.37-0.5-0.67-0.87-0.87l-6.67-3.65
			c-1.51-0.83-1.51-2.99,0-3.82l6.67-3.65c0.37-0.2,0.67-0.5,0.87-0.87l3.65-6.67C318.24,9.43,320.41,9.43,321.23,10.94z"/>
		<path class="st23" d="M319.32,40.77c-1.71,0-3.28-0.93-4.1-2.43l-3.6-6.59l-6.59-3.6c-1.5-0.82-2.43-2.39-2.43-4.1
			c0-1.71,0.93-3.28,2.43-4.1l6.59-3.6l3.6-6.59c0.82-1.5,2.39-2.43,4.1-2.43c0,0,0,0,0,0c1.71,0,3.28,0.93,4.1,2.43l3.6,6.59
			l6.59,3.6c1.5,0.82,2.43,2.39,2.43,4.1c0,1.71-0.93,3.28-2.43,4.1l-6.59,3.6l-3.6,6.59C322.61,39.84,321.04,40.77,319.32,40.77z
			 M307.94,24.04l6.16,3.37c0.79,0.43,1.43,1.07,1.86,1.86l3.37,6.16l3.37-6.16c0.43-0.79,1.07-1.43,1.86-1.86l6.16-3.37l-6.16-3.37
			c-0.79-0.43-1.43-1.07-1.86-1.86l-3.37-6.16l-3.37,6.16c-0.43,0.79-1.07,1.43-1.86,1.86L307.94,24.04z"/>
	</g>
	<g>
		<path class="st24" d="M394.8,280.66l3.65,6.67c0.2,0.37,0.5,0.67,0.87,0.87l6.67,3.65c1.51,0.83,1.51,2.99,0,3.82l-6.67,3.65
			c-0.37,0.2-0.67,0.5-0.87,0.87l-3.65,6.67c-0.83,1.51-2.99,1.51-3.82,0l-3.65-6.67c-0.2-0.37-0.5-0.67-0.87-0.87l-6.67-3.65
			c-1.51-0.83-1.51-2.99,0-3.82l6.67-3.65c0.37-0.2,0.67-0.5,0.87-0.87l3.65-6.67C391.81,279.15,393.98,279.15,394.8,280.66z"/>
		<path class="st23" d="M392.89,310.49C392.89,310.49,392.89,310.49,392.89,310.49c-1.71,0-3.28-0.93-4.1-2.43l-3.6-6.59l-6.59-3.6
			c-1.5-0.82-2.43-2.39-2.43-4.1c0-1.71,0.93-3.28,2.43-4.1l6.59-3.6l3.6-6.59c0.82-1.5,2.39-2.43,4.1-2.43
			c1.71,0,3.28,0.93,4.1,2.43l3.6,6.59l6.59,3.6c1.5,0.82,2.43,2.39,2.43,4.1c0,1.71-0.93,3.28-2.43,4.1l-6.59,3.6l-3.6,6.59
			C396.17,309.56,394.6,310.49,392.89,310.49z M381.51,293.76l6.16,3.37c0.79,0.43,1.43,1.07,1.86,1.86l3.37,6.16l3.37-6.16
			c0.43-0.79,1.07-1.43,1.86-1.86l6.16-3.37l-6.16-3.37c-0.79-0.43-1.43-1.07-1.86-1.86l-3.37-6.16l-3.37,6.16
			c-0.43,0.79-1.07,1.43-1.86,1.86L381.51,293.76z M392.61,281.86C392.61,281.86,392.61,281.86,392.61,281.86L392.61,281.86z"/>
	</g>
	<g>
		<path class="st24" d="M102.48,96.58l3.65,6.67c0.2,0.37,0.5,0.67,0.87,0.87l6.67,3.65c1.51,0.83,1.51,2.99,0,3.82l-6.67,3.65
			c-0.37,0.2-0.67,0.5-0.87,0.87l-3.65,6.67c-0.83,1.51-2.99,1.51-3.82,0l-3.65-6.67c-0.2-0.37-0.5-0.67-0.87-0.87l-6.67-3.65
			c-1.51-0.83-1.51-2.99,0-3.82l6.67-3.65c0.37-0.2,0.67-0.5,0.87-0.87l3.65-6.67C99.48,95.07,101.65,95.07,102.48,96.58z"/>
		<path class="st23" d="M100.57,126.41c-1.71,0-3.28-0.93-4.1-2.43l-3.6-6.59l-6.59-3.6c-1.5-0.82-2.43-2.39-2.43-4.1
			c0-1.71,0.93-3.28,2.43-4.1l6.59-3.6l3.6-6.59c0.82-1.5,2.39-2.43,4.1-2.43c1.71,0,3.28,0.93,4.1,2.43l3.6,6.59l6.59,3.6
			c1.5,0.82,2.43,2.39,2.43,4.1c0,1.71-0.93,3.28-2.43,4.1l-6.59,3.6l-3.6,6.59C103.85,125.48,102.28,126.41,100.57,126.41z
			 M89.19,109.68l6.16,3.37c0.79,0.43,1.43,1.07,1.86,1.86l3.37,6.16l3.37-6.16c0.43-0.79,1.07-1.43,1.86-1.86l6.16-3.37l-6.16-3.37
			c-0.79-0.43-1.43-1.07-1.86-1.86l-3.37-6.16l-3.37,6.16c-0.43,0.79-1.07,1.43-1.86,1.86L89.19,109.68z M100.28,97.78
			C100.29,97.78,100.29,97.78,100.28,97.78L100.28,97.78z"/>
	</g>
	<g>
		<path class="st29" d="M21.52,265.78l3.65,6.67c0.2,0.37,0.5,0.67,0.87,0.87l6.67,3.65c1.51,0.83,1.51,2.99,0,3.82l-6.67,3.65
			c-0.37,0.2-0.67,0.5-0.87,0.87l-3.65,6.67c-0.83,1.51-2.99,1.51-3.82,0l-3.65-6.67c-0.2-0.37-0.5-0.67-0.87-0.87l-6.67-3.65
			c-1.51-0.83-1.51-2.99,0-3.82l6.67-3.65c0.37-0.2,0.67-0.5,0.87-0.87l3.65-6.67C18.53,264.27,20.7,264.27,21.52,265.78z"/>
		<path class="st23" d="M19.61,295.61c-1.71,0-3.28-0.93-4.1-2.43l-3.6-6.59l-6.59-3.6c-1.5-0.82-2.43-2.39-2.43-4.1
			c0-1.71,0.93-3.28,2.43-4.1l6.59-3.6l3.6-6.59c0.82-1.5,2.39-2.43,4.1-2.43s3.28,0.93,4.1,2.43l3.6,6.59l6.59,3.6
			c1.5,0.82,2.43,2.39,2.43,4.1c0,1.71-0.93,3.28-2.43,4.1l-6.59,3.6l-3.6,6.59C22.89,294.68,21.32,295.61,19.61,295.61z
			 M8.23,278.88l6.16,3.37c0.79,0.43,1.43,1.07,1.86,1.86l3.37,6.16l3.37-6.16c0.43-0.79,1.07-1.43,1.86-1.86l6.16-3.37l-6.16-3.37
			c-0.79-0.43-1.43-1.07-1.86-1.86l-3.37-6.16l-3.37,6.16c-0.43,0.79-1.07,1.43-1.86,1.86L8.23,278.88z"/>
	</g>
	<g>
		<circle class="st24" cx="113.45" cy="28.94" r="10.28"/>
		<path class="st23" d="M113.45,23.67c2.91,0,5.28,2.37,5.28,5.28c0,2.91-2.37,5.28-5.28,5.28c-2.91,0-5.28-2.37-5.28-5.28
			C108.18,26.04,110.54,23.67,113.45,23.67 M113.45,18.67c-5.68,0-10.28,4.6-10.28,10.28c0,5.68,4.6,10.28,10.28,10.28
			c5.68,0,10.28-4.6,10.28-10.28C123.73,23.27,119.13,18.67,113.45,18.67L113.45,18.67z"/>
	</g>
	<g>
		<circle class="st24" cx="392.89" cy="47.8" r="10.28"/>
		<path class="st23" d="M392.89,42.52c2.91,0,5.28,2.37,5.28,5.28c0,2.91-2.37,5.28-5.28,5.28c-2.91,0-5.28-2.37-5.28-5.28
			C387.61,44.89,389.98,42.52,392.89,42.52 M392.89,37.52c-5.68,0-10.28,4.6-10.28,10.28c0,5.68,4.6,10.28,10.28,10.28
			c5.68,0,10.28-4.6,10.28-10.28C403.17,42.12,398.57,37.52,392.89,37.52L392.89,37.52z"/>
	</g>
	<g>
		<circle class="st29" cx="309.99" cy="307.99" r="10.28"/>
		<path class="st23" d="M309.99,320.77c-7.05,0-12.78-5.73-12.78-12.78s5.73-12.78,12.78-12.78s12.78,5.73,12.78,12.78
			S317.04,320.77,309.99,320.77z M309.99,300.21c-4.29,0-7.78,3.49-7.78,7.78s3.49,7.78,7.78,7.78s7.78-3.49,7.78-7.78
			S314.28,300.21,309.99,300.21z"/>
	</g>
	<g>
		<circle class="st29" cx="21.38" cy="113.3" r="10.28"/>
		<path class="st23" d="M21.38,126.08c-7.05,0-12.78-5.73-12.78-12.78s5.73-12.78,12.78-12.78s12.78,5.73,12.78,12.78
			S28.43,126.08,21.38,126.08z M21.38,105.52c-4.29,0-7.78,3.49-7.78,7.78s3.49,7.78,7.78,7.78s7.78-3.49,7.78-7.78
			S25.67,105.52,21.38,105.52z"/>
	</g>
	<g>
		<path class="st29" d="M54.55,345.79l8.89,16.25c0.28,0.5,0.69,0.92,1.19,1.19l16.25,8.89c2.08,1.14,2.08,4.13,0,5.26l-16.25,8.89
			c-0.5,0.28-0.92,0.69-1.19,1.19l-8.89,16.25c-1.14,2.08-4.13,2.08-5.26,0l-8.89-16.25c-0.28-0.5-0.69-0.92-1.19-1.19l-16.25-8.89
			c-2.08-1.14-2.08-4.13,0-5.26l16.25-8.89c0.5-0.28,0.92-0.69,1.19-1.19l8.89-16.25C50.42,343.71,53.41,343.71,54.55,345.79z"/>
		<path class="st23" d="M51.91,407.79c-2.01,0-3.86-1.1-4.83-2.86l-8.89-16.25c-0.05-0.08-0.11-0.15-0.2-0.2l-16.25-8.89
			c-1.76-0.97-2.86-2.81-2.86-4.83s1.1-3.86,2.86-4.83L38,361.05c0.08-0.05,0.15-0.11,0.2-0.2l8.89-16.26
			c0.97-1.76,2.81-2.86,4.83-2.86c0,0,0,0,0,0c2.01,0,3.86,1.1,4.82,2.86l8.89,16.25c0.05,0.08,0.11,0.15,0.2,0.2l16.25,8.89
			c1.76,0.97,2.86,2.81,2.86,4.83s-1.1,3.86-2.86,4.83l-16.25,8.89c-0.08,0.05-0.15,0.11-0.2,0.2l-8.89,16.26
			C55.77,406.69,53.93,407.79,51.91,407.79z M51.91,346.73c-0.2,0-0.34,0.09-0.44,0.26l-8.89,16.25c-0.51,0.92-1.26,1.68-2.19,2.19
			l-16.25,8.89c-0.17,0.09-0.26,0.24-0.26,0.44s0.09,0.34,0.26,0.44l16.25,8.89c0.93,0.51,1.68,1.26,2.19,2.19l8.89,16.25
			c0.19,0.34,0.69,0.35,0.88,0l8.89-16.25c0.5-0.92,1.26-1.68,2.19-2.19l16.26-8.89c0.17-0.09,0.26-0.24,0.26-0.44
			s-0.09-0.34-0.26-0.44l-16.25-8.89c-0.92-0.51-1.68-1.26-2.19-2.19l-8.89-16.25C52.26,346.82,52.11,346.73,51.91,346.73
			L51.91,346.73z"/>
	</g>
	<g>
		<path id="XMLID_60_" class="st26" d="M250.61,134.29c-17.29,0-32.66,8.21-42.43,20.94c-9.77-12.73-25.14-20.94-42.43-20.94
			c-29.52,0-53.45,23.93-53.45,53.45c0,66.15,95.88,106.01,95.88,106.01s95.88-39.26,95.88-106.01
			C304.07,158.22,280.13,134.29,250.61,134.29z"/>
		<path class="st23" d="M208.17,296.46l-0.95-0.4c-0.24-0.1-24.55-10.3-48.5-28.52c-32.01-24.35-48.93-51.94-48.93-79.8
			c0-30.85,25.1-55.95,55.95-55.95c16.48,0,31.77,7.06,42.43,19.48c10.66-12.42,25.95-19.48,42.43-19.48
			c14.95,0,29,5.82,39.57,16.39c10.57,10.57,16.39,24.62,16.39,39.57c0,28.11-16.92,55.78-48.93,80.03
			c-23.95,18.15-48.26,28.2-48.5,28.3L208.17,296.46z M165.75,136.79c-28.1,0-50.95,22.86-50.95,50.95
			c0,60.26,83.47,98.92,93.39,103.29c4.68-2.03,25.73-11.55,46.51-27.31c21.38-16.21,46.87-42.56,46.87-75.98
			c0-13.61-5.3-26.41-14.92-36.03s-22.42-14.92-36.03-14.92c-15.97,0-30.71,7.28-40.45,19.97l-1.98,2.58l-1.98-2.58
			C196.46,144.07,181.72,136.79,165.75,136.79z"/>
	</g>
	<linearGradient id="SVGID_2_" gradientUnits="userSpaceOnUse" x1="106.9203" y1="271.3438" x2="242.1655" y2="169.9766">
		<stop  offset="0" style="stop-color:#333DC9"/>
		<stop  offset="1" style="stop-color:#333DC9;stop-opacity:0.2"/>
	</linearGradient>
	<path style="opacity:0.5;fill:url(#SVGID_2_);" d="M156.96,137.56c-23.92,4.18-42.16,25.08-42.16,50.18
		c0,60.26,83.47,98.92,93.39,103.29c4.68-2.03,25.73-11.55,46.51-27.31c5.12-3.88,10.47-8.35,15.65-13.35
		C214.11,237.82,169.8,193.7,156.96,137.56z"/>
	<linearGradient id="SVGID_4_" gradientUnits="userSpaceOnUse" x1="364.3319" y1="182.3118" x2="233.7401" y2="51.72">
		<stop  offset="0" style="stop-color:#333DC9"/>
		<stop  offset="1" style="stop-color:#333DC9;stop-opacity:0.2"/>
	</linearGradient>
	<path style="opacity:0.5;fill:url(#SVGID_4_);" d="M230.28,46.76l-0.18-15c-0.03-2.61-2.87-4.21-5.12-2.88l-35.88,21.29
		c-2.24,1.33-2.21,4.59,0.07,5.87l36.37,20.44c2.27,1.28,5.08-0.39,5.05-2.99l-0.17-14.58c73.22,10.43,129.71,73.53,129.71,149.59
		c0,3.31,2.69,6,6,6c3.31,0,6-2.69,6-6C372.13,125.75,310.21,57.22,230.28,46.76z"/>
	<linearGradient id="SVGID_6_" gradientUnits="userSpaceOnUse" x1="51.6976" y1="233.2921" x2="182.2894" y2="363.884">
		<stop  offset="0" style="stop-color:#333DC9"/>
		<stop  offset="1" style="stop-color:#333DC9;stop-opacity:0.2"/>
	</linearGradient>
	<path style="opacity:0.5;fill:url(#SVGID_6_);" d="M228.87,362.22l-36.37-20.44c-2.27-1.28-5.08,0.39-5.05,3l0.16,13.3
		c-73.21-10.43-129.69-73.53-129.69-149.58c0-3.31-2.69-6-6-6c-3.31,0-6,2.69-6,6c0,82.73,61.91,151.26,141.83,161.72l0.19,16.29
		c0.03,2.61,2.87,4.21,5.12,2.88l35.88-21.29C231.18,366.76,231.14,363.49,228.87,362.22z"/>
</g>
</svg>
