<?xml version="1.0" encoding="utf-8"?>
<!-- Generator: Adobe Illustrator 24.0.1, SVG Export Plug-In . SVG Version: 6.00 Build 0)  -->
<svg version="1.1" xmlns="http://www.w3.org/2000/svg" xmlns:xlink="http://www.w3.org/1999/xlink" x="0px" y="0px"
	 viewBox="0 0 418.05 418.05" style="enable-background:new 0 0 418.05 418.05;" xml:space="preserve">
<style type="text/css">
	.st0{clip-path:url(#SVGID_2_);}
	.st1{clip-path:url(#SVGID_4_);}
	.st2{clip-path:url(#SVGID_6_);}
	.st3{clip-path:url(#SVGID_8_);}
	.st4{clip-path:url(#SVGID_10_);}
	.st5{clip-path:url(#SVGID_12_);}
	.st6{fill:none;stroke:#231F20;stroke-miterlimit:10;}
	.st7{opacity:0;fill:url(#SVGID_13_);}
	.st8{opacity:0.3;fill:url(#SVGID_14_);}
	.st9{fill:#A3A7E6;stroke:#000769;stroke-width:5;stroke-miterlimit:10;}
	.st10{fill:#939598;stroke:#000000;stroke-width:5;stroke-miterlimit:10;}
	.st11{fill:none;stroke:#231F20;stroke-width:10;stroke-miterlimit:10;}
	.st12{fill:#231F20;stroke:#231F20;stroke-miterlimit:10;}
	.st13{fill:#D1D3D4;stroke:#000000;stroke-width:5;stroke-miterlimit:10;}
	.st14{fill:none;stroke:#D1D3D4;stroke-width:15;stroke-linecap:round;stroke-miterlimit:10;}
	.st15{fill:none;stroke:#231F20;stroke-linecap:round;stroke-miterlimit:10;}
	.st16{fill:#F1F2F2;stroke:#000000;stroke-width:5;stroke-miterlimit:10;}
	.st17{fill:#D1D3D4;}
	.st18{fill:#FFFFFF;stroke:#231F20;stroke-width:5;stroke-miterlimit:10;}
	.st19{fill:#939598;}
	.st20{fill:none;}
	.st21{fill:#333DC9;stroke:#000769;stroke-width:5;stroke-miterlimit:10;}
	.st22{fill:#E2E9FC;stroke:#000769;stroke-width:5;stroke-miterlimit:10;}
	.st23{fill:#000769;}
	.st24{fill:#A3A7E6;}
	.st25{fill:#333DC9;}
	.st26{fill:#FFFFFF;}
	.st27{opacity:0.5;fill:url(#SVGID_15_);}
	.st28{opacity:0.5;fill:url(#SVGID_16_);}
	.st29{fill:#E2E9FC;}
	.st30{fill:#FFFFFF;stroke:#000769;stroke-width:5;stroke-miterlimit:10;}
	.st31{fill:url(#SVGID_17_);}
	.st32{opacity:0.5;fill:url(#SVGID_18_);}
	.st33{opacity:0.5;fill:url(#SVGID_19_);}
	.st34{opacity:0.5;fill:url(#SVGID_20_);}
	.st35{opacity:0.5;fill:url(#SVGID_21_);}
	.st36{opacity:0.5;fill:url(#SVGID_22_);}
	.st37{opacity:0.5;fill:url(#SVGID_23_);}
	.st38{opacity:0.5;fill:url(#SVGID_24_);}
	.st39{opacity:0.5;fill:url(#SVGID_25_);}
	.st40{opacity:0.5;fill:url(#SVGID_26_);}
	.st41{fill:none;stroke:#231F20;stroke-width:5;stroke-miterlimit:10;}
	.st42{fill:#231F20;}
	.st43{opacity:0.5;fill:url(#SVGID_27_);}
	.st44{opacity:0.5;fill:url(#SVGID_28_);}
	.st45{opacity:0.5;fill:url(#SVGID_29_);}
	.st46{fill:url(#SVGID_30_);stroke:#000769;stroke-width:5;stroke-miterlimit:10;}
	.st47{opacity:0.5;fill:url(#SVGID_31_);}
	.st48{opacity:0.5;fill:url(#SVGID_32_);}
	.st49{opacity:0.5;fill:url(#SVGID_33_);}
	.st50{opacity:0.5;fill:url(#SVGID_34_);}
	.st51{opacity:0.5;fill:url(#SVGID_35_);}
	.st52{opacity:0.5;fill:url(#SVGID_36_);}
	.st53{opacity:0.5;fill:url(#SVGID_37_);}
	.st54{opacity:0.5;fill:url(#SVGID_38_);}
	.st55{opacity:0.5;fill:url(#SVGID_39_);}
	.st56{opacity:0.5;fill:url(#SVGID_40_);}
	.st57{opacity:0.5;fill:url(#SVGID_41_);}
	.st58{opacity:0.5;fill:url(#SVGID_42_);}
	.st59{opacity:0.5;fill:url(#SVGID_43_);}
	.st60{opacity:0.5;fill:url(#SVGID_44_);}
	.st61{opacity:0.5;fill:url(#SVGID_45_);}
	.st62{opacity:0.5;fill:url(#SVGID_46_);}
	.st63{fill:#FFFFFF;stroke:#231F20;stroke-miterlimit:10;}
	.st64{fill:none;stroke:#231F20;stroke-width:5;stroke-linecap:round;stroke-miterlimit:10;}
	.st65{fill:#FFFFFF;stroke:#231F20;stroke-width:5;stroke-linecap:round;stroke-miterlimit:10;}
	.st66{opacity:0.5;fill:url(#SVGID_47_);}
	.st67{opacity:0.5;fill:url(#SVGID_48_);}
	.st68{opacity:0.5;fill:url(#SVGID_49_);}
	.st69{opacity:0.8;fill:url(#SVGID_50_);}
	.st70{opacity:0.8;fill:url(#SVGID_51_);}
	.st71{opacity:0.8;fill:url(#SVGID_52_);}
	.st72{opacity:0.8;fill:url(#SVGID_53_);}
	.st73{opacity:0.8;fill:url(#SVGID_54_);}
	.st74{opacity:0.8;fill:url(#SVGID_55_);}
	.st75{fill:none;stroke:#231F20;stroke-width:16;stroke-miterlimit:10;}
	.st76{fill:none;stroke:#231F20;stroke-width:16;stroke-linecap:round;stroke-miterlimit:10;}
	.st77{fill:#FFFFFF;stroke:#000769;stroke-width:5;stroke-linecap:round;stroke-miterlimit:10;}
	.st78{fill:#231F20;stroke:#231F20;stroke-width:5;stroke-miterlimit:10;}
	.st79{opacity:0.8;fill:url(#SVGID_56_);}
	.st80{fill:none;stroke:#000769;stroke-width:16;stroke-linecap:round;stroke-miterlimit:10;}
	.st81{opacity:0.5;fill:url(#SVGID_57_);}
	.st82{opacity:0.5;fill:url(#SVGID_58_);}
	.st83{opacity:0.5;fill:url(#SVGID_59_);}
	.st84{opacity:0.5;fill:url(#SVGID_60_);}
	.st85{opacity:0.5;fill:url(#SVGID_61_);}
	.st86{fill:none;stroke:#000769;stroke-width:5;stroke-linecap:round;stroke-miterlimit:10;}
	.st87{opacity:0.5;fill:url(#SVGID_62_);}
	.st88{opacity:0.5;fill:url(#SVGID_63_);}
	.st89{opacity:0.5;fill:url(#SVGID_64_);}
	.st90{opacity:0.5;fill:url(#SVGID_65_);}
	.st91{opacity:0.5;fill:url(#SVGID_66_);}
	.st92{opacity:0.5;fill:url(#SVGID_67_);}
	.st93{opacity:0.5;fill:url(#SVGID_68_);}
	.st94{opacity:0.5;fill:url(#SVGID_69_);}
	.st95{opacity:0.5;fill:url(#SVGID_70_);}
	.st96{opacity:0.5;fill:url(#SVGID_71_);}
	.st97{opacity:0.5;fill:url(#SVGID_72_);}
	.st98{opacity:0.5;fill:url(#SVGID_73_);}
	.st99{opacity:0.5;fill:url(#SVGID_74_);}
	.st100{opacity:0.5;fill:url(#SVGID_75_);}
	.st101{opacity:0.5;fill:url(#SVGID_76_);}
	.st102{opacity:0.5;fill:url(#SVGID_77_);}
	.st103{opacity:0.5;fill:url(#SVGID_78_);}
	.st104{opacity:0.5;fill:url(#SVGID_79_);}
	.st105{opacity:0.5;fill:url(#SVGID_80_);}
	.st106{opacity:0.5;fill:url(#SVGID_81_);}
	.st107{opacity:0.5;fill:url(#SVGID_82_);}
	.st108{opacity:0.5;fill:url(#SVGID_83_);}
	.st109{opacity:0.5;fill:url(#SVGID_84_);}
	.st110{fill:none;stroke:#000769;stroke-width:7;stroke-linecap:round;stroke-miterlimit:10;}
	.st111{opacity:0.5;fill:url(#SVGID_85_);}
	.st112{fill:none;stroke:#000769;stroke-width:8;stroke-linecap:round;stroke-miterlimit:10;}
	.st113{opacity:0.5;fill:url(#SVGID_86_);}
	.st114{opacity:0.5;fill:url(#SVGID_87_);}
	.st115{opacity:0.5;fill:url(#SVGID_88_);}
	.st116{opacity:0.5;fill:url(#SVGID_89_);}
	.st117{opacity:0.5;fill:url(#SVGID_90_);}
	.st118{opacity:0.5;fill:url(#SVGID_91_);}
	.st119{opacity:0.5;fill:url(#SVGID_92_);}
	.st120{opacity:0.5;fill:url(#SVGID_93_);}
	.st121{opacity:0.5;fill:url(#SVGID_94_);}
	.st122{opacity:0.5;fill:url(#SVGID_95_);}
	.st123{fill:#FFFFFF;stroke:#000769;stroke-width:7;stroke-miterlimit:10;}
	.st124{fill:none;stroke:#000769;stroke-width:10;stroke-linecap:round;stroke-miterlimit:10;}
	.st125{fill:#E2E9FC;stroke:#000769;stroke-width:10;stroke-miterlimit:10;}
	.st126{opacity:0.5;fill:url(#SVGID_96_);}
	.st127{opacity:0.5;fill:url(#SVGID_97_);}
	.st128{opacity:0.5;fill:url(#SVGID_98_);}
	.st129{opacity:0.3;fill:url(#SVGID_99_);}
	.st130{opacity:0.3;fill:url(#SVGID_100_);}
	.st131{opacity:0.3;fill:url(#SVGID_101_);}
	.st132{opacity:0.5;fill:url(#SVGID_102_);}
	.st133{opacity:0.3;fill:url(#SVGID_103_);}
	.st134{opacity:0.5;fill:url(#SVGID_104_);}
	.st135{opacity:0;fill:url(#SVGID_105_);}
	.st136{opacity:0.5;fill:url(#SVGID_106_);}
	.st137{opacity:0.5;fill:url(#SVGID_107_);}
	.st138{opacity:0.5;fill:url(#SVGID_108_);}
	.st139{opacity:0.5;fill:url(#SVGID_109_);}
	.st140{opacity:0.5;fill:url(#SVGID_110_);}
	.st141{opacity:0.5;fill:url(#SVGID_111_);}
	.st142{fill:none;stroke:#000769;stroke-width:12;stroke-linecap:round;stroke-miterlimit:10;}
	.st143{opacity:0.5;fill:url(#SVGID_112_);}
	.st144{opacity:0.5;fill:url(#SVGID_113_);}
	.st145{opacity:0.5;fill:url(#SVGID_114_);}
	.st146{opacity:0.5;fill:url(#SVGID_115_);}
	.st147{opacity:0.5;fill:url(#SVGID_116_);}
	.st148{opacity:0.5;fill:url(#SVGID_117_);}
	.st149{opacity:0.5;fill:url(#SVGID_118_);}
	.st150{opacity:0.5;fill:url(#SVGID_119_);}
	.st151{opacity:0.5;fill:url(#SVGID_120_);}
	.st152{opacity:0.5;fill:url(#SVGID_121_);}
	.st153{opacity:0.8;fill:url(#SVGID_122_);}
	.st154{opacity:0.5;fill:url(#SVGID_123_);}
	.st155{opacity:0.5;fill:url(#SVGID_124_);}
	.st156{opacity:0.5;fill:url(#SVGID_125_);}
	.st157{opacity:0.5;fill:url(#SVGID_126_);}
	.st158{opacity:0.5;fill:url(#SVGID_127_);}
	.st159{opacity:0.5;fill:url(#SVGID_128_);}
	.st160{opacity:0.5;fill:url(#SVGID_129_);}
	.st161{opacity:0.5;fill:url(#SVGID_130_);}
	.st162{opacity:0.5;fill:url(#SVGID_131_);}
	.st163{opacity:0.5;fill:url(#SVGID_132_);}
	.st164{opacity:0.5;fill:#FFFFFF;stroke:#000769;stroke-width:5;stroke-linecap:round;stroke-miterlimit:10;}
	.st165{opacity:0.5;fill:url(#SVGID_133_);}
	.st166{opacity:0.5;fill:url(#SVGID_134_);}
	.st167{opacity:0.5;fill:url(#SVGID_135_);}
	.st168{opacity:0.5;fill:url(#SVGID_136_);}
	.st169{opacity:0.5;fill:url(#SVGID_137_);}
	.st170{opacity:0.5;fill:url(#SVGID_138_);}
	.st171{opacity:0.5;fill:url(#SVGID_139_);}
	.st172{opacity:0.5;fill:url(#SVGID_140_);}
	.st173{opacity:0.5;fill:url(#SVGID_141_);}
	.st174{opacity:0.5;fill:url(#SVGID_142_);}
	.st175{opacity:0.5;fill:url(#SVGID_143_);}
	.st176{opacity:0.5;}
	.st177{opacity:0.5;fill:url(#SVGID_144_);}
	.st178{opacity:0.5;fill:url(#SVGID_145_);}
	.st179{opacity:0.5;fill:url(#SVGID_146_);}
	.st180{opacity:0.5;fill:url(#SVGID_147_);}
	.st181{opacity:0.5;fill:url(#SVGID_148_);}
	.st182{opacity:0.8;fill:url(#SVGID_149_);}
	.st183{opacity:0.5;fill:url(#SVGID_150_);}
	.st184{opacity:0.5;fill:url(#SVGID_151_);}
	.st185{opacity:0.5;fill:url(#SVGID_152_);}
	.st186{opacity:0.5;fill:url(#SVGID_153_);}
	.st187{opacity:0.5;fill:url(#SVGID_154_);}
	.st188{opacity:0.5;fill:url(#SVGID_155_);}
	.st189{opacity:0.5;fill:url(#SVGID_156_);}
	.st190{opacity:0.5;fill:url(#SVGID_157_);}
	.st191{opacity:0.5;fill:url(#SVGID_158_);}
	.st192{opacity:0.5;fill:url(#SVGID_159_);}
</style>
<g id="Sketch">
</g>
<g id="Layer_2">
	<g>
		<circle class="st29" cx="388.6" cy="357" r="10.77"/>
		<path class="st23" d="M388.6,370.27c-7.32,0-13.27-5.95-13.27-13.27s5.95-13.27,13.27-13.27s13.27,5.95,13.27,13.27
			S395.92,370.27,388.6,370.27z M388.6,348.72c-4.56,0-8.27,3.71-8.27,8.27c0,4.56,3.71,8.27,8.27,8.27s8.27-3.71,8.27-8.27
			C396.88,352.43,393.16,348.72,388.6,348.72z"/>
	</g>
	<g>
		<circle class="st29" cx="22.15" cy="147.82" r="10.77"/>
		<path class="st23" d="M22.15,161.09c-7.32,0-13.27-5.95-13.27-13.27s5.95-13.27,13.27-13.27s13.27,5.95,13.27,13.27
			S29.47,161.09,22.15,161.09z M22.15,139.54c-4.56,0-8.27,3.71-8.27,8.27c0,4.56,3.71,8.27,8.27,8.27s8.27-3.71,8.27-8.27
			C30.43,143.25,26.71,139.54,22.15,139.54z"/>
	</g>
	<g>
		<path class="st29" d="M300.5,3.63l3.65,6.67c0.2,0.37,0.5,0.67,0.87,0.87l6.67,3.65c1.51,0.83,1.51,2.99,0,3.82l-6.67,3.65
			c-0.37,0.2-0.67,0.5-0.87,0.87l-3.65,6.67c-0.83,1.51-2.99,1.51-3.82,0l-3.65-6.67c-0.2-0.37-0.5-0.67-0.87-0.87l-6.67-3.65
			c-1.51-0.83-1.51-2.99,0-3.82l6.67-3.65c0.37-0.2,0.67-0.5,0.87-0.87l3.65-6.67C297.51,2.12,299.67,2.12,300.5,3.63z"/>
		<path class="st23" d="M298.59,33.46c-1.71,0-3.28-0.93-4.1-2.43l-3.6-6.59l-6.59-3.6c-1.5-0.82-2.43-2.39-2.43-4.1
			c0-1.71,0.93-3.28,2.43-4.1l6.59-3.6l3.6-6.59c0.82-1.5,2.39-2.43,4.1-2.43c1.71,0,3.28,0.93,4.1,2.43v0l3.6,6.59l6.59,3.6
			c1.5,0.82,2.43,2.39,2.43,4.1c0,1.71-0.93,3.28-2.43,4.1l-6.59,3.6l-3.6,6.59C301.87,32.53,300.3,33.46,298.59,33.46z
			 M287.21,16.73l6.16,3.37c0.79,0.43,1.43,1.07,1.86,1.86l3.37,6.16l3.37-6.16c0.43-0.79,1.07-1.43,1.86-1.86l6.16-3.37l-6.16-3.37
			c-0.79-0.43-1.43-1.07-1.86-1.86l-3.37-6.16l-3.37,6.16c-0.43,0.79-1.07,1.43-1.86,1.86L287.21,16.73z M298.31,4.83
			C298.31,4.83,298.31,4.83,298.31,4.83L298.31,4.83L298.31,4.83z"/>
	</g>
	<g>
		<circle class="st24" cx="24.04" cy="346.93" r="10.28"/>
		<path class="st23" d="M24.04,341.65c2.91,0,5.28,2.37,5.28,5.28c0,2.91-2.37,5.28-5.28,5.28s-5.28-2.37-5.28-5.28
			C18.77,344.02,21.13,341.65,24.04,341.65 M24.04,336.65c-5.68,0-10.28,4.6-10.28,10.28c0,5.68,4.6,10.28,10.28,10.28
			s10.28-4.6,10.28-10.28C34.32,341.25,29.72,336.65,24.04,336.65L24.04,336.65z"/>
	</g>
	<g>
		<circle class="st24" cx="407.93" cy="208.27" r="10.28"/>
		<path class="st23" d="M407.93,203c2.91,0,5.28,2.37,5.28,5.28c0,2.91-2.37,5.28-5.28,5.28c-2.91,0-5.28-2.37-5.28-5.28
			C402.66,205.37,405.02,203,407.93,203 M407.93,198c-5.68,0-10.28,4.6-10.28,10.28c0,5.68,4.6,10.28,10.28,10.28
			c5.68,0,10.28-4.6,10.28-10.28C418.21,202.6,413.61,198,407.93,198L407.93,198z"/>
	</g>
	<g>
		<circle class="st24" cx="254.31" cy="90.03" r="10.28"/>
		<path class="st23" d="M254.31,84.75c2.91,0,5.28,2.37,5.28,5.28c0,2.91-2.37,5.28-5.28,5.28c-2.91,0-5.28-2.37-5.28-5.28
			C249.03,87.12,251.4,84.75,254.31,84.75 M254.31,79.75c-5.68,0-10.28,4.6-10.28,10.28c0,5.68,4.6,10.28,10.28,10.28
			c5.68,0,10.28-4.6,10.28-10.28C264.58,84.35,259.98,79.75,254.31,79.75L254.31,79.75z"/>
	</g>
	<g>
		<path class="st29" d="M177.4,21.91l8.89,16.25c0.28,0.5,0.69,0.92,1.19,1.19l16.25,8.89c2.08,1.14,2.08,4.13,0,5.26l-16.25,8.89
			c-0.5,0.28-0.92,0.69-1.19,1.19l-8.89,16.25c-1.14,2.08-4.13,2.08-5.26,0l-8.89-16.25c-0.28-0.5-0.69-0.92-1.19-1.19l-16.25-8.89
			c-2.08-1.14-2.08-4.13,0-5.26l16.25-8.89c0.5-0.28,0.92-0.69,1.19-1.19l8.89-16.25C173.27,19.83,176.26,19.83,177.4,21.91z"/>
		<path class="st23" d="M174.77,83.91c-2.01,0-3.86-1.1-4.83-2.86l-8.89-16.25c-0.05-0.08-0.11-0.15-0.2-0.2l-16.25-8.89
			c-1.76-0.97-2.86-2.81-2.86-4.83s1.1-3.86,2.86-4.83l16.25-8.89c0.08-0.05,0.15-0.11,0.2-0.2l8.89-16.25
			c0.97-1.76,2.81-2.86,4.83-2.86s3.86,1.1,4.83,2.86l8.89,16.25c0.05,0.08,0.11,0.15,0.2,0.2l16.25,8.89
			c1.76,0.97,2.86,2.81,2.86,4.83s-1.1,3.86-2.86,4.83l-16.25,8.89c-0.08,0.05-0.15,0.11-0.2,0.2l-8.89,16.25
			C178.63,82.81,176.78,83.91,174.77,83.91z M174.77,22.85c-0.2,0-0.34,0.09-0.44,0.26l-8.89,16.25c-0.51,0.92-1.26,1.68-2.19,2.19
			L147,50.44c-0.17,0.09-0.26,0.24-0.26,0.44s0.09,0.34,0.26,0.44l16.25,8.89c0.92,0.51,1.68,1.26,2.19,2.19l8.89,16.25
			c0.19,0.34,0.69,0.34,0.88,0l8.89-16.25c0.51-0.92,1.26-1.68,2.19-2.19l16.25-8.89c0.17-0.09,0.26-0.24,0.26-0.44
			s-0.09-0.34-0.26-0.44l-16.25-8.89c-0.92-0.51-1.68-1.26-2.19-2.19l-8.89-16.25C175.11,22.94,174.96,22.85,174.77,22.85z"/>
	</g>
	<g>
		<path class="st29" d="M24.66,3.54l5.94,10.86c0.18,0.34,0.46,0.61,0.8,0.8l10.86,5.94c1.39,0.76,1.39,2.76,0,3.52L31.4,30.6
			c-0.34,0.18-0.61,0.46-0.8,0.8l-5.94,10.86c-0.76,1.39-2.76,1.39-3.52,0L15.2,31.4c-0.18-0.34-0.46-0.61-0.8-0.8L3.54,24.66
			c-1.39-0.76-1.39-2.76,0-3.52l10.86-5.94c0.34-0.18,0.61-0.46,0.8-0.8l5.94-10.86C21.9,2.15,23.9,2.15,24.66,3.54z"/>
		<path class="st23" d="M22.9,45.81c-1.65,0-3.16-0.9-3.95-2.34l-5.87-10.74L2.34,26.86C0.9,26.06,0,24.55,0,22.9
			s0.9-3.16,2.34-3.95l10.74-5.87l5.87-10.74C19.74,0.9,21.26,0,22.9,0s3.16,0.9,3.95,2.34l5.87,10.74l10.74,5.87
			c1.45,0.79,2.34,2.3,2.34,3.95s-0.9,3.16-2.34,3.95l-10.74,5.87l-5.87,10.74C26.06,44.91,24.55,45.81,22.9,45.81z M5.54,22.9
			l10.07,5.51c0.76,0.41,1.38,1.03,1.79,1.79l5.51,10.07l5.51-10.07c0.41-0.76,1.03-1.38,1.79-1.79l10.07-5.51L30.2,17.4
			c-0.76-0.41-1.38-1.03-1.79-1.79L22.9,5.54L17.4,15.61c-0.41,0.76-1.03,1.38-1.79,1.79L5.54,22.9z M22.47,4.74
			C22.47,4.74,22.47,4.74,22.47,4.74L22.47,4.74z"/>
	</g>
	<g>
		<path class="st29" d="M364.91,36.26l5.54,10.12c0.3,0.55,0.76,1.01,1.31,1.31l10.12,5.54c2.29,1.25,2.29,4.54,0,5.79l-10.12,5.54
			c-0.55,0.3-1.01,0.76-1.31,1.31l-5.54,10.12c-1.25,2.29-4.54,2.29-5.79,0l-5.54-10.12c-0.3-0.55-0.76-1.01-1.31-1.31l-10.12-5.54
			c-2.29-1.25-2.29-4.54,0-5.79l10.12-5.54c0.55-0.3,1.01-0.76,1.31-1.31l5.54-10.12C360.36,33.97,363.65,33.97,364.91,36.26z"/>
		<path class="st23" d="M362.01,80.21C362.01,80.21,362.01,80.21,362.01,80.21c-2.12,0-4.07-1.16-5.09-3.02l-5.54-10.12
			c-0.07-0.14-0.18-0.25-0.32-0.32l-10.12-5.54c-1.86-1.02-3.02-2.97-3.02-5.09s1.16-4.07,3.02-5.09l10.12-5.54
			c0.13-0.07,0.25-0.18,0.32-0.32l5.54-10.12c1.02-1.86,2.97-3.02,5.09-3.02c2.12,0,4.07,1.16,5.09,3.02v0l5.54,10.12
			c0.07,0.13,0.18,0.24,0.32,0.32l10.12,5.54c1.86,1.02,3.02,2.97,3.02,5.09s-1.16,4.07-3.02,5.09l-10.12,5.54
			c-0.14,0.07-0.25,0.18-0.32,0.32l-5.54,10.12C366.08,79.06,364.13,80.21,362.01,80.21z M362.01,37.04c-0.18,0-0.51,0.05-0.7,0.42
			l-5.54,10.12c-0.53,0.98-1.33,1.77-2.31,2.31l-10.12,5.54c-0.36,0.2-0.42,0.53-0.42,0.7s0.05,0.51,0.42,0.7l10.12,5.54
			c0.98,0.53,1.77,1.33,2.31,2.31l5.54,10.12c0.2,0.36,0.53,0.42,0.7,0.42c0.18,0,0.51-0.05,0.7-0.42l5.54-10.12
			c0.53-0.98,1.33-1.77,2.31-2.31l10.12-5.54c0.36-0.2,0.42-0.53,0.42-0.7s-0.05-0.51-0.42-0.7l-10.12-5.54
			c-0.98-0.53-1.77-1.33-2.31-2.31l-5.54-10.12v0C362.51,37.09,362.19,37.04,362.01,37.04z"/>
	</g>
	<g>
		<path class="st29" d="M54.72,229.43l9.26,16.93c0.51,0.93,1.27,1.69,2.2,2.2l16.93,9.26c3.83,2.1,3.83,7.6,0,9.69l-16.93,9.26
			c-0.93,0.51-1.69,1.27-2.2,2.2l-9.26,16.93c-2.1,3.83-7.6,3.83-9.69,0l-9.26-16.93c-0.51-0.93-1.27-1.69-2.2-2.2l-16.93-9.26
			c-3.83-2.1-3.83-7.6,0-9.69l16.93-9.26c0.93-0.51,1.69-1.27,2.2-2.2l9.26-16.93C47.12,225.6,52.63,225.6,54.72,229.43z"/>
		<path class="st23" d="M49.88,301.28C49.87,301.28,49.88,301.28,49.88,301.28c-2.98,0-5.61-1.56-7.04-4.17l-9.26-16.93
			c-0.28-0.51-0.69-0.92-1.2-1.2l-16.93-9.26c-2.61-1.43-4.17-4.06-4.17-7.04s1.56-5.61,4.17-7.04l16.93-9.26
			c0.51-0.28,0.92-0.69,1.2-1.2l9.26-16.93c1.43-2.61,4.06-4.17,7.04-4.17c2.98,0,5.61,1.56,7.04,4.17v0l9.26,16.93
			c0.28,0.51,0.69,0.92,1.2,1.2l16.93,9.26c2.61,1.43,4.17,4.06,4.17,7.04s-1.56,5.61-4.17,7.04l-16.93,9.26
			c-0.51,0.28-0.92,0.69-1.2,1.2l-9.26,16.93C55.49,299.72,52.85,301.28,49.88,301.28z M49.88,229.06c-1.12,0-2.11,0.59-2.65,1.57
			l-9.26,16.93c-0.74,1.35-1.84,2.45-3.19,3.19l-16.93,9.26c-0.99,0.54-1.57,1.53-1.57,2.65s0.59,2.11,1.57,2.65l16.93,9.26
			c1.35,0.74,2.45,1.84,3.19,3.19l9.26,16.93c0.54,0.98,1.53,1.57,2.65,1.57c1.12,0,2.11-0.59,2.65-1.57l9.26-16.93
			c0.74-1.35,1.84-2.45,3.19-3.19l16.93-9.26c0.99-0.54,1.57-1.53,1.57-2.65s-0.59-2.11-1.57-2.65l-16.93-9.26
			c-1.35-0.74-2.45-1.84-3.19-3.19l-9.26-16.93C51.99,229.65,51,229.06,49.88,229.06z"/>
	</g>
	<g>
		<path class="st29" d="M349.66,273.27l6.12,11.19c0.19,0.35,0.47,0.63,0.82,0.82l11.19,6.12c1.43,0.78,1.43,2.84,0,3.63
			l-11.19,6.12c-0.35,0.19-0.63,0.47-0.82,0.82l-6.12,11.19c-0.78,1.43-2.84,1.43-3.63,0l-6.12-11.19
			c-0.19-0.35-0.47-0.63-0.82-0.82l-11.19-6.12c-1.43-0.78-1.43-2.84,0-3.63l11.19-6.12c0.35-0.19,0.63-0.47,0.82-0.82l6.12-11.19
			C346.82,271.84,348.88,271.84,349.66,273.27z"/>
		<path class="st23" d="M347.85,316.75c-1.67,0-3.2-0.91-4.01-2.38l-6.06-11.08l-11.08-6.06c-1.46-0.8-2.38-2.34-2.38-4.01
			c0-1.67,0.91-3.2,2.38-4.01l11.08-6.06l6.06-11.08c0.8-1.47,2.34-2.38,4.01-2.38s3.2,0.91,4.01,2.38l6.06,11.08l11.08,6.06
			c1.46,0.8,2.38,2.34,2.38,4.01c0,1.67-0.91,3.2-2.38,4.01l-11.08,6.06l-6.06,11.08C351.06,315.84,349.52,316.75,347.85,316.75z
			 M329.8,293.22l10.5,5.74c0.77,0.42,1.4,1.05,1.82,1.82l5.74,10.5l5.74-10.5c0.42-0.77,1.05-1.4,1.82-1.82l10.5-5.74l-10.5-5.74
			c-0.77-0.42-1.39-1.05-1.81-1.81l-5.74-10.5l-5.74,10.5c-0.42,0.77-1.05,1.4-1.82,1.82L329.8,293.22z M347.47,274.47
			C347.47,274.47,347.47,274.47,347.47,274.47L347.47,274.47z"/>
	</g>
	<g>
		<path class="st29" d="M37.74,75.17c9.58,73.27,99.83,150.97,143.87,97.54C226.16,118.66,119.52,75.17,37.74,75.17z"/>
		<path class="st23" d="M43.61,80.24c28.15,0.71,58.66,6.4,84.64,15.87c29.19,10.64,49.12,24.66,56.11,39.48
			c5.23,11.09,3.07,22.19-6.61,33.94c-8.69,10.54-19.64,15.89-32.56,15.89c-19.81,0-43.81-13.05-64.2-34.92
			C61.57,129.68,48.16,104.38,43.61,80.24 M37.74,75.17c7.36,56.31,62.39,115.24,107.45,115.24c13.57,0,26.23-5.34,36.42-17.71
			C226.16,118.66,119.52,75.17,37.74,75.17L37.74,75.17z"/>
	</g>
	<g>
		<path class="st29" d="M380,120.28c-55.44-20.48-171.34,35.53-128,78.88C293.02,240.19,362.11,185.71,380,120.28z"/>
		<path class="st23" d="M352.47,120.93c7.92,0,15.09,0.88,21.37,2.62c-6.75,21.45-19.53,42.5-35.55,58.37
			c-16.98,16.81-36.27,26.46-52.94,26.46c-11.32,0-21.35-4.29-29.8-12.74c-7.97-7.97-9.99-16.3-6.19-25.47
			C259.65,145.31,310.72,120.93,352.47,120.93 M352.47,115.93c-58.41,0-137.46,46.24-100.46,83.24c9.86,9.86,21.34,14.2,33.34,14.2
			c37.93,0,81.07-43.38,94.66-93.09C371.89,117.28,362.48,115.93,352.47,115.93L352.47,115.93z"/>
	</g>
	<linearGradient id="SVGID_2_" gradientUnits="userSpaceOnUse" x1="242.4932" y1="165.5949" x2="379.9878" y2="165.5949">
		<stop  offset="0" style="stop-color:#333DC9"/>
		<stop  offset="1" style="stop-color:#333DC9;stop-opacity:0.2"/>
	</linearGradient>
	<path style="opacity:0.5;fill:url(#SVGID_2_);" d="M370.9,122.82c-5.47,1.63-10.88,3.44-16.21,5.42c0.15-0.05,0.3-0.1,0.46-0.15
		c-20,8.47-38.93,19.21-55.91,32.39c-14.74,11.33-27.92,24.54-39.16,39.16c7.43,5.78,15.89,8.72,25.25,8.72
		c16.67,0,35.96-9.64,52.94-26.46c16.02-15.86,28.8-36.91,35.55-58.37C372.87,123.28,371.89,123.05,370.9,122.82z"/>
	<path class="st24" d="M121.15,254.99c20.1,14.44,85.84,3.76,79.4-20.51C192.09,202.62,131.27,224.54,121.15,254.99z"/>
	<path class="st24" d="M280.53,280.64c0.03-34.44-35.27-50.14-46.38-35.73C224.19,257.86,248.81,287.7,280.53,280.64z"/>
	<path class="st23" d="M202.97,233.84c-2.89-10.87-11.59-17.07-24.5-17.47c-10.93-0.34-23.85,3.52-35.44,10.57
		c-12.27,7.47-20.88,17.15-24.25,27.26l-0.58,1.75l1.49,1.07c6.61,4.75,17.88,7.01,30.08,7.01c16.03,0,33.63-3.92,44.29-11.26
		C203.79,246.06,204.27,238.77,202.97,233.84z M178.31,221.37c5.4,0.17,11.87,1.59,16.12,6.54c-0.92-0.35-1.86-0.64-2.8-0.88
		c-3.85-1-7.77-1.17-11.57-0.95c-7.63,0.48-14.92,2.5-21.86,5.15c-6.94,2.68-13.59,6.01-19.85,9.95c-4.35,2.75-8.57,5.77-12.42,9.17
		C135.41,233.28,160.7,220.83,178.31,221.37z M191.22,248.66c-16.11,11.1-52.39,13.75-67.03,5.32c0.39-0.95,0.83-1.89,1.32-2.81
		c4.21-3.39,8.78-6.3,13.49-8.91c6.4-3.53,13.14-6.44,20.05-8.67c6.9-2.2,14.07-3.72,21.15-3.76c3.53-0.01,7.04,0.37,10.26,1.41
		c2.98,0.95,5.68,2.46,7.82,4.52C199.22,240.43,196.86,244.77,191.22,248.66z"/>
	<path class="st23" d="M255.21,238.66c-9.47-3.23-18.3-1.42-23.03,4.73c-4.13,5.36-3.61,13.24,1.38,21.08
		c6.56,10.31,20.39,19.75,37.32,19.75c3.29,0,6.71-0.36,10.2-1.14l1.96-0.44l0-2C283.06,258.2,269.08,243.39,255.21,238.66z
		 M253.6,243.39c11.22,3.83,22.52,15.28,24.21,32.67c-4.42-7.03-9.75-13.54-16.01-19.17c-3.81-3.4-7.98-6.47-12.53-8.97
		c-3.13-1.72-6.45-3.16-9.91-4.24c1.91-1.07,4.21-1.63,6.78-1.63C248.44,242.05,250.96,242.49,253.6,243.39z M237.77,261.78
		c-3.42-5.38-4.26-10.55-2.37-14.17c4.16,0.65,8.26,1.92,12.19,3.67c4.45,1.98,8.67,4.57,12.62,7.54
		c6.69,5.07,12.63,11.23,17.68,18.07c0.04,0.56,0.08,1.12,0.1,1.7C259.75,281.77,244.46,272.29,237.77,261.78z"/>
	<linearGradient id="SVGID_4_" gradientUnits="userSpaceOnUse" x1="50.8689" y1="158.0765" x2="187.8725" y2="86.9513">
		<stop  offset="0" style="stop-color:#333DC9"/>
		<stop  offset="1" style="stop-color:#333DC9;stop-opacity:0.2"/>
	</linearGradient>
	<path style="opacity:0.5;fill:url(#SVGID_4_);" d="M80.99,150.5c20.39,21.86,44.4,34.92,64.2,34.92c11.47,0,21.39-4.22,29.55-12.55
		c-4.18-6.43-8.82-12.59-13.85-18.42c-7.84-9.23-16.67-17.65-26.16-25.3c-4.74-3.83-9.62-7.52-14.64-11.02
		c-5.03-3.49-10.21-6.76-15.45-9.96c-10.48-6.34-21.39-12.01-32.49-17.34c-8.52-3.6-17.51-7.11-26.98-10.54
		c-0.52-0.02-1.04-0.04-1.56-0.06C48.17,104.38,61.57,129.69,80.99,150.5z"/>
	<path class="st23" d="M344.83,150.57c-1.19-0.96-2.49-1.78-3.85-2.49c-2.71-1.41-5.61-2.39-8.57-3.06
		c-2.9-0.65-5.87-1.02-8.87-1.03c10.12-5.99,20.71-11.29,31.61-15.91c-11.79,3.72-23.3,8.46-34.36,14.14
		c0.31-0.92,0.53-1.85,0.67-2.78c0.29-1.81,0.3-3.64,0.1-5.4c-0.2-1.76-0.62-3.49-1.32-5.09c-0.07,1.73-0.3,3.41-0.59,5.03
		c-0.31,1.62-0.77,3.17-1.33,4.64c-0.55,1.47-1.3,2.81-2.15,4.02c-0.81,1.25-1.92,2.24-2.99,3.2l-1.45,1.31
		c-5.19,2.98-10.28,6.16-15.23,9.56c-0.63,0.43-1.26,0.88-1.89,1.32c0.19-1.89,0.17-3.76-0.04-5.58c-0.26-2.21-0.77-4.37-1.52-6.44
		c-0.35-1.04-0.82-2.05-1.36-3.01c-0.55-0.93-1.16-1.94-2.13-2.48c0.68,0.83,0.89,1.88,1.16,2.87c0.11,0.51,0.23,1.01,0.29,1.52
		c0.08,0.51,0.17,1.01,0.21,1.53c0.22,2.05,0.24,4.1,0.15,6.12c-0.12,2.01-0.41,3.99-0.92,5.83c-0.38,1.38-0.9,2.68-1.56,3.81
		c-6,4.54-11.76,9.43-17.26,14.59c0.01-0.78,0-1.55-0.07-2.32c-0.18-2.29-0.73-4.51-1.56-6.59c-0.41-1.04-0.89-2.05-1.47-3
		c-0.55-0.95-1.21-1.88-2.03-2.61c0.98,1.93,1.38,4.04,1.72,6.09c0.3,2.06,0.35,4.13,0.19,6.13c-0.17,2.01-0.58,3.95-1.21,5.8
		c-0.16,0.44-0.33,0.86-0.52,1.29c-6.39,6.42-12.34,13.31-17.81,20.56c-6.64,8.83-12.64,18.18-17.76,28
		c-5.11,9.82-9.48,20.04-13.04,30.53c-1.23,3.61-2.36,7.26-3.41,10.93c-0.53-6.73-1.25-13.46-2.23-20.17
		c-1.82-12.42-4.66-24.74-8.56-36.73c-3.95-11.98-9.01-23.64-15.43-34.52c-5.6-9.57-12.14-18.57-19.42-26.88
		c0.01-0.12,0.01-0.24,0.02-0.36c0.09-1.04,0.29-2.09,0.51-3.14c0.49-2.1,1.2-4.2,2.09-6.25c0.91-2.04,1.91-4.08,3.06-6.05
		c1.13-1.99,2.36-3.93,3.69-5.84c-1.82,1.46-3.47,3.13-5.03,4.88c-1.52,1.78-2.98,3.66-4.22,5.7c-1.25,2.03-2.36,4.19-3.17,6.52
		c-0.1,0.28-0.18,0.58-0.27,0.87c-6.59-7.04-13.73-13.52-21.24-19.48c-0.17-1.57-0.21-3.18-0.12-4.8c0.11-2.18,0.41-4.38,0.87-6.56
		c0.49-2.17,1.08-4.35,1.89-6.47c0.4-1.05,0.82-2.11,1.33-3.13c0.51-1.02,1.05-2.02,1.81-2.91c-1.96,1.32-3.38,3.31-4.66,5.29
		c-1.25,2.02-2.32,4.15-3.15,6.4c-0.42,1.12-0.8,2.26-1.13,3.42c-0.31,1.17-0.56,2.35-0.76,3.55c-0.11,0.66-0.19,1.32-0.25,1.99
		c-0.82-0.62-1.64-1.24-2.47-1.85c-8.25-5.99-16.86-11.38-25.74-16.25l-0.6-0.9c-0.86-1.29-1.72-2.59-2.37-3.99
		c-0.68-1.38-1.28-2.82-1.67-4.33c-0.4-1.5-0.66-3.06-0.72-4.67c-0.01-1.59,0.06-3.26,0.77-4.84c-0.7,0.53-1.26,1.28-1.68,2.06
		c-0.24,0.39-0.4,0.8-0.6,1.22c-0.14,0.42-0.32,0.85-0.43,1.29c-0.52,1.74-0.71,3.59-0.63,5.43c0.06,1.71,0.42,3.38,0.91,5.01
		C94.36,99.67,83.3,94.92,72.07,90.8c10.32,4.95,20.47,10.21,30.28,16.02c-0.78,0.07-1.56,0.16-2.34,0.27
		c-3.19,0.45-6.31,1.29-9.28,2.45c-2.97,1.17-5.8,2.63-8.42,4.39c-2.6,1.78-5.07,3.77-7.07,6.19c2.81-1.36,5.58-2.58,8.4-3.66
		c2.8-1.08,5.63-2.01,8.46-2.77c5.68-1.51,11.45-2.29,17.23-2.06l0.96,0.04c3.32,2.09,6.6,4.23,9.82,6.46
		c4.86,3.38,9.57,6.94,14.17,10.64c-1.89-0.06-3.79,0-5.67,0.18c-4.77,0.44-9.45,1.53-13.9,3.13c-4.45,1.6-8.7,3.66-12.66,6.14
		c-0.99,0.61-1.97,1.25-2.94,1.9c-0.96,0.67-1.89,1.37-2.81,2.07c-1.84,1.42-3.61,2.94-5.21,4.62c4.08-2.18,8.21-4.11,12.36-5.89
		c4.17-1.74,8.38-3.29,12.66-4.49c4.27-1.21,8.6-2.12,12.95-2.51c3.86-0.38,7.73-0.32,11.56,0.15c6.7,5.81,13.01,12.03,18.8,18.68
		c-2.29-0.14-4.59-0.16-6.87-0.01c-4.92,0.33-9.76,1.27-14.42,2.67c-4.66,1.42-9.16,3.23-13.44,5.46c-1.07,0.55-2.13,1.13-3.18,1.71
		c-1.04,0.6-2.07,1.24-3.08,1.87c-2.02,1.29-4,2.67-5.83,4.22c4.43-1.82,8.86-3.44,13.3-4.97c4.45-1.48,8.92-2.81,13.42-3.86
		c4.5-1.03,9.03-1.82,13.57-2.15c2.27-0.16,4.54-0.2,6.79-0.13c1.38,0.05,2.75,0.17,4.12,0.33c6.71,8.19,12.65,16.98,17.66,26.26
		c5.71,10.6,10.39,21.74,13.91,33.26c3.53,11.53,5.9,23.4,7.58,35.39c1.66,12,2.51,24.14,2.86,36.33c0.17,6.1,0.21,12.2,0.17,18.32
		c-0.04,6.12-0.1,12.25-0.25,18.38l9.88,0.42c0.61-10.65,1.77-21.26,3.65-31.73c0.92-5.24,2.04-10.44,3.31-15.6
		c1.25-5.17,2.67-10.29,4.28-15.36c3.21-10.13,7.19-20.01,11.91-29.54c4.72-9.52,10.08-18.74,16.22-27.45
		c4.73-6.7,9.86-13.13,15.35-19.26c2.38-1.04,4.99-1.69,7.67-2.05c3.67-0.49,7.47-0.53,11.27-0.23c3.8,0.31,7.62,0.9,11.38,1.82
		c1.88,0.46,3.75,0.98,5.58,1.66c1.83,0.67,3.62,1.45,5.28,2.59c-1.18-1.65-2.8-2.98-4.5-4.12c-1.71-1.13-3.52-2.11-5.4-2.94
		c-3.76-1.65-7.73-2.79-11.8-3.45c-4.08-0.65-8.27-0.82-12.48-0.27c-0.17,0.02-0.35,0.06-0.52,0.08c4.93-5.03,10.1-9.83,15.52-14.36
		c2.56-1.36,5.51-2.12,8.56-2.47c3.44-0.39,7.02-0.3,10.6,0.08c3.58,0.37,7.18,1.03,10.75,1.87c1.78,0.43,3.58,0.89,5.34,1.46
		c1.76,0.57,3.52,1.16,5.19,2.06c-1.25-1.46-2.86-2.57-4.48-3.6c-1.64-1-3.34-1.91-5.1-2.69c-3.51-1.57-7.21-2.75-11.04-3.49
		c-3.34-0.64-6.79-0.98-10.28-0.77c3.75-2.83,7.6-5.54,11.52-8.13l2.02-0.49c2.53-0.61,5.25-0.86,7.99-0.91
		c2.74-0.03,5.52,0.11,8.29,0.41c2.77,0.31,5.54,0.76,8.27,1.42c2.73,0.69,5.41,1.53,7.91,3.15
		C347.08,152.69,346.04,151.49,344.83,150.57z"/>
	<path class="st29" d="M333.79,366.61c-10.89-20.89-32.73-35.15-57.91-35.15c-8.18,0-16,1.51-23.21,4.25
		c-16.45-16.08-38.96-26-63.78-26c-31.44,0-59.16,15.9-75.58,40.09c-0.57-0.01-1.14-0.02-1.71-0.02c-38.9,0-70.78,30.08-73.65,68.25
		h342.63c0.03-0.73,0.06-1.45,0.06-2.19C380.64,389.45,359.88,367.9,333.79,366.61z"/>
	<path class="st23" d="M188.88,314.72c22.66,0,44.07,8.73,60.28,24.57l2.29,2.23l2.99-1.14c6.84-2.61,14.06-3.93,21.44-3.93
		c22.55,0,43.05,12.44,53.48,32.46l1.33,2.54l2.86,0.14c22.66,1.11,40.61,19.07,42,41.44h-332c2.35-15.2,9.73-29.17,21.12-39.78
		c12.78-11.91,29.45-18.47,46.93-18.47c0.53,0,1.07,0.01,1.6,0.02l2.72,0.06l1.53-2.25C133.54,328.89,160.25,314.72,188.88,314.72
		 M188.88,309.72c-31.44,0-59.16,15.9-75.58,40.09c-0.57-0.01-1.14-0.02-1.71-0.02c-38.9,0-70.78,30.08-73.65,68.25h342.63
		c0.03-0.73,0.06-1.45,0.06-2.19c0-26.41-20.76-47.96-46.84-49.25c-10.89-20.89-32.73-35.15-57.91-35.15c-8.18,0-16,1.51-23.21,4.25
		C236.21,319.64,213.71,309.72,188.88,309.72L188.88,309.72z"/>
	<linearGradient id="SVGID_6_" gradientUnits="userSpaceOnUse" x1="-4.4636" y1="363.8844" x2="327.5344" y2="363.8844">
		<stop  offset="0" style="stop-color:#333DC9"/>
		<stop  offset="1" style="stop-color:#333DC9;stop-opacity:0.2"/>
	</linearGradient>
	<path style="opacity:0.5;fill:url(#SVGID_6_);" d="M333.54,371.61l-2.86-0.14l-1.33-2.54c-10.43-20.02-30.93-32.46-53.48-32.46
		c-7.38,0-14.59,1.32-21.43,3.93l-2.99,1.14l-2.29-2.23c-16.21-15.85-37.62-24.57-60.28-24.57c-28.63,0-55.34,14.17-71.44,37.9
		l-1.53,2.25l-2.72-0.06c-0.53-0.01-1.06-0.02-1.6-0.02c-17.48,0-34.15,6.56-46.93,18.47c-11.39,10.61-18.77,24.58-21.12,39.78h332
		C374.15,390.68,356.21,372.72,333.54,371.61z"/>
</g>
</svg>
