<?xml version="1.0" encoding="utf-8"?>
<!-- Generator: Adobe Illustrator 24.0.1, SVG Export Plug-In . SVG Version: 6.00 Build 0)  -->
<svg version="1.1" xmlns="http://www.w3.org/2000/svg" xmlns:xlink="http://www.w3.org/1999/xlink" x="0px" y="0px"
	 viewBox="0 0 418.05 418.05" style="enable-background:new 0 0 418.05 418.05;" xml:space="preserve">
<style type="text/css">
	.st0{clip-path:url(#SVGID_2_);}
	.st1{clip-path:url(#SVGID_4_);}
	.st2{clip-path:url(#SVGID_6_);}
	.st3{clip-path:url(#SVGID_8_);}
	.st4{clip-path:url(#SVGID_10_);}
	.st5{clip-path:url(#SVGID_12_);}
	.st6{fill:none;stroke:#231F20;stroke-miterlimit:10;}
	.st7{opacity:0;fill:url(#SVGID_13_);}
	.st8{opacity:0.3;fill:url(#SVGID_14_);}
	.st9{fill:#A3A7E6;stroke:#000769;stroke-width:5;stroke-miterlimit:10;}
	.st10{fill:#939598;stroke:#000000;stroke-width:5;stroke-miterlimit:10;}
	.st11{fill:none;stroke:#231F20;stroke-width:10;stroke-miterlimit:10;}
	.st12{fill:#231F20;stroke:#231F20;stroke-miterlimit:10;}
	.st13{fill:#D1D3D4;stroke:#000000;stroke-width:5;stroke-miterlimit:10;}
	.st14{fill:none;stroke:#D1D3D4;stroke-width:15;stroke-linecap:round;stroke-miterlimit:10;}
	.st15{fill:none;stroke:#231F20;stroke-linecap:round;stroke-miterlimit:10;}
	.st16{fill:#F1F2F2;stroke:#000000;stroke-width:5;stroke-miterlimit:10;}
	.st17{fill:#D1D3D4;}
	.st18{fill:#FFFFFF;stroke:#231F20;stroke-width:5;stroke-miterlimit:10;}
	.st19{fill:#939598;}
	.st20{fill:none;}
	.st21{fill:#333DC9;stroke:#000769;stroke-width:5;stroke-miterlimit:10;}
	.st22{fill:#E2E9FC;stroke:#000769;stroke-width:5;stroke-miterlimit:10;}
	.st23{fill:#000769;}
	.st24{fill:#A3A7E6;}
	.st25{fill:#333DC9;}
	.st26{fill:#FFFFFF;}
	.st27{opacity:0.5;fill:url(#SVGID_15_);}
	.st28{opacity:0.5;fill:url(#SVGID_16_);}
	.st29{fill:#E2E9FC;}
	.st30{fill:#FFFFFF;stroke:#000769;stroke-width:5;stroke-miterlimit:10;}
	.st31{fill:url(#SVGID_17_);}
	.st32{opacity:0.5;fill:url(#SVGID_18_);}
	.st33{opacity:0.5;fill:url(#SVGID_19_);}
	.st34{opacity:0.5;fill:url(#SVGID_20_);}
	.st35{opacity:0.5;fill:url(#SVGID_21_);}
	.st36{opacity:0.5;fill:url(#SVGID_22_);}
	.st37{opacity:0.5;fill:url(#SVGID_23_);}
	.st38{opacity:0.5;fill:url(#SVGID_24_);}
	.st39{opacity:0.5;fill:url(#SVGID_25_);}
	.st40{opacity:0.5;fill:url(#SVGID_26_);}
	.st41{fill:none;stroke:#231F20;stroke-width:5;stroke-miterlimit:10;}
	.st42{fill:#231F20;}
	.st43{opacity:0.5;fill:url(#SVGID_27_);}
	.st44{opacity:0.5;fill:url(#SVGID_28_);}
	.st45{opacity:0.5;fill:url(#SVGID_29_);}
	.st46{fill:url(#SVGID_30_);stroke:#000769;stroke-width:5;stroke-miterlimit:10;}
	.st47{opacity:0.5;fill:url(#SVGID_31_);}
	.st48{opacity:0.5;fill:url(#SVGID_32_);}
	.st49{opacity:0.5;fill:url(#SVGID_33_);}
	.st50{opacity:0.5;fill:url(#SVGID_34_);}
	.st51{opacity:0.5;fill:url(#SVGID_35_);}
	.st52{opacity:0.5;fill:url(#SVGID_36_);}
	.st53{opacity:0.5;fill:url(#SVGID_37_);}
	.st54{opacity:0.5;fill:url(#SVGID_38_);}
	.st55{opacity:0.5;fill:url(#SVGID_39_);}
	.st56{opacity:0.5;fill:url(#SVGID_40_);}
	.st57{opacity:0.5;fill:url(#SVGID_41_);}
	.st58{opacity:0.5;fill:url(#SVGID_42_);}
	.st59{opacity:0.5;fill:url(#SVGID_43_);}
	.st60{opacity:0.5;fill:url(#SVGID_44_);}
	.st61{opacity:0.5;fill:url(#SVGID_45_);}
	.st62{opacity:0.5;fill:url(#SVGID_46_);}
	.st63{fill:#FFFFFF;stroke:#231F20;stroke-miterlimit:10;}
	.st64{fill:none;stroke:#231F20;stroke-width:5;stroke-linecap:round;stroke-miterlimit:10;}
	.st65{fill:#FFFFFF;stroke:#231F20;stroke-width:5;stroke-linecap:round;stroke-miterlimit:10;}
	.st66{opacity:0.5;fill:url(#SVGID_47_);}
	.st67{opacity:0.5;fill:url(#SVGID_48_);}
	.st68{opacity:0.5;fill:url(#SVGID_49_);}
	.st69{opacity:0.8;fill:url(#SVGID_50_);}
	.st70{opacity:0.8;fill:url(#SVGID_51_);}
	.st71{opacity:0.8;fill:url(#SVGID_52_);}
	.st72{opacity:0.8;fill:url(#SVGID_53_);}
	.st73{opacity:0.8;fill:url(#SVGID_54_);}
	.st74{opacity:0.8;fill:url(#SVGID_55_);}
	.st75{fill:none;stroke:#231F20;stroke-width:16;stroke-miterlimit:10;}
	.st76{fill:none;stroke:#231F20;stroke-width:16;stroke-linecap:round;stroke-miterlimit:10;}
	.st77{fill:#FFFFFF;stroke:#000769;stroke-width:5;stroke-linecap:round;stroke-miterlimit:10;}
	.st78{fill:#231F20;stroke:#231F20;stroke-width:5;stroke-miterlimit:10;}
	.st79{opacity:0.8;fill:url(#SVGID_56_);}
	.st80{fill:none;stroke:#000769;stroke-width:16;stroke-linecap:round;stroke-miterlimit:10;}
	.st81{opacity:0.5;fill:url(#SVGID_57_);}
	.st82{opacity:0.5;fill:url(#SVGID_58_);}
	.st83{opacity:0.5;fill:url(#SVGID_59_);}
	.st84{opacity:0.5;fill:url(#SVGID_60_);}
	.st85{opacity:0.5;fill:url(#SVGID_61_);}
	.st86{fill:none;stroke:#000769;stroke-width:5;stroke-linecap:round;stroke-miterlimit:10;}
	.st87{opacity:0.5;fill:url(#SVGID_62_);}
	.st88{opacity:0.5;fill:url(#SVGID_63_);}
	.st89{opacity:0.5;fill:url(#SVGID_64_);}
	.st90{opacity:0.5;fill:url(#SVGID_65_);}
	.st91{opacity:0.5;fill:url(#SVGID_66_);}
	.st92{opacity:0.5;fill:url(#SVGID_67_);}
	.st93{opacity:0.5;fill:url(#SVGID_68_);}
	.st94{opacity:0.5;fill:url(#SVGID_69_);}
	.st95{opacity:0.5;fill:url(#SVGID_70_);}
	.st96{opacity:0.5;fill:url(#SVGID_71_);}
	.st97{opacity:0.5;fill:url(#SVGID_72_);}
	.st98{opacity:0.5;fill:url(#SVGID_73_);}
	.st99{opacity:0.5;fill:url(#SVGID_74_);}
	.st100{opacity:0.5;fill:url(#SVGID_75_);}
	.st101{opacity:0.5;fill:url(#SVGID_76_);}
	.st102{opacity:0.5;fill:url(#SVGID_77_);}
	.st103{opacity:0.5;fill:url(#SVGID_78_);}
	.st104{opacity:0.5;fill:url(#SVGID_79_);}
	.st105{opacity:0.5;fill:url(#SVGID_80_);}
	.st106{opacity:0.5;fill:url(#SVGID_81_);}
	.st107{opacity:0.5;fill:url(#SVGID_82_);}
	.st108{opacity:0.5;fill:url(#SVGID_83_);}
	.st109{opacity:0.5;fill:url(#SVGID_84_);}
	.st110{fill:none;stroke:#000769;stroke-width:7;stroke-linecap:round;stroke-miterlimit:10;}
	.st111{opacity:0.5;fill:url(#SVGID_85_);}
	.st112{fill:none;stroke:#000769;stroke-width:8;stroke-linecap:round;stroke-miterlimit:10;}
	.st113{opacity:0.5;fill:url(#SVGID_86_);}
	.st114{opacity:0.5;fill:url(#SVGID_87_);}
	.st115{opacity:0.5;fill:url(#SVGID_88_);}
	.st116{opacity:0.5;fill:url(#SVGID_89_);}
	.st117{opacity:0.5;fill:url(#SVGID_90_);}
	.st118{opacity:0.5;fill:url(#SVGID_91_);}
	.st119{opacity:0.5;fill:url(#SVGID_92_);}
	.st120{opacity:0.5;fill:url(#SVGID_93_);}
	.st121{opacity:0.5;fill:url(#SVGID_94_);}
	.st122{opacity:0.5;fill:url(#SVGID_95_);}
	.st123{fill:#FFFFFF;stroke:#000769;stroke-width:7;stroke-miterlimit:10;}
	.st124{fill:none;stroke:#000769;stroke-width:10;stroke-linecap:round;stroke-miterlimit:10;}
	.st125{fill:#E2E9FC;stroke:#000769;stroke-width:10;stroke-miterlimit:10;}
	.st126{opacity:0.5;fill:url(#SVGID_96_);}
	.st127{opacity:0.5;fill:url(#SVGID_97_);}
	.st128{opacity:0.5;fill:url(#SVGID_98_);}
	.st129{opacity:0.3;fill:url(#SVGID_99_);}
	.st130{opacity:0.3;fill:url(#SVGID_100_);}
	.st131{opacity:0.3;fill:url(#SVGID_101_);}
	.st132{opacity:0.5;fill:url(#SVGID_102_);}
	.st133{opacity:0.3;fill:url(#SVGID_103_);}
	.st134{opacity:0.5;fill:url(#SVGID_104_);}
	.st135{opacity:0;fill:url(#SVGID_105_);}
	.st136{opacity:0.5;fill:url(#SVGID_106_);}
	.st137{opacity:0.5;fill:url(#SVGID_107_);}
	.st138{opacity:0.5;fill:url(#SVGID_108_);}
	.st139{opacity:0.5;fill:url(#SVGID_109_);}
	.st140{opacity:0.5;fill:url(#SVGID_110_);}
	.st141{opacity:0.5;fill:url(#SVGID_111_);}
	.st142{fill:none;stroke:#000769;stroke-width:12;stroke-linecap:round;stroke-miterlimit:10;}
	.st143{opacity:0.5;fill:url(#SVGID_112_);}
	.st144{opacity:0.5;fill:url(#SVGID_113_);}
	.st145{opacity:0.5;fill:url(#SVGID_114_);}
	.st146{opacity:0.5;fill:url(#SVGID_115_);}
	.st147{opacity:0.5;fill:url(#SVGID_116_);}
	.st148{opacity:0.5;fill:url(#SVGID_117_);}
	.st149{opacity:0.5;fill:url(#SVGID_118_);}
	.st150{opacity:0.5;fill:url(#SVGID_119_);}
	.st151{opacity:0.5;fill:url(#SVGID_120_);}
	.st152{opacity:0.5;fill:url(#SVGID_121_);}
	.st153{opacity:0.8;fill:url(#SVGID_122_);}
	.st154{opacity:0.5;fill:url(#SVGID_123_);}
	.st155{opacity:0.5;fill:url(#SVGID_124_);}
	.st156{opacity:0.5;fill:url(#SVGID_125_);}
	.st157{opacity:0.5;fill:url(#SVGID_126_);}
	.st158{opacity:0.5;fill:url(#SVGID_127_);}
	.st159{opacity:0.5;fill:url(#SVGID_128_);}
	.st160{opacity:0.5;fill:url(#SVGID_129_);}
	.st161{opacity:0.5;fill:url(#SVGID_130_);}
	.st162{opacity:0.5;fill:url(#SVGID_131_);}
	.st163{opacity:0.5;fill:url(#SVGID_132_);}
	.st164{opacity:0.5;fill:#FFFFFF;stroke:#000769;stroke-width:5;stroke-linecap:round;stroke-miterlimit:10;}
	.st165{opacity:0.5;fill:url(#SVGID_133_);}
	.st166{opacity:0.5;fill:url(#SVGID_134_);}
	.st167{opacity:0.5;fill:url(#SVGID_135_);}
	.st168{opacity:0.5;fill:url(#SVGID_136_);}
	.st169{opacity:0.5;fill:url(#SVGID_137_);}
	.st170{opacity:0.5;fill:url(#SVGID_138_);}
	.st171{opacity:0.5;fill:url(#SVGID_139_);}
	.st172{opacity:0.5;fill:url(#SVGID_140_);}
	.st173{opacity:0.5;fill:url(#SVGID_141_);}
	.st174{opacity:0.5;fill:url(#SVGID_142_);}
	.st175{opacity:0.5;fill:url(#SVGID_143_);}
	.st176{opacity:0.5;}
	.st177{opacity:0.5;fill:url(#SVGID_144_);}
	.st178{opacity:0.5;fill:url(#SVGID_145_);}
	.st179{opacity:0.5;fill:url(#SVGID_146_);}
	.st180{opacity:0.5;fill:url(#SVGID_147_);}
	.st181{opacity:0.5;fill:url(#SVGID_148_);}
	.st182{opacity:0.8;fill:url(#SVGID_149_);}
	.st183{opacity:0.5;fill:url(#SVGID_150_);}
	.st184{opacity:0.5;fill:url(#SVGID_151_);}
	.st185{opacity:0.5;fill:url(#SVGID_152_);}
	.st186{opacity:0.5;fill:url(#SVGID_153_);}
	.st187{opacity:0.5;fill:url(#SVGID_154_);}
	.st188{opacity:0.5;fill:url(#SVGID_155_);}
	.st189{opacity:0.5;fill:url(#SVGID_156_);}
	.st190{opacity:0.5;fill:url(#SVGID_157_);}
	.st191{opacity:0.5;fill:url(#SVGID_158_);}
	.st192{opacity:0.5;fill:url(#SVGID_159_);}
</style>
<g id="Sketch">
</g>
<g id="Layer_2">
	<g>
		<path class="st24" d="M343.38,176.09c0,72.44-33.37,120.34-61.37,147.77c-26.21,25.68-59.06,39.59-69.76,43.67
			c-2.29,0.87-4.81,0.87-7.09,0c-10.7-4.08-43.55-17.99-69.76-43.67c-28-27.43-61.37-75.34-61.37-147.77l0-62.22
			c0-4.41,2.89-8.31,7.12-9.57c42.91-12.76,83.22-29.98,122.58-52.37c3.09-1.76,6.86-1.76,9.95-0.01
			c38.53,21.84,80.5,39.77,122.59,52.37c4.22,1.26,7.1,5.16,7.1,9.57V176.09z"/>
		<path class="st23" d="M208.71,370.69c-1.5,0-3.01-0.27-4.44-0.82c-9.79-3.74-43.82-17.96-70.62-44.22
			c-28.34-27.77-62.12-76.26-62.12-149.56v-62.22c0-5.49,3.66-10.41,8.91-11.97c42.83-12.73,82.76-29.79,122.05-52.15
			c3.83-2.18,8.59-2.18,12.42-0.01C253.08,71.38,295.29,89.41,337,101.9c5.23,1.57,8.89,6.48,8.89,11.96v62.23
			c0,73.31-33.78,121.79-62.12,149.56c-26.8,26.26-60.82,40.48-70.62,44.22C211.72,370.41,210.21,370.69,208.71,370.69z
			 M208.72,53.12c-1.3,0-2.59,0.33-3.74,0.98c-39.63,22.55-79.9,39.75-123.1,52.59c-3.14,0.93-5.34,3.88-5.34,7.18v62.22
			c0,71.57,32.96,118.89,60.62,145.99c26.11,25.58,59.34,39.47,68.9,43.12c1.71,0.65,3.6,0.65,5.31,0
			c9.56-3.65,42.79-17.54,68.9-43.12c27.65-27.1,60.62-74.42,60.62-145.99v-62.23c0-3.28-2.19-6.23-5.32-7.17
			C293.5,94.1,250.93,75.91,212.46,54.1C211.3,53.45,210.01,53.12,208.72,53.12z"/>
	</g>
	<g>
		<path class="st29" d="M323.18,181.02c0,61.57-28.37,102.29-52.16,125.61c-21.83,21.39-49.07,33.16-58.72,36.9
			c-2.31,0.89-4.87,0.89-7.18,0c-9.65-3.73-36.89-15.51-58.72-36.9c-23.8-23.32-52.16-64.04-52.16-125.61v-51.77
			c0-4.41,2.9-8.3,7.12-9.57c35.84-10.74,69.54-25.16,102.46-43.82c3.03-1.72,6.74-1.72,9.77-0.01
			c32.25,18.21,67.3,33.2,102.48,43.82c4.22,1.27,7.1,5.16,7.1,9.56V181.02z"/>
		<path class="st23" d="M208.71,346.7c-1.52,0-3.04-0.28-4.49-0.84c-10.61-4.1-37.64-15.96-59.57-37.44
			c-24.14-23.65-52.91-64.95-52.91-127.39v-51.77c0-5.56,3.58-10.37,8.91-11.97c35.75-10.71,69.1-24.98,101.95-43.6
			c3.77-2.14,8.46-2.14,12.24-0.01c31.89,18.01,67.15,33.09,101.97,43.6c5.31,1.6,8.88,6.41,8.88,11.96v51.78
			c0,62.44-28.77,103.74-52.91,127.39c-21.92,21.48-48.96,33.34-59.56,37.44C211.76,346.41,210.23,346.7,208.71,346.7z
			 M208.72,77.07c-1.27,0-2.53,0.32-3.66,0.96c-33.18,18.81-66.86,33.22-102.98,44.04c-3.2,0.96-5.34,3.84-5.34,7.18v51.77
			c0,60.7,27.96,100.84,51.41,123.82c21.26,20.83,47.55,32.36,57.87,36.35c1.73,0.67,3.64,0.67,5.38,0
			c10.32-3.99,36.61-15.52,57.87-36.35c23.45-22.98,51.41-63.12,51.41-123.82v-51.78c0-3.33-2.14-6.21-5.33-7.17
			c-35.17-10.62-70.78-25.84-102.99-44.04C211.24,77.39,209.98,77.07,208.72,77.07z"/>
	</g>
	<g>
		<path class="st24" d="M24.74,74.61l5.03,9.2c0.28,0.5,0.69,0.92,1.19,1.19l9.2,5.03c2.08,1.14,2.08,4.13,0,5.26l-9.2,5.03
			c-0.5,0.28-0.92,0.69-1.19,1.19l-5.03,9.2c-1.14,2.08-4.13,2.08-5.26,0l-5.03-9.2c-0.28-0.5-0.69-0.92-1.19-1.19l-9.2-5.03
			c-2.08-1.14-2.08-4.13,0-5.26l9.2-5.03c0.5-0.28,0.92-0.69,1.19-1.19l5.03-9.2C20.62,72.53,23.6,72.53,24.74,74.61z"/>
		<path class="st23" d="M22.11,114.77c-2.01,0-3.86-1.1-4.83-2.86l-5.03-9.2c-0.05-0.08-0.11-0.15-0.2-0.2l-9.2-5.03
			C1.1,96.52,0,94.67,0,92.66s1.1-3.86,2.86-4.83l9.2-5.03c0.08-0.05,0.15-0.11,0.2-0.2l5.03-9.2c0.97-1.76,2.81-2.86,4.83-2.86
			s3.86,1.1,4.83,2.86l5.03,9.2c0.05,0.08,0.11,0.15,0.2,0.2l9.2,5.03c1.76,0.97,2.86,2.81,2.86,4.83s-1.1,3.86-2.86,4.83l-9.2,5.03
			c-0.08,0.05-0.15,0.11-0.2,0.2l-5.03,9.2C25.97,113.68,24.12,114.77,22.11,114.77z M22.11,75.55c-0.2,0-0.34,0.09-0.44,0.26
			l-5.03,9.2c-0.51,0.92-1.26,1.68-2.19,2.19l-9.2,5.03C5.09,92.32,5,92.47,5,92.66s0.09,0.34,0.26,0.44l9.2,5.03
			c0.93,0.51,1.68,1.26,2.19,2.19l5.03,9.2c0.19,0.34,0.69,0.34,0.88,0l5.03-9.2c0.51-0.92,1.26-1.68,2.19-2.19l9.2-5.03
			c0.17-0.09,0.26-0.24,0.26-0.44s-0.09-0.34-0.26-0.44l-9.2-5.03c-0.92-0.51-1.68-1.26-2.19-2.19l-5.03-9.2
			C22.45,75.64,22.31,75.55,22.11,75.55z"/>
	</g>
	<g>
		<path class="st29" d="M395.09,289.76l6.06,11.08c0.33,0.61,0.83,1.11,1.44,1.44l11.08,6.06c2.51,1.37,2.51,4.97,0,6.34
			l-11.08,6.06c-0.61,0.33-1.11,0.83-1.44,1.44l-6.06,11.08c-1.37,2.51-4.97,2.51-6.34,0l-6.06-11.08
			c-0.33-0.61-0.83-1.11-1.44-1.44l-11.08-6.06c-2.51-1.37-2.51-4.97,0-6.34l11.08-6.06c0.61-0.33,1.11-0.83,1.44-1.44l6.06-11.08
			C390.12,287.26,393.72,287.26,395.09,289.76z"/>
		<path class="st23" d="M391.92,337.63c-2.24,0-4.29-1.22-5.36-3.18l-6.06-11.08c-0.1-0.19-0.26-0.34-0.44-0.44l-11.08-6.06
			c-1.96-1.07-3.18-3.13-3.18-5.36c0-2.24,1.22-4.29,3.18-5.36l11.08-6.06c0.19-0.1,0.34-0.26,0.44-0.44l6.06-11.08
			c1.07-1.96,3.13-3.18,5.36-3.18s4.29,1.22,5.36,3.18l6.06,11.08c0.1,0.19,0.26,0.34,0.44,0.44l11.08,6.06
			c1.96,1.07,3.18,3.13,3.18,5.36c0,2.24-1.22,4.29-3.18,5.36l-11.08,6.06c-0.19,0.1-0.34,0.26-0.44,0.44l-6.06,11.08
			C396.21,336.42,394.16,337.63,391.92,337.63z M391.92,290.38c-0.25,0-0.7,0.08-0.98,0.58l-6.06,11.08
			c-0.56,1.03-1.4,1.87-2.43,2.43l-11.08,6.06c-0.5,0.28-0.58,0.73-0.58,0.98c0,0.25,0.08,0.7,0.58,0.98l11.08,6.06
			c1.03,0.56,1.87,1.4,2.43,2.43l6.06,11.08c0.28,0.5,0.73,0.58,0.98,0.58s0.7-0.08,0.98-0.58l6.06-11.08
			c0.56-1.03,1.4-1.87,2.43-2.43l11.08-6.06c0.5-0.28,0.58-0.73,0.58-0.98c0-0.25-0.08-0.7-0.58-0.98l-11.08-6.06
			c-1.03-0.56-1.87-1.4-2.43-2.43l-6.06-11.08C392.62,290.46,392.17,290.38,391.92,290.38z"/>
	</g>
	<g>
		<path class="st29" d="M41.48,233.25l3.65,6.67c0.2,0.37,0.5,0.67,0.87,0.87l6.67,3.65c1.51,0.83,1.51,2.99,0,3.82l-6.67,3.65
			c-0.37,0.2-0.67,0.5-0.87,0.87l-3.65,6.67c-0.83,1.51-2.99,1.51-3.82,0L34,252.77c-0.2-0.37-0.5-0.67-0.87-0.87l-6.67-3.65
			c-1.51-0.83-1.51-2.99,0-3.82l6.67-3.65c0.37-0.2,0.67-0.5,0.87-0.87l3.65-6.67C38.48,231.74,40.65,231.74,41.48,233.25z"/>
		<path class="st23" d="M39.57,263.08c-1.71,0-3.28-0.93-4.1-2.43l-3.6-6.59l-6.59-3.6c-1.5-0.82-2.43-2.39-2.43-4.1
			s0.93-3.28,2.43-4.1l6.59-3.6l3.6-6.59c0.82-1.5,2.39-2.43,4.1-2.43c1.71,0,3.28,0.93,4.1,2.43v0l3.6,6.59l6.59,3.6
			c1.5,0.82,2.43,2.39,2.43,4.1s-0.93,3.28-2.43,4.1l-6.59,3.6l-3.6,6.59C42.85,262.15,41.28,263.08,39.57,263.08z M28.18,246.35
			l6.16,3.37c0.79,0.43,1.43,1.07,1.86,1.86l3.37,6.16l3.37-6.16c0.43-0.79,1.07-1.43,1.86-1.86l6.16-3.37l-6.16-3.37
			c-0.79-0.43-1.43-1.07-1.86-1.86l-3.37-6.16l-3.37,6.16c-0.43,0.79-1.07,1.43-1.86,1.86L28.18,246.35z M39.28,234.45
			C39.28,234.45,39.28,234.45,39.28,234.45L39.28,234.45L39.28,234.45z"/>
	</g>
	<g>
		<circle class="st29" cx="323.18" cy="344.84" r="10.28"/>
		<path class="st23" d="M323.18,357.62c-7.05,0-12.78-5.73-12.78-12.78c0-7.05,5.73-12.78,12.78-12.78
			c7.04,0,12.78,5.73,12.78,12.78C335.96,351.89,330.23,357.62,323.18,357.62z M323.18,337.07c-4.29,0-7.78,3.49-7.78,7.78
			c0,4.29,3.49,7.78,7.78,7.78c4.29,0,7.78-3.49,7.78-7.78C330.96,340.55,327.47,337.07,323.18,337.07z"/>
	</g>
	<g>
		<circle class="st24" cx="129.05" cy="381.79" r="10.28"/>
		<path class="st23" d="M129.05,376.51c2.91,0,5.28,2.37,5.28,5.28c0,2.91-2.37,5.28-5.28,5.28c-2.91,0-5.28-2.37-5.28-5.28
			C123.78,378.88,126.14,376.51,129.05,376.51 M129.05,371.51c-5.68,0-10.28,4.6-10.28,10.28c0,5.68,4.6,10.28,10.28,10.28
			c5.68,0,10.28-4.6,10.28-10.28C139.33,376.11,134.73,371.51,129.05,371.51L129.05,371.51z"/>
	</g>
	<g>
		<circle class="st24" cx="384.59" cy="73.05" r="10.28"/>
		<path class="st23" d="M384.59,67.78c2.91,0,5.28,2.37,5.28,5.28s-2.37,5.28-5.28,5.28c-2.91,0-5.28-2.37-5.28-5.28
			S381.68,67.78,384.59,67.78 M384.59,62.78c-5.68,0-10.28,4.6-10.28,10.28s4.6,10.28,10.28,10.28c5.68,0,10.28-4.6,10.28-10.28
			S390.26,62.78,384.59,62.78L384.59,62.78z"/>
	</g>
	<g>
		<circle class="st29" cx="75.9" cy="27.9" r="10.28"/>
		<path class="st23" d="M75.9,40.68c-7.04,0-12.78-5.73-12.78-12.78c0-7.05,5.73-12.78,12.78-12.78c7.05,0,12.78,5.73,12.78,12.78
			C88.68,34.95,82.95,40.68,75.9,40.68z M75.9,20.13c-4.29,0-7.78,3.49-7.78,7.78c0,4.29,3.49,7.78,7.78,7.78
			c4.29,0,7.78-3.49,7.78-7.78C83.68,23.61,80.19,20.13,75.9,20.13z"/>
	</g>
	<g>
		<path class="st24" d="M175.86,8.78l3.65,6.67c0.2,0.37,0.5,0.67,0.87,0.87l6.67,3.65c1.51,0.83,1.51,2.99,0,3.82l-6.67,3.65
			c-0.37,0.2-0.67,0.5-0.87,0.87l-3.65,6.67c-0.83,1.51-2.99,1.51-3.82,0l-3.65-6.67c-0.2-0.37-0.5-0.67-0.87-0.87l-6.67-3.65
			c-1.51-0.83-1.51-2.99,0-3.82l6.67-3.65c0.37-0.2,0.67-0.5,0.87-0.87l3.65-6.67C172.86,7.27,175.03,7.27,175.86,8.78z"/>
		<path class="st23" d="M173.95,38.61c-1.71,0-3.28-0.93-4.1-2.43l-3.6-6.59l-6.59-3.6c-1.5-0.82-2.43-2.39-2.43-4.1
			s0.93-3.28,2.43-4.1l6.59-3.6l3.6-6.59c0.82-1.5,2.39-2.43,4.1-2.43c1.71,0,3.28,0.93,4.1,2.43v0l3.6,6.59l6.59,3.6
			c1.5,0.82,2.43,2.39,2.43,4.1s-0.93,3.28-2.43,4.1l-6.59,3.6l-3.6,6.59C177.23,37.68,175.66,38.61,173.95,38.61z M162.56,21.87
			l6.16,3.37c0.79,0.43,1.43,1.07,1.86,1.86l3.37,6.16l3.37-6.16c0.43-0.79,1.07-1.43,1.86-1.86l6.16-3.37l-6.16-3.37
			c-0.79-0.43-1.43-1.07-1.86-1.86l-3.37-6.16l-3.37,6.16c-0.43,0.79-1.07,1.43-1.86,1.86L162.56,21.87z M173.66,9.97
			C173.66,9.98,173.66,9.98,173.66,9.97L173.66,9.97L173.66,9.97z"/>
	</g>
	<g>
		<path class="st24" d="M265.77,388.21l3.65,6.67c0.2,0.37,0.5,0.67,0.87,0.87l6.67,3.65c1.51,0.83,1.51,2.99,0,3.82l-6.67,3.65
			c-0.37,0.2-0.67,0.5-0.87,0.87l-3.65,6.67c-0.83,1.51-2.99,1.51-3.82,0l-3.65-6.67c-0.2-0.37-0.5-0.67-0.87-0.87l-6.67-3.65
			c-1.51-0.83-1.51-2.99,0-3.82l6.67-3.65c0.37-0.2,0.67-0.5,0.87-0.87l3.65-6.67C262.77,386.7,264.94,386.7,265.77,388.21z"/>
		<path class="st23" d="M263.86,418.05c-1.71,0-3.28-0.93-4.1-2.43l-3.6-6.59l-6.59-3.6c-1.5-0.82-2.43-2.39-2.43-4.1
			s0.93-3.28,2.43-4.1l6.59-3.6l3.6-6.59c0.82-1.5,2.39-2.43,4.1-2.43c1.71,0,3.28,0.93,4.1,2.43v0l3.6,6.59l6.59,3.6
			c1.5,0.82,2.43,2.39,2.43,4.1s-0.93,3.28-2.43,4.1l-6.59,3.6l-3.6,6.59C267.14,417.11,265.57,418.05,263.86,418.05z
			 M252.48,401.31l6.16,3.37c0.79,0.43,1.43,1.07,1.86,1.86l3.37,6.16l3.37-6.16c0.43-0.79,1.07-1.43,1.86-1.86l6.16-3.37
			l-6.16-3.37c-0.79-0.43-1.43-1.07-1.86-1.86l-3.37-6.16l-3.37,6.16c-0.43,0.79-1.07,1.43-1.86,1.86L252.48,401.31z M263.57,389.41
			C263.58,389.41,263.58,389.41,263.57,389.41L263.57,389.41L263.57,389.41z"/>
	</g>
	<g>
		<path class="st29" d="M35.66,339.22l8.89,16.25c0.28,0.5,0.69,0.92,1.19,1.19L62,365.55c2.08,1.14,2.08,4.13,0,5.26l-16.25,8.89
			c-0.5,0.28-0.92,0.69-1.19,1.19l-8.89,16.25c-1.14,2.08-4.13,2.08-5.26,0l-8.89-16.25c-0.28-0.5-0.69-0.92-1.19-1.19l-16.25-8.89
			c-2.08-1.14-2.08-4.13,0-5.26l16.25-8.89c0.5-0.28,0.92-0.69,1.19-1.19l8.89-16.25C31.54,337.14,34.52,337.14,35.66,339.22z"/>
		<path class="st23" d="M33.03,401.22c-2.01,0-3.86-1.1-4.83-2.86l-8.89-16.25c-0.05-0.08-0.11-0.15-0.2-0.2l-16.25-8.89
			C1.1,372.05,0,370.2,0,368.19c0-2.01,1.1-3.86,2.86-4.83l16.25-8.89c0.08-0.05,0.15-0.11,0.2-0.2l8.89-16.26
			c0.97-1.76,2.81-2.86,4.83-2.86s3.86,1.1,4.83,2.86l8.89,16.25c0.05,0.08,0.11,0.15,0.2,0.2l16.25,8.89
			c1.76,0.96,2.86,2.81,2.86,4.83c0,2.01-1.1,3.86-2.86,4.83l-16.25,8.89c-0.08,0.05-0.15,0.11-0.2,0.2l-8.89,16.26
			C36.89,400.12,35.04,401.22,33.03,401.22z M33.03,340.16c-0.2,0-0.34,0.09-0.44,0.26l-8.89,16.25c-0.51,0.92-1.26,1.68-2.19,2.19
			l-16.25,8.89C5.09,367.84,5,367.99,5,368.19s0.09,0.34,0.26,0.44l16.25,8.89c0.92,0.51,1.68,1.26,2.19,2.19l8.89,16.25
			c0.19,0.35,0.69,0.35,0.88,0l8.89-16.25c0.51-0.92,1.26-1.68,2.19-2.19l16.25-8.89c0.17-0.09,0.26-0.24,0.26-0.44
			s-0.09-0.34-0.26-0.44l-16.25-8.89c-0.92-0.51-1.68-1.26-2.19-2.19l-8.89-16.25C33.37,340.24,33.23,340.16,33.03,340.16z"/>
	</g>
	<g>
		<path class="st29" d="M346.01,4.06l8.89,16.25c0.28,0.5,0.69,0.92,1.19,1.19l16.25,8.89c2.08,1.14,2.08,4.13,0,5.26l-16.25,8.89
			c-0.5,0.28-0.92,0.69-1.19,1.19L346.01,62c-1.14,2.08-4.13,2.08-5.26,0l-8.89-16.25c-0.28-0.5-0.69-0.92-1.19-1.19l-16.25-8.89
			c-2.08-1.14-2.08-4.13,0-5.26l16.25-8.89c0.5-0.28,0.92-0.69,1.19-1.19l8.89-16.25C341.89,1.98,344.88,1.98,346.01,4.06z"/>
		<path class="st23" d="M343.38,66.06c-2.01,0-3.86-1.1-4.83-2.86l-8.89-16.25c-0.05-0.08-0.11-0.15-0.2-0.2l-16.25-8.89
			c-1.76-0.97-2.86-2.81-2.86-4.83s1.1-3.86,2.86-4.83l16.25-8.89c0.08-0.05,0.15-0.11,0.2-0.2l8.89-16.25
			C339.52,1.1,341.37,0,343.38,0s3.86,1.1,4.83,2.86l8.89,16.25c0.05,0.08,0.11,0.15,0.2,0.2l16.25,8.89
			c1.76,0.97,2.86,2.81,2.86,4.83s-1.1,3.86-2.86,4.83l-16.25,8.89c-0.08,0.05-0.15,0.11-0.2,0.2l-8.89,16.25
			C347.24,64.96,345.39,66.06,343.38,66.06z M343.38,5c-0.2,0-0.34,0.09-0.44,0.26l-8.89,16.25c-0.51,0.92-1.26,1.68-2.19,2.19
			l-16.25,8.89c-0.17,0.09-0.26,0.24-0.26,0.44s0.09,0.34,0.26,0.44l16.25,8.89c0.92,0.51,1.68,1.26,2.19,2.19l8.89,16.25
			c0.19,0.34,0.69,0.34,0.88,0l8.89-16.25c0.51-0.92,1.26-1.68,2.19-2.19l16.25-8.89c0.17-0.09,0.26-0.24,0.26-0.44
			s-0.09-0.34-0.26-0.44L354.9,23.7c-0.92-0.51-1.68-1.26-2.19-2.19l-8.89-16.25C343.73,5.09,343.58,5,343.38,5z"/>
	</g>
	<g>
		<path class="st24" d="M379.66,160.66l3.85,7.04c0.21,0.39,0.53,0.7,0.91,0.91l7.04,3.85c1.59,0.87,1.59,3.16,0,4.03l-7.04,3.85
			c-0.39,0.21-0.7,0.53-0.91,0.91l-3.85,7.04c-0.87,1.59-3.16,1.59-4.03,0l-3.85-7.04c-0.21-0.39-0.53-0.7-0.91-0.91l-7.04-3.85
			c-1.59-0.87-1.59-3.16,0-4.03l7.04-3.85c0.39-0.21,0.7-0.53,0.91-0.91l3.85-7.04C376.51,159.06,378.79,159.06,379.66,160.66z"/>
		<path class="st23" d="M377.65,191.98c-1.75,0-3.37-0.96-4.21-2.49l-3.82-6.99l-6.99-3.82c-1.54-0.84-2.49-2.45-2.49-4.21
			c0-1.75,0.96-3.37,2.49-4.21l6.99-3.82l3.82-6.99c0.84-1.54,2.45-2.49,4.21-2.49c1.75,0,3.37,0.96,4.21,2.49l3.82,6.99l6.99,3.82
			c1.54,0.84,2.49,2.45,2.49,4.21c0,1.75-0.96,3.37-2.49,4.21l-6.99,3.82l-3.82,6.99C381.02,191.03,379.4,191.98,377.65,191.98z
			 M365.36,174.47l6.71,3.67c0.81,0.44,1.47,1.1,1.91,1.91l3.67,6.71l3.67-6.71c0.44-0.81,1.1-1.47,1.91-1.91l6.71-3.67l-6.71-3.67
			c-0.81-0.44-1.47-1.1-1.91-1.91l-3.67-6.71l-3.67,6.71c-0.44,0.81-1.1,1.47-1.91,1.91L365.36,174.47z M377.47,161.86
			C377.47,161.86,377.47,161.86,377.47,161.86L377.47,161.86z"/>
	</g>
	<g>
		<circle class="st26" cx="208.71" cy="209.38" r="69.38"/>
		<path class="st23" d="M208.71,281.26c-39.64,0-71.88-32.25-71.88-71.88s32.25-71.88,71.88-71.88s71.88,32.25,71.88,71.88
			S248.35,281.26,208.71,281.26z M208.71,142.5c-36.88,0-66.88,30-66.88,66.88s30,66.88,66.88,66.88s66.88-30,66.88-66.88
			S245.59,142.5,208.71,142.5z"/>
	</g>
	<linearGradient id="SVGID_2_" gradientUnits="userSpaceOnUse" x1="74.0363" y1="209.4017" x2="233.2759" y2="209.4017">
		<stop  offset="0" style="stop-color:#333DC9"/>
		<stop  offset="1" style="stop-color:#333DC9;stop-opacity:0.2"/>
	</linearGradient>
	<path style="opacity:0.5;fill:url(#SVGID_2_);" d="M208.72,77.09c-1.27,0-2.53,0.32-3.66,0.96
		c-33.18,18.81-66.86,33.22-102.98,44.04c-3.2,0.96-5.34,3.84-5.34,7.18v51.77c0,60.7,27.96,100.84,51.41,123.82
		c21.26,20.83,47.55,32.36,57.87,36.35c1.73,0.67,3.64,0.67,5.38,0c3.35-1.3,8.4-3.4,14.4-6.34
		c-21.01-78.68-23.83-163.84,0.34-249.34c-4.65-2.44-9.25-4.93-13.78-7.48C211.24,77.41,209.98,77.09,208.72,77.09z"/>
	<g class="st176">
		<circle class="st26" cx="208.71" cy="209.38" r="69.38"/>
		<path class="st23" d="M208.71,281.26c-39.64,0-71.88-32.25-71.88-71.88s32.25-71.88,71.88-71.88s71.88,32.25,71.88,71.88
			S248.35,281.26,208.71,281.26z M208.71,142.5c-36.88,0-66.88,30-66.88,66.88s30,66.88,66.88,66.88s66.88-30,66.88-66.88
			S245.59,142.5,208.71,142.5z"/>
	</g>
	<path class="st23" d="M248.32,181.33L248.32,181.33c-2.93-2.93-7.68-2.93-10.61,0l-40.19,40.19l-15.07-15.07
		c-2.8-2.8-7.35-2.8-10.15,0l-0.46,0.46c-2.8,2.8-2.8,7.35,0,10.15l20.61,20.61c2.8,2.8,7.35,2.8,10.15,0l0.46-0.46
		c0.02-0.02,0.04-0.04,0.05-0.06l45.21-45.21C251.25,189.01,251.25,184.26,248.32,181.33z"/>
</g>
</svg>
