<?xml version="1.0" encoding="utf-8"?>
<!-- Generator: Adobe Illustrator 24.0.1, SVG Export Plug-In . SVG Version: 6.00 Build 0)  -->
<svg version="1.1" xmlns="http://www.w3.org/2000/svg" xmlns:xlink="http://www.w3.org/1999/xlink" x="0px" y="0px"
	 viewBox="0 0 418.05 418.05" style="enable-background:new 0 0 418.05 418.05;" xml:space="preserve">
<style type="text/css">
	.st0{clip-path:url(#SVGID_2_);}
	.st1{clip-path:url(#SVGID_4_);}
	.st2{clip-path:url(#SVGID_6_);}
	.st3{clip-path:url(#SVGID_8_);}
	.st4{clip-path:url(#SVGID_10_);}
	.st5{clip-path:url(#SVGID_12_);}
	.st6{fill:none;stroke:#231F20;stroke-miterlimit:10;}
	.st7{opacity:0;fill:url(#SVGID_13_);}
	.st8{opacity:0.3;fill:url(#SVGID_14_);}
	.st9{fill:#A3A7E6;stroke:#000769;stroke-width:5;stroke-miterlimit:10;}
	.st10{fill:#939598;stroke:#000000;stroke-width:5;stroke-miterlimit:10;}
	.st11{fill:none;stroke:#231F20;stroke-width:10;stroke-miterlimit:10;}
	.st12{fill:#231F20;stroke:#231F20;stroke-miterlimit:10;}
	.st13{fill:#D1D3D4;stroke:#000000;stroke-width:5;stroke-miterlimit:10;}
	.st14{fill:none;stroke:#D1D3D4;stroke-width:15;stroke-linecap:round;stroke-miterlimit:10;}
	.st15{fill:none;stroke:#231F20;stroke-linecap:round;stroke-miterlimit:10;}
	.st16{fill:#F1F2F2;stroke:#000000;stroke-width:5;stroke-miterlimit:10;}
	.st17{fill:#D1D3D4;}
	.st18{fill:#FFFFFF;stroke:#231F20;stroke-width:5;stroke-miterlimit:10;}
	.st19{fill:#939598;}
	.st20{fill:none;}
	.st21{fill:#333DC9;stroke:#000769;stroke-width:5;stroke-miterlimit:10;}
	.st22{fill:#E2E9FC;stroke:#000769;stroke-width:5;stroke-miterlimit:10;}
	.st23{fill:#000769;}
	.st24{fill:#A3A7E6;}
	.st25{fill:#333DC9;}
	.st26{fill:#FFFFFF;}
	.st27{opacity:0.5;fill:url(#SVGID_15_);}
	.st28{opacity:0.5;fill:url(#SVGID_16_);}
	.st29{fill:#E2E9FC;}
	.st30{fill:#FFFFFF;stroke:#000769;stroke-width:5;stroke-miterlimit:10;}
	.st31{fill:url(#SVGID_17_);}
	.st32{opacity:0.5;fill:url(#SVGID_18_);}
	.st33{opacity:0.5;fill:url(#SVGID_19_);}
	.st34{opacity:0.5;fill:url(#SVGID_20_);}
	.st35{opacity:0.5;fill:url(#SVGID_21_);}
	.st36{opacity:0.5;fill:url(#SVGID_22_);}
	.st37{opacity:0.5;fill:url(#SVGID_23_);}
	.st38{opacity:0.5;fill:url(#SVGID_24_);}
	.st39{opacity:0.5;fill:url(#SVGID_25_);}
	.st40{opacity:0.5;fill:url(#SVGID_26_);}
	.st41{fill:none;stroke:#231F20;stroke-width:5;stroke-miterlimit:10;}
	.st42{fill:#231F20;}
	.st43{opacity:0.5;fill:url(#SVGID_27_);}
	.st44{opacity:0.5;fill:url(#SVGID_28_);}
	.st45{opacity:0.5;fill:url(#SVGID_29_);}
	.st46{fill:url(#SVGID_30_);stroke:#000769;stroke-width:5;stroke-miterlimit:10;}
	.st47{opacity:0.5;fill:url(#SVGID_31_);}
	.st48{opacity:0.5;fill:url(#SVGID_32_);}
	.st49{opacity:0.5;fill:url(#SVGID_33_);}
	.st50{opacity:0.5;fill:url(#SVGID_34_);}
	.st51{opacity:0.5;fill:url(#SVGID_35_);}
	.st52{opacity:0.5;fill:url(#SVGID_36_);}
	.st53{opacity:0.5;fill:url(#SVGID_37_);}
	.st54{opacity:0.5;fill:url(#SVGID_38_);}
	.st55{opacity:0.5;fill:url(#SVGID_39_);}
	.st56{opacity:0.5;fill:url(#SVGID_40_);}
	.st57{opacity:0.5;fill:url(#SVGID_41_);}
	.st58{opacity:0.5;fill:url(#SVGID_42_);}
	.st59{opacity:0.5;fill:url(#SVGID_43_);}
	.st60{opacity:0.5;fill:url(#SVGID_44_);}
	.st61{opacity:0.5;fill:url(#SVGID_45_);}
	.st62{opacity:0.5;fill:url(#SVGID_46_);}
	.st63{fill:#FFFFFF;stroke:#231F20;stroke-miterlimit:10;}
	.st64{fill:none;stroke:#231F20;stroke-width:5;stroke-linecap:round;stroke-miterlimit:10;}
	.st65{fill:#FFFFFF;stroke:#231F20;stroke-width:5;stroke-linecap:round;stroke-miterlimit:10;}
	.st66{opacity:0.5;fill:url(#SVGID_47_);}
	.st67{opacity:0.5;fill:url(#SVGID_48_);}
	.st68{opacity:0.5;fill:url(#SVGID_49_);}
	.st69{opacity:0.8;fill:url(#SVGID_50_);}
	.st70{opacity:0.8;fill:url(#SVGID_51_);}
	.st71{opacity:0.8;fill:url(#SVGID_52_);}
	.st72{opacity:0.8;fill:url(#SVGID_53_);}
	.st73{opacity:0.8;fill:url(#SVGID_54_);}
	.st74{opacity:0.8;fill:url(#SVGID_55_);}
	.st75{fill:none;stroke:#231F20;stroke-width:16;stroke-miterlimit:10;}
	.st76{fill:none;stroke:#231F20;stroke-width:16;stroke-linecap:round;stroke-miterlimit:10;}
	.st77{fill:#FFFFFF;stroke:#000769;stroke-width:5;stroke-linecap:round;stroke-miterlimit:10;}
	.st78{fill:#231F20;stroke:#231F20;stroke-width:5;stroke-miterlimit:10;}
	.st79{opacity:0.8;fill:url(#SVGID_56_);}
	.st80{fill:none;stroke:#000769;stroke-width:16;stroke-linecap:round;stroke-miterlimit:10;}
	.st81{opacity:0.5;fill:url(#SVGID_57_);}
	.st82{opacity:0.5;fill:url(#SVGID_58_);}
	.st83{opacity:0.5;fill:url(#SVGID_59_);}
	.st84{opacity:0.5;fill:url(#SVGID_60_);}
	.st85{opacity:0.5;fill:url(#SVGID_61_);}
	.st86{fill:none;stroke:#000769;stroke-width:5;stroke-linecap:round;stroke-miterlimit:10;}
	.st87{opacity:0.5;fill:url(#SVGID_62_);}
	.st88{opacity:0.5;fill:url(#SVGID_63_);}
	.st89{opacity:0.5;fill:url(#SVGID_64_);}
	.st90{opacity:0.5;fill:url(#SVGID_65_);}
	.st91{opacity:0.5;fill:url(#SVGID_66_);}
	.st92{opacity:0.5;fill:url(#SVGID_67_);}
	.st93{opacity:0.5;fill:url(#SVGID_68_);}
	.st94{opacity:0.5;fill:url(#SVGID_69_);}
	.st95{opacity:0.5;fill:url(#SVGID_70_);}
	.st96{opacity:0.5;fill:url(#SVGID_71_);}
	.st97{opacity:0.5;fill:url(#SVGID_72_);}
	.st98{opacity:0.5;fill:url(#SVGID_73_);}
	.st99{opacity:0.5;fill:url(#SVGID_74_);}
	.st100{opacity:0.5;fill:url(#SVGID_75_);}
	.st101{opacity:0.5;fill:url(#SVGID_76_);}
	.st102{opacity:0.5;fill:url(#SVGID_77_);}
	.st103{opacity:0.5;fill:url(#SVGID_78_);}
	.st104{opacity:0.5;fill:url(#SVGID_79_);}
	.st105{opacity:0.5;fill:url(#SVGID_80_);}
	.st106{opacity:0.5;fill:url(#SVGID_81_);}
	.st107{opacity:0.5;fill:url(#SVGID_82_);}
	.st108{opacity:0.5;fill:url(#SVGID_83_);}
	.st109{opacity:0.5;fill:url(#SVGID_84_);}
	.st110{fill:none;stroke:#000769;stroke-width:7;stroke-linecap:round;stroke-miterlimit:10;}
	.st111{opacity:0.5;fill:url(#SVGID_85_);}
	.st112{fill:none;stroke:#000769;stroke-width:8;stroke-linecap:round;stroke-miterlimit:10;}
	.st113{opacity:0.5;fill:url(#SVGID_86_);}
	.st114{opacity:0.5;fill:url(#SVGID_87_);}
	.st115{opacity:0.5;fill:url(#SVGID_88_);}
	.st116{opacity:0.5;fill:url(#SVGID_89_);}
	.st117{opacity:0.5;fill:url(#SVGID_90_);}
	.st118{opacity:0.5;fill:url(#SVGID_91_);}
	.st119{opacity:0.5;fill:url(#SVGID_92_);}
	.st120{opacity:0.5;fill:url(#SVGID_93_);}
	.st121{opacity:0.5;fill:url(#SVGID_94_);}
	.st122{opacity:0.5;fill:url(#SVGID_95_);}
	.st123{fill:#FFFFFF;stroke:#000769;stroke-width:7;stroke-miterlimit:10;}
	.st124{fill:none;stroke:#000769;stroke-width:10;stroke-linecap:round;stroke-miterlimit:10;}
	.st125{fill:#E2E9FC;stroke:#000769;stroke-width:10;stroke-miterlimit:10;}
	.st126{opacity:0.5;fill:url(#SVGID_96_);}
	.st127{opacity:0.5;fill:url(#SVGID_97_);}
	.st128{opacity:0.5;fill:url(#SVGID_98_);}
	.st129{opacity:0.3;fill:url(#SVGID_99_);}
	.st130{opacity:0.3;fill:url(#SVGID_100_);}
	.st131{opacity:0.3;fill:url(#SVGID_101_);}
	.st132{opacity:0.5;fill:url(#SVGID_102_);}
	.st133{opacity:0.3;fill:url(#SVGID_103_);}
	.st134{opacity:0.5;fill:url(#SVGID_104_);}
	.st135{opacity:0;fill:url(#SVGID_105_);}
	.st136{opacity:0.5;fill:url(#SVGID_106_);}
	.st137{opacity:0.5;fill:url(#SVGID_107_);}
	.st138{opacity:0.5;fill:url(#SVGID_108_);}
	.st139{opacity:0.5;fill:url(#SVGID_109_);}
	.st140{opacity:0.5;fill:url(#SVGID_110_);}
	.st141{opacity:0.5;fill:url(#SVGID_111_);}
	.st142{fill:none;stroke:#000769;stroke-width:12;stroke-linecap:round;stroke-miterlimit:10;}
	.st143{opacity:0.5;fill:url(#SVGID_112_);}
	.st144{opacity:0.5;fill:url(#SVGID_113_);}
	.st145{opacity:0.5;fill:url(#SVGID_114_);}
	.st146{opacity:0.5;fill:url(#SVGID_115_);}
	.st147{opacity:0.5;fill:url(#SVGID_116_);}
	.st148{opacity:0.5;fill:url(#SVGID_117_);}
	.st149{opacity:0.5;fill:url(#SVGID_118_);}
	.st150{opacity:0.5;fill:url(#SVGID_119_);}
	.st151{opacity:0.5;fill:url(#SVGID_120_);}
	.st152{opacity:0.5;fill:url(#SVGID_121_);}
	.st153{opacity:0.8;fill:url(#SVGID_122_);}
	.st154{opacity:0.5;fill:url(#SVGID_123_);}
	.st155{opacity:0.5;fill:url(#SVGID_124_);}
	.st156{opacity:0.5;fill:url(#SVGID_125_);}
	.st157{opacity:0.5;fill:url(#SVGID_126_);}
	.st158{opacity:0.5;fill:url(#SVGID_127_);}
	.st159{opacity:0.5;fill:url(#SVGID_128_);}
	.st160{opacity:0.5;fill:url(#SVGID_129_);}
	.st161{opacity:0.5;fill:url(#SVGID_130_);}
	.st162{opacity:0.5;fill:url(#SVGID_131_);}
	.st163{opacity:0.5;fill:url(#SVGID_132_);}
	.st164{opacity:0.5;fill:#FFFFFF;stroke:#000769;stroke-width:5;stroke-linecap:round;stroke-miterlimit:10;}
	.st165{opacity:0.5;fill:url(#SVGID_133_);}
	.st166{opacity:0.5;fill:url(#SVGID_134_);}
	.st167{opacity:0.5;fill:url(#SVGID_135_);}
	.st168{opacity:0.5;fill:url(#SVGID_136_);}
	.st169{opacity:0.5;fill:url(#SVGID_137_);}
	.st170{opacity:0.5;fill:url(#SVGID_138_);}
	.st171{opacity:0.5;fill:url(#SVGID_139_);}
	.st172{opacity:0.5;fill:url(#SVGID_140_);}
	.st173{opacity:0.5;fill:url(#SVGID_141_);}
	.st174{opacity:0.5;fill:url(#SVGID_142_);}
	.st175{opacity:0.5;fill:url(#SVGID_143_);}
	.st176{opacity:0.5;}
	.st177{opacity:0.5;fill:url(#SVGID_144_);}
	.st178{opacity:0.5;fill:url(#SVGID_145_);}
	.st179{opacity:0.5;fill:url(#SVGID_146_);}
	.st180{opacity:0.5;fill:url(#SVGID_147_);}
	.st181{opacity:0.5;fill:url(#SVGID_148_);}
	.st182{opacity:0.8;fill:url(#SVGID_149_);}
	.st183{opacity:0.5;fill:url(#SVGID_150_);}
	.st184{opacity:0.5;fill:url(#SVGID_151_);}
	.st185{opacity:0.5;fill:url(#SVGID_152_);}
	.st186{opacity:0.5;fill:url(#SVGID_153_);}
	.st187{opacity:0.5;fill:url(#SVGID_154_);}
	.st188{opacity:0.5;fill:url(#SVGID_155_);}
	.st189{opacity:0.5;fill:url(#SVGID_156_);}
	.st190{opacity:0.5;fill:url(#SVGID_157_);}
	.st191{opacity:0.5;fill:url(#SVGID_158_);}
	.st192{opacity:0.5;fill:url(#SVGID_159_);}
</style>
<g id="Sketch">
</g>
<g id="Layer_2">
	<path class="st26" d="M382.86,84.9l-39.23,39.23c-1.26,1.26-3.1,1.76-4.83,1.29l-33.64-9.01c-1.73-0.46-3.07-1.81-3.54-3.54
		l-9.01-33.64c-0.46-1.73,0.03-3.57,1.29-4.83l39.23-39.23c-7.12-1.88-14.69-2.67-22.51-2.15c-34.85,2.29-62.93,30.5-65.07,65.36
		c-0.55,9.02,0.63,17.69,3.21,25.74L124.11,248.77c-8.4-2.7-17.49-3.86-26.95-3.12c-34.53,2.71-62.11,30.82-64.16,65.4
		c-2.49,41.96,32.07,76.51,74.04,74c34.57-2.06,62.66-29.65,65.37-64.17c0.74-9.45-0.43-18.53-3.12-26.93l124.66-124.66
		c8.03,2.57,16.69,3.75,25.7,3.2c34.86-2.13,63.07-30.2,65.37-65.05C385.53,99.6,384.74,92.03,382.86,84.9z M131.98,317.04
		l-11.7,20.26c-1.43,2.48-4.07,4-6.93,4H89.97c-1.61,0-3.09-0.86-3.9-2.25l-12.71-22.01c-0.8-1.39-0.8-3.11,0-4.5l12.71-22.01
		c0.8-1.39,2.29-2.25,3.9-2.25h25.41c1.61,0,3.09,0.86,3.9,2.25l12.71,22.01C132.79,313.93,132.79,315.65,131.98,317.04z
		 M267.33,159.03L159.9,266.46c-2.17,2.17-5.69,2.17-7.86,0l-0.45-0.45c-2.17-2.17-2.17-5.69,0-7.86l107.43-107.43
		c2.17-2.17,5.69-2.17,7.86,0l0.45,0.45C269.49,153.34,269.49,156.86,267.33,159.03z"/>
	<path class="st23" d="M102.85,387.68c-19.18,0-37.66-7.59-51.27-21.18c-14.62-14.62-22.31-34.88-21.08-55.59
		c2.12-35.81,30.7-64.93,66.46-67.74c8.99-0.71,17.88,0.23,26.44,2.78l122.52-122.52c-2.43-8.16-3.4-16.62-2.87-25.19
		c2.22-36.21,31.2-65.32,67.4-67.7c7.88-0.52,15.73,0.23,23.32,2.23l4.21,1.11l-42.3,42.3c-0.63,0.63-0.88,1.55-0.65,2.41
		l9.01,33.64c0.23,0.86,0.91,1.54,1.77,1.77l33.64,9.01c0.86,0.23,1.78-0.02,2.41-0.65l42.3-42.3l1.11,4.21
		c2,7.6,2.75,15.45,2.23,23.34c-2.39,36.2-31.5,65.16-67.71,67.38c-8.55,0.52-17-0.44-25.15-2.86L172.12,294.64
		c2.55,8.56,3.48,17.44,2.78,26.43c-2.8,35.76-31.91,64.34-67.71,66.47C105.74,387.63,104.29,387.68,102.85,387.68z M102.76,247.93
		c-1.8,0-3.6,0.07-5.41,0.21c-33.29,2.62-59.89,29.72-61.86,63.05c-1.14,19.29,6.01,38.15,19.62,51.76
		c13.61,13.61,32.48,20.75,51.77,19.6c33.32-1.99,60.42-28.59,63.02-61.87c0.69-8.85-0.32-17.59-3.01-25.97l-0.47-1.45
		l126.82-126.82l1.45,0.47c8,2.56,16.34,3.6,24.78,3.09c33.71-2.06,60.8-29.03,63.03-62.72c0.39-5.86,0.02-11.7-1.09-17.41
		l-36.03,36.03c-1.89,1.89-4.66,2.63-7.24,1.94l-33.64-9.01c-2.58-0.69-4.61-2.72-5.3-5.3l-9.01-33.64
		c-0.69-2.58,0.05-5.36,1.94-7.24l36.03-36.03c-5.7-1.11-11.53-1.47-17.39-1.09c-33.7,2.22-60.67,29.31-62.74,63.02
		c-0.52,8.46,0.52,16.81,3.09,24.82l0.47,1.45L124.8,251.61l-1.45-0.47C116.67,249.01,109.77,247.93,102.76,247.93z M113.36,343.8
		H89.97c-2.49,0-4.82-1.34-6.06-3.5L71.2,318.29c-1.25-2.16-1.25-4.84,0-7l12.71-22.01c1.25-2.16,3.57-3.5,6.06-3.5h25.41
		c2.49,0,4.82,1.34,6.06,3.5l12.71,22.01c1.25,2.16,1.25,4.84,0,7l0,0l-11.7,20.26C120.58,341.78,117.1,343.8,113.36,343.8z
		 M89.97,290.78c-0.71,0-1.38,0.38-1.73,1l-12.71,22.01c-0.36,0.62-0.36,1.38,0,2l12.71,22.01c0.36,0.62,1.02,1,1.73,1h23.39
		c1.96,0,3.78-1.05,4.76-2.75l11.7-20.26l0,0c0.36-0.62,0.36-1.38,0-2l-12.71-22.01c-0.36-0.62-1.02-1-1.73-1H89.97z M155.97,270.58
		c-2.06,0-4.13-0.79-5.7-2.36l-0.45-0.45c-3.14-3.14-3.14-8.25,0-11.39l107.43-107.43c3.14-3.14,8.25-3.14,11.39,0l0.45,0.45
		c3.14,3.14,3.14,8.25,0,11.39L161.67,268.22C160.1,269.8,158.03,270.58,155.97,270.58z M262.95,151.6c-0.78,0-1.56,0.3-2.16,0.89
		L153.36,259.92c-0.58,0.58-0.89,1.34-0.89,2.16s0.32,1.58,0.89,2.16l0.45,0.45c1.15,1.15,3.17,1.15,4.32,0l107.43-107.43
		c1.19-1.19,1.19-3.13,0-4.32l-0.45-0.45C264.52,151.9,263.73,151.6,262.95,151.6z"/>
	<circle class="st24" cx="279.46" cy="288.28" r="10.28"/>
	<path class="st23" d="M279.46,283c2.91,0,5.28,2.37,5.28,5.28c0,2.91-2.37,5.28-5.28,5.28c-2.91,0-5.28-2.37-5.28-5.28
		C274.19,285.37,276.55,283,279.46,283 M279.46,278c-5.68,0-10.28,4.6-10.28,10.28c0,5.68,4.6,10.28,10.28,10.28
		c5.68,0,10.28-4.6,10.28-10.28C289.74,282.61,285.14,278,279.46,278L279.46,278z"/>
	<circle class="st24" cx="407.77" cy="30.53" r="10.28"/>
	<path class="st23" d="M407.77,25.25c2.91,0,5.28,2.37,5.28,5.28s-2.37,5.28-5.28,5.28c-2.91,0-5.28-2.37-5.28-5.28
		S404.86,25.25,407.77,25.25 M407.77,20.25c-5.68,0-10.28,4.6-10.28,10.28s4.6,10.28,10.28,10.28c5.68,0,10.28-4.6,10.28-10.28
		S413.44,20.25,407.77,20.25L407.77,20.25z"/>
	<circle class="st29" cx="182.98" cy="381.94" r="10.28"/>
	<path class="st23" d="M182.98,394.71c-7.04,0-12.78-5.73-12.78-12.78c0-7.04,5.73-12.78,12.78-12.78c7.05,0,12.78,5.73,12.78,12.78
		C195.76,388.98,190.03,394.71,182.98,394.71z M182.98,374.16c-4.29,0-7.78,3.49-7.78,7.78c0,4.29,3.49,7.78,7.78,7.78
		c4.29,0,7.78-3.49,7.78-7.78C190.76,377.65,187.27,374.16,182.98,374.16z"/>
	<circle class="st29" cx="140.74" cy="137.04" r="10.28"/>
	<path class="st23" d="M140.74,149.82c-7.05,0-12.78-5.73-12.78-12.78c0-7.04,5.73-12.78,12.78-12.78s12.78,5.73,12.78,12.78
		C153.51,144.09,147.78,149.82,140.74,149.82z M140.74,129.27c-4.29,0-7.78,3.49-7.78,7.78c0,4.29,3.49,7.78,7.78,7.78
		s7.78-3.49,7.78-7.78C148.51,132.75,145.02,129.27,140.74,129.27z"/>
	<g>
		<path class="st29" d="M181.13,4.06l8.89,16.25c0.28,0.5,0.69,0.92,1.19,1.19l16.25,8.89c2.08,1.14,2.08,4.13,0,5.26l-16.25,8.89
			c-0.5,0.28-0.92,0.69-1.19,1.19L181.13,62c-1.14,2.08-4.13,2.08-5.26,0l-8.89-16.25c-0.28-0.5-0.69-0.92-1.19-1.19l-16.25-8.89
			c-2.08-1.14-2.08-4.13,0-5.26l16.25-8.89c0.5-0.28,0.92-0.69,1.19-1.19l8.89-16.25C177,1.98,179.99,1.98,181.13,4.06z"/>
		<path class="st23" d="M178.49,66.06c-2.01,0-3.86-1.1-4.83-2.86l-8.89-16.25c-0.05-0.08-0.11-0.15-0.2-0.2l-16.25-8.89
			c-1.76-0.97-2.86-2.81-2.86-4.83s1.1-3.86,2.86-4.83l16.25-8.89c0.08-0.05,0.15-0.11,0.2-0.2l8.89-16.25
			C174.63,1.1,176.48,0,178.49,0s3.86,1.1,4.83,2.86l8.89,16.25c0.05,0.08,0.11,0.15,0.2,0.2l16.25,8.89
			c1.76,0.97,2.86,2.81,2.86,4.83s-1.1,3.86-2.86,4.83l-16.25,8.89c-0.08,0.05-0.15,0.11-0.2,0.2l-8.89,16.25
			C182.35,64.96,180.5,66.06,178.49,66.06z M178.49,5c-0.2,0-0.34,0.09-0.44,0.26l-8.89,16.25c-0.51,0.92-1.26,1.68-2.19,2.19
			l-16.25,8.89c-0.17,0.09-0.26,0.24-0.26,0.44s0.09,0.34,0.26,0.44l16.25,8.89c0.92,0.51,1.68,1.26,2.19,2.19l8.89,16.25
			c0.19,0.34,0.69,0.34,0.88,0l8.89-16.25c0.51-0.92,1.26-1.68,2.19-2.19l16.25-8.89c0.17-0.09,0.26-0.24,0.26-0.44
			s-0.09-0.34-0.26-0.44l-16.25-8.89c-0.92-0.51-1.68-1.26-2.19-2.19l-8.89-16.25C178.84,5.09,178.69,5,178.49,5z"/>
	</g>
	<g>
		<path class="st29" d="M47.13,42.91l11.96,21.87c0.37,0.68,0.93,1.23,1.6,1.6l21.87,11.96c2.8,1.53,2.8,5.55,0,7.08L60.7,97.4
			c-0.68,0.37-1.23,0.93-1.6,1.6l-11.96,21.87c-1.53,2.8-5.55,2.8-7.08,0L28.08,99c-0.37-0.68-0.93-1.23-1.6-1.6L4.6,85.43
			c-2.8-1.53-2.8-5.55,0-7.08l21.87-11.96c0.68-0.37,1.23-0.93,1.6-1.6l11.96-21.87C41.57,40.11,45.6,40.11,47.13,42.91z"/>
		<path class="st23" d="M43.59,125.48c-2.39,0-4.59-1.3-5.74-3.4L25.89,100.2c-0.14-0.26-0.35-0.47-0.61-0.61L3.4,87.63
			C1.3,86.48,0,84.28,0,81.89c0-2.39,1.3-4.59,3.4-5.74l21.87-11.96c0.26-0.14,0.47-0.35,0.61-0.61l11.96-21.87
			c1.15-2.1,3.34-3.4,5.74-3.4s4.59,1.3,5.74,3.4l11.96,21.87c0.14,0.26,0.35,0.47,0.61,0.61l21.87,11.96
			c2.1,1.15,3.4,3.34,3.4,5.74c0,2.39-1.3,4.59-3.4,5.74L61.9,99.59c-0.26,0.14-0.47,0.35-0.61,0.61l-11.96,21.88
			C48.17,124.17,45.98,125.48,43.59,125.48z M43.59,43.31c-0.27,0-0.95,0.08-1.35,0.8L30.27,65.98c-0.6,1.1-1.5,2-2.6,2.6L5.8,80.54
			C5.08,80.94,5,81.62,5,81.89c0,0.27,0.08,0.95,0.8,1.35L27.67,95.2c1.1,0.6,2,1.5,2.6,2.6l11.96,21.87
			c0.39,0.72,1.07,0.8,1.35,0.8s0.95-0.08,1.35-0.8L56.9,97.8c0.6-1.1,1.5-2,2.6-2.6l21.87-11.96c0.72-0.39,0.8-1.07,0.8-1.35
			c0-0.27-0.08-0.95-0.8-1.35L59.5,68.58c-1.1-0.6-2-1.5-2.6-2.6L44.93,44.11C44.54,43.38,43.86,43.31,43.59,43.31z"/>
	</g>
	<path class="st29" d="M366.06,238.17l5.54,10.12c0.3,0.55,0.76,1.01,1.31,1.31l10.12,5.54c2.29,1.25,2.29,4.54,0,5.79l-10.12,5.54
		c-0.55,0.3-1.01,0.76-1.31,1.31l-5.54,10.12c-1.25,2.29-4.54,2.29-5.79,0l-5.54-10.12c-0.3-0.55-0.76-1.01-1.31-1.31l-10.12-5.54
		c-2.29-1.25-2.29-4.54,0-5.79l10.12-5.54c0.55-0.3,1.01-0.76,1.31-1.31l5.54-10.12C361.52,235.88,364.81,235.88,366.06,238.17z"/>
	<path class="st23" d="M363.16,282.13c-2.12,0-4.07-1.16-5.09-3.02l-5.54-10.12c-0.07-0.14-0.18-0.25-0.32-0.32l-10.12-5.54
		c-1.86-1.02-3.02-2.97-3.02-5.09c0-2.12,1.16-4.07,3.02-5.09l10.12-5.54c0.14-0.07,0.25-0.18,0.32-0.32l5.54-10.12
		c1.02-1.86,2.97-3.02,5.09-3.02c2.12,0,4.07,1.16,5.09,3.02v0l5.54,10.12c0.07,0.13,0.18,0.25,0.32,0.32l10.12,5.54
		c1.86,1.02,3.02,2.97,3.02,5.09c0,2.12-1.16,4.07-3.02,5.09l-10.12,5.54c-0.14,0.07-0.25,0.18-0.32,0.32l-5.54,10.12
		C367.23,280.97,365.28,282.13,363.16,282.13z M363.16,238.96c-0.18,0-0.51,0.05-0.7,0.42l-5.54,10.12
		c-0.53,0.98-1.33,1.77-2.31,2.31l-10.12,5.54c-0.36,0.2-0.42,0.53-0.42,0.7s0.05,0.51,0.42,0.7l10.12,5.54
		c0.98,0.53,1.77,1.33,2.31,2.31l5.54,10.12c0.2,0.36,0.53,0.42,0.7,0.42c0.18,0,0.51-0.05,0.7-0.42l5.54-10.12
		c0.53-0.98,1.33-1.77,2.31-2.31l10.12-5.54c0.36-0.2,0.42-0.53,0.42-0.7s-0.05-0.51-0.42-0.7l-10.12-5.54
		c-0.98-0.53-1.77-1.33-2.31-2.31l-5.54-10.12C363.67,239.01,363.34,238.96,363.16,238.96z"/>
	<g>
		<path class="st29" d="M281.63,346.2l9.26,16.93c0.51,0.93,1.27,1.69,2.2,2.2l16.93,9.26c3.83,2.1,3.83,7.6,0,9.69l-16.93,9.26
			c-0.93,0.51-1.69,1.27-2.2,2.2l-9.26,16.93c-2.1,3.83-7.6,3.83-9.69,0l-9.26-16.93c-0.51-0.93-1.27-1.69-2.2-2.2l-16.93-9.26
			c-3.83-2.1-3.83-7.6,0-9.69l16.93-9.26c0.93-0.51,1.69-1.27,2.2-2.2l9.26-16.93C274.03,342.37,279.54,342.37,281.63,346.2z"/>
		<path class="st23" d="M276.79,418.05c-2.98,0-5.61-1.56-7.04-4.17l-9.26-16.93c-0.28-0.51-0.69-0.92-1.2-1.2l-16.93-9.26
			c-2.61-1.43-4.17-4.06-4.17-7.04c0-2.98,1.56-5.61,4.17-7.04l16.93-9.26c0.51-0.28,0.92-0.69,1.2-1.2l9.26-16.93
			c1.43-2.61,4.06-4.17,7.04-4.17c0,0,0,0,0,0c2.98,0,5.61,1.56,7.04,4.17l9.26,16.93c0.28,0.51,0.69,0.92,1.2,1.2l16.93,9.26
			c2.61,1.43,4.17,4.06,4.17,7.04c0,2.98-1.56,5.61-4.17,7.04l-16.93,9.26c-0.51,0.28-0.92,0.69-1.2,1.2l-9.26,16.93
			C282.4,416.48,279.76,418.05,276.79,418.05z M276.79,345.83c-1.12,0-2.11,0.59-2.65,1.57l-9.26,16.93
			c-0.74,1.35-1.84,2.45-3.19,3.19l-16.93,9.26c-0.99,0.54-1.57,1.53-1.57,2.65c0,1.12,0.59,2.11,1.57,2.65l16.93,9.26
			c1.35,0.74,2.45,1.84,3.19,3.19l9.26,16.93c0.54,0.98,1.53,1.57,2.65,1.57c1.12,0,2.11-0.59,2.65-1.57l9.26-16.93
			c0.74-1.35,1.84-2.45,3.19-3.19l16.93-9.26c0.99-0.54,1.57-1.53,1.57-2.65c0-1.12-0.59-2.11-1.57-2.65l-16.93-9.26
			c-1.35-0.74-2.45-1.84-3.19-3.19l-9.26-16.93C278.9,346.41,277.91,345.83,276.79,345.83z"/>
	</g>
	<path class="st24" d="M43.48,177.17l5.2,9.5c0.16,0.29,0.4,0.54,0.7,0.7l9.5,5.2c1.22,0.67,1.22,2.41,0,3.08l-9.5,5.2
		c-0.29,0.16-0.54,0.4-0.7,0.7l-5.2,9.5c-0.67,1.22-2.41,1.22-3.08,0l-5.2-9.5c-0.16-0.29-0.4-0.54-0.7-0.7l-9.5-5.2
		c-1.22-0.67-1.22-2.41,0-3.08l9.5-5.2c0.29-0.16,0.54-0.4,0.7-0.7l5.2-9.5C41.07,175.95,42.82,175.95,43.48,177.17z"/>
	<path class="st23" d="M41.94,214.45c-1.56,0-2.99-0.85-3.73-2.21l-5.09-9.31l-9.31-5.09c-1.36-0.75-2.21-2.18-2.21-3.73
		c0-1.56,0.85-2.99,2.21-3.73l9.31-5.09l5.09-9.31c0.75-1.36,2.18-2.21,3.73-2.21c0,0,0,0,0,0c1.56,0,2.99,0.85,3.73,2.21l5.09,9.31
		l9.31,5.09c1.36,0.75,2.21,2.18,2.21,3.73c0,1.56-0.85,2.99-2.21,3.73l-9.31,5.09l-5.09,9.31C44.93,213.6,43.5,214.45,41.94,214.45
		z M27.4,194.1l8.3,4.54c0.71,0.39,1.3,0.98,1.69,1.69l4.54,8.3l4.54-8.3c0.39-0.72,0.98-1.3,1.69-1.69l8.3-4.54l-8.3-4.54
		c-0.71-0.39-1.3-0.98-1.69-1.69l-4.54-8.31l-4.54,8.3c-0.39,0.71-0.98,1.3-1.69,1.69L27.4,194.1z M41.29,178.37
		C41.29,178.37,41.29,178.37,41.29,178.37L41.29,178.37z"/>
	<path class="st24" d="M386.78,338.23l5.2,9.5c0.16,0.29,0.4,0.54,0.7,0.7l9.5,5.2c1.22,0.67,1.22,2.41,0,3.08l-9.5,5.2
		c-0.29,0.16-0.54,0.4-0.7,0.7l-5.2,9.5c-0.67,1.22-2.41,1.22-3.08,0l-5.2-9.5c-0.16-0.29-0.4-0.54-0.7-0.7l-9.5-5.2
		c-1.22-0.67-1.22-2.41,0-3.08l9.5-5.2c0.29-0.16,0.54-0.4,0.7-0.7l5.2-9.5C384.37,337.02,386.12,337.02,386.78,338.23z"/>
	<path class="st23" d="M385.25,375.51C385.25,375.51,385.25,375.51,385.25,375.51c-1.56,0-2.99-0.85-3.73-2.21l-5.09-9.31
		l-9.31-5.09c-1.36-0.75-2.21-2.18-2.21-3.73c0-1.56,0.85-2.99,2.21-3.73l9.31-5.09l5.09-9.31c0.75-1.36,2.18-2.21,3.73-2.21
		c1.56,0,2.99,0.85,3.73,2.21v0l5.09,9.31l9.31,5.09c1.36,0.75,2.21,2.18,2.21,3.73c0,1.56-0.85,2.99-2.21,3.73l-9.31,5.09
		l-5.09,9.31C388.23,374.67,386.8,375.51,385.25,375.51z M370.71,355.17l8.3,4.54c0.72,0.39,1.3,0.98,1.69,1.69l4.54,8.31l4.54-8.3
		c0.39-0.71,0.98-1.3,1.69-1.69l8.31-4.54l-8.3-4.54c-0.71-0.39-1.3-0.98-1.69-1.69l-4.54-8.3l-4.54,8.3
		c-0.39,0.72-0.98,1.3-1.69,1.69L370.71,355.17z M384.59,339.43C384.59,339.43,384.59,339.43,384.59,339.43L384.59,339.43
		L384.59,339.43z"/>
	<g>
		<path class="st29" d="M21.89,372.57l5.2,9.5c0.16,0.29,0.4,0.54,0.7,0.7l9.5,5.2c1.22,0.67,1.22,2.41,0,3.08l-9.5,5.2
			c-0.29,0.16-0.54,0.4-0.7,0.7l-5.2,9.5c-0.67,1.22-2.41,1.22-3.08,0l-5.2-9.5c-0.16-0.29-0.4-0.54-0.7-0.7l-9.5-5.2
			c-1.22-0.67-1.22-2.41,0-3.08l9.5-5.2c0.29-0.16,0.54-0.4,0.7-0.7l5.2-9.5C19.47,371.35,21.22,371.35,21.89,372.57z"/>
		<path class="st23" d="M20.35,409.85c-1.56,0-2.99-0.85-3.73-2.21l-5.09-9.31l-9.31-5.09C0.85,392.49,0,391.06,0,389.51
			c0-1.56,0.85-2.99,2.21-3.73l9.31-5.09l5.09-9.31c0.75-1.36,2.18-2.21,3.73-2.21c1.56,0,2.99,0.85,3.73,2.21v0l5.09,9.31
			l9.31,5.09c1.36,0.75,2.21,2.18,2.21,3.73c0,1.56-0.85,2.99-2.21,3.73l-9.31,5.09l-5.09,9.31C23.33,409,21.9,409.85,20.35,409.85z
			 M5.81,389.51l8.3,4.54c0.72,0.39,1.3,0.98,1.69,1.69l4.54,8.3l4.54-8.3c0.39-0.71,0.98-1.3,1.69-1.69l8.31-4.54l-8.3-4.54
			c-0.71-0.39-1.3-0.98-1.69-1.69l-4.54-8.3l-4.54,8.3c-0.39,0.72-0.98,1.3-1.69,1.69L5.81,389.51z M19.69,373.77
			C19.69,373.77,19.69,373.77,19.69,373.77L19.69,373.77L19.69,373.77z"/>
	</g>
	
		<linearGradient id="SVGID_2_" gradientUnits="userSpaceOnUse" x1="-3906.8877" y1="7829.793" x2="-3767.7417" y2="7829.793" gradientTransform="matrix(0.7071 0.7071 -0.7071 0.7071 8411.3213 -2653.5447)">
		<stop  offset="0" style="stop-color:#333DC9"/>
		<stop  offset="1" style="stop-color:#333DC9;stop-opacity:0.2"/>
	</linearGradient>
	<path style="opacity:0.8;fill:url(#SVGID_2_);" d="M299.22,113.52l-9.01-33.64c-0.69-2.58,0.05-5.36,1.94-7.24l36.03-36.03
		c-5.7-1.11-11.53-1.47-17.39-1.09c-33.7,2.22-60.67,29.31-62.74,63.02c-0.52,8.46,0.52,16.81,3.09,24.82l0.47,1.45L124.8,251.61
		l-1.45-0.47c-6.68-2.14-13.58-3.22-20.58-3.22c-1.8,0-3.6,0.07-5.41,0.21c-33.29,2.62-59.89,29.72-61.86,63.05
		c-1.14,19.29,6.01,38.15,19.62,51.76c0.03,0.03,0.06,0.06,0.09,0.08l26.52-26.52L71.2,318.29c-1.25-2.16-1.25-4.84,0-7l12.71-22.01
		c1.25-2.16,3.57-3.5,6.06-3.5h25.41c2.49,0,4.82,1.34,6.06,3.5l2.75,4.77l25.95-25.95l-0.32-0.32c-3.14-3.14-3.14-8.25,0-11.39
		l107.43-107.43c3.14-3.14,8.25-3.14,11.39,0l0.32,0.32l32.31-32.31C300.3,116.04,299.58,114.86,299.22,113.52z"/>
</g>
</svg>
