<?xml version="1.0" encoding="utf-8"?>
<!-- Generator: Adobe Illustrator 24.0.1, SVG Export Plug-In . SVG Version: 6.00 Build 0)  -->
<svg version="1.1" xmlns="http://www.w3.org/2000/svg" xmlns:xlink="http://www.w3.org/1999/xlink" x="0px" y="0px"
	 viewBox="0 0 418.05 418.05" style="enable-background:new 0 0 418.05 418.05;" xml:space="preserve">
<style type="text/css">
	.st0{clip-path:url(#SVGID_2_);}
	.st1{clip-path:url(#SVGID_4_);}
	.st2{clip-path:url(#SVGID_6_);}
	.st3{clip-path:url(#SVGID_8_);}
	.st4{clip-path:url(#SVGID_10_);}
	.st5{clip-path:url(#SVGID_12_);}
	.st6{fill:none;stroke:#231F20;stroke-miterlimit:10;}
	.st7{opacity:0;fill:url(#SVGID_13_);}
	.st8{opacity:0.3;fill:url(#SVGID_14_);}
	.st9{fill:#A3A7E6;stroke:#000769;stroke-width:5;stroke-miterlimit:10;}
	.st10{fill:#939598;stroke:#000000;stroke-width:5;stroke-miterlimit:10;}
	.st11{fill:none;stroke:#231F20;stroke-width:10;stroke-miterlimit:10;}
	.st12{fill:#231F20;stroke:#231F20;stroke-miterlimit:10;}
	.st13{fill:#D1D3D4;stroke:#000000;stroke-width:5;stroke-miterlimit:10;}
	.st14{fill:none;stroke:#D1D3D4;stroke-width:15;stroke-linecap:round;stroke-miterlimit:10;}
	.st15{fill:none;stroke:#231F20;stroke-linecap:round;stroke-miterlimit:10;}
	.st16{fill:#F1F2F2;stroke:#000000;stroke-width:5;stroke-miterlimit:10;}
	.st17{fill:#D1D3D4;}
	.st18{fill:#FFFFFF;stroke:#231F20;stroke-width:5;stroke-miterlimit:10;}
	.st19{fill:#939598;}
	.st20{fill:none;}
	.st21{fill:#333DC9;stroke:#000769;stroke-width:5;stroke-miterlimit:10;}
	.st22{fill:#E2E9FC;stroke:#000769;stroke-width:5;stroke-miterlimit:10;}
	.st23{fill:#000769;}
	.st24{fill:#A3A7E6;}
	.st25{fill:#333DC9;}
	.st26{fill:#FFFFFF;}
	.st27{opacity:0.5;fill:url(#SVGID_15_);}
	.st28{opacity:0.5;fill:url(#SVGID_16_);}
	.st29{fill:#E2E9FC;}
	.st30{fill:#FFFFFF;stroke:#000769;stroke-width:5;stroke-miterlimit:10;}
	.st31{fill:url(#SVGID_17_);}
	.st32{opacity:0.5;fill:url(#SVGID_18_);}
	.st33{opacity:0.5;fill:url(#SVGID_19_);}
	.st34{opacity:0.5;fill:url(#SVGID_20_);}
	.st35{opacity:0.5;fill:url(#SVGID_21_);}
	.st36{opacity:0.5;fill:url(#SVGID_22_);}
	.st37{opacity:0.5;fill:url(#SVGID_23_);}
	.st38{opacity:0.5;fill:url(#SVGID_24_);}
	.st39{opacity:0.5;fill:url(#SVGID_25_);}
	.st40{opacity:0.5;fill:url(#SVGID_26_);}
	.st41{fill:none;stroke:#231F20;stroke-width:5;stroke-miterlimit:10;}
	.st42{fill:#231F20;}
	.st43{opacity:0.5;fill:url(#SVGID_27_);}
	.st44{opacity:0.5;fill:url(#SVGID_28_);}
	.st45{opacity:0.5;fill:url(#SVGID_29_);}
	.st46{fill:url(#SVGID_30_);stroke:#000769;stroke-width:5;stroke-miterlimit:10;}
	.st47{opacity:0.5;fill:url(#SVGID_31_);}
	.st48{opacity:0.5;fill:url(#SVGID_32_);}
	.st49{opacity:0.5;fill:url(#SVGID_33_);}
	.st50{opacity:0.5;fill:url(#SVGID_34_);}
	.st51{opacity:0.5;fill:url(#SVGID_35_);}
	.st52{opacity:0.5;fill:url(#SVGID_36_);}
	.st53{opacity:0.5;fill:url(#SVGID_37_);}
	.st54{opacity:0.5;fill:url(#SVGID_38_);}
	.st55{opacity:0.5;fill:url(#SVGID_39_);}
	.st56{opacity:0.5;fill:url(#SVGID_40_);}
	.st57{opacity:0.5;fill:url(#SVGID_41_);}
	.st58{opacity:0.5;fill:url(#SVGID_42_);}
	.st59{opacity:0.5;fill:url(#SVGID_43_);}
	.st60{opacity:0.5;fill:url(#SVGID_44_);}
	.st61{opacity:0.5;fill:url(#SVGID_45_);}
	.st62{opacity:0.5;fill:url(#SVGID_46_);}
	.st63{fill:#FFFFFF;stroke:#231F20;stroke-miterlimit:10;}
	.st64{fill:none;stroke:#231F20;stroke-width:5;stroke-linecap:round;stroke-miterlimit:10;}
	.st65{fill:#FFFFFF;stroke:#231F20;stroke-width:5;stroke-linecap:round;stroke-miterlimit:10;}
	.st66{opacity:0.5;fill:url(#SVGID_47_);}
	.st67{opacity:0.5;fill:url(#SVGID_48_);}
	.st68{opacity:0.5;fill:url(#SVGID_49_);}
	.st69{opacity:0.8;fill:url(#SVGID_50_);}
	.st70{opacity:0.8;fill:url(#SVGID_51_);}
	.st71{opacity:0.8;fill:url(#SVGID_52_);}
	.st72{opacity:0.8;fill:url(#SVGID_53_);}
	.st73{opacity:0.8;fill:url(#SVGID_54_);}
	.st74{opacity:0.8;fill:url(#SVGID_55_);}
	.st75{fill:none;stroke:#231F20;stroke-width:16;stroke-miterlimit:10;}
	.st76{fill:none;stroke:#231F20;stroke-width:16;stroke-linecap:round;stroke-miterlimit:10;}
	.st77{fill:#FFFFFF;stroke:#000769;stroke-width:5;stroke-linecap:round;stroke-miterlimit:10;}
	.st78{fill:#231F20;stroke:#231F20;stroke-width:5;stroke-miterlimit:10;}
	.st79{opacity:0.8;fill:url(#SVGID_56_);}
	.st80{fill:none;stroke:#000769;stroke-width:16;stroke-linecap:round;stroke-miterlimit:10;}
	.st81{opacity:0.5;fill:url(#SVGID_57_);}
	.st82{opacity:0.5;fill:url(#SVGID_58_);}
	.st83{opacity:0.5;fill:url(#SVGID_59_);}
	.st84{opacity:0.5;fill:url(#SVGID_60_);}
	.st85{opacity:0.5;fill:url(#SVGID_61_);}
	.st86{fill:none;stroke:#000769;stroke-width:5;stroke-linecap:round;stroke-miterlimit:10;}
	.st87{opacity:0.5;fill:url(#SVGID_62_);}
	.st88{opacity:0.5;fill:url(#SVGID_63_);}
	.st89{opacity:0.5;fill:url(#SVGID_64_);}
	.st90{opacity:0.5;fill:url(#SVGID_65_);}
	.st91{opacity:0.5;fill:url(#SVGID_66_);}
	.st92{opacity:0.5;fill:url(#SVGID_67_);}
	.st93{opacity:0.5;fill:url(#SVGID_68_);}
	.st94{opacity:0.5;fill:url(#SVGID_69_);}
	.st95{opacity:0.5;fill:url(#SVGID_70_);}
	.st96{opacity:0.5;fill:url(#SVGID_71_);}
	.st97{opacity:0.5;fill:url(#SVGID_72_);}
	.st98{opacity:0.5;fill:url(#SVGID_73_);}
	.st99{opacity:0.5;fill:url(#SVGID_74_);}
	.st100{opacity:0.5;fill:url(#SVGID_75_);}
	.st101{opacity:0.5;fill:url(#SVGID_76_);}
	.st102{opacity:0.5;fill:url(#SVGID_77_);}
	.st103{opacity:0.5;fill:url(#SVGID_78_);}
	.st104{opacity:0.5;fill:url(#SVGID_79_);}
	.st105{opacity:0.5;fill:url(#SVGID_80_);}
	.st106{opacity:0.5;fill:url(#SVGID_81_);}
	.st107{opacity:0.5;fill:url(#SVGID_82_);}
	.st108{opacity:0.5;fill:url(#SVGID_83_);}
	.st109{opacity:0.5;fill:url(#SVGID_84_);}
	.st110{fill:none;stroke:#000769;stroke-width:7;stroke-linecap:round;stroke-miterlimit:10;}
	.st111{opacity:0.5;fill:url(#SVGID_85_);}
	.st112{fill:none;stroke:#000769;stroke-width:8;stroke-linecap:round;stroke-miterlimit:10;}
	.st113{opacity:0.5;fill:url(#SVGID_86_);}
	.st114{opacity:0.5;fill:url(#SVGID_87_);}
	.st115{opacity:0.5;fill:url(#SVGID_88_);}
	.st116{opacity:0.5;fill:url(#SVGID_89_);}
	.st117{opacity:0.5;fill:url(#SVGID_90_);}
	.st118{opacity:0.5;fill:url(#SVGID_91_);}
	.st119{opacity:0.5;fill:url(#SVGID_92_);}
	.st120{opacity:0.5;fill:url(#SVGID_93_);}
	.st121{opacity:0.5;fill:url(#SVGID_94_);}
	.st122{opacity:0.5;fill:url(#SVGID_95_);}
	.st123{fill:#FFFFFF;stroke:#000769;stroke-width:7;stroke-miterlimit:10;}
	.st124{fill:none;stroke:#000769;stroke-width:10;stroke-linecap:round;stroke-miterlimit:10;}
	.st125{fill:#E2E9FC;stroke:#000769;stroke-width:10;stroke-miterlimit:10;}
	.st126{opacity:0.5;fill:url(#SVGID_96_);}
	.st127{opacity:0.5;fill:url(#SVGID_97_);}
	.st128{opacity:0.5;fill:url(#SVGID_98_);}
	.st129{opacity:0.3;fill:url(#SVGID_99_);}
	.st130{opacity:0.3;fill:url(#SVGID_100_);}
	.st131{opacity:0.3;fill:url(#SVGID_101_);}
	.st132{opacity:0.5;fill:url(#SVGID_102_);}
	.st133{opacity:0.3;fill:url(#SVGID_103_);}
	.st134{opacity:0.5;fill:url(#SVGID_104_);}
	.st135{opacity:0;fill:url(#SVGID_105_);}
	.st136{opacity:0.5;fill:url(#SVGID_106_);}
	.st137{opacity:0.5;fill:url(#SVGID_107_);}
	.st138{opacity:0.5;fill:url(#SVGID_108_);}
	.st139{opacity:0.5;fill:url(#SVGID_109_);}
	.st140{opacity:0.5;fill:url(#SVGID_110_);}
	.st141{opacity:0.5;fill:url(#SVGID_111_);}
	.st142{fill:none;stroke:#000769;stroke-width:12;stroke-linecap:round;stroke-miterlimit:10;}
	.st143{opacity:0.5;fill:url(#SVGID_112_);}
	.st144{opacity:0.5;fill:url(#SVGID_113_);}
	.st145{opacity:0.5;fill:url(#SVGID_114_);}
	.st146{opacity:0.5;fill:url(#SVGID_115_);}
	.st147{opacity:0.5;fill:url(#SVGID_116_);}
	.st148{opacity:0.5;fill:url(#SVGID_117_);}
	.st149{opacity:0.5;fill:url(#SVGID_118_);}
	.st150{opacity:0.5;fill:url(#SVGID_119_);}
	.st151{opacity:0.5;fill:url(#SVGID_120_);}
	.st152{opacity:0.5;fill:url(#SVGID_121_);}
	.st153{opacity:0.8;fill:url(#SVGID_122_);}
	.st154{opacity:0.5;fill:url(#SVGID_123_);}
	.st155{opacity:0.5;fill:url(#SVGID_124_);}
	.st156{opacity:0.5;fill:url(#SVGID_125_);}
	.st157{opacity:0.5;fill:url(#SVGID_126_);}
	.st158{opacity:0.5;fill:url(#SVGID_127_);}
	.st159{opacity:0.5;fill:url(#SVGID_128_);}
	.st160{opacity:0.5;fill:url(#SVGID_129_);}
	.st161{opacity:0.5;fill:url(#SVGID_130_);}
	.st162{opacity:0.5;fill:url(#SVGID_131_);}
	.st163{opacity:0.5;fill:url(#SVGID_132_);}
	.st164{opacity:0.5;fill:#FFFFFF;stroke:#000769;stroke-width:5;stroke-linecap:round;stroke-miterlimit:10;}
	.st165{opacity:0.5;fill:url(#SVGID_133_);}
	.st166{opacity:0.5;fill:url(#SVGID_134_);}
	.st167{opacity:0.5;fill:url(#SVGID_135_);}
	.st168{opacity:0.5;fill:url(#SVGID_136_);}
	.st169{opacity:0.5;fill:url(#SVGID_137_);}
	.st170{opacity:0.5;fill:url(#SVGID_138_);}
	.st171{opacity:0.5;fill:url(#SVGID_139_);}
	.st172{opacity:0.5;fill:url(#SVGID_140_);}
	.st173{opacity:0.5;fill:url(#SVGID_141_);}
	.st174{opacity:0.5;fill:url(#SVGID_142_);}
	.st175{opacity:0.5;fill:url(#SVGID_143_);}
	.st176{opacity:0.5;}
	.st177{opacity:0.5;fill:url(#SVGID_144_);}
	.st178{opacity:0.5;fill:url(#SVGID_145_);}
	.st179{opacity:0.5;fill:url(#SVGID_146_);}
	.st180{opacity:0.5;fill:url(#SVGID_147_);}
	.st181{opacity:0.5;fill:url(#SVGID_148_);}
	.st182{opacity:0.8;fill:url(#SVGID_149_);}
	.st183{opacity:0.5;fill:url(#SVGID_150_);}
	.st184{opacity:0.5;fill:url(#SVGID_151_);}
	.st185{opacity:0.5;fill:url(#SVGID_152_);}
	.st186{opacity:0.5;fill:url(#SVGID_153_);}
	.st187{opacity:0.5;fill:url(#SVGID_154_);}
	.st188{opacity:0.5;fill:url(#SVGID_155_);}
	.st189{opacity:0.5;fill:url(#SVGID_156_);}
	.st190{opacity:0.5;fill:url(#SVGID_157_);}
	.st191{opacity:0.5;fill:url(#SVGID_158_);}
	.st192{opacity:0.5;fill:url(#SVGID_159_);}
</style>
<g id="Sketch">
</g>
<g id="Layer_2">
	<g>
		<polygon class="st29" points="377.8,150.07 335.05,299.71 128.34,299.71 95.09,150.07 		"/>
		<path class="st23" d="M371.17,155.07l-39.9,139.63H132.35l-31.03-139.63H371.17 M377.8,150.07H95.09l33.25,149.63h206.7
			L377.8,150.07L377.8,150.07z"/>
	</g>
	<g>
		<circle class="st24" cx="160.04" cy="345.06" r="27.46"/>
		<path class="st23" d="M160.04,375.03c-16.52,0-29.96-13.44-29.96-29.96s13.44-29.96,29.96-29.96c16.52,0,29.96,13.44,29.96,29.96
			S176.56,375.03,160.04,375.03z M160.04,320.1c-13.77,0-24.96,11.2-24.96,24.96s11.2,24.96,24.96,24.96
			c13.77,0,24.96-11.2,24.96-24.96S173.81,320.1,160.04,320.1z"/>
	</g>
	<g>
		<circle class="st24" cx="302.32" cy="345.06" r="27.46"/>
		<path class="st23" d="M302.32,375.03c-16.52,0-29.96-13.44-29.96-29.96s13.44-29.96,29.96-29.96s29.96,13.44,29.96,29.96
			S318.84,375.03,302.32,375.03z M302.32,320.1c-13.77,0-24.96,11.2-24.96,24.96s11.2,24.96,24.96,24.96s24.96-11.2,24.96-24.96
			S316.08,320.1,302.32,320.1z"/>
	</g>
	<path class="st23" d="M95.21,150.61L83.93,99.4H25.9c-1.38,0-2.5-1.12-2.5-2.5s1.12-2.5,2.5-2.5h62.05l12.26,55.67L95.21,150.61z"
		/>
	<g>
		<path class="st29" d="M339.67,12.48l5.03,9.2c0.28,0.5,0.69,0.92,1.19,1.19l9.2,5.03c2.08,1.14,2.08,4.13,0,5.26l-9.2,5.03
			c-0.5,0.28-0.92,0.69-1.19,1.19l-5.03,9.2c-1.14,2.08-4.13,2.08-5.26,0l-5.03-9.2c-0.28-0.5-0.69-0.92-1.19-1.19l-9.2-5.03
			c-2.08-1.14-2.08-4.13,0-5.26l9.2-5.03c0.5-0.28,0.92-0.69,1.19-1.19l5.03-9.2C335.54,10.4,338.53,10.4,339.67,12.48z"/>
		<path class="st23" d="M337.04,52.64c-2.01,0-3.86-1.1-4.83-2.86l-5.03-9.2c-0.05-0.08-0.11-0.15-0.2-0.2l-9.2-5.03
			c-1.76-0.97-2.86-2.81-2.86-4.83s1.1-3.86,2.86-4.83l9.2-5.03c0.08-0.05,0.15-0.11,0.2-0.2l5.03-9.2
			c0.97-1.76,2.81-2.86,4.83-2.86s3.86,1.1,4.83,2.86l5.03,9.2c0.05,0.08,0.11,0.15,0.2,0.2l9.2,5.03c1.76,0.97,2.86,2.81,2.86,4.83
			s-1.1,3.86-2.86,4.83l-9.2,5.03c-0.08,0.05-0.15,0.11-0.2,0.2l-5.03,9.2C340.9,51.54,339.05,52.64,337.04,52.64z M337.04,13.42
			c-0.2,0-0.34,0.09-0.44,0.26l-5.03,9.2c-0.51,0.92-1.26,1.68-2.19,2.19l-9.2,5.03c-0.17,0.09-0.26,0.24-0.26,0.44
			s0.09,0.34,0.26,0.44l9.2,5.03c0.92,0.51,1.68,1.26,2.19,2.19l5.03,9.2c0.19,0.35,0.69,0.35,0.88,0l5.03-9.2
			c0.51-0.92,1.26-1.68,2.19-2.19l9.2-5.03c0.17-0.09,0.26-0.24,0.26-0.44s-0.09-0.34-0.26-0.44l-9.2-5.03
			c-0.92-0.51-1.68-1.26-2.19-2.19l-5.03-9.2C337.38,13.51,337.23,13.42,337.04,13.42z"/>
	</g>
	<g>
		<path class="st29" d="M34.1,4.06l5.03,9.2c0.28,0.5,0.69,0.92,1.19,1.19l9.2,5.03c2.08,1.14,2.08,4.13,0,5.26l-9.2,5.03
			c-0.5,0.28-0.92,0.69-1.19,1.19l-5.03,9.2c-1.14,2.08-4.13,2.08-5.26,0l-5.03-9.2c-0.28-0.5-0.69-0.92-1.19-1.19l-9.2-5.03
			c-2.08-1.14-2.08-4.13,0-5.26l9.2-5.03c0.5-0.28,0.92-0.69,1.19-1.19l5.03-9.2C29.97,1.98,32.96,1.98,34.1,4.06z"/>
		<path class="st23" d="M31.47,44.22c-2.01,0-3.86-1.1-4.83-2.86l-5.03-9.2c-0.05-0.08-0.11-0.15-0.2-0.2l-9.2-5.03
			c-1.76-0.97-2.86-2.81-2.86-4.83s1.1-3.86,2.86-4.83l9.2-5.03c0.08-0.05,0.15-0.11,0.2-0.2l5.03-9.2C27.61,1.1,29.46,0,31.47,0
			s3.86,1.1,4.83,2.86l0,0l5.03,9.2c0.05,0.08,0.11,0.15,0.2,0.2l9.2,5.03c1.76,0.97,2.86,2.81,2.86,4.83s-1.1,3.86-2.86,4.83
			l-9.2,5.03c-0.08,0.05-0.15,0.11-0.2,0.2l-5.03,9.2C35.33,43.12,33.48,44.22,31.47,44.22z M31.47,5c-0.2,0-0.34,0.09-0.44,0.26
			L26,14.46c-0.51,0.92-1.26,1.68-2.19,2.19l-9.2,5.03c-0.17,0.09-0.26,0.24-0.26,0.44s0.09,0.34,0.26,0.44l9.2,5.03
			c0.92,0.51,1.68,1.26,2.19,2.19l5.03,9.2c0.19,0.35,0.69,0.35,0.88,0l5.03-9.2c0.51-0.92,1.26-1.68,2.19-2.19l9.2-5.03
			c0.17-0.09,0.26-0.24,0.26-0.44s-0.09-0.34-0.26-0.44l-9.2-5.03c-0.92-0.51-1.68-1.26-2.19-2.19l-5.03-9.2
			C31.81,5.09,31.66,5,31.47,5z"/>
	</g>
	<g>
		<path class="st29" d="M395.09,370.17l6.06,11.08c0.33,0.61,0.83,1.11,1.44,1.44l11.08,6.06c2.51,1.37,2.51,4.97,0,6.34
			l-11.08,6.06c-0.61,0.33-1.11,0.83-1.44,1.44l-6.06,11.08c-1.37,2.51-4.97,2.51-6.34,0l-6.06-11.08
			c-0.33-0.61-0.83-1.11-1.44-1.44l-11.08-6.06c-2.51-1.37-2.51-4.97,0-6.34l11.08-6.06c0.61-0.33,1.11-0.83,1.44-1.44l6.06-11.08
			C390.12,367.67,393.72,367.67,395.09,370.17z"/>
		<path class="st23" d="M391.92,418.05C391.92,418.05,391.92,418.05,391.92,418.05c-2.24,0-4.29-1.22-5.36-3.18l-6.06-11.08
			c-0.1-0.19-0.26-0.34-0.44-0.44l-11.08-6.06c-1.96-1.07-3.18-3.13-3.18-5.36s1.22-4.29,3.18-5.36l11.08-6.06
			c0.19-0.1,0.34-0.26,0.44-0.44l6.06-11.08c1.07-1.96,3.13-3.18,5.36-3.18s4.29,1.22,5.36,3.18l6.06,11.08
			c0.1,0.19,0.26,0.34,0.44,0.44l11.08,6.06c1.96,1.07,3.18,3.13,3.18,5.36s-1.22,4.29-3.18,5.36l-11.08,6.06
			c-0.19,0.1-0.34,0.26-0.44,0.44l-6.06,11.08C396.21,416.83,394.16,418.05,391.92,418.05z M391.92,370.79
			c-0.25,0-0.7,0.08-0.98,0.58l-6.06,11.08c-0.56,1.03-1.4,1.87-2.43,2.43l-11.08,6.06c-0.5,0.28-0.58,0.73-0.58,0.98
			s0.08,0.7,0.58,0.98l11.08,6.06c1.03,0.56,1.87,1.4,2.43,2.43l6.06,11.08c0.28,0.5,0.73,0.58,0.98,0.58s0.7-0.08,0.98-0.58
			l6.06-11.08c0.56-1.03,1.4-1.87,2.43-2.43l11.08-6.06c0.5-0.28,0.58-0.73,0.58-0.98s-0.08-0.7-0.58-0.98l-11.08-6.06
			c-1.03-0.56-1.87-1.4-2.43-2.43l-6.06-11.08C392.62,370.87,392.17,370.79,391.92,370.79z"/>
	</g>
	<g>
		<circle class="st24" cx="21.86" cy="358.83" r="10.28"/>
		<path class="st23" d="M21.86,353.55c2.91,0,5.28,2.37,5.28,5.28c0,2.91-2.37,5.28-5.28,5.28s-5.28-2.37-5.28-5.28
			C16.58,355.92,18.95,353.55,21.86,353.55 M21.86,348.55c-5.68,0-10.28,4.6-10.28,10.28c0,5.68,4.6,10.28,10.28,10.28
			c5.68,0,10.28-4.6,10.28-10.28C32.13,353.15,27.53,348.55,21.86,348.55L21.86,348.55z"/>
	</g>
	<g>
		<circle class="st24" cx="46.43" cy="169.82" r="10.28"/>
		<path class="st23" d="M46.43,164.54c2.91,0,5.28,2.37,5.28,5.28c0,2.91-2.37,5.28-5.28,5.28c-2.91,0-5.28-2.37-5.28-5.28
			C41.15,166.91,43.52,164.54,46.43,164.54 M46.43,159.54c-5.68,0-10.28,4.6-10.28,10.28c0,5.68,4.6,10.28,10.28,10.28
			c5.68,0,10.28-4.6,10.28-10.28C56.7,164.14,52.1,159.54,46.43,159.54L46.43,159.54z"/>
	</g>
	<g>
		<circle class="st24" cx="388.59" cy="284.66" r="10.28"/>
		<path class="st23" d="M388.59,279.38c2.91,0,5.28,2.37,5.28,5.28c0,2.91-2.37,5.28-5.28,5.28c-2.91,0-5.28-2.37-5.28-5.28
			C383.31,281.75,385.68,279.38,388.59,279.38 M388.59,274.38c-5.68,0-10.28,4.6-10.28,10.28c0,5.68,4.6,10.28,10.28,10.28
			c5.68,0,10.28-4.6,10.28-10.28C398.87,278.98,394.27,274.38,388.59,274.38L388.59,274.38z"/>
	</g>
	<g>
		<circle class="st24" cx="261.59" cy="22.1" r="10.28"/>
		<path class="st23" d="M261.59,16.82c2.91,0,5.28,2.37,5.28,5.28c0,2.91-2.37,5.28-5.28,5.28c-2.91,0-5.28-2.37-5.28-5.28
			C256.31,19.19,258.68,16.82,261.59,16.82 M261.59,11.82c-5.68,0-10.28,4.6-10.28,10.28c0,5.68,4.6,10.28,10.28,10.28
			c5.68,0,10.28-4.6,10.28-10.28C271.86,16.42,267.26,11.82,261.59,11.82L261.59,11.82z"/>
	</g>
	<g>
		<path class="st24" d="M403.22,82.2l3.65,6.67c0.2,0.37,0.5,0.67,0.87,0.87l6.67,3.65c1.51,0.83,1.51,2.99,0,3.82l-6.67,3.65
			c-0.37,0.2-0.67,0.5-0.87,0.87l-3.65,6.67c-0.83,1.51-2.99,1.51-3.82,0l-3.65-6.67c-0.2-0.37-0.5-0.67-0.87-0.87l-6.67-3.65
			c-1.51-0.83-1.51-2.99,0-3.82l6.67-3.65c0.37-0.2,0.67-0.5,0.87-0.87l3.65-6.67C400.23,80.69,402.4,80.69,403.22,82.2z"/>
		<path class="st23" d="M401.31,112.03C401.31,112.03,401.31,112.03,401.31,112.03c-1.71,0-3.28-0.93-4.1-2.43l-3.6-6.59l-6.59-3.6
			c-1.5-0.82-2.43-2.39-2.43-4.1c0-1.71,0.93-3.28,2.43-4.1l6.59-3.6l3.6-6.59c0.82-1.5,2.39-2.43,4.1-2.43s3.28,0.93,4.1,2.43
			l3.6,6.59l6.59,3.6c1.5,0.82,2.43,2.39,2.43,4.1c0,1.71-0.93,3.28-2.43,4.1l-6.59,3.6l-3.6,6.59
			C404.6,111.1,403.02,112.03,401.31,112.03z M389.93,95.3l6.16,3.37c0.79,0.43,1.43,1.07,1.86,1.86l3.37,6.16l3.37-6.16
			c0.43-0.79,1.07-1.43,1.86-1.86l6.16-3.37l-6.16-3.37c-0.79-0.43-1.43-1.07-1.86-1.86l-3.37-6.16l-3.37,6.16
			c-0.43,0.79-1.07,1.43-1.86,1.86L389.93,95.3z M401.03,83.4C401.03,83.4,401.03,83.4,401.03,83.4L401.03,83.4z"/>
	</g>
	<g>
		<path class="st29" d="M35.66,240.82l8.89,16.25c0.28,0.5,0.69,0.92,1.19,1.19L62,267.16c2.08,1.14,2.08,4.13,0,5.26l-16.25,8.89
			c-0.5,0.28-0.92,0.69-1.19,1.19l-8.89,16.25c-1.14,2.08-4.13,2.08-5.26,0l-8.89-16.25c-0.28-0.5-0.69-0.92-1.19-1.19l-16.25-8.89
			c-2.08-1.14-2.08-4.13,0-5.26l16.25-8.89c0.5-0.28,0.92-0.69,1.19-1.19l8.89-16.25C31.54,238.74,34.52,238.74,35.66,240.82z"/>
		<path class="st23" d="M33.03,302.82c-2.01,0-3.86-1.1-4.83-2.86l-8.89-16.25c-0.05-0.08-0.11-0.15-0.2-0.2l-16.25-8.89
			C1.1,273.65,0,271.8,0,269.79s1.1-3.86,2.86-4.83l16.25-8.89c0.08-0.05,0.15-0.11,0.2-0.2l8.89-16.25
			c0.97-1.76,2.81-2.86,4.83-2.86s3.86,1.1,4.83,2.86l8.89,16.25c0.05,0.08,0.11,0.15,0.2,0.2l16.25,8.89
			c1.76,0.97,2.86,2.81,2.86,4.83s-1.1,3.86-2.86,4.83l-16.25,8.89c-0.08,0.05-0.15,0.11-0.2,0.2l-8.89,16.25
			C36.89,301.72,35.04,302.82,33.03,302.82z M33.03,241.76c-0.2,0-0.34,0.09-0.44,0.26l-8.89,16.25c-0.51,0.92-1.26,1.68-2.19,2.19
			l-16.25,8.89C5.09,269.44,5,269.59,5,269.79s0.09,0.34,0.26,0.44l16.25,8.89c0.92,0.51,1.68,1.26,2.19,2.19l8.89,16.25
			c0.19,0.35,0.69,0.35,0.88,0l8.89-16.25c0.51-0.92,1.26-1.68,2.19-2.19l16.25-8.89c0.17-0.09,0.26-0.24,0.26-0.44
			s-0.09-0.34-0.26-0.44l-16.25-8.89c-0.92-0.51-1.68-1.26-2.19-2.19l-8.89-16.25C33.37,241.85,33.23,241.76,33.03,241.76z"/>
	</g>
	<g>
		<path class="st24" d="M120.52,47.24l3.85,7.04c0.21,0.39,0.53,0.7,0.91,0.91l7.04,3.85c1.59,0.87,1.59,3.16,0,4.03l-7.04,3.85
			c-0.39,0.21-0.7,0.53-0.91,0.91l-3.85,7.04c-0.87,1.59-3.16,1.59-4.03,0l-3.85-7.04c-0.21-0.39-0.53-0.7-0.91-0.91l-7.04-3.85
			c-1.59-0.87-1.59-3.16,0-4.03l7.04-3.85c0.39-0.21,0.7-0.53,0.91-0.91l3.85-7.04C117.36,45.65,119.65,45.65,120.52,47.24z"/>
		<path class="st23" d="M118.51,78.57c-1.75,0-3.37-0.96-4.21-2.49l-3.82-6.99l-6.99-3.82c-1.54-0.84-2.49-2.45-2.49-4.21
			s0.96-3.37,2.49-4.21l6.99-3.82l3.82-6.99c0.84-1.54,2.45-2.49,4.21-2.49c1.75,0,3.37,0.96,4.21,2.49l3.82,6.99l6.99,3.82
			c1.54,0.84,2.49,2.45,2.49,4.21c0,1.75-0.96,3.37-2.49,4.21l-6.99,3.82l-3.82,6.99C121.87,77.61,120.26,78.57,118.51,78.57z
			 M106.22,61.06l6.71,3.67c0.81,0.44,1.47,1.1,1.91,1.91l3.67,6.71l3.67-6.71c0.44-0.81,1.1-1.47,1.91-1.91l6.71-3.67l-6.71-3.67
			c-0.81-0.44-1.47-1.1-1.91-1.91l-3.67-6.71l-3.67,6.71c-0.44,0.81-1.1,1.47-1.91,1.91L106.22,61.06z"/>
	</g>
	<g>
		<path class="st29" d="M92.06,380.6l3.85,7.04c0.21,0.39,0.53,0.7,0.91,0.91l7.04,3.85c1.59,0.87,1.59,3.16,0,4.03l-7.04,3.85
			c-0.39,0.21-0.7,0.53-0.91,0.91l-3.85,7.04c-0.87,1.59-3.16,1.59-4.03,0l-3.85-7.04c-0.21-0.39-0.53-0.7-0.91-0.91l-7.04-3.85
			c-1.59-0.87-1.59-3.16,0-4.03l7.04-3.85c0.39-0.21,0.7-0.53,0.91-0.91l3.85-7.04C88.91,379.01,91.19,379.01,92.06,380.6z"/>
		<path class="st23" d="M90.05,411.93c-1.75,0-3.37-0.96-4.21-2.49l-3.82-6.99l-6.99-3.82c-1.54-0.84-2.49-2.45-2.49-4.21
			c0-1.75,0.96-3.37,2.49-4.21l6.99-3.82l3.82-6.99c0.84-1.54,2.45-2.49,4.21-2.49s3.37,0.96,4.21,2.49l3.82,6.99l6.99,3.82
			c1.54,0.84,2.49,2.45,2.49,4.21c0,1.75-0.96,3.37-2.49,4.21l-6.99,3.82l-3.82,6.99C93.42,410.97,91.8,411.93,90.05,411.93z
			 M77.76,394.42l6.71,3.67c0.81,0.44,1.47,1.1,1.91,1.91l3.67,6.71l3.67-6.71c0.44-0.81,1.1-1.47,1.91-1.91l6.71-3.67l-6.71-3.67
			c-0.81-0.44-1.47-1.1-1.91-1.91l-3.67-6.71l-3.67,6.71c-0.44,0.81-1.1,1.47-1.91,1.91L77.76,394.42z M89.87,381.8
			C89.87,381.8,89.87,381.8,89.87,381.8L89.87,381.8z"/>
	</g>
	<g>
		<circle class="st26" cx="160.1" cy="345.06" r="13.76"/>
		<path class="st23" d="M160.1,361.33c-8.97,0-16.26-7.3-16.26-16.26c0-8.97,7.3-16.26,16.26-16.26s16.26,7.3,16.26,16.26
			C176.37,354.03,169.07,361.33,160.1,361.33z M160.1,333.8c-6.21,0-11.26,5.05-11.26,11.26c0,6.21,5.05,11.26,11.26,11.26
			c6.21,0,11.26-5.05,11.26-11.26C171.37,338.85,166.31,333.8,160.1,333.8z"/>
	</g>
	<g>
		<circle class="st26" cx="302.32" cy="345.06" r="13.76"/>
		<path class="st23" d="M302.32,361.33c-8.97,0-16.26-7.3-16.26-16.26c0-8.97,7.3-16.26,16.26-16.26s16.26,7.3,16.26,16.26
			C318.58,354.03,311.29,361.33,302.32,361.33z M302.32,333.8c-6.21,0-11.26,5.05-11.26,11.26c0,6.21,5.05,11.26,11.26,11.26
			s11.26-5.05,11.26-11.26C313.58,338.85,308.53,333.8,302.32,333.8z"/>
	</g>
	<g>
		<circle class="st26" cx="236.45" cy="150.07" r="86.46"/>
		<path class="st23" d="M236.45,239.04c-49.05,0-88.96-39.91-88.96-88.96s39.91-88.96,88.96-88.96s88.96,39.91,88.96,88.96
			S285.5,239.04,236.45,239.04z M236.45,66.11c-46.3,0-83.96,37.67-83.96,83.96s37.67,83.96,83.96,83.96s83.96-37.67,83.96-83.96
			S282.74,66.11,236.45,66.11z"/>
	</g>
	<linearGradient id="SVGID_2_" gradientUnits="userSpaceOnUse" x1="59.2727" y1="260.712" x2="289.1124" y2="166.679">
		<stop  offset="0" style="stop-color:#333DC9"/>
		<stop  offset="1" style="stop-color:#333DC9;stop-opacity:0.2"/>
	</linearGradient>
	<path style="opacity:0.5;fill:url(#SVGID_2_);" d="M286.98,291.7c-0.48-0.36-0.94-0.73-1.41-1.09c-0.87-0.67-1.73-1.34-2.58-2.02
		c-0.57-0.46-1.12-0.92-1.68-1.39c-0.73-0.6-1.45-1.2-2.17-1.81c-0.61-0.52-1.2-1.05-1.8-1.58c-0.64-0.57-1.28-1.13-1.91-1.71
		c-0.63-0.58-1.25-1.16-1.87-1.74c-0.57-0.54-1.13-1.07-1.69-1.62c-0.65-0.63-1.3-1.27-1.94-1.92c-0.49-0.5-0.98-1-1.46-1.5
		c-0.68-0.7-1.35-1.41-2.02-2.12c-0.41-0.43-0.8-0.87-1.2-1.31c-0.72-0.79-1.44-1.58-2.14-2.38c-0.28-0.32-0.56-0.65-0.84-0.98
		c-0.8-0.93-1.59-1.86-2.37-2.8c-0.05-0.06-0.09-0.11-0.14-0.17c-6.85-8.35-12.8-17.31-17.88-26.68c-0.01-0.02-0.02-0.04-0.03-0.05
		c-0.43-0.8-0.87-1.59-1.29-2.39c-0.11-0.21-0.21-0.42-0.32-0.63c-0.32-0.61-0.62-1.23-0.93-1.84c-4.64-9.24-8.47-18.85-11.52-28.66
		c-0.01-0.02-0.01-0.04-0.02-0.07c-0.49-1.59-0.96-3.18-1.41-4.78c-0.02-0.06-0.04-0.12-0.05-0.18c-0.44-1.55-0.85-3.11-1.25-4.67
		c-0.03-0.11-0.06-0.21-0.08-0.32c-0.38-1.51-0.74-3.01-1.09-4.53c-0.04-0.16-0.08-0.33-0.11-0.49c-0.33-1.45-0.64-2.91-0.93-4.37
		c-0.04-0.22-0.09-0.44-0.14-0.66c-0.28-1.4-0.54-2.79-0.79-4.19c-0.05-0.28-0.11-0.56-0.16-0.84c-0.23-1.34-0.44-2.67-0.65-4.01
		c-0.05-0.34-0.11-0.69-0.16-1.03c-0.19-1.27-0.36-2.55-0.52-3.82c-0.05-0.41-0.11-0.81-0.16-1.22c-0.15-1.22-0.28-2.45-0.41-3.67
		c-0.05-0.45-0.11-0.91-0.15-1.36c-0.12-1.23-0.22-2.45-0.32-3.67c-0.04-0.45-0.08-0.89-0.12-1.34c-0.12-1.67-0.23-3.33-0.31-4.99
		c-1.63-31.99,4.16-63.34,16.32-88.93c-45.74,0.65-82.76,38.04-82.76,83.93c0,1.68,0.06,3.34,0.16,5h-2.51h-2.51h-46.3l31.03,139.63
		h158.76C289.72,293.73,288.34,292.72,286.98,291.7z"/>
	<path class="st23" d="M251.05,150.07l29.21-29.21c4.03-4.03,4.03-10.57,0-14.6l0,0c-4.03-4.03-10.57-4.03-14.6,0l-29.21,29.21
		l-29.21-29.21c-4.03-4.03-10.57-4.03-14.6,0c-4.03,4.03-4.03,10.57,0,14.6l29.21,29.21l-29.21,29.21c-4.03,4.03-4.03,10.57,0,14.6
		c4.03,4.03,10.57,4.03,14.6,0l29.21-29.21l29.21,29.21c4.03,4.03,10.57,4.03,14.6,0l0,0c4.03-4.03,4.03-10.57,0-14.6L251.05,150.07
		z"/>
	<path class="st23" d="M236.45,239.04c-49.05,0-88.96-39.91-88.96-88.96s39.91-88.96,88.96-88.96s88.96,39.91,88.96,88.96
		S285.5,239.04,236.45,239.04z M236.45,66.11c-46.3,0-83.96,37.67-83.96,83.96s37.67,83.96,83.96,83.96s83.96-37.67,83.96-83.96
		S282.74,66.11,236.45,66.11z"/>
</g>
</svg>
