<?xml version="1.0" encoding="utf-8"?>
<!-- Generator: Adobe Illustrator 24.0.1, SVG Export Plug-In . SVG Version: 6.00 Build 0)  -->
<svg version="1.1" xmlns="http://www.w3.org/2000/svg" xmlns:xlink="http://www.w3.org/1999/xlink" x="0px" y="0px"
	 viewBox="0 0 418.05 418.05" style="enable-background:new 0 0 418.05 418.05;" xml:space="preserve">
<style type="text/css">
	.st0{fill:none;stroke:#231F20;stroke-miterlimit:10;}
	.st1{opacity:0;fill:url(#SVGID_1_);}
	.st2{opacity:0.3;fill:url(#SVGID_2_);}
	.st3{fill:#A3A7E6;stroke:#000769;stroke-width:5;stroke-miterlimit:10;}
	.st4{fill:#939598;stroke:#000000;stroke-width:5;stroke-miterlimit:10;}
	.st5{fill:none;stroke:#231F20;stroke-width:10;stroke-miterlimit:10;}
	.st6{fill:#231F20;stroke:#231F20;stroke-miterlimit:10;}
	.st7{fill:#D1D3D4;stroke:#000000;stroke-width:5;stroke-miterlimit:10;}
	.st8{fill:none;stroke:#D1D3D4;stroke-width:15;stroke-linecap:round;stroke-miterlimit:10;}
	.st9{fill:none;stroke:#231F20;stroke-linecap:round;stroke-miterlimit:10;}
	.st10{fill:#D1D3D4;}
	.st11{fill:#FFFFFF;stroke:#231F20;stroke-width:5;stroke-miterlimit:10;}
	.st12{fill:#939598;}
	.st13{fill:none;}
	.st14{fill:#333DC9;stroke:#000769;stroke-width:5;stroke-miterlimit:10;}
	.st15{fill:#E2E9FC;stroke:#000769;stroke-width:5;stroke-miterlimit:10;}
	.st16{fill:#000769;}
	.st17{fill:#A3A7E6;}
	.st18{fill:#333DC9;}
	.st19{fill:#FFFFFF;}
	.st20{opacity:0.5;fill:url(#SVGID_3_);}
	.st21{opacity:0.5;fill:url(#SVGID_4_);}
	.st22{fill:#E2E9FC;}
	.st23{fill:#FFFFFF;stroke:#000769;stroke-width:5;stroke-miterlimit:10;}
	.st24{fill:url(#SVGID_5_);}
	.st25{opacity:0.5;fill:url(#SVGID_6_);}
	.st26{opacity:0.5;fill:url(#SVGID_7_);}
	.st27{opacity:0.5;fill:url(#SVGID_8_);}
	.st28{opacity:0.5;fill:url(#SVGID_9_);}
	.st29{opacity:0.5;fill:url(#SVGID_10_);}
	.st30{opacity:0.5;fill:url(#SVGID_11_);}
	.st31{opacity:0.5;fill:url(#SVGID_12_);}
	.st32{opacity:0.5;fill:url(#SVGID_13_);}
	.st33{fill:none;stroke:#231F20;stroke-width:5;stroke-miterlimit:10;}
	.st34{fill:#231F20;}
	.st35{opacity:0.5;fill:url(#SVGID_14_);}
	.st36{opacity:0.5;fill:url(#SVGID_15_);}
	.st37{opacity:0.5;fill:url(#SVGID_16_);}
	.st38{fill:url(#SVGID_17_);stroke:#000769;stroke-width:5;stroke-miterlimit:10;}
	.st39{opacity:0.5;fill:url(#SVGID_18_);}
	.st40{opacity:0.5;fill:url(#SVGID_19_);}
	.st41{opacity:0.5;fill:url(#SVGID_20_);}
	.st42{opacity:0.5;fill:url(#SVGID_21_);}
	.st43{opacity:0.5;fill:url(#SVGID_22_);}
	.st44{opacity:0.5;fill:url(#SVGID_23_);}
	.st45{opacity:0.5;fill:url(#SVGID_24_);}
	.st46{opacity:0.5;fill:url(#SVGID_25_);}
	.st47{opacity:0.5;fill:url(#SVGID_26_);}
	.st48{opacity:0.5;fill:url(#SVGID_27_);}
	.st49{opacity:0.5;fill:url(#SVGID_28_);}
	.st50{opacity:0.5;fill:url(#SVGID_29_);}
	.st51{opacity:0.5;fill:url(#SVGID_30_);}
	.st52{opacity:0.5;fill:url(#SVGID_31_);}
	.st53{opacity:0.5;fill:url(#SVGID_32_);}
	.st54{opacity:0.5;fill:url(#SVGID_33_);}
	.st55{fill:#FFFFFF;stroke:#231F20;stroke-miterlimit:10;}
	.st56{fill:none;stroke:#231F20;stroke-width:5;stroke-linecap:round;stroke-miterlimit:10;}
	.st57{fill:#FFFFFF;stroke:#231F20;stroke-width:5;stroke-linecap:round;stroke-miterlimit:10;}
	.st58{opacity:0.5;fill:url(#SVGID_34_);}
	.st59{opacity:0.5;fill:url(#SVGID_35_);}
	.st60{opacity:0.5;fill:url(#SVGID_36_);}
	.st61{opacity:0.8;fill:url(#SVGID_37_);}
	.st62{opacity:0.8;fill:url(#SVGID_38_);}
	.st63{opacity:0.8;fill:url(#SVGID_39_);}
	.st64{opacity:0.8;fill:url(#SVGID_40_);}
	.st65{opacity:0.8;fill:url(#SVGID_41_);}
	.st66{opacity:0.8;fill:url(#SVGID_42_);}
	.st67{opacity:0.8;fill:url(#SVGID_43_);}
	.st68{fill:none;stroke:#231F20;stroke-width:16;stroke-miterlimit:10;}
	.st69{fill:none;stroke:#231F20;stroke-width:16;stroke-linecap:round;stroke-miterlimit:10;}
	.st70{fill:#FFFFFF;stroke:#000769;stroke-width:5;stroke-linecap:round;stroke-miterlimit:10;}
	.st71{fill:#231F20;stroke:#231F20;stroke-width:5;stroke-miterlimit:10;}
	.st72{fill:none;stroke:#000769;stroke-width:16;stroke-linecap:round;stroke-miterlimit:10;}
	.st73{opacity:0.5;fill:url(#SVGID_44_);}
	.st74{opacity:0.5;fill:url(#SVGID_45_);}
	.st75{opacity:0.5;fill:url(#SVGID_46_);}
	.st76{opacity:0.5;fill:url(#SVGID_47_);}
	.st77{opacity:0.5;fill:url(#SVGID_48_);}
	.st78{fill:none;stroke:#000769;stroke-width:5;stroke-linecap:round;stroke-miterlimit:10;}
	.st79{opacity:0.5;fill:url(#SVGID_49_);}
	.st80{opacity:0.5;fill:url(#SVGID_50_);}
	.st81{opacity:0.5;fill:url(#SVGID_51_);}
	.st82{opacity:0.5;fill:url(#SVGID_52_);}
	.st83{opacity:0.5;fill:url(#SVGID_53_);}
	.st84{opacity:0.5;fill:url(#SVGID_54_);}
	.st85{opacity:0.5;fill:url(#SVGID_55_);}
	.st86{opacity:0.5;fill:url(#SVGID_56_);}
	.st87{opacity:0.5;fill:url(#SVGID_57_);}
	.st88{opacity:0.5;fill:url(#SVGID_58_);}
	.st89{opacity:0.5;fill:url(#SVGID_59_);}
	.st90{opacity:0.5;fill:url(#SVGID_60_);}
	.st91{opacity:0.5;fill:url(#SVGID_61_);}
	.st92{opacity:0.5;fill:url(#SVGID_62_);}
	.st93{opacity:0.5;fill:url(#SVGID_63_);}
	.st94{opacity:0.5;fill:url(#SVGID_64_);}
	.st95{opacity:0.5;fill:url(#SVGID_65_);}
	.st96{opacity:0.5;fill:url(#SVGID_66_);}
	.st97{opacity:0.5;fill:url(#SVGID_67_);}
	.st98{opacity:0.5;fill:url(#SVGID_68_);}
	.st99{opacity:0.5;fill:url(#SVGID_69_);}
	.st100{opacity:0.5;fill:url(#SVGID_70_);}
	.st101{opacity:0.5;fill:url(#SVGID_71_);}
	.st102{fill:none;stroke:#000769;stroke-width:7;stroke-linecap:round;stroke-miterlimit:10;}
	.st103{opacity:0.5;fill:url(#SVGID_72_);}
	.st104{fill:none;stroke:#000769;stroke-width:8;stroke-linecap:round;stroke-miterlimit:10;}
	.st105{opacity:0.5;fill:url(#SVGID_73_);}
	.st106{opacity:0.5;fill:url(#SVGID_74_);}
	.st107{opacity:0.5;fill:url(#SVGID_75_);}
	.st108{opacity:0.5;fill:url(#SVGID_76_);}
	.st109{opacity:0.5;fill:url(#SVGID_77_);}
	.st110{opacity:0.5;fill:url(#SVGID_78_);}
	.st111{opacity:0.5;fill:url(#SVGID_79_);}
	.st112{opacity:0.5;fill:url(#SVGID_80_);}
	.st113{opacity:0.5;fill:url(#SVGID_81_);}
	.st114{opacity:0.5;fill:url(#SVGID_82_);}
	.st115{fill:#FFFFFF;stroke:#000769;stroke-width:7;stroke-miterlimit:10;}
	.st116{fill:none;stroke:#000769;stroke-width:10;stroke-linecap:round;stroke-miterlimit:10;}
	.st117{fill:#E2E9FC;stroke:#000769;stroke-width:10;stroke-miterlimit:10;}
	.st118{opacity:0.5;fill:url(#SVGID_83_);}
	.st119{opacity:0.5;fill:url(#SVGID_84_);}
	.st120{opacity:0.5;fill:url(#SVGID_85_);}
	.st121{opacity:0.3;fill:url(#SVGID_86_);}
	.st122{opacity:0.3;fill:url(#SVGID_87_);}
	.st123{opacity:0.3;fill:url(#SVGID_88_);}
	.st124{opacity:0.5;fill:url(#SVGID_89_);}
	.st125{opacity:0.3;fill:url(#SVGID_90_);}
	.st126{opacity:0.5;fill:url(#SVGID_91_);}
	.st127{opacity:0;fill:url(#SVGID_92_);}
	.st128{opacity:0.5;fill:url(#SVGID_93_);}
	.st129{opacity:0.5;fill:url(#SVGID_94_);}
	.st130{opacity:0.5;fill:url(#SVGID_95_);}
	.st131{opacity:0.5;fill:url(#SVGID_96_);}
	.st132{opacity:0.5;fill:url(#SVGID_97_);}
	.st133{opacity:0.5;fill:url(#SVGID_98_);}
	.st134{fill:none;stroke:#000769;stroke-width:12;stroke-linecap:round;stroke-miterlimit:10;}
	.st135{opacity:0.5;fill:url(#SVGID_99_);}
	.st136{opacity:0.5;fill:url(#SVGID_100_);}
	.st137{opacity:0.5;fill:url(#SVGID_101_);}
	.st138{opacity:0.5;fill:url(#SVGID_102_);}
	.st139{opacity:0.5;fill:url(#SVGID_103_);}
	.st140{opacity:0.5;fill:url(#SVGID_104_);}
	.st141{opacity:0.5;fill:url(#SVGID_105_);}
	.st142{opacity:0.5;fill:url(#SVGID_106_);}
	.st143{opacity:0.5;fill:url(#SVGID_107_);}
	.st144{opacity:0.5;fill:url(#SVGID_108_);}
	.st145{opacity:0.8;fill:url(#SVGID_109_);}
	.st146{opacity:0.5;fill:url(#SVGID_110_);}
	.st147{opacity:0.5;fill:url(#SVGID_111_);}
	.st148{opacity:0.5;fill:url(#SVGID_112_);}
	.st149{opacity:0.5;fill:url(#SVGID_113_);}
	.st150{opacity:0.5;fill:url(#SVGID_114_);}
	.st151{opacity:0.5;fill:url(#SVGID_115_);}
	.st152{opacity:0.5;fill:url(#SVGID_116_);}
	.st153{opacity:0.5;fill:url(#SVGID_117_);}
	.st154{opacity:0.5;fill:url(#SVGID_118_);}
	.st155{opacity:0.5;fill:url(#SVGID_119_);}
	.st156{opacity:0.5;fill:#FFFFFF;stroke:#000769;stroke-width:5;stroke-linecap:round;stroke-miterlimit:10;}
	.st157{opacity:0.5;fill:url(#SVGID_120_);}
	.st158{opacity:0.5;fill:url(#SVGID_121_);}
	.st159{opacity:0.5;fill:url(#SVGID_122_);}
	.st160{opacity:0.5;fill:url(#SVGID_123_);}
	.st161{opacity:0.5;fill:url(#SVGID_124_);}
	.st162{opacity:0.5;fill:url(#SVGID_125_);}
	.st163{opacity:0.5;fill:url(#SVGID_126_);}
	.st164{opacity:0.5;fill:url(#SVGID_127_);}
	.st165{opacity:0.5;fill:url(#SVGID_128_);}
	.st166{opacity:0.5;fill:url(#SVGID_129_);}
	.st167{opacity:0.5;fill:url(#SVGID_130_);}
	.st168{opacity:0.5;}
	.st169{opacity:0.5;fill:url(#SVGID_131_);}
	.st170{opacity:0.5;fill:url(#SVGID_132_);}
	.st171{opacity:0.5;fill:url(#SVGID_133_);}
	.st172{opacity:0.5;fill:url(#SVGID_134_);}
	.st173{opacity:0.8;fill:url(#SVGID_135_);}
	.st174{opacity:0.5;fill:url(#SVGID_136_);}
	.st175{opacity:0.5;fill:url(#SVGID_137_);}
	.st176{opacity:0.5;fill:url(#SVGID_138_);}
	.st177{opacity:0.5;fill:url(#SVGID_139_);}
	.st178{opacity:0.5;fill:url(#SVGID_140_);}
	.st179{opacity:0.5;fill:url(#SVGID_141_);}
	.st180{opacity:0.5;fill:url(#SVGID_142_);}
	.st181{opacity:0.5;fill:url(#SVGID_143_);}
	.st182{opacity:0.5;fill:url(#SVGID_144_);}
	.st183{opacity:0.5;fill:url(#SVGID_145_);}
	.st184{opacity:0.5;fill:url(#SVGID_146_);}
	.st185{opacity:0.5;fill:url(#SVGID_147_);}
	.st186{opacity:0.5;fill:url(#SVGID_148_);}
	.st187{opacity:0.5;fill:url(#SVGID_149_);}
	.st188{opacity:0.5;fill:url(#SVGID_150_);}
	.st189{opacity:0.5;fill:url(#SVGID_151_);}
	.st190{opacity:0.5;fill:url(#SVGID_152_);}
	.st191{opacity:0.5;fill:url(#SVGID_153_);}
	.st192{opacity:0.8;fill:url(#SVGID_154_);}
	.st193{opacity:0.5;fill:url(#SVGID_155_);}
	.st194{opacity:0.5;fill:url(#SVGID_156_);}
	.st195{opacity:0.5;fill:url(#SVGID_157_);}
	.st196{opacity:0.5;fill:url(#SVGID_158_);}
	.st197{opacity:0.5;fill:url(#SVGID_159_);}
	.st198{opacity:0.5;fill:url(#SVGID_160_);}
</style>
<g id="Sketch">
</g>
<g id="Layer_2">
	<path class="st17" d="M22.24,74.61l5.03,9.2c0.28,0.5,0.69,0.92,1.19,1.19l9.2,5.03c2.08,1.14,2.08,4.13,0,5.26l-9.2,5.03
		c-0.5,0.28-0.92,0.69-1.19,1.19l-5.03,9.2c-1.14,2.08-4.13,2.08-5.26,0l-5.03-9.2c-0.28-0.5-0.69-0.92-1.19-1.19l-9.2-5.03
		c-2.08-1.14-2.08-4.13,0-5.26l9.2-5.03c0.5-0.28,0.92-0.69,1.19-1.19l5.03-9.2C18.12,72.53,21.1,72.53,22.24,74.61z"/>
	<path class="st16" d="M19.61,114.77c-2.01,0-3.86-1.1-4.83-2.86l-5.03-9.2c-0.05-0.08-0.11-0.15-0.2-0.2l-9.2-5.03
		c-1.76-0.97-2.86-2.81-2.86-4.83s1.1-3.86,2.86-4.83l9.2-5.03c0.08-0.05,0.15-0.11,0.2-0.2l5.03-9.2c0.97-1.76,2.81-2.86,4.83-2.86
		s3.86,1.1,4.83,2.86l0,0l5.03,9.2c0.05,0.08,0.11,0.15,0.2,0.2l9.2,5.03c1.76,0.97,2.86,2.81,2.86,4.83s-1.1,3.86-2.86,4.83
		l-9.2,5.03c-0.08,0.05-0.15,0.11-0.2,0.2l-5.03,9.2C23.47,113.68,21.62,114.77,19.61,114.77z M19.61,75.55
		c-0.2,0-0.34,0.09-0.44,0.26l-5.03,9.2c-0.51,0.93-1.26,1.68-2.19,2.19l-9.2,5.03c-0.17,0.09-0.26,0.24-0.26,0.44
		s0.09,0.34,0.26,0.44l9.2,5.03c0.92,0.51,1.68,1.26,2.19,2.19l5.03,9.2c0.19,0.35,0.69,0.35,0.88,0l5.03-9.2
		c0.51-0.92,1.26-1.68,2.19-2.19l9.2-5.03c0.17-0.09,0.26-0.24,0.26-0.44s-0.09-0.34-0.26-0.44l-9.2-5.03
		c-0.92-0.51-1.68-1.26-2.19-2.19l-5.03-9.2C19.95,75.64,19.81,75.55,19.61,75.55z"/>
	<path class="st22" d="M376.74,255.63l6.06,11.08c0.33,0.61,0.83,1.11,1.44,1.44l11.08,6.06c2.51,1.37,2.51,4.97,0,6.34l-11.08,6.06
		c-0.61,0.33-1.11,0.83-1.44,1.44l-6.06,11.08c-1.37,2.51-4.97,2.51-6.34,0l-6.06-11.08c-0.33-0.61-0.83-1.11-1.44-1.44l-11.08-6.06
		c-2.51-1.37-2.51-4.97,0-6.34l11.08-6.06c0.61-0.33,1.11-0.83,1.44-1.44l6.06-11.08C371.77,253.12,375.37,253.12,376.74,255.63z"/>
	<path class="st16" d="M373.57,303.5c-2.24,0-4.29-1.22-5.36-3.18l-6.06-11.08c-0.1-0.19-0.26-0.34-0.44-0.44l-11.08-6.06
		c-1.96-1.07-3.18-3.13-3.18-5.36s1.22-4.29,3.18-5.36l11.08-6.06c0.19-0.1,0.34-0.26,0.44-0.44l6.06-11.08
		c1.07-1.96,3.13-3.18,5.36-3.18c0,0,0,0,0,0c2.24,0,4.29,1.22,5.36,3.18v0l6.06,11.08c0.1,0.19,0.26,0.34,0.44,0.44l11.08,6.06
		c1.96,1.07,3.18,3.13,3.18,5.36s-1.22,4.29-3.18,5.36l-11.08,6.06c-0.19,0.1-0.34,0.26-0.44,0.44l-6.06,11.08
		C377.86,302.28,375.8,303.5,373.57,303.5z M373.57,256.25c-0.25,0-0.7,0.08-0.98,0.58l-6.06,11.08c-0.56,1.03-1.4,1.87-2.43,2.43
		l-11.08,6.06c-0.5,0.28-0.58,0.73-0.58,0.98s0.08,0.7,0.58,0.98l11.08,6.06c1.03,0.56,1.87,1.4,2.43,2.43l6.06,11.08
		c0.28,0.5,0.73,0.58,0.98,0.58s0.7-0.08,0.98-0.58l6.06-11.08c0.56-1.03,1.4-1.87,2.43-2.43l11.08-6.06
		c0.5-0.28,0.58-0.73,0.58-0.98s-0.08-0.7-0.58-0.98l-11.08-6.06c-1.03-0.56-1.87-1.4-2.43-2.43l-6.06-11.08
		C374.27,256.32,373.81,256.25,373.57,256.25L373.57,256.25z"/>
	<path class="st22" d="M36.26,192.84l3.65,6.67c0.2,0.37,0.5,0.67,0.87,0.87l6.67,3.65c1.51,0.83,1.51,2.99,0,3.82l-6.67,3.65
		c-0.37,0.2-0.67,0.5-0.87,0.87l-3.65,6.67c-0.83,1.51-2.99,1.51-3.82,0l-3.65-6.67c-0.2-0.37-0.5-0.67-0.87-0.87l-6.67-3.65
		c-1.51-0.83-1.51-2.99,0-3.82l6.67-3.65c0.37-0.2,0.67-0.5,0.87-0.87l3.65-6.67C33.27,191.33,35.44,191.33,36.26,192.84z"/>
	<path class="st16" d="M34.35,222.67C34.35,222.67,34.35,222.67,34.35,222.67c-1.71,0-3.28-0.93-4.1-2.43l-3.6-6.59l-6.59-3.6
		c-1.5-0.82-2.43-2.39-2.43-4.1c0-1.71,0.93-3.28,2.43-4.1l6.59-3.6l3.6-6.59c0.82-1.5,2.39-2.43,4.1-2.43s3.28,0.93,4.1,2.43
		l3.6,6.59l6.59,3.6c1.5,0.82,2.43,2.39,2.43,4.1c0,1.71-0.93,3.28-2.43,4.1l-6.59,3.6l-3.6,6.59
		C37.64,221.74,36.06,222.67,34.35,222.67z M22.97,205.94l6.16,3.37c0.79,0.43,1.43,1.07,1.86,1.86l3.37,6.16l3.37-6.16
		c0.43-0.79,1.07-1.43,1.86-1.86l6.16-3.37l-6.16-3.37c-0.79-0.43-1.43-1.07-1.86-1.86l-3.37-6.16l-3.37,6.16
		c-0.43,0.79-1.07,1.43-1.86,1.86L22.97,205.94z"/>
	<path class="st22" d="M297.38,84.46l3.65,6.67c0.2,0.37,0.5,0.67,0.87,0.87l6.67,3.65c1.51,0.83,1.51,2.99,0,3.82l-6.67,3.65
		c-0.37,0.2-0.67,0.5-0.87,0.87l-3.65,6.67c-0.83,1.51-2.99,1.51-3.82,0l-3.65-6.67c-0.2-0.37-0.5-0.67-0.87-0.87l-6.67-3.65
		c-1.51-0.83-1.51-2.99,0-3.82l6.67-3.65c0.37-0.2,0.67-0.5,0.87-0.87l3.65-6.67C294.39,82.95,296.55,82.95,297.38,84.46z"/>
	<path class="st16" d="M295.47,114.29c-1.71,0-3.28-0.93-4.1-2.43l-3.6-6.59l-6.59-3.6c-1.5-0.82-2.43-2.39-2.43-4.1
		c0-1.71,0.93-3.28,2.43-4.1l6.59-3.6l3.6-6.59c0.82-1.5,2.39-2.43,4.1-2.43c1.71,0,3.28,0.93,4.1,2.43v0l3.6,6.59l6.59,3.6
		c1.5,0.82,2.43,2.39,2.43,4.1c0,1.71-0.93,3.28-2.43,4.1l-6.59,3.6l-3.6,6.59C298.75,113.36,297.18,114.29,295.47,114.29z
		 M284.09,97.56l6.16,3.37c0.79,0.43,1.43,1.07,1.86,1.86l3.37,6.16l3.37-6.16c0.43-0.79,1.07-1.43,1.86-1.86l6.16-3.37l-6.16-3.37
		c-0.79-0.43-1.43-1.07-1.86-1.86l-3.37-6.16l-3.37,6.16c-0.43,0.79-1.07,1.43-1.86,1.86L284.09,97.56z"/>
	<path class="st22" d="M154.27,390.71l3.65,6.67c0.2,0.37,0.5,0.67,0.87,0.87l6.67,3.65c1.51,0.83,1.51,2.99,0,3.82l-6.67,3.65
		c-0.37,0.2-0.67,0.5-0.87,0.87l-3.65,6.67c-0.83,1.51-2.99,1.51-3.82,0l-3.65-6.67c-0.2-0.37-0.5-0.67-0.87-0.87l-6.67-3.65
		c-1.51-0.83-1.51-2.99,0-3.82l6.67-3.65c0.37-0.2,0.67-0.5,0.87-0.87l3.65-6.67C151.27,389.2,153.44,389.2,154.27,390.71z"/>
	<path class="st16" d="M152.35,420.55C152.35,420.55,152.35,420.55,152.35,420.55c-1.71,0-3.28-0.93-4.1-2.43l-3.6-6.59l-6.59-3.6
		c-1.5-0.82-2.43-2.39-2.43-4.1c0-1.71,0.93-3.28,2.43-4.1l6.59-3.6l3.6-6.59c0.82-1.5,2.39-2.43,4.1-2.43s3.28,0.93,4.1,2.43
		l3.6,6.59l6.59,3.6c1.5,0.82,2.43,2.39,2.43,4.1c0,1.71-0.93,3.28-2.43,4.1l-6.59,3.6l-3.6,6.59
		C155.64,419.61,154.07,420.55,152.35,420.55z M140.97,403.81l6.16,3.37c0.79,0.43,1.43,1.07,1.86,1.86l3.37,6.16l3.37-6.16
		c0.43-0.79,1.07-1.43,1.86-1.86l6.16-3.37l-6.16-3.37c-0.79-0.43-1.43-1.07-1.86-1.86l-3.37-6.16l-3.37,6.16
		c-0.43,0.79-1.07,1.43-1.86,1.86L140.97,403.81z M152.07,391.91C152.07,391.91,152.07,391.91,152.07,391.91L152.07,391.91z"/>
	<circle class="st22" cx="388.03" cy="381.79" r="10.28"/>
	<path class="st16" d="M388.03,394.56c-7.04,0-12.78-5.73-12.78-12.78s5.73-12.78,12.78-12.78c7.05,0,12.78,5.73,12.78,12.78
		S395.07,394.56,388.03,394.56z M388.03,374.01c-4.29,0-7.78,3.49-7.78,7.78s3.49,7.78,7.78,7.78c4.29,0,7.78-3.49,7.78-7.78
		S392.31,374.01,388.03,374.01z"/>
	<circle class="st17" cx="75.56" cy="273.69" r="10.28"/>
	<path class="st16" d="M75.56,268.42c2.91,0,5.28,2.37,5.28,5.28c0,2.91-2.37,5.28-5.28,5.28c-2.91,0-5.28-2.37-5.28-5.28
		C70.28,270.78,72.65,268.42,75.56,268.42 M75.56,263.42c-5.68,0-10.28,4.6-10.28,10.28c0,5.68,4.6,10.28,10.28,10.28
		c5.68,0,10.28-4.6,10.28-10.28C85.84,268.02,81.24,263.42,75.56,263.42L75.56,263.42z"/>
	<circle class="st17" cx="394.52" cy="83.33" r="10.28"/>
	<path class="st16" d="M394.52,78.05c2.91,0,5.28,2.37,5.28,5.28c0,2.91-2.37,5.28-5.28,5.28s-5.28-2.37-5.28-5.28
		C389.24,80.42,391.61,78.05,394.52,78.05 M394.52,73.05c-5.68,0-10.28,4.6-10.28,10.28c0,5.68,4.6,10.28,10.28,10.28
		S404.8,89,404.8,83.33C404.8,77.65,400.2,73.05,394.52,73.05L394.52,73.05z"/>
	<circle class="st22" cx="74.56" cy="23.9" r="10.28"/>
	<path class="st16" d="M74.56,36.68c-7.05,0-12.78-5.73-12.78-12.78c0-7.05,5.73-12.78,12.78-12.78c7.04,0,12.78,5.73,12.78,12.78
		C87.34,30.95,81.6,36.68,74.56,36.68z M74.56,16.13c-4.29,0-7.78,3.49-7.78,7.78c0,4.29,3.49,7.78,7.78,7.78
		c4.29,0,7.78-3.49,7.78-7.78C82.34,19.61,78.85,16.13,74.56,16.13z"/>
	<path class="st17" d="M182.01,9.18l4.97,9.09c0.27,0.5,0.68,0.91,1.18,1.18l9.09,4.97c2.06,1.12,2.06,4.08,0,5.2l-9.09,4.97
		c-0.5,0.27-0.91,0.68-1.18,1.18l-4.97,9.09c-1.12,2.06-4.08,2.06-5.2,0l-4.97-9.09c-0.27-0.5-0.68-0.91-1.18-1.18l-9.09-4.97
		c-2.06-1.12-2.06-4.08,0-5.2l9.09-4.97c0.5-0.27,0.91-0.68,1.18-1.18l4.97-9.09C177.93,7.13,180.88,7.13,182.01,9.18z"/>
	<path class="st16" d="M179.4,14.85l3.18,5.82c0.73,1.34,1.83,2.43,3.17,3.17l5.82,3.18l-5.82,3.18c-1.34,0.73-2.43,1.83-3.17,3.17
		l-3.18,5.82l-3.18-5.82c-0.73-1.34-1.83-2.43-3.17-3.17l-5.82-3.18l5.82-3.18c1.34-0.73,2.44-1.83,3.17-3.17L179.4,14.85
		 M179.4,7.64c-1.02,0-2.04,0.51-2.6,1.54l-4.97,9.09c-0.27,0.5-0.68,0.91-1.18,1.18l-9.09,4.97c-2.06,1.12-2.06,4.08,0,5.2
		l9.09,4.97c0.5,0.27,0.91,0.68,1.18,1.18l4.97,9.09c0.56,1.03,1.58,1.54,2.6,1.54s2.04-0.51,2.6-1.54l4.97-9.09
		c0.27-0.5,0.68-0.91,1.18-1.18l9.09-4.97c2.06-1.12,2.06-4.08,0-5.2l-9.09-4.97c-0.5-0.27-0.91-0.68-1.18-1.18l-4.97-9.09
		C181.44,8.16,180.42,7.64,179.4,7.64L179.4,7.64z"/>
	<path class="st17" d="M256.55,348.02l3.65,6.67c0.2,0.37,0.5,0.67,0.87,0.87l6.67,3.65c1.51,0.83,1.51,2.99,0,3.82l-6.67,3.65
		c-0.37,0.2-0.67,0.5-0.87,0.87l-3.65,6.67c-0.83,1.51-2.99,1.51-3.82,0l-3.65-6.67c-0.2-0.37-0.5-0.67-0.87-0.87l-6.67-3.65
		c-1.51-0.83-1.51-2.99,0-3.82l6.67-3.65c0.37-0.2,0.67-0.5,0.87-0.87l3.65-6.67C253.56,346.51,255.73,346.51,256.55,348.02z"/>
	<path class="st16" d="M254.64,377.85C254.64,377.85,254.64,377.85,254.64,377.85c-1.71,0-3.28-0.93-4.1-2.43l-3.6-6.59l-6.59-3.6
		c-1.5-0.82-2.43-2.39-2.43-4.1c0-1.71,0.93-3.28,2.43-4.1l6.59-3.6l3.6-6.59c0.82-1.5,2.39-2.43,4.1-2.43s3.28,0.93,4.1,2.43
		l3.6,6.59l6.59,3.6c1.5,0.82,2.43,2.39,2.43,4.1c0,1.71-0.93,3.28-2.43,4.1l-6.59,3.6l-3.6,6.59
		C257.93,376.92,256.35,377.85,254.64,377.85z M243.26,361.12l6.16,3.37c0.79,0.43,1.43,1.07,1.86,1.86l3.37,6.16l3.37-6.16
		c0.43-0.79,1.07-1.43,1.86-1.86l6.16-3.37l-6.16-3.37c-0.79-0.43-1.43-1.07-1.86-1.86l-3.37-6.16l-3.37,6.16
		c-0.43,0.79-1.07,1.43-1.86,1.86L243.26,361.12z M254.36,349.22C254.36,349.22,254.36,349.22,254.36,349.22L254.36,349.22z"/>
	<path class="st22" d="M33.16,328.02l8.89,16.25c0.28,0.5,0.69,0.92,1.19,1.19l16.25,8.89c2.08,1.14,2.08,4.13,0,5.26l-16.25,8.89
		c-0.5,0.28-0.92,0.69-1.19,1.19l-8.89,16.25c-1.14,2.08-4.13,2.08-5.26,0l-8.89-16.25c-0.28-0.5-0.69-0.92-1.19-1.19l-16.25-8.89
		c-2.08-1.14-2.08-4.13,0-5.26l16.25-8.89c0.5-0.28,0.92-0.69,1.19-1.19l8.89-16.25C29.04,325.94,32.02,325.94,33.16,328.02z"/>
	<path class="st16" d="M30.53,390.02c-2.01,0-3.86-1.1-4.83-2.86l-8.89-16.25c-0.05-0.08-0.11-0.15-0.2-0.2l-16.25-8.89
		c-1.76-0.97-2.86-2.81-2.86-4.83s1.1-3.86,2.86-4.83l16.25-8.89c0.08-0.05,0.15-0.11,0.2-0.2l8.89-16.25
		c0.97-1.76,2.81-2.86,4.83-2.86s3.86,1.1,4.83,2.86l8.89,16.25c0.05,0.08,0.11,0.15,0.2,0.2l16.25,8.89
		c1.76,0.97,2.86,2.81,2.86,4.83s-1.1,3.86-2.86,4.83l-16.25,8.89c-0.08,0.05-0.15,0.11-0.2,0.2l-8.89,16.25
		C34.39,388.92,32.54,390.02,30.53,390.02z M30.53,328.96c-0.2,0-0.34,0.09-0.44,0.26l-8.89,16.25c-0.51,0.92-1.26,1.68-2.19,2.19
		l-16.25,8.89c-0.17,0.09-0.26,0.24-0.26,0.44s0.09,0.34,0.26,0.44l16.25,8.89c0.92,0.51,1.68,1.26,2.19,2.19l8.89,16.25
		c0.19,0.35,0.69,0.35,0.88,0l8.89-16.25c0.51-0.92,1.26-1.68,2.19-2.19l16.25-8.89c0.17-0.09,0.26-0.24,0.26-0.44
		s-0.09-0.34-0.26-0.44l-16.25-8.89c-0.92-0.51-1.68-1.26-2.19-2.19l-8.89-16.25C30.87,329.04,30.73,328.96,30.53,328.96z"/>
	<path class="st22" d="M345.67,1.56l8.89,16.25c0.28,0.5,0.69,0.92,1.19,1.19l16.25,8.89c2.08,1.14,2.08,4.13,0,5.26l-16.25,8.89
		c-0.5,0.28-0.92,0.69-1.19,1.19l-8.89,16.25c-1.14,2.08-4.13,2.08-5.26,0l-8.89-16.25c-0.28-0.5-0.69-0.92-1.19-1.19l-16.25-8.89
		c-2.08-1.14-2.08-4.13,0-5.26l16.25-8.89c0.5-0.28,0.92-0.69,1.19-1.19l8.89-16.25C341.54-0.52,344.53-0.52,345.67,1.56z"/>
	<path class="st16" d="M343.04,63.56C343.04,63.56,343.04,63.56,343.04,63.56c-2.01,0-3.86-1.1-4.83-2.86l-8.89-16.25
		c-0.05-0.08-0.11-0.15-0.2-0.2l-16.26-8.89c-1.76-0.97-2.86-2.81-2.86-4.83s1.1-3.86,2.86-4.83l16.25-8.89
		c0.08-0.05,0.15-0.11,0.2-0.2l8.89-16.25c0.96-1.76,2.81-2.86,4.83-2.86c2.01,0,3.86,1.1,4.83,2.86l8.89,16.25
		c0.05,0.08,0.11,0.15,0.2,0.2l16.26,8.89c1.76,0.97,2.86,2.81,2.86,4.83s-1.1,3.86-2.86,4.83l-16.25,8.89
		c-0.08,0.05-0.15,0.11-0.2,0.2l-8.89,16.25C346.9,62.46,345.05,63.56,343.04,63.56z M343.04,2.5c-0.2,0-0.34,0.09-0.44,0.26
		l-8.89,16.25c-0.51,0.92-1.26,1.68-2.19,2.19l-16.25,8.89c-0.17,0.09-0.26,0.24-0.26,0.44s0.09,0.34,0.26,0.44l16.25,8.89
		c0.92,0.51,1.68,1.26,2.19,2.19l8.89,16.25c0.09,0.17,0.24,0.26,0.44,0.26l0,0c0.2,0,0.34-0.09,0.44-0.26l8.89-16.25
		c0.51-0.92,1.26-1.68,2.19-2.19l16.25-8.89c0.17-0.09,0.26-0.24,0.26-0.44s-0.09-0.34-0.26-0.44l-16.25-8.89
		c-0.92-0.51-1.68-1.26-2.19-2.19l-8.89-16.25C343.38,2.59,343.24,2.5,343.04,2.5z"/>
	<path class="st17" d="M405.05,160.66l3.85,7.04c0.21,0.39,0.53,0.7,0.91,0.91l7.04,3.85c1.59,0.87,1.59,3.16,0,4.03l-7.04,3.85
		c-0.39,0.21-0.7,0.53-0.91,0.91l-3.85,7.04c-0.87,1.59-3.16,1.59-4.03,0l-3.85-7.04c-0.21-0.39-0.53-0.7-0.91-0.91l-7.04-3.85
		c-1.59-0.87-1.59-3.16,0-4.03l7.04-3.85c0.39-0.21,0.7-0.53,0.91-0.91l3.85-7.04C401.89,159.06,404.18,159.06,405.05,160.66z"/>
	<path class="st16" d="M403.04,191.98c-1.75,0-3.37-0.96-4.21-2.49l-3.82-6.99l-6.99-3.82c-1.54-0.84-2.49-2.45-2.49-4.21
		s0.96-3.37,2.49-4.21l6.99-3.82l3.82-6.99c0.84-1.54,2.45-2.49,4.21-2.49s3.37,0.96,4.21,2.49l3.82,6.99l6.99,3.82
		c1.54,0.84,2.49,2.45,2.49,4.21s-0.96,3.37-2.49,4.21l-6.99,3.82l-3.82,6.99C406.4,191.03,404.79,191.98,403.04,191.98z
		 M390.75,174.47l6.71,3.67c0.81,0.44,1.47,1.1,1.91,1.91l3.67,6.71l3.67-6.71c0.44-0.81,1.1-1.47,1.91-1.91l6.71-3.67l-6.71-3.67
		c-0.81-0.44-1.47-1.1-1.91-1.91l-3.67-6.71l-3.67,6.71c-0.44,0.81-1.1,1.47-1.91,1.91L390.75,174.47z M402.86,161.86
		C402.86,161.86,402.86,161.86,402.86,161.86L402.86,161.86z"/>
	<path class="st17" d="M121.13,83.75l3.85,7.04c0.21,0.39,0.53,0.7,0.91,0.91l7.04,3.85c1.59,0.87,1.59,3.16,0,4.03l-7.04,3.85
		c-0.39,0.21-0.7,0.53-0.91,0.91l-3.85,7.04c-0.87,1.59-3.16,1.59-4.03,0l-3.85-7.04c-0.21-0.39-0.53-0.7-0.91-0.91l-7.04-3.85
		c-1.59-0.87-1.59-3.16,0-4.03l7.04-3.85c0.39-0.21,0.7-0.53,0.91-0.91l3.85-7.04C117.97,82.15,120.26,82.15,121.13,83.75z"/>
	<path class="st16" d="M119.12,115.07c-1.75,0-3.37-0.96-4.21-2.49l-3.82-6.99l-6.99-3.82c-1.54-0.84-2.49-2.45-2.49-4.21
		c0-1.75,0.96-3.37,2.49-4.21l6.99-3.82l3.82-6.99c0.84-1.54,2.45-2.49,4.21-2.49s3.37,0.96,4.21,2.49l3.82,6.99l6.99,3.82
		c1.54,0.84,2.49,2.45,2.49,4.21c0,1.75-0.96,3.37-2.49,4.21l-6.99,3.82l-3.82,6.99C122.48,114.12,120.87,115.07,119.12,115.07z
		 M106.83,97.56l6.71,3.67c0.81,0.44,1.47,1.1,1.91,1.91l3.67,6.71l3.67-6.71c0.44-0.81,1.1-1.47,1.91-1.91l6.71-3.67l-6.71-3.67
		c-0.81-0.44-1.47-1.1-1.91-1.91l-3.67-6.71l-3.67,6.71c-0.44,0.81-1.1,1.47-1.91,1.91L106.83,97.56z M118.94,84.95
		C118.94,84.95,118.94,84.95,118.94,84.95L118.94,84.95z"/>
	<path class="st17" d="M216.2,77.52l35.55,72.03c1.17,2.36,3.42,4,6.02,4.38l79.49,11.55c6.56,0.95,9.18,9.02,4.43,13.65
		l-57.52,56.07c-1.89,1.84-2.75,4.49-2.3,7.08l13.58,79.17c1.12,6.54-5.74,11.52-11.61,8.43l-71.1-37.38
		c-2.33-1.23-5.11-1.23-7.45,0l-71.1,37.38c-5.87,3.09-12.73-1.9-11.61-8.43l13.58-79.17c0.45-2.6-0.42-5.24-2.3-7.08l-57.52-56.07
		c-4.75-4.63-2.13-12.69,4.43-13.65l79.49-11.55c2.61-0.38,4.86-2.02,6.02-4.38l35.55-72.03C204.78,71.58,213.26,71.58,216.2,77.52z
		"/>
	<path class="st19" d="M214.94,141.86l16.8,34.03c0.96,1.95,2.82,3.3,4.97,3.61l37.56,5.46c5.41,0.79,7.58,7.44,3.66,11.26
		l-27.18,26.49c-1.56,1.52-2.27,3.7-1.9,5.84l6.42,37.4c0.92,5.39-4.74,9.51-9.58,6.96l-33.59-17.66c-1.92-1.01-4.22-1.01-6.14,0
		l-33.59,17.66c-4.84,2.55-10.5-1.57-9.58-6.96l6.42-37.4c0.37-2.14-0.34-4.33-1.9-5.84l-27.18-26.49
		c-3.92-3.82-1.76-10.47,3.66-11.26l37.56-5.46c2.15-0.31,4.01-1.66,4.97-3.61l16.8-34.03
		C205.52,136.96,212.52,136.96,214.94,141.86z"/>
	<path class="st16" d="M248.77,276.19c-1.45,0-2.9-0.35-4.24-1.06l-33.59-17.66c-1.19-0.63-2.62-0.63-3.82,0l-33.59,17.66
		c-3.09,1.62-6.76,1.36-9.58-0.69c-2.82-2.05-4.21-5.46-3.62-8.9l6.42-37.4c0.23-1.33-0.21-2.69-1.18-3.63l-27.18-26.49
		c-2.5-2.44-3.38-6.01-2.3-9.33c1.08-3.32,3.89-5.69,7.35-6.19l37.56-5.46c1.34-0.19,2.49-1.03,3.09-2.24l16.8-34.03
		c1.54-3.13,4.67-5.07,8.16-5.07c0,0,0,0,0,0c3.49,0,6.62,1.94,8.16,5.07l16.8,34.03c0.6,1.21,1.75,2.05,3.09,2.24l37.56,5.46
		c3.45,0.5,6.27,2.88,7.35,6.19c1.08,3.32,0.2,6.89-2.3,9.33l-27.18,26.49c-0.97,0.94-1.41,2.3-1.18,3.63l6.42,37.4
		c0.59,3.44-0.8,6.85-3.62,8.9C252.51,275.6,250.64,276.19,248.77,276.19z M209.02,252c1.45,0,2.91,0.35,4.24,1.05l33.59,17.66
		c1.41,0.74,3.03,0.63,4.32-0.31c1.29-0.94,1.9-2.44,1.63-4.01l-6.42-37.4c-0.51-2.95,0.47-5.96,2.62-8.06l27.18-26.49
		c1.14-1.11,1.53-2.69,1.04-4.2c-0.49-1.52-1.73-2.56-3.31-2.79l-37.56-5.46c-2.97-0.43-5.53-2.29-6.85-4.98l-16.8-34.03
		c-0.71-1.43-2.08-2.29-3.68-2.29s-2.97,0.85-3.68,2.29L188.55,177c-1.33,2.69-3.89,4.55-6.85,4.98l-37.56,5.46
		c-1.58,0.23-2.82,1.27-3.31,2.79s-0.11,3.09,1.04,4.2l27.18,26.49c2.15,2.09,3.12,5.1,2.62,8.06l-6.42,37.4
		c-0.27,1.57,0.34,3.07,1.63,4.01c1.29,0.94,2.91,1.06,4.32,0.31l33.59-17.66C206.11,252.35,207.57,252,209.02,252z"/>
	<linearGradient id="SVGID_1_" gradientUnits="userSpaceOnUse" x1="43.1393" y1="201.9379" x2="251.9962" y2="201.9379">
		<stop  offset="0" style="stop-color:#333DC9"/>
		<stop  offset="1" style="stop-color:#333DC9;stop-opacity:0.2"/>
	</linearGradient>
	<path style="opacity:0.5;fill:url(#SVGID_1_);" d="M220.75,86.45l-4.41-8.93c-2.93-5.95-11.41-5.95-14.35,0l-35.55,72.03
		c-1.17,2.36-3.42,4-6.02,4.38l-79.49,11.55c-6.56,0.95-9.18,9.02-4.43,13.65l57.52,56.07c1.89,1.84,2.75,4.49,2.3,7.08
		l-13.58,79.17c-1.12,6.54,5.74,11.52,11.61,8.43l71.1-37.38c2.33-1.23,5.11-1.23,7.45,0l4.13,2.17
		C203.02,227.34,203.64,152.17,220.75,86.45z"/>
	<path class="st16" d="M130.47,333.31c-2.17,0-4.32-0.68-6.16-2.02c-3.26-2.37-4.86-6.3-4.18-10.27l13.58-79.17
		c0.31-1.78-0.29-3.6-1.58-4.87l-57.52-56.07c-2.88-2.81-3.9-6.93-2.66-10.76c1.24-3.83,4.49-6.57,8.48-7.15l79.49-11.55
		c1.79-0.26,3.34-1.39,4.14-3.01l35.55-72.03c1.78-3.61,5.39-5.85,9.42-5.85c0,0,0,0,0,0c4.03,0,7.63,2.24,9.42,5.85l35.55,72.03
		c0.8,1.62,2.35,2.75,4.14,3.01l79.49,11.55c3.98,0.58,7.23,3.32,8.48,7.15c1.24,3.83,0.23,7.95-2.66,10.76l-57.52,56.07
		c-1.3,1.26-1.89,3.08-1.58,4.87l13.58,79.17c0.68,3.97-0.92,7.9-4.18,10.27c-3.26,2.37-7.49,2.67-11.06,0.8l-71.1-37.38
		c-1.6-0.84-3.52-0.84-5.12,0l-71.1,37.38C133.82,332.9,132.14,333.31,130.47,333.31z M209.02,75.56c-2.14,0-3.98,1.15-4.93,3.07
		l-35.55,72.03c-1.53,3.1-4.49,5.25-7.91,5.74l-79.49,11.55c-2.12,0.31-3.78,1.71-4.44,3.74c-0.66,2.04-0.14,4.14,1.39,5.64
		l57.52,56.07c2.48,2.41,3.6,5.89,3.02,9.29l-13.58,79.17c-0.36,2.11,0.46,4.12,2.19,5.38c1.73,1.26,3.9,1.42,5.79,0.42l71.1-37.38
		c3.06-1.61,6.71-1.61,9.77,0l71.1,37.38c1.89,1,4.06,0.84,5.79-0.42c1.73-1.26,2.55-3.27,2.19-5.38l-13.58-79.17
		c-0.58-3.41,0.54-6.88,3.02-9.29l57.52-56.07c1.53-1.49,2.05-3.6,1.39-5.64c-0.66-2.04-2.32-3.44-4.44-3.74l-79.49-11.55
		c-3.42-0.5-6.38-2.64-7.91-5.74l-35.55-72.03C213.01,76.71,211.16,75.56,209.02,75.56z"/>
</g>
</svg>
