<?xml version="1.0" encoding="utf-8"?>
<!-- Generator: Adobe Illustrator 24.0.1, SVG Export Plug-In . SVG Version: 6.00 Build 0)  -->
<svg version="1.1" xmlns="http://www.w3.org/2000/svg" xmlns:xlink="http://www.w3.org/1999/xlink" x="0px" y="0px"
	 viewBox="0 0 418.05 418.05" style="enable-background:new 0 0 418.05 418.05;" xml:space="preserve">
<style type="text/css">
	.st0{clip-path:url(#SVGID_2_);}
	.st1{clip-path:url(#SVGID_4_);}
	.st2{clip-path:url(#SVGID_6_);}
	.st3{clip-path:url(#SVGID_8_);}
	.st4{clip-path:url(#SVGID_10_);}
	.st5{clip-path:url(#SVGID_12_);}
	.st6{fill:none;stroke:#231F20;stroke-miterlimit:10;}
	.st7{opacity:0;fill:url(#SVGID_13_);}
	.st8{opacity:0.3;fill:url(#SVGID_14_);}
	.st9{fill:#A3A7E6;stroke:#000769;stroke-width:5;stroke-miterlimit:10;}
	.st10{fill:#939598;stroke:#000000;stroke-width:5;stroke-miterlimit:10;}
	.st11{fill:none;stroke:#231F20;stroke-width:10;stroke-miterlimit:10;}
	.st12{fill:#231F20;stroke:#231F20;stroke-miterlimit:10;}
	.st13{fill:#D1D3D4;stroke:#000000;stroke-width:5;stroke-miterlimit:10;}
	.st14{fill:none;stroke:#D1D3D4;stroke-width:15;stroke-linecap:round;stroke-miterlimit:10;}
	.st15{fill:none;stroke:#231F20;stroke-linecap:round;stroke-miterlimit:10;}
	.st16{fill:#F1F2F2;stroke:#000000;stroke-width:5;stroke-miterlimit:10;}
	.st17{fill:#D1D3D4;}
	.st18{fill:#FFFFFF;stroke:#231F20;stroke-width:5;stroke-miterlimit:10;}
	.st19{fill:#939598;}
	.st20{fill:none;}
	.st21{fill:#333DC9;stroke:#000769;stroke-width:5;stroke-miterlimit:10;}
	.st22{fill:#E2E9FC;stroke:#000769;stroke-width:5;stroke-miterlimit:10;}
	.st23{fill:#000769;}
	.st24{fill:#A3A7E6;}
	.st25{fill:#333DC9;}
	.st26{fill:#FFFFFF;}
	.st27{opacity:0.5;fill:url(#SVGID_15_);}
	.st28{opacity:0.5;fill:url(#SVGID_16_);}
	.st29{fill:#E2E9FC;}
	.st30{fill:#FFFFFF;stroke:#000769;stroke-width:5;stroke-miterlimit:10;}
	.st31{fill:url(#SVGID_17_);}
	.st32{opacity:0.5;fill:url(#SVGID_18_);}
	.st33{opacity:0.5;fill:url(#SVGID_19_);}
	.st34{opacity:0.5;fill:url(#SVGID_20_);}
	.st35{opacity:0.5;fill:url(#SVGID_21_);}
	.st36{opacity:0.5;fill:url(#SVGID_22_);}
	.st37{opacity:0.5;fill:url(#SVGID_23_);}
	.st38{opacity:0.5;fill:url(#SVGID_24_);}
	.st39{opacity:0.5;fill:url(#SVGID_25_);}
	.st40{opacity:0.5;fill:url(#SVGID_26_);}
	.st41{fill:none;stroke:#231F20;stroke-width:5;stroke-miterlimit:10;}
	.st42{fill:#231F20;}
	.st43{opacity:0.5;fill:url(#SVGID_27_);}
	.st44{opacity:0.5;fill:url(#SVGID_28_);}
	.st45{opacity:0.5;fill:url(#SVGID_29_);}
	.st46{fill:url(#SVGID_30_);stroke:#000769;stroke-width:5;stroke-miterlimit:10;}
	.st47{opacity:0.5;fill:url(#SVGID_31_);}
	.st48{opacity:0.5;fill:url(#SVGID_32_);}
	.st49{opacity:0.5;fill:url(#SVGID_33_);}
	.st50{opacity:0.5;fill:url(#SVGID_34_);}
	.st51{opacity:0.5;fill:url(#SVGID_35_);}
	.st52{opacity:0.5;fill:url(#SVGID_36_);}
	.st53{opacity:0.5;fill:url(#SVGID_37_);}
	.st54{opacity:0.5;fill:url(#SVGID_38_);}
	.st55{opacity:0.5;fill:url(#SVGID_39_);}
	.st56{opacity:0.5;fill:url(#SVGID_40_);}
	.st57{opacity:0.5;fill:url(#SVGID_41_);}
	.st58{opacity:0.5;fill:url(#SVGID_42_);}
	.st59{opacity:0.5;fill:url(#SVGID_43_);}
	.st60{opacity:0.5;fill:url(#SVGID_44_);}
	.st61{opacity:0.5;fill:url(#SVGID_45_);}
	.st62{opacity:0.5;fill:url(#SVGID_46_);}
	.st63{fill:#FFFFFF;stroke:#231F20;stroke-miterlimit:10;}
	.st64{fill:none;stroke:#231F20;stroke-width:5;stroke-linecap:round;stroke-miterlimit:10;}
	.st65{fill:#FFFFFF;stroke:#231F20;stroke-width:5;stroke-linecap:round;stroke-miterlimit:10;}
	.st66{opacity:0.5;fill:url(#SVGID_47_);}
	.st67{opacity:0.5;fill:url(#SVGID_48_);}
	.st68{opacity:0.5;fill:url(#SVGID_49_);}
	.st69{opacity:0.8;fill:url(#SVGID_50_);}
	.st70{opacity:0.8;fill:url(#SVGID_51_);}
	.st71{opacity:0.8;fill:url(#SVGID_52_);}
	.st72{opacity:0.8;fill:url(#SVGID_53_);}
	.st73{opacity:0.8;fill:url(#SVGID_54_);}
	.st74{opacity:0.8;fill:url(#SVGID_55_);}
	.st75{fill:none;stroke:#231F20;stroke-width:16;stroke-miterlimit:10;}
	.st76{fill:none;stroke:#231F20;stroke-width:16;stroke-linecap:round;stroke-miterlimit:10;}
	.st77{fill:#FFFFFF;stroke:#000769;stroke-width:5;stroke-linecap:round;stroke-miterlimit:10;}
	.st78{fill:#231F20;stroke:#231F20;stroke-width:5;stroke-miterlimit:10;}
	.st79{opacity:0.8;fill:url(#SVGID_56_);}
	.st80{fill:none;stroke:#000769;stroke-width:16;stroke-linecap:round;stroke-miterlimit:10;}
	.st81{opacity:0.5;fill:url(#SVGID_57_);}
	.st82{opacity:0.5;fill:url(#SVGID_58_);}
	.st83{opacity:0.5;fill:url(#SVGID_59_);}
	.st84{opacity:0.5;fill:url(#SVGID_60_);}
	.st85{opacity:0.5;fill:url(#SVGID_61_);}
	.st86{fill:none;stroke:#000769;stroke-width:5;stroke-linecap:round;stroke-miterlimit:10;}
	.st87{opacity:0.5;fill:url(#SVGID_62_);}
	.st88{opacity:0.5;fill:url(#SVGID_63_);}
	.st89{opacity:0.5;fill:url(#SVGID_64_);}
	.st90{opacity:0.5;fill:url(#SVGID_65_);}
	.st91{opacity:0.5;fill:url(#SVGID_66_);}
	.st92{opacity:0.5;fill:url(#SVGID_67_);}
	.st93{opacity:0.5;fill:url(#SVGID_68_);}
	.st94{opacity:0.5;fill:url(#SVGID_69_);}
	.st95{opacity:0.5;fill:url(#SVGID_70_);}
	.st96{opacity:0.5;fill:url(#SVGID_71_);}
	.st97{opacity:0.5;fill:url(#SVGID_72_);}
	.st98{opacity:0.5;fill:url(#SVGID_73_);}
	.st99{opacity:0.5;fill:url(#SVGID_74_);}
	.st100{opacity:0.5;fill:url(#SVGID_75_);}
	.st101{opacity:0.5;fill:url(#SVGID_76_);}
	.st102{opacity:0.5;fill:url(#SVGID_77_);}
	.st103{opacity:0.5;fill:url(#SVGID_78_);}
	.st104{opacity:0.5;fill:url(#SVGID_79_);}
	.st105{opacity:0.5;fill:url(#SVGID_80_);}
	.st106{opacity:0.5;fill:url(#SVGID_81_);}
	.st107{opacity:0.5;fill:url(#SVGID_82_);}
	.st108{opacity:0.5;fill:url(#SVGID_83_);}
	.st109{opacity:0.5;fill:url(#SVGID_84_);}
	.st110{fill:none;stroke:#000769;stroke-width:7;stroke-linecap:round;stroke-miterlimit:10;}
	.st111{opacity:0.5;fill:url(#SVGID_85_);}
	.st112{fill:none;stroke:#000769;stroke-width:8;stroke-linecap:round;stroke-miterlimit:10;}
	.st113{opacity:0.5;fill:url(#SVGID_86_);}
	.st114{opacity:0.5;fill:url(#SVGID_87_);}
	.st115{opacity:0.5;fill:url(#SVGID_88_);}
	.st116{opacity:0.5;fill:url(#SVGID_89_);}
	.st117{opacity:0.5;fill:url(#SVGID_90_);}
	.st118{opacity:0.5;fill:url(#SVGID_91_);}
	.st119{opacity:0.5;fill:url(#SVGID_92_);}
	.st120{opacity:0.5;fill:url(#SVGID_93_);}
	.st121{opacity:0.5;fill:url(#SVGID_94_);}
	.st122{opacity:0.5;fill:url(#SVGID_95_);}
	.st123{fill:#FFFFFF;stroke:#000769;stroke-width:7;stroke-miterlimit:10;}
	.st124{fill:none;stroke:#000769;stroke-width:10;stroke-linecap:round;stroke-miterlimit:10;}
	.st125{fill:#E2E9FC;stroke:#000769;stroke-width:10;stroke-miterlimit:10;}
	.st126{opacity:0.5;fill:url(#SVGID_96_);}
	.st127{opacity:0.5;fill:url(#SVGID_97_);}
	.st128{opacity:0.5;fill:url(#SVGID_98_);}
	.st129{opacity:0.3;fill:url(#SVGID_99_);}
	.st130{opacity:0.3;fill:url(#SVGID_100_);}
	.st131{opacity:0.3;fill:url(#SVGID_101_);}
	.st132{opacity:0.5;fill:url(#SVGID_102_);}
	.st133{opacity:0.3;fill:url(#SVGID_103_);}
	.st134{opacity:0.5;fill:url(#SVGID_104_);}
	.st135{opacity:0;fill:url(#SVGID_105_);}
	.st136{opacity:0.5;fill:url(#SVGID_106_);}
	.st137{opacity:0.5;fill:url(#SVGID_107_);}
	.st138{opacity:0.5;fill:url(#SVGID_108_);}
	.st139{opacity:0.5;fill:url(#SVGID_109_);}
	.st140{opacity:0.5;fill:url(#SVGID_110_);}
	.st141{opacity:0.5;fill:url(#SVGID_111_);}
	.st142{fill:none;stroke:#000769;stroke-width:12;stroke-linecap:round;stroke-miterlimit:10;}
	.st143{opacity:0.5;fill:url(#SVGID_112_);}
	.st144{opacity:0.5;fill:url(#SVGID_113_);}
	.st145{opacity:0.5;fill:url(#SVGID_114_);}
	.st146{opacity:0.5;fill:url(#SVGID_115_);}
	.st147{opacity:0.5;fill:url(#SVGID_116_);}
	.st148{opacity:0.5;fill:url(#SVGID_117_);}
	.st149{opacity:0.5;fill:url(#SVGID_118_);}
	.st150{opacity:0.5;fill:url(#SVGID_119_);}
	.st151{opacity:0.5;fill:url(#SVGID_120_);}
	.st152{opacity:0.5;fill:url(#SVGID_121_);}
	.st153{opacity:0.8;fill:url(#SVGID_122_);}
	.st154{opacity:0.5;fill:url(#SVGID_123_);}
	.st155{opacity:0.5;fill:url(#SVGID_124_);}
	.st156{opacity:0.5;fill:url(#SVGID_125_);}
	.st157{opacity:0.5;fill:url(#SVGID_126_);}
	.st158{opacity:0.5;fill:url(#SVGID_127_);}
	.st159{opacity:0.5;fill:url(#SVGID_128_);}
	.st160{opacity:0.5;fill:url(#SVGID_129_);}
	.st161{opacity:0.5;fill:url(#SVGID_130_);}
	.st162{opacity:0.5;fill:url(#SVGID_131_);}
	.st163{opacity:0.5;fill:url(#SVGID_132_);}
	.st164{opacity:0.5;fill:#FFFFFF;stroke:#000769;stroke-width:5;stroke-linecap:round;stroke-miterlimit:10;}
	.st165{opacity:0.5;fill:url(#SVGID_133_);}
	.st166{opacity:0.5;fill:url(#SVGID_134_);}
	.st167{opacity:0.5;fill:url(#SVGID_135_);}
	.st168{opacity:0.5;fill:url(#SVGID_136_);}
	.st169{opacity:0.5;fill:url(#SVGID_137_);}
	.st170{opacity:0.5;fill:url(#SVGID_138_);}
	.st171{opacity:0.5;fill:url(#SVGID_139_);}
	.st172{opacity:0.5;fill:url(#SVGID_140_);}
	.st173{opacity:0.5;fill:url(#SVGID_141_);}
	.st174{opacity:0.5;fill:url(#SVGID_142_);}
	.st175{opacity:0.5;fill:url(#SVGID_143_);}
	.st176{opacity:0.5;}
	.st177{opacity:0.5;fill:url(#SVGID_144_);}
	.st178{opacity:0.5;fill:url(#SVGID_145_);}
	.st179{opacity:0.5;fill:url(#SVGID_146_);}
	.st180{opacity:0.5;fill:url(#SVGID_147_);}
	.st181{opacity:0.5;fill:url(#SVGID_148_);}
	.st182{opacity:0.8;fill:url(#SVGID_149_);}
	.st183{opacity:0.5;fill:url(#SVGID_150_);}
	.st184{opacity:0.5;fill:url(#SVGID_151_);}
	.st185{opacity:0.5;fill:url(#SVGID_152_);}
	.st186{opacity:0.5;fill:url(#SVGID_153_);}
	.st187{opacity:0.5;fill:url(#SVGID_154_);}
	.st188{opacity:0.5;fill:url(#SVGID_155_);}
	.st189{opacity:0.5;fill:url(#SVGID_156_);}
	.st190{opacity:0.5;fill:url(#SVGID_157_);}
	.st191{opacity:0.5;fill:url(#SVGID_158_);}
	.st192{opacity:0.5;fill:url(#SVGID_159_);}
</style>
<g id="Sketch">
</g>
<g id="Layer_2">
	<g>
		<path class="st29" d="M347.85,23.77l6.74,12.33c0.37,0.67,0.92,1.23,1.6,1.6l12.33,6.74c2.79,1.53,2.79,5.53,0,7.06l-12.33,6.74
			c-0.67,0.37-1.23,0.92-1.6,1.6l-6.74,12.33c-1.53,2.79-5.53,2.79-7.06,0l-6.74-12.33c-0.37-0.67-0.92-1.23-1.6-1.6l-12.33-6.74
			c-2.79-1.53-2.79-5.53,0-7.06l12.33-6.74c0.67-0.37,1.23-0.92,1.6-1.6l6.74-12.33C342.32,20.98,346.32,20.98,347.85,23.77z"/>
		<path class="st23" d="M344.32,76.76c-2.39,0-4.58-1.3-5.72-3.39l-6.74-12.33c-0.14-0.26-0.35-0.47-0.61-0.61l-12.33-6.74
			c-2.09-1.14-3.39-3.34-3.39-5.72c0-2.39,1.3-4.58,3.39-5.72l12.33-6.74c0.26-0.14,0.47-0.35,0.61-0.61l6.74-12.33
			c1.14-2.09,3.34-3.39,5.72-3.39s4.58,1.3,5.72,3.39l6.74,12.33c0.14,0.26,0.35,0.47,0.61,0.61l12.33,6.74
			c2.09,1.14,3.39,3.34,3.39,5.72c0,2.39-1.3,4.58-3.39,5.72l-12.33,6.74c-0.26,0.14-0.47,0.35-0.61,0.61l-6.74,12.33
			C348.9,75.46,346.7,76.76,344.32,76.76z M344.32,24.17c-0.27,0-0.94,0.08-1.34,0.79l-6.74,12.33c-0.6,1.1-1.5,1.99-2.59,2.59
			l-12.33,6.74c-0.71,0.39-0.79,1.06-0.79,1.34c0,0.27,0.08,0.95,0.79,1.34l12.33,6.74c1.1,0.6,1.99,1.5,2.59,2.59l6.74,12.33
			c0.39,0.71,1.06,0.79,1.34,0.79s0.94-0.08,1.34-0.79l6.74-12.33c0.6-1.1,1.5-1.99,2.59-2.59l12.33-6.74
			c0.71-0.39,0.79-1.06,0.79-1.34c0-0.27-0.08-0.94-0.79-1.34l-12.33-6.74c-1.1-0.6-1.99-1.5-2.59-2.59l-6.74-12.33
			C345.26,24.25,344.59,24.17,344.32,24.17z"/>
	</g>
	<g>
		<path class="st29" d="M55.21,82.58l5.27,9.64c0.29,0.53,0.72,0.96,1.25,1.25l9.64,5.27c2.18,1.19,2.18,4.33,0,5.52l-9.64,5.27
			c-0.53,0.29-0.96,0.72-1.25,1.25l-5.27,9.64c-1.19,2.18-4.33,2.18-5.52,0l-5.27-9.64c-0.29-0.53-0.72-0.96-1.25-1.25l-9.64-5.27
			c-2.18-1.19-2.18-4.33,0-5.52l9.64-5.27c0.53-0.29,0.96-0.72,1.25-1.25l5.27-9.64C50.88,80.4,54.02,80.4,55.21,82.58z"/>
		<path class="st23" d="M52.45,124.56c-2.06,0-3.96-1.13-4.95-2.94l-5.27-9.64c-0.06-0.11-0.15-0.2-0.26-0.26l-9.64-5.27
			c-1.81-0.99-2.94-2.89-2.94-4.95c0-2.06,1.13-3.96,2.94-4.95l9.64-5.27c0.11-0.06,0.2-0.15,0.26-0.26l5.27-9.64
			c0.99-1.81,2.89-2.94,4.95-2.94c2.06,0,3.96,1.13,4.95,2.94l5.27,9.64c0.06,0.11,0.15,0.2,0.26,0.26l9.64,5.27
			c1.81,0.99,2.94,2.89,2.94,4.95s-1.13,3.96-2.94,4.95l-9.64,5.27c-0.11,0.06-0.2,0.15-0.26,0.26l-5.27,9.64
			C56.41,123.43,54.51,124.56,52.45,124.56z M52.45,83.44c-0.17,0-0.41,0.06-0.57,0.34l-5.27,9.64c-0.52,0.95-1.3,1.73-2.24,2.24
			l-9.64,5.27c-0.28,0.15-0.34,0.39-0.34,0.57s0.06,0.41,0.34,0.57l9.64,5.27c0.95,0.52,1.73,1.3,2.24,2.24l5.27,9.64
			c0.15,0.28,0.39,0.34,0.57,0.34c0.17,0,0.41-0.06,0.57-0.34l5.27-9.64c0.52-0.95,1.29-1.72,2.24-2.24l9.64-5.27
			c0.28-0.15,0.34-0.39,0.34-0.57s-0.06-0.41-0.34-0.57l-9.64-5.27c-0.95-0.52-1.72-1.29-2.24-2.24l-5.27-9.64
			C52.86,83.5,52.62,83.44,52.45,83.44z"/>
	</g>
	<g>
		<path class="st29" d="M390.59,195.29l3.83,7c0.21,0.38,0.52,0.7,0.91,0.91l7,3.83c1.58,0.87,1.58,3.14,0,4.01l-7,3.83
			c-0.38,0.21-0.7,0.52-0.91,0.91l-3.83,7c-0.87,1.58-3.14,1.58-4.01,0l-3.83-7c-0.21-0.38-0.52-0.7-0.91-0.91l-7-3.83
			c-1.58-0.87-1.58-3.14,0-4.01l7-3.83c0.38-0.21,0.7-0.52,0.91-0.91l3.83-7C387.45,193.71,389.73,193.71,390.59,195.29z"/>
		<path class="st23" d="M388.59,226.44c-1.75,0-3.36-0.95-4.2-2.49l-3.8-6.94l-6.94-3.8c-1.53-0.84-2.49-2.45-2.49-4.2
			c0-1.75,0.95-3.36,2.49-4.2l6.94-3.8l3.8-6.94c0.84-1.53,2.45-2.49,4.2-2.49c1.75,0,3.36,0.95,4.2,2.49l3.8,6.94l6.94,3.8
			c1.53,0.84,2.49,2.45,2.49,4.2c0,1.75-0.95,3.36-2.49,4.2l-6.94,3.8l-3.8,6.94C391.95,225.49,390.34,226.44,388.59,226.44z
			 M376.41,209.02l6.65,3.64c0.8,0.44,1.46,1.1,1.9,1.9l3.64,6.65l3.64-6.65c0.44-0.8,1.1-1.46,1.9-1.9l6.65-3.64l-6.65-3.64
			c-0.8-0.44-1.46-1.1-1.9-1.9l-3.64-6.65l-3.64,6.65c-0.44,0.8-1.1,1.46-1.9,1.9L376.41,209.02z M388.4,196.49
			C388.4,196.49,388.4,196.49,388.4,196.49L388.4,196.49z"/>
	</g>
	<rect x="0" class="st20" width="418.05" height="418.05"/>
	<g>
		<circle class="st24" cx="407.27" cy="343.88" r="10.77"/>
		<path class="st23" d="M407.27,338.11c3.18,0,5.77,2.59,5.77,5.77c0,3.18-2.59,5.77-5.77,5.77c-3.18,0-5.77-2.59-5.77-5.77
			C401.5,340.7,404.09,338.11,407.27,338.11 M407.27,333.11c-5.95,0-10.77,4.82-10.77,10.77c0,5.95,4.82,10.77,10.77,10.77
			c5.95,0,10.77-4.82,10.77-10.77C418.05,337.93,413.22,333.11,407.27,333.11L407.27,333.11z"/>
	</g>
	<g>
		<circle class="st24" cx="221.38" cy="399.22" r="10.77"/>
		<path class="st23" d="M221.38,393.45c3.18,0,5.77,2.59,5.77,5.77c0,3.18-2.59,5.77-5.77,5.77c-3.18,0-5.77-2.59-5.77-5.77
			C215.61,396.04,218.2,393.45,221.38,393.45 M221.38,388.45c-5.95,0-10.77,4.82-10.77,10.77c0,5.95,4.82,10.77,10.77,10.77
			c5.95,0,10.77-4.82,10.77-10.77C232.15,393.27,227.33,388.45,221.38,388.45L221.38,388.45z"/>
	</g>
	<g>
		<circle class="st24" cx="10.77" cy="37.81" r="10.77"/>
		<path class="st23" d="M10.77,32.04c3.18,0,5.77,2.59,5.77,5.77s-2.59,5.77-5.77,5.77C7.59,43.58,5,40.99,5,37.81
			S7.59,32.04,10.77,32.04 M10.77,27.04C4.82,27.04,0,31.86,0,37.81s4.82,10.77,10.77,10.77c5.95,0,10.77-4.82,10.77-10.77
			S16.72,27.04,10.77,27.04L10.77,27.04z"/>
	</g>
	<g>
		<circle class="st24" cx="228.17" cy="10.77" r="10.77"/>
		<path class="st23" d="M228.17,5c3.18,0,5.77,2.59,5.77,5.77c0,3.18-2.59,5.77-5.77,5.77s-5.77-2.59-5.77-5.77
			C222.4,7.59,224.99,5,228.17,5 M228.17,0c-5.95,0-10.77,4.82-10.77,10.77c0,5.95,4.82,10.77,10.77,10.77s10.77-4.82,10.77-10.77
			C238.95,4.82,234.12,0,228.17,0L228.17,0z"/>
	</g>
	<g>
		<circle class="st29" cx="21.55" cy="318.32" r="10.77"/>
		<path class="st23" d="M21.55,331.59c-7.32,0-13.27-5.95-13.27-13.27s5.95-13.27,13.27-13.27s13.27,5.95,13.27,13.27
			S28.87,331.59,21.55,331.59z M21.55,310.05c-4.56,0-8.27,3.71-8.27,8.27c0,4.56,3.71,8.27,8.27,8.27c4.56,0,8.27-3.71,8.27-8.27
			C29.82,313.76,26.11,310.05,21.55,310.05z"/>
	</g>
	<g>
		<circle class="st29" cx="398.87" cy="104.77" r="10.77"/>
		<path class="st23" d="M398.87,118.04c-7.32,0-13.27-5.95-13.27-13.27s5.95-13.27,13.27-13.27s13.27,5.95,13.27,13.27
			S406.19,118.04,398.87,118.04z M398.87,96.5c-4.56,0-8.27,3.71-8.27,8.27c0,4.56,3.71,8.27,8.27,8.27c4.56,0,8.27-3.71,8.27-8.27
			C407.14,100.21,403.43,96.5,398.87,96.5z"/>
	</g>
	<g>
		<path class="st29" d="M88.69,353.17l9.32,17.04c0.29,0.53,0.72,0.96,1.25,1.25l17.04,9.32c2.18,1.19,2.18,4.33,0,5.52l-17.04,9.32
			c-0.53,0.29-0.96,0.72-1.25,1.25l-9.32,17.04c-1.19,2.18-4.33,2.18-5.52,0l-9.32-17.04c-0.29-0.53-0.72-0.96-1.25-1.25
			l-17.04-9.32c-2.18-1.19-2.18-4.33,0-5.52l17.04-9.32c0.53-0.29,0.96-0.72,1.25-1.25l9.32-17.04
			C84.37,350.99,87.5,350.99,88.69,353.17z"/>
		<path class="st23" d="M85.93,418.05c-2.06,0-3.96-1.13-4.95-2.94l-9.32-17.04c-0.06-0.11-0.15-0.2-0.26-0.26l-17.04-9.32
			c-1.81-0.99-2.94-2.89-2.94-4.95c0-2.06,1.13-3.96,2.94-4.95l17.04-9.32c0.11-0.06,0.2-0.15,0.26-0.26l9.32-17.04
			c0.99-1.81,2.89-2.94,4.95-2.94c2.06,0,3.96,1.13,4.95,2.94l9.32,17.04c0.06,0.11,0.15,0.2,0.26,0.26l17.04,9.32
			c1.81,0.99,2.94,2.89,2.94,4.95s-1.12,3.96-2.94,4.95l-17.04,9.32c-0.11,0.06-0.2,0.15-0.26,0.26l-9.32,17.04
			C89.9,416.92,88,418.05,85.93,418.05z M85.93,354.04c-0.17,0-0.41,0.06-0.57,0.34l-9.32,17.04c-0.52,0.95-1.29,1.72-2.24,2.24
			l-17.04,9.32c-0.28,0.15-0.34,0.39-0.34,0.57s0.06,0.41,0.34,0.57l17.04,9.32c0.95,0.52,1.72,1.29,2.24,2.24l9.32,17.04
			c0.15,0.28,0.39,0.34,0.57,0.34c0.17,0,0.41-0.06,0.57-0.34l9.32-17.04c0.52-0.95,1.29-1.72,2.24-2.24l17.04-9.32
			c0.28-0.15,0.34-0.39,0.34-0.57c0-0.17-0.06-0.41-0.34-0.57l-17.04-9.32c-0.95-0.52-1.73-1.3-2.24-2.24l-9.32-17.04
			C86.35,354.09,86.11,354.04,85.93,354.04z"/>
	</g>
	<g>
		<path class="st24" d="M34.66,199.28l3.83,7c0.21,0.38,0.52,0.7,0.91,0.91l7,3.83c1.58,0.87,1.58,3.14,0,4.01l-7,3.83
			c-0.38,0.21-0.7,0.52-0.91,0.91l-3.83,7c-0.87,1.58-3.14,1.58-4.01,0l-3.83-7c-0.21-0.38-0.52-0.7-0.91-0.91l-7-3.83
			c-1.58-0.87-1.58-3.14,0-4.01l7-3.83c0.38-0.21,0.7-0.52,0.91-0.91l3.83-7C31.52,197.7,33.8,197.7,34.66,199.28z"/>
		<path class="st23" d="M32.66,230.44c-1.75,0-3.36-0.95-4.2-2.49l-3.8-6.94l-6.94-3.8c-1.53-0.84-2.49-2.45-2.49-4.2
			s0.95-3.36,2.49-4.2l6.94-3.8l3.8-6.94c0.84-1.53,2.45-2.49,4.2-2.49c1.75,0,3.36,0.95,4.2,2.49l3.8,6.94l6.94,3.8
			c1.53,0.84,2.49,2.45,2.49,4.2s-0.95,3.36-2.49,4.2l-6.94,3.8l-3.8,6.94C36.02,229.48,34.41,230.44,32.66,230.44z M20.47,213.02
			l6.65,3.64c0.8,0.44,1.46,1.1,1.9,1.9l3.64,6.65l3.64-6.65c0.44-0.8,1.1-1.46,1.9-1.9l6.65-3.64l-6.65-3.64
			c-0.8-0.44-1.46-1.1-1.9-1.9l-3.64-6.65l-3.64,6.65c-0.44,0.8-1.1,1.46-1.9,1.9L20.47,213.02z M32.47,200.48
			C32.47,200.48,32.47,200.48,32.47,200.48L32.47,200.48z"/>
	</g>
	<g>
		<path class="st29" d="M319.43,338.77l3.83,7c0.21,0.38,0.52,0.7,0.91,0.91l7,3.83c1.58,0.87,1.58,3.14,0,4.01l-7,3.83
			c-0.38,0.21-0.7,0.52-0.91,0.91l-3.83,7c-0.87,1.58-3.14,1.58-4.01,0l-3.83-7c-0.21-0.38-0.52-0.7-0.91-0.91l-7-3.83
			c-1.58-0.87-1.58-3.14,0-4.01l7-3.83c0.38-0.21,0.7-0.52,0.91-0.91l3.83-7C316.29,337.19,318.56,337.19,319.43,338.77z"/>
		<path class="st23" d="M317.43,369.93c-1.75,0-3.36-0.95-4.2-2.49l-3.8-6.94l-6.94-3.8c-1.53-0.84-2.49-2.45-2.49-4.2
			c0-1.75,0.95-3.36,2.49-4.2l6.94-3.8l3.8-6.94c0.84-1.53,2.45-2.49,4.2-2.49c1.75,0,3.36,0.95,4.2,2.49l3.8,6.94l6.94,3.8
			c1.53,0.84,2.49,2.45,2.49,4.2s-0.95,3.36-2.49,4.2l-6.94,3.8l-3.8,6.94C320.78,368.97,319.18,369.93,317.43,369.93z
			 M305.24,352.51l6.65,3.64c0.8,0.44,1.46,1.1,1.9,1.9l3.64,6.65l3.64-6.65c0.44-0.8,1.1-1.46,1.9-1.9l6.65-3.64l-6.65-3.64
			c-0.8-0.44-1.46-1.1-1.9-1.9l-3.64-6.65l-3.64,6.65c-0.44,0.8-1.1,1.46-1.9,1.9L305.24,352.51z M317.24,339.97
			C317.24,339.97,317.24,339.97,317.24,339.97L317.24,339.97z"/>
	</g>
	<g>
		<path class="st29" d="M108.88,18.71l3.83,7c0.21,0.38,0.52,0.7,0.91,0.91l7,3.83c1.58,0.87,1.58,3.14,0,4.01l-7,3.83
			c-0.38,0.21-0.7,0.52-0.91,0.91l-3.83,7c-0.87,1.58-3.14,1.58-4.01,0l-3.83-7c-0.21-0.38-0.52-0.7-0.91-0.91l-7-3.83
			c-1.58-0.87-1.58-3.14,0-4.01l7-3.83c0.38-0.21,0.7-0.52,0.91-0.91l3.83-7C105.74,17.13,108.02,17.13,108.88,18.71z"/>
		<path class="st23" d="M106.88,49.87c-1.75,0-3.36-0.95-4.2-2.49l-3.8-6.94l-6.94-3.8c-1.53-0.84-2.49-2.45-2.49-4.2
			c0-1.75,0.95-3.36,2.49-4.2l6.94-3.8l3.8-6.94c0.84-1.53,2.45-2.49,4.2-2.49c1.75,0,3.36,0.95,4.2,2.49l3.8,6.94l6.94,3.8
			c1.53,0.84,2.49,2.45,2.49,4.2c0,1.75-0.95,3.36-2.49,4.2l-6.94,3.8l-3.8,6.94C110.24,48.91,108.63,49.87,106.88,49.87z
			 M94.7,32.45l6.65,3.64c0.8,0.44,1.46,1.1,1.9,1.9l3.64,6.65l3.64-6.65c0.44-0.8,1.1-1.46,1.9-1.9l6.65-3.64l-6.65-3.64
			c-0.8-0.44-1.46-1.1-1.9-1.9l-3.64-6.65l-3.64,6.65c-0.44,0.8-1.1,1.46-1.9,1.9L94.7,32.45z M106.69,19.91
			C106.69,19.91,106.69,19.91,106.69,19.91L106.69,19.91z"/>
	</g>
	<g>
		<circle class="st26" cx="210.23" cy="207.5" r="136.38"/>
		<path class="st23" d="M210.23,346.38c-76.58,0-138.88-62.3-138.88-138.88c0-76.58,62.3-138.88,138.88-138.88
			s138.88,62.3,138.88,138.88C349.11,284.08,286.81,346.38,210.23,346.38z M210.23,73.62c-73.82,0-133.88,60.06-133.88,133.88
			s60.06,133.88,133.88,133.88s133.88-60.06,133.88-133.88S284.06,73.62,210.23,73.62z"/>
	</g>
	<linearGradient id="SVGID_2_" gradientUnits="userSpaceOnUse" x1="-117.8113" y1="223.1809" x2="419.8901" y2="223.1809">
		<stop  offset="0" style="stop-color:#333DC9"/>
		<stop  offset="1" style="stop-color:#333DC9;stop-opacity:0.2"/>
	</linearGradient>
	<path style="opacity:0.5;fill:url(#SVGID_2_);" d="M76.35,207.5c0,73.82,60.06,133.88,133.88,133.88
		c35.95,0,68.63-14.25,92.71-37.39L124.23,104.98C94.98,129.56,76.35,166.39,76.35,207.5z"/>
	<path class="st23" d="M284.35,192.67h-59.3v-59.3c0-8.19-6.64-14.82-14.82-14.82h0c-8.19,0-14.82,6.64-14.82,14.82v59.3h-59.3
		c-8.19,0-14.82,6.64-14.82,14.82c0,8.19,6.64,14.82,14.82,14.82h59.3v59.3c0,8.19,6.64,14.82,14.82,14.82h0
		c8.19,0,14.82-6.64,14.82-14.82v-59.3h59.3c8.19,0,14.82-6.64,14.82-14.82C299.18,199.31,292.54,192.67,284.35,192.67z"/>
</g>
</svg>
