<?xml version="1.0" encoding="utf-8"?>
<!-- Generator: Adobe Illustrator 24.0.1, SVG Export Plug-In . SVG Version: 6.00 Build 0)  -->
<svg version="1.1" xmlns="http://www.w3.org/2000/svg" xmlns:xlink="http://www.w3.org/1999/xlink" x="0px" y="0px"
	 viewBox="0 0 418.05 418.05" style="enable-background:new 0 0 418.05 418.05;" xml:space="preserve">
<style type="text/css">
	.st0{clip-path:url(#SVGID_2_);}
	.st1{clip-path:url(#SVGID_4_);}
	.st2{clip-path:url(#SVGID_6_);}
	.st3{clip-path:url(#SVGID_8_);}
	.st4{clip-path:url(#SVGID_10_);}
	.st5{clip-path:url(#SVGID_12_);}
	.st6{fill:none;stroke:#231F20;stroke-miterlimit:10;}
	.st7{opacity:0;fill:url(#SVGID_13_);}
	.st8{opacity:0.3;fill:url(#SVGID_14_);}
	.st9{fill:#A3A7E6;stroke:#000769;stroke-width:5;stroke-miterlimit:10;}
	.st10{fill:#939598;stroke:#000000;stroke-width:5;stroke-miterlimit:10;}
	.st11{fill:none;stroke:#231F20;stroke-width:10;stroke-miterlimit:10;}
	.st12{fill:#231F20;stroke:#231F20;stroke-miterlimit:10;}
	.st13{fill:#D1D3D4;stroke:#000000;stroke-width:5;stroke-miterlimit:10;}
	.st14{fill:none;stroke:#D1D3D4;stroke-width:15;stroke-linecap:round;stroke-miterlimit:10;}
	.st15{fill:none;stroke:#231F20;stroke-linecap:round;stroke-miterlimit:10;}
	.st16{fill:#F1F2F2;stroke:#000000;stroke-width:5;stroke-miterlimit:10;}
	.st17{fill:#D1D3D4;}
	.st18{fill:#FFFFFF;stroke:#231F20;stroke-width:5;stroke-miterlimit:10;}
	.st19{fill:#939598;}
	.st20{fill:none;}
	.st21{fill:#333DC9;stroke:#000769;stroke-width:5;stroke-miterlimit:10;}
	.st22{fill:#E2E9FC;stroke:#000769;stroke-width:5;stroke-miterlimit:10;}
	.st23{fill:#000769;}
	.st24{fill:#A3A7E6;}
	.st25{fill:#333DC9;}
	.st26{fill:#FFFFFF;}
	.st27{opacity:0.5;fill:url(#SVGID_15_);}
	.st28{opacity:0.5;fill:url(#SVGID_16_);}
	.st29{fill:#E2E9FC;}
	.st30{fill:#FFFFFF;stroke:#000769;stroke-width:5;stroke-miterlimit:10;}
	.st31{fill:url(#SVGID_17_);}
	.st32{opacity:0.5;fill:url(#SVGID_18_);}
	.st33{opacity:0.5;fill:url(#SVGID_19_);}
	.st34{opacity:0.5;fill:url(#SVGID_20_);}
	.st35{opacity:0.5;fill:url(#SVGID_21_);}
	.st36{opacity:0.5;fill:url(#SVGID_22_);}
	.st37{opacity:0.5;fill:url(#SVGID_23_);}
	.st38{opacity:0.5;fill:url(#SVGID_24_);}
	.st39{opacity:0.5;fill:url(#SVGID_25_);}
	.st40{opacity:0.5;fill:url(#SVGID_26_);}
	.st41{fill:none;stroke:#231F20;stroke-width:5;stroke-miterlimit:10;}
	.st42{fill:#231F20;}
	.st43{opacity:0.5;fill:url(#SVGID_27_);}
	.st44{opacity:0.5;fill:url(#SVGID_28_);}
	.st45{opacity:0.5;fill:url(#SVGID_29_);}
	.st46{fill:url(#SVGID_30_);stroke:#000769;stroke-width:5;stroke-miterlimit:10;}
	.st47{opacity:0.5;fill:url(#SVGID_31_);}
	.st48{opacity:0.5;fill:url(#SVGID_32_);}
	.st49{opacity:0.5;fill:url(#SVGID_33_);}
	.st50{opacity:0.5;fill:url(#SVGID_34_);}
	.st51{opacity:0.5;fill:url(#SVGID_35_);}
	.st52{opacity:0.5;fill:url(#SVGID_36_);}
	.st53{opacity:0.5;fill:url(#SVGID_37_);}
	.st54{opacity:0.5;fill:url(#SVGID_38_);}
	.st55{opacity:0.5;fill:url(#SVGID_39_);}
	.st56{opacity:0.5;fill:url(#SVGID_40_);}
	.st57{opacity:0.5;fill:url(#SVGID_41_);}
	.st58{opacity:0.5;fill:url(#SVGID_42_);}
	.st59{opacity:0.5;fill:url(#SVGID_43_);}
	.st60{opacity:0.5;fill:url(#SVGID_44_);}
	.st61{opacity:0.5;fill:url(#SVGID_45_);}
	.st62{opacity:0.5;fill:url(#SVGID_46_);}
	.st63{fill:#FFFFFF;stroke:#231F20;stroke-miterlimit:10;}
	.st64{fill:none;stroke:#231F20;stroke-width:5;stroke-linecap:round;stroke-miterlimit:10;}
	.st65{fill:#FFFFFF;stroke:#231F20;stroke-width:5;stroke-linecap:round;stroke-miterlimit:10;}
	.st66{opacity:0.5;fill:url(#SVGID_47_);}
	.st67{opacity:0.5;fill:url(#SVGID_48_);}
	.st68{opacity:0.5;fill:url(#SVGID_49_);}
	.st69{opacity:0.8;fill:url(#SVGID_50_);}
	.st70{opacity:0.8;fill:url(#SVGID_51_);}
	.st71{opacity:0.8;fill:url(#SVGID_52_);}
	.st72{opacity:0.8;fill:url(#SVGID_53_);}
	.st73{opacity:0.8;fill:url(#SVGID_54_);}
	.st74{opacity:0.8;fill:url(#SVGID_55_);}
	.st75{fill:none;stroke:#231F20;stroke-width:16;stroke-miterlimit:10;}
	.st76{fill:none;stroke:#231F20;stroke-width:16;stroke-linecap:round;stroke-miterlimit:10;}
	.st77{fill:#FFFFFF;stroke:#000769;stroke-width:5;stroke-linecap:round;stroke-miterlimit:10;}
	.st78{fill:#231F20;stroke:#231F20;stroke-width:5;stroke-miterlimit:10;}
	.st79{opacity:0.8;fill:url(#SVGID_56_);}
	.st80{fill:none;stroke:#000769;stroke-width:16;stroke-linecap:round;stroke-miterlimit:10;}
	.st81{opacity:0.5;fill:url(#SVGID_57_);}
	.st82{opacity:0.5;fill:url(#SVGID_58_);}
	.st83{opacity:0.5;fill:url(#SVGID_59_);}
	.st84{opacity:0.5;fill:url(#SVGID_60_);}
	.st85{opacity:0.5;fill:url(#SVGID_61_);}
	.st86{fill:none;stroke:#000769;stroke-width:5;stroke-linecap:round;stroke-miterlimit:10;}
	.st87{opacity:0.5;fill:url(#SVGID_62_);}
	.st88{opacity:0.5;fill:url(#SVGID_63_);}
	.st89{opacity:0.5;fill:url(#SVGID_64_);}
	.st90{opacity:0.5;fill:url(#SVGID_65_);}
	.st91{opacity:0.5;fill:url(#SVGID_66_);}
	.st92{opacity:0.5;fill:url(#SVGID_67_);}
	.st93{opacity:0.5;fill:url(#SVGID_68_);}
	.st94{opacity:0.5;fill:url(#SVGID_69_);}
	.st95{opacity:0.5;fill:url(#SVGID_70_);}
	.st96{opacity:0.5;fill:url(#SVGID_71_);}
	.st97{opacity:0.5;fill:url(#SVGID_72_);}
	.st98{opacity:0.5;fill:url(#SVGID_73_);}
	.st99{opacity:0.5;fill:url(#SVGID_74_);}
	.st100{opacity:0.5;fill:url(#SVGID_75_);}
	.st101{opacity:0.5;fill:url(#SVGID_76_);}
	.st102{opacity:0.5;fill:url(#SVGID_77_);}
	.st103{opacity:0.5;fill:url(#SVGID_78_);}
	.st104{opacity:0.5;fill:url(#SVGID_79_);}
	.st105{opacity:0.5;fill:url(#SVGID_80_);}
	.st106{opacity:0.5;fill:url(#SVGID_81_);}
	.st107{opacity:0.5;fill:url(#SVGID_82_);}
	.st108{opacity:0.5;fill:url(#SVGID_83_);}
	.st109{opacity:0.5;fill:url(#SVGID_84_);}
	.st110{fill:none;stroke:#000769;stroke-width:7;stroke-linecap:round;stroke-miterlimit:10;}
	.st111{opacity:0.5;fill:url(#SVGID_85_);}
	.st112{fill:none;stroke:#000769;stroke-width:8;stroke-linecap:round;stroke-miterlimit:10;}
	.st113{opacity:0.5;fill:url(#SVGID_86_);}
	.st114{opacity:0.5;fill:url(#SVGID_87_);}
	.st115{opacity:0.5;fill:url(#SVGID_88_);}
	.st116{opacity:0.5;fill:url(#SVGID_89_);}
	.st117{opacity:0.5;fill:url(#SVGID_90_);}
	.st118{opacity:0.5;fill:url(#SVGID_91_);}
	.st119{opacity:0.5;fill:url(#SVGID_92_);}
	.st120{opacity:0.5;fill:url(#SVGID_93_);}
	.st121{opacity:0.5;fill:url(#SVGID_94_);}
	.st122{opacity:0.5;fill:url(#SVGID_95_);}
	.st123{fill:#FFFFFF;stroke:#000769;stroke-width:7;stroke-miterlimit:10;}
	.st124{fill:none;stroke:#000769;stroke-width:10;stroke-linecap:round;stroke-miterlimit:10;}
	.st125{fill:#E2E9FC;stroke:#000769;stroke-width:10;stroke-miterlimit:10;}
	.st126{opacity:0.5;fill:url(#SVGID_96_);}
	.st127{opacity:0.5;fill:url(#SVGID_97_);}
	.st128{opacity:0.5;fill:url(#SVGID_98_);}
	.st129{opacity:0.3;fill:url(#SVGID_99_);}
	.st130{opacity:0.3;fill:url(#SVGID_100_);}
	.st131{opacity:0.3;fill:url(#SVGID_101_);}
	.st132{opacity:0.5;fill:url(#SVGID_102_);}
	.st133{opacity:0.3;fill:url(#SVGID_103_);}
	.st134{opacity:0.5;fill:url(#SVGID_104_);}
	.st135{opacity:0;fill:url(#SVGID_105_);}
	.st136{opacity:0.5;fill:url(#SVGID_106_);}
	.st137{opacity:0.5;fill:url(#SVGID_107_);}
	.st138{opacity:0.5;fill:url(#SVGID_108_);}
	.st139{opacity:0.5;fill:url(#SVGID_109_);}
	.st140{opacity:0.5;fill:url(#SVGID_110_);}
	.st141{opacity:0.5;fill:url(#SVGID_111_);}
	.st142{fill:none;stroke:#000769;stroke-width:12;stroke-linecap:round;stroke-miterlimit:10;}
	.st143{opacity:0.5;fill:url(#SVGID_112_);}
	.st144{opacity:0.5;fill:url(#SVGID_113_);}
	.st145{opacity:0.5;fill:url(#SVGID_114_);}
	.st146{opacity:0.5;fill:url(#SVGID_115_);}
	.st147{opacity:0.5;fill:url(#SVGID_116_);}
	.st148{opacity:0.5;fill:url(#SVGID_117_);}
	.st149{opacity:0.5;fill:url(#SVGID_118_);}
	.st150{opacity:0.5;fill:url(#SVGID_119_);}
	.st151{opacity:0.5;fill:url(#SVGID_120_);}
	.st152{opacity:0.5;fill:url(#SVGID_121_);}
	.st153{opacity:0.8;fill:url(#SVGID_122_);}
	.st154{opacity:0.5;fill:url(#SVGID_123_);}
	.st155{opacity:0.5;fill:url(#SVGID_124_);}
	.st156{opacity:0.5;fill:url(#SVGID_125_);}
	.st157{opacity:0.5;fill:url(#SVGID_126_);}
	.st158{opacity:0.5;fill:url(#SVGID_127_);}
	.st159{opacity:0.5;fill:url(#SVGID_128_);}
	.st160{opacity:0.5;fill:url(#SVGID_129_);}
	.st161{opacity:0.5;fill:url(#SVGID_130_);}
	.st162{opacity:0.5;fill:url(#SVGID_131_);}
	.st163{opacity:0.5;fill:url(#SVGID_132_);}
	.st164{opacity:0.5;fill:#FFFFFF;stroke:#000769;stroke-width:5;stroke-linecap:round;stroke-miterlimit:10;}
	.st165{opacity:0.5;fill:url(#SVGID_133_);}
	.st166{opacity:0.5;fill:url(#SVGID_134_);}
	.st167{opacity:0.5;fill:url(#SVGID_135_);}
	.st168{opacity:0.5;fill:url(#SVGID_136_);}
	.st169{opacity:0.5;fill:url(#SVGID_137_);}
	.st170{opacity:0.5;fill:url(#SVGID_138_);}
	.st171{opacity:0.5;fill:url(#SVGID_139_);}
	.st172{opacity:0.5;fill:url(#SVGID_140_);}
	.st173{opacity:0.5;fill:url(#SVGID_141_);}
	.st174{opacity:0.5;fill:url(#SVGID_142_);}
	.st175{opacity:0.5;fill:url(#SVGID_143_);}
	.st176{opacity:0.5;}
	.st177{opacity:0.5;fill:url(#SVGID_144_);}
	.st178{opacity:0.5;fill:url(#SVGID_145_);}
	.st179{opacity:0.5;fill:url(#SVGID_146_);}
	.st180{opacity:0.5;fill:url(#SVGID_147_);}
	.st181{opacity:0.5;fill:url(#SVGID_148_);}
	.st182{opacity:0.8;fill:url(#SVGID_149_);}
	.st183{opacity:0.5;fill:url(#SVGID_150_);}
	.st184{opacity:0.5;fill:url(#SVGID_151_);}
	.st185{opacity:0.5;fill:url(#SVGID_152_);}
	.st186{opacity:0.5;fill:url(#SVGID_153_);}
	.st187{opacity:0.5;fill:url(#SVGID_154_);}
	.st188{opacity:0.5;fill:url(#SVGID_155_);}
	.st189{opacity:0.5;fill:url(#SVGID_156_);}
	.st190{opacity:0.5;fill:url(#SVGID_157_);}
	.st191{opacity:0.5;fill:url(#SVGID_158_);}
	.st192{opacity:0.5;fill:url(#SVGID_159_);}
</style>
<g id="Sketch">
</g>
<g id="Layer_2">
	<g>
		<path class="st24" d="M300.33,392.32c5.41,0,9.81,4.4,9.81,9.81v13.42H107.88v-13.42c0-5.41,4.4-9.81,9.81-9.81H300.33z"/>
		<path class="st23" d="M312.65,418.06H105.38v-15.92c0-6.79,5.52-12.31,12.31-12.31h182.64c6.79,0,12.31,5.52,12.31,12.31V418.06z
			 M110.38,413.06h197.27v-10.92c0-4.03-3.28-7.31-7.31-7.31H117.69c-4.03,0-7.31,3.28-7.31,7.31V413.06z"/>
	</g>
	<g>
		<rect x="155.52" y="357.12" class="st29" width="106.99" height="35.2"/>
		<path class="st23" d="M265.01,394.82H153.02v-40.2h111.99V394.82z M158.02,389.82h101.99v-30.2H158.02V389.82z"/>
	</g>
	<g>
		<path class="st24" d="M181.25,357.12c2.43-2.74,4.64-5.71,6.63-8.9c6.54-10.49,9.97-22.41,10.12-34.59
			c3.48,0.49,7,0.75,10.55,0.75c3.86,0,7.68-0.3,11.47-0.88c0.22,16.36,6.42,31.85,16.85,43.62L181.25,357.12L181.25,357.12z"/>
		<path class="st23" d="M242.42,359.62H175.7l3.68-4.16c2.34-2.64,4.48-5.52,6.38-8.56c6.23-9.99,9.6-21.51,9.75-33.3l0.04-2.84
			l2.81,0.39c3.44,0.48,6.87,0.72,10.2,0.72c3.65,0,7.38-0.29,11.09-0.85l2.84-0.43l0.04,2.87c0.21,15.51,5.97,30.43,16.22,41.99
			L242.42,359.62z M200.41,316.45c-0.62,11.73-4.19,23.12-10.41,33.1c-1.09,1.74-2.25,3.44-3.48,5.07l45.08,0
			c-8.35-11.04-13.23-24.37-13.98-38.27C211.86,317.02,206.22,317.06,200.41,316.45z"/>
	</g>
	<g>
		<path class="st29" d="M310.14,138.01c0,48.34-11.1,93.64-31.25,127.55c-19.2,32.32-44.18,50.11-70.34,50.11
			c-26.16,0-51.15-17.8-70.35-50.11c-20.15-33.91-31.25-79.21-31.25-127.55V91.07c0-0.65,0.52-1.17,1.17-1.17h200.86
			c0.65,0,1.17,0.52,1.17,1.17V138.01z"/>
		<path class="st23" d="M208.55,318.18c-27.08,0-52.83-18.23-72.5-51.33c-20.38-34.3-31.61-80.05-31.61-128.83V91.07
			c0-2.02,1.65-3.67,3.67-3.67h200.86c2.02,0,3.67,1.65,3.67,3.67v46.94c0,48.78-11.22,94.53-31.6,128.83
			C261.37,299.94,235.62,318.18,208.55,318.18z M109.44,92.4v45.61c0,47.89,10.98,92.74,30.9,126.27
			c18.74,31.53,42.96,48.89,68.2,48.89c25.24,0,49.46-17.36,68.19-48.89c19.93-33.53,30.9-78.38,30.9-126.27V92.4H109.44z"/>
	</g>
	<g>
		<path class="st29" d="M24.74,216.47l5.03,9.2c0.28,0.5,0.69,0.92,1.19,1.19l9.2,5.03c2.08,1.14,2.08,4.13,0,5.26l-9.2,5.03
			c-0.5,0.28-0.92,0.69-1.19,1.19l-5.03,9.2c-1.14,2.08-4.13,2.08-5.26,0l-5.03-9.2c-0.28-0.5-0.69-0.92-1.19-1.19l-9.2-5.03
			c-2.08-1.14-2.08-4.13,0-5.26l9.2-5.03c0.5-0.28,0.92-0.69,1.19-1.19l5.03-9.2C20.62,214.39,23.6,214.39,24.74,216.47z"/>
		<path class="st23" d="M22.11,256.63c-2.01,0-3.86-1.1-4.83-2.86l-5.03-9.2c-0.05-0.08-0.11-0.15-0.2-0.2l-9.2-5.03
			C1.1,238.38,0,236.53,0,234.52s1.1-3.86,2.86-4.83l9.2-5.03c0.08-0.05,0.15-0.11,0.2-0.2l5.03-9.2c0.97-1.76,2.81-2.86,4.83-2.86
			s3.86,1.1,4.83,2.86l5.03,9.2c0.05,0.08,0.11,0.15,0.2,0.2l9.2,5.03c1.76,0.97,2.86,2.81,2.86,4.83s-1.1,3.86-2.86,4.83l-9.2,5.03
			c-0.08,0.05-0.15,0.11-0.2,0.2l-5.03,9.2C25.97,255.53,24.12,256.63,22.11,256.63z M22.11,217.41c-0.2,0-0.34,0.09-0.44,0.26
			l-5.03,9.2c-0.5,0.92-1.26,1.68-2.19,2.19l-9.2,5.03C5.09,234.17,5,234.32,5,234.52s0.09,0.34,0.26,0.44l9.2,5.03
			c0.93,0.51,1.68,1.26,2.19,2.19l5.03,9.2c0.19,0.35,0.69,0.35,0.88,0l5.03-9.2c0.5-0.92,1.26-1.68,2.19-2.19l9.2-5.03
			c0.17-0.09,0.26-0.24,0.26-0.44s-0.09-0.34-0.26-0.44l-9.2-5.03c-0.93-0.51-1.68-1.26-2.19-2.19l-5.03-9.2
			C22.46,217.49,22.31,217.41,22.11,217.41z"/>
	</g>
	<g>
		<path class="st24" d="M264.4,31.53l3.65,6.67c0.2,0.37,0.5,0.67,0.87,0.87l6.67,3.65c1.51,0.83,1.51,2.99,0,3.82l-6.67,3.65
			c-0.37,0.2-0.67,0.5-0.87,0.87l-3.65,6.67c-0.83,1.51-2.99,1.51-3.82,0l-3.65-6.67c-0.2-0.37-0.5-0.67-0.87-0.87l-6.67-3.65
			c-1.51-0.83-1.51-2.99,0-3.82l6.67-3.65c0.37-0.2,0.67-0.5,0.87-0.87l3.65-6.67C261.4,30.02,263.57,30.02,264.4,31.53z"/>
		<path class="st23" d="M262.49,61.36c-1.71,0-3.28-0.93-4.1-2.43l-3.6-6.59l-6.59-3.6c-1.5-0.82-2.43-2.39-2.43-4.1
			c0-1.71,0.93-3.28,2.43-4.1l6.59-3.6l3.6-6.59c0.82-1.5,2.39-2.43,4.1-2.43c0,0,0,0,0,0c1.71,0,3.28,0.93,4.1,2.43l3.6,6.59
			l6.59,3.6c1.5,0.82,2.43,2.39,2.43,4.1c0,1.71-0.93,3.28-2.43,4.1l-6.59,3.6l-3.6,6.59C265.77,60.43,264.2,61.36,262.49,61.36z
			 M251.11,44.63l6.16,3.37c0.79,0.43,1.43,1.07,1.86,1.86l3.37,6.16l3.37-6.16c0.43-0.79,1.07-1.43,1.86-1.86l6.16-3.37l-6.16-3.37
			c-0.79-0.43-1.43-1.07-1.86-1.86l-3.37-6.16l-3.37,6.16c-0.43,0.79-1.07,1.43-1.86,1.86L251.11,44.63z"/>
	</g>
	<g>
		<path class="st24" d="M73.7,297.22l3.65,6.67c0.2,0.37,0.5,0.67,0.87,0.87l6.67,3.65c1.51,0.83,1.51,2.99,0,3.82l-6.67,3.65
			c-0.37,0.2-0.67,0.5-0.87,0.87l-3.65,6.67c-0.83,1.51-2.99,1.51-3.82,0l-3.65-6.67c-0.2-0.37-0.5-0.67-0.87-0.87l-6.67-3.65
			c-1.51-0.83-1.51-2.99,0-3.82l6.67-3.65c0.37-0.2,0.67-0.5,0.87-0.87l3.65-6.67C70.71,295.71,72.88,295.71,73.7,297.22z"/>
		<path class="st23" d="M71.79,327.05c-1.71,0-3.28-0.93-4.1-2.43l-3.6-6.59l-6.59-3.6c-1.5-0.82-2.43-2.39-2.43-4.1
			c0-1.71,0.93-3.28,2.43-4.1l6.59-3.6l3.6-6.59c0.82-1.5,2.39-2.43,4.1-2.43c1.71,0,3.28,0.93,4.1,2.43l3.6,6.59l6.59,3.6
			c1.5,0.82,2.43,2.39,2.43,4.1c0,1.71-0.93,3.28-2.43,4.1l-6.59,3.6l-3.6,6.59C75.08,326.12,73.5,327.05,71.79,327.05z
			 M60.41,310.32l6.16,3.37c0.79,0.43,1.43,1.07,1.86,1.86l3.37,6.16l3.37-6.16c0.43-0.79,1.07-1.43,1.86-1.86l6.16-3.37l-6.16-3.37
			c-0.79-0.43-1.43-1.07-1.86-1.86l-3.37-6.16l-3.37,6.16c-0.43,0.79-1.07,1.43-1.86,1.86L60.41,310.32z M71.51,298.42
			C71.51,298.42,71.51,298.42,71.51,298.42L71.51,298.42z"/>
	</g>
	<g>
		<circle class="st24" cx="154.44" cy="28.46" r="10.28"/>
		<path class="st23" d="M154.44,23.19c2.91,0,5.28,2.37,5.28,5.28c0,2.91-2.37,5.28-5.28,5.28c-2.91,0-5.28-2.37-5.28-5.28
			C149.17,25.56,151.54,23.19,154.44,23.19 M154.44,18.19c-5.68,0-10.28,4.6-10.28,10.28c0,5.68,4.6,10.28,10.28,10.28
			c5.68,0,10.28-4.6,10.28-10.28C164.72,22.79,160.12,18.19,154.44,18.19L154.44,18.19z"/>
	</g>
	<g>
		<circle class="st29" cx="405.27" cy="198.34" r="10.28"/>
		<path class="st23" d="M405.27,211.12c-7.05,0-12.78-5.73-12.78-12.78c0-7.05,5.73-12.78,12.78-12.78
			c7.04,0,12.78,5.73,12.78,12.78C418.05,205.39,412.31,211.12,405.27,211.12z M405.27,190.57c-4.29,0-7.78,3.49-7.78,7.78
			c0,4.29,3.49,7.78,7.78,7.78c4.29,0,7.78-3.49,7.78-7.78C413.05,194.06,409.56,190.57,405.27,190.57z"/>
	</g>
	<g>
		<circle class="st24" cx="24.1" cy="394.42" r="10.28"/>
		<path class="st23" d="M24.11,389.14c2.57,0,4.76,1.85,5.19,4.39c0.49,2.87-1.45,5.6-4.31,6.09c-0.3,0.05-0.6,0.08-0.9,0.08
			c-2.57,0-4.75-1.85-5.19-4.39c-0.24-1.39,0.08-2.79,0.9-3.94s2.03-1.91,3.42-2.15C23.51,389.17,23.81,389.14,24.11,389.14
			 M24.11,384.14c-0.57,0-1.15,0.05-1.74,0.15c-5.59,0.95-9.36,6.26-8.4,11.86c0.85,5.01,5.2,8.55,10.12,8.55
			c0.57,0,1.16-0.05,1.74-0.15c5.59-0.95,9.36-6.26,8.4-11.86C33.37,387.68,29.02,384.14,24.11,384.14L24.11,384.14z"/>
	</g>
	<g>
		<circle class="st24" cx="395.52" cy="86.37" r="10.28"/>
		<path class="st23" d="M395.52,81.1c2.91,0,5.28,2.37,5.28,5.28c0,2.91-2.37,5.28-5.28,5.28c-2.91,0-5.28-2.37-5.28-5.28
			C390.25,83.46,392.61,81.1,395.52,81.1 M395.52,76.1c-5.68,0-10.28,4.6-10.28,10.28c0,5.68,4.6,10.28,10.28,10.28
			c5.68,0,10.28-4.6,10.28-10.28C405.8,80.7,401.2,76.1,395.52,76.1L395.52,76.1z"/>
	</g>
	<g>
		<path class="st29" d="M367.55,3.63l3.65,6.67c0.2,0.37,0.5,0.67,0.87,0.87l6.67,3.65c1.51,0.83,1.51,2.99,0,3.82l-6.67,3.65
			c-0.37,0.2-0.67,0.5-0.87,0.87l-3.65,6.67c-0.83,1.51-2.99,1.51-3.82,0l-3.65-6.67c-0.2-0.37-0.5-0.67-0.87-0.87l-6.67-3.65
			c-1.51-0.83-1.51-2.99,0-3.82l6.67-3.65c0.37-0.2,0.67-0.5,0.87-0.87l3.65-6.67C364.55,2.12,366.72,2.12,367.55,3.63z"/>
		<path class="st23" d="M365.64,33.46c-1.71,0-3.28-0.93-4.1-2.43l-3.6-6.59l-6.59-3.6c-1.5-0.82-2.43-2.39-2.43-4.1
			c0-1.71,0.93-3.28,2.43-4.1l6.59-3.6l3.6-6.59c0.82-1.5,2.39-2.43,4.1-2.43c1.71,0,3.28,0.93,4.1,2.43l3.6,6.59l6.59,3.6
			c1.5,0.82,2.43,2.39,2.43,4.1c0,1.71-0.93,3.28-2.43,4.1l-6.59,3.6l-3.6,6.59C368.92,32.53,367.35,33.46,365.64,33.46z
			 M354.26,16.73l6.16,3.37c0.79,0.43,1.43,1.07,1.86,1.86l3.37,6.16l3.37-6.16c0.43-0.79,1.07-1.43,1.86-1.86l6.16-3.37l-6.16-3.37
			c-0.79-0.43-1.43-1.07-1.86-1.86l-3.37-6.16l-3.37,6.16c-0.43,0.79-1.07,1.43-1.86,1.86L354.26,16.73z M365.35,4.83
			C365.36,4.83,365.36,4.83,365.35,4.83L365.35,4.83z"/>
	</g>
	<g>
		<path class="st29" d="M353.32,273.55l3.65,6.67c0.2,0.37,0.5,0.67,0.87,0.87l6.67,3.65c1.51,0.83,1.51,2.99,0,3.82l-6.67,3.65
			c-0.37,0.2-0.67,0.5-0.87,0.87l-3.65,6.67c-0.83,1.51-2.99,1.51-3.82,0l-3.65-6.67c-0.2-0.37-0.5-0.67-0.87-0.87l-6.67-3.65
			c-1.51-0.83-1.51-2.99,0-3.82l6.67-3.65c0.37-0.2,0.67-0.5,0.87-0.87l3.65-6.67C350.32,272.04,352.49,272.04,353.32,273.55z"/>
		<path class="st23" d="M351.41,303.38C351.41,303.38,351.41,303.38,351.41,303.38c-1.71,0-3.28-0.93-4.1-2.43l-3.6-6.59l-6.59-3.6
			c-1.5-0.82-2.43-2.39-2.43-4.1c0-1.71,0.93-3.28,2.43-4.1l6.59-3.6l3.6-6.59c0.82-1.5,2.39-2.43,4.1-2.43
			c1.71,0,3.28,0.93,4.1,2.43l3.6,6.59l6.59,3.6c1.5,0.82,2.43,2.39,2.43,4.1c0,1.71-0.93,3.28-2.43,4.1l-6.59,3.6l-3.6,6.59
			C354.69,302.45,353.12,303.38,351.41,303.38z M340.02,286.65l6.16,3.37c0.79,0.43,1.43,1.07,1.86,1.86l3.37,6.16l3.37-6.16
			c0.43-0.79,1.07-1.43,1.86-1.86l6.16-3.37l-6.16-3.37c-0.79-0.43-1.43-1.07-1.86-1.86l-3.37-6.16l-3.37,6.16
			c-0.43,0.79-1.07,1.43-1.86,1.86L340.02,286.65z M351.12,274.75C351.12,274.75,351.12,274.75,351.12,274.75L351.12,274.75z"/>
	</g>
	<g>
		<path class="st29" d="M373.25,356.05l8.89,16.25c0.28,0.5,0.69,0.92,1.19,1.19l16.25,8.89c2.08,1.14,2.08,4.13,0,5.26l-16.25,8.89
			c-0.5,0.28-0.92,0.69-1.19,1.19l-8.89,16.25c-1.14,2.08-4.13,2.08-5.26,0l-8.89-16.25c-0.28-0.5-0.69-0.92-1.19-1.19l-16.25-8.89
			c-2.08-1.14-2.08-4.13,0-5.26l16.25-8.89c0.5-0.28,0.92-0.69,1.19-1.19l8.89-16.25C369.13,353.97,372.12,353.97,373.25,356.05z"/>
		<path class="st23" d="M370.62,418.05c-2.01,0-3.86-1.1-4.83-2.86l-8.89-16.25c-0.05-0.08-0.11-0.15-0.2-0.2l-16.26-8.89
			c-1.76-0.97-2.86-2.81-2.86-4.83s1.1-3.86,2.86-4.83l16.25-8.89c0.08-0.05,0.15-0.11,0.2-0.2l8.89-16.26
			c0.97-1.76,2.81-2.86,4.83-2.86s3.86,1.1,4.83,2.86l8.89,16.25c0.05,0.08,0.11,0.15,0.2,0.2l16.26,8.89
			c1.76,0.97,2.86,2.81,2.86,4.83s-1.1,3.86-2.86,4.83l-16.25,8.89c-0.08,0.05-0.15,0.11-0.2,0.2l-8.89,16.26
			C374.48,416.95,372.63,418.05,370.62,418.05z M370.62,356.99c-0.2,0-0.34,0.09-0.44,0.26l-8.89,16.25
			c-0.51,0.92-1.26,1.68-2.19,2.19l-16.25,8.89c-0.17,0.09-0.26,0.24-0.26,0.44s0.09,0.34,0.26,0.44l16.25,8.89
			c0.92,0.51,1.68,1.26,2.19,2.19l8.89,16.25c0.19,0.35,0.69,0.35,0.88,0l8.89-16.25c0.51-0.92,1.26-1.68,2.19-2.19l16.25-8.89
			c0.17-0.09,0.26-0.24,0.26-0.44s-0.09-0.34-0.26-0.44l-16.25-8.89c-0.92-0.51-1.68-1.26-2.19-2.19l-8.89-16.25
			C370.97,357.07,370.82,356.99,370.62,356.99z"/>
	</g>
	<g>
		<path class="st29" d="M35.66,21.1l8.89,16.25c0.28,0.5,0.69,0.92,1.19,1.19L62,47.44c2.08,1.14,2.08,4.13,0,5.26l-16.25,8.89
			c-0.5,0.28-0.92,0.69-1.19,1.19l-8.89,16.25c-1.14,2.08-4.13,2.08-5.26,0l-8.89-16.25c-0.28-0.5-0.69-0.92-1.19-1.19L4.06,52.7
			c-2.08-1.14-2.08-4.13,0-5.26l16.25-8.89c0.5-0.28,0.92-0.69,1.19-1.19L30.4,21.1C31.54,19.02,34.52,19.02,35.66,21.1z"/>
		<path class="st23" d="M33.03,83.1c-2.01,0-3.86-1.1-4.83-2.86l-8.89-16.25c-0.05-0.08-0.11-0.15-0.2-0.2L2.86,54.89
			C1.1,53.93,0,52.08,0,50.07s1.1-3.86,2.86-4.83l16.25-8.89c0.08-0.05,0.15-0.11,0.2-0.2L28.2,19.9c0.97-1.76,2.81-2.86,4.83-2.86
			s3.86,1.1,4.83,2.86l8.89,16.25c0.05,0.08,0.11,0.15,0.2,0.2l16.26,8.89c1.76,0.97,2.86,2.81,2.86,4.83s-1.1,3.86-2.86,4.83
			l-16.25,8.89c-0.08,0.05-0.15,0.11-0.2,0.2l-8.89,16.25C36.89,82,35.04,83.1,33.03,83.1z M33.03,22.04c-0.2,0-0.34,0.09-0.44,0.26
			L23.7,38.55c-0.51,0.93-1.26,1.68-2.19,2.19L5.26,49.63C5.09,49.72,5,49.87,5,50.07s0.09,0.34,0.26,0.44l16.25,8.89
			c0.92,0.51,1.68,1.26,2.19,2.19l8.89,16.25c0.19,0.35,0.69,0.35,0.88,0l8.89-16.25c0.51-0.93,1.26-1.68,2.19-2.19l16.25-8.89
			c0.17-0.09,0.26-0.24,0.26-0.44s-0.09-0.34-0.26-0.44l-16.25-8.89c-0.92-0.5-1.68-1.26-2.19-2.19L33.47,22.3v0
			C33.37,22.13,33.23,22.04,33.03,22.04z"/>
	</g>
	<g>
		<path class="st24" d="M115.12,207.64c-30.18-6.53-34.68-69.53-34.68-69.53s0,0,26.51,0v-0.09v-16.26c-45.94,0-45.94,0-45.94,0
			s7.46,103.9,59.29,103.9l-0.03-0.09c-1.9-5.77-3.61-11.7-5.11-17.78L115.12,207.64z"/>
		<path class="st23" d="M123.63,228.16h-3.32c-22.39,0-40.18-18.56-51.47-53.69c-8.34-25.96-10.3-52.27-10.32-52.54l-0.19-2.68
			h51.12v21.26l-2.5,0.09H83.19c1.27,11.87,7.87,59.27,32.46,64.59l1.46,0.32l0.46,1.59c1.5,6.05,3.2,11.98,5.08,17.69l0.05,0.18
			L123.63,228.16z M63.75,124.26c1.58,15.66,11.61,94.53,53.07,98.73c-1.36-4.35-2.62-8.8-3.75-13.28
			c-30.27-8.48-34.94-68.81-35.12-71.42l-0.19-2.68h26.69v-11.35H63.75z"/>
	</g>
	<g>
		<path class="st24" d="M310.14,121.76v16.26c0,0.03,0,0.06,0,0.1c26.49,0,26.49,0,26.49,0s-4.51,62.98-34.67,69.53
			c-1.52,6.15-3.25,12.15-5.17,17.98l-0.01,0.04c51.84,0,59.29-103.9,59.29-103.9S356.08,121.76,310.14,121.76z"/>
		<path class="st23" d="M296.79,228.16h-3.31l0.95-3.32c1.9-5.78,3.63-11.77,5.11-17.8l0.37-1.51l1.52-0.33
			c24.58-5.33,31.18-52.72,32.45-64.58h-26.24l0-21.35h51.12l-0.19,2.68c-0.02,0.26-1.98,26.58-10.32,52.54
			C336.97,209.6,319.17,228.16,296.79,228.16z M304.02,209.7c-1.13,4.48-2.39,8.93-3.76,13.29c41.46-4.2,51.49-83.07,53.07-98.73
			h-40.7v11.35h26.67l-0.19,2.68C338.94,140.89,334.28,201.19,304.02,209.7z"/>
	</g>
	<path class="st23" d="M238.42,142.57l2.04-5.91c0.5-1.46-0.76-2.91-2.27-2.62l-24.17,4.66c-1.51,0.29-2.14,2.11-1.13,3.27
		l16.12,18.6c1.01,1.16,2.9,0.8,3.4-0.66l2.04-5.91c15.56,8.32,25.81,24.82,25.81,42.93c0,19.52-11.6,37.08-29.56,44.73
		c-3.05,1.3-4.46,4.82-3.17,7.87c0.97,2.28,3.19,3.65,5.52,3.65c0.79,0,1.58-0.15,2.35-0.48c22.39-9.55,36.85-31.44,36.85-55.77
		C272.27,173.73,258.76,152.64,238.42,142.57z"/>
	<path class="st23" d="M198.53,251.76l-15.65-19c-0.98-1.19-2.88-0.87-3.42,0.57l-2.39,6.38c-15.52-8.38-25.49-24.68-25.49-42.77
		c0-19.41,11.51-36.93,29.33-44.64c3.04-1.32,4.44-4.85,3.12-7.89s-4.85-4.44-7.89-3.13c-22.21,9.61-36.57,31.45-36.57,55.65
		c0,23.12,13.06,43.9,33.25,54.09l-2,5.35c-0.54,1.44,0.68,2.93,2.2,2.67l24.28-4.06C198.83,254.75,199.51,252.95,198.53,251.76z"/>
	<g>
		<linearGradient id="SVGID_2_" gradientUnits="userSpaceOnUse" x1="-60.1513" y1="204.3023" x2="322.9791" y2="126.1124">
			<stop  offset="0" style="stop-color:#333DC9"/>
			<stop  offset="1" style="stop-color:#333DC9;stop-opacity:0.2"/>
		</linearGradient>
		<path style="opacity:0.5;fill:url(#SVGID_2_);" d="M77.85,138.29l-0.19-2.68h26.69v-11.35h-40.7
			c1.58,15.66,11.61,94.53,53.07,98.73c-0.01-0.04-0.02-0.09-0.04-0.13c-1.3-4.15-2.49-8.38-3.59-12.69
			c-0.04-0.16-0.09-0.31-0.12-0.47C82.7,201.22,78.03,140.89,77.85,138.29z"/>
		<linearGradient id="SVGID_4_" gradientUnits="userSpaceOnUse" x1="-11.4578" y1="442.9005" x2="371.6726" y2="364.7106">
			<stop  offset="0" style="stop-color:#333DC9"/>
			<stop  offset="1" style="stop-color:#333DC9;stop-opacity:0.2"/>
		</linearGradient>
		<path style="opacity:0.5;fill:url(#SVGID_4_);" d="M152.92,394.82h-35.33c-4.03,0-7.31,3.28-7.31,7.31v10.92h131.77
			c-4.39-4.68-8.32-10.84-11.83-18.23H152.92z"/>
		<linearGradient id="SVGID_6_" gradientUnits="userSpaceOnUse" x1="-23.5759" y1="383.5217" x2="359.5545" y2="305.3318">
			<stop  offset="0" style="stop-color:#333DC9"/>
			<stop  offset="1" style="stop-color:#333DC9;stop-opacity:0.2"/>
		</linearGradient>
		<path style="opacity:0.5;fill:url(#SVGID_6_);" d="M208.45,318.18c-2.75,0-5.5-0.2-8.22-0.57c-0.78,11.32-4.32,22.29-10.33,31.95
			c-1.09,1.74-2.25,3.44-3.48,5.07l30.8,0c-2.55-11.33-4.67-23.61-6.41-36.5C210.03,318.16,209.24,318.18,208.45,318.18z"/>
		<linearGradient id="SVGID_8_" gradientUnits="userSpaceOnUse" x1="-16.6419" y1="417.4983" x2="366.4885" y2="339.3084">
			<stop  offset="0" style="stop-color:#333DC9"/>
			<stop  offset="1" style="stop-color:#333DC9;stop-opacity:0.2"/>
		</linearGradient>
		<path style="opacity:0.5;fill:url(#SVGID_8_);" d="M157.92,389.82h70.06c-3.69-8.77-6.87-18.96-9.6-30.2h-60.47V389.82z"/>
		<polygon class="st23" points="217.22,354.62 217.22,354.62 186.42,354.62 		"/>
		<linearGradient id="SVGID_10_" gradientUnits="userSpaceOnUse" x1="-20.2255" y1="399.939" x2="362.905" y2="321.7491">
			<stop  offset="0" style="stop-color:#333DC9"/>
			<stop  offset="1" style="stop-color:#333DC9;stop-opacity:0.2"/>
		</linearGradient>
		<polygon style="opacity:0.5;fill:url(#SVGID_10_);" points="217.22,354.62 217.22,354.62 186.42,354.62 		"/>
		<linearGradient id="SVGID_12_" gradientUnits="userSpaceOnUse" x1="-51.6587" y1="245.9163" x2="331.4718" y2="167.7265">
			<stop  offset="0" style="stop-color:#333DC9"/>
			<stop  offset="1" style="stop-color:#333DC9;stop-opacity:0.2"/>
		</linearGradient>
		<path style="opacity:0.5;fill:url(#SVGID_12_);" d="M210,311.86c-9.85-79.37-6.14-178.92-0.53-219.45H109.35v26.85h0v18.79
			c0,24.14,2.8,47.5,8.11,69.03l0.01,0.03c1.5,6.05,3.2,11.98,5.08,17.69l0.03,0.1c4.72,14.3,10.63,27.56,17.67,39.4
			c15.49,26.06,34.72,42.43,55.18,47.33c4.29,1.03,8.64,1.56,13.02,1.56c0.57,0,1.14-0.02,1.71-0.04
			C210.11,312.71,210.05,312.28,210,311.86z"/>
	</g>
</g>
</svg>
