<?xml version="1.0" encoding="utf-8"?>
<!-- Generator: Adobe Illustrator 24.0.1, SVG Export Plug-In . SVG Version: 6.00 Build 0)  -->
<svg version="1.1" xmlns="http://www.w3.org/2000/svg" xmlns:xlink="http://www.w3.org/1999/xlink" x="0px" y="0px"
	 viewBox="0 0 418.05 418.05" style="enable-background:new 0 0 418.05 418.05;" xml:space="preserve">
<style type="text/css">
	.st0{clip-path:url(#SVGID_2_);}
	.st1{clip-path:url(#SVGID_4_);}
	.st2{clip-path:url(#SVGID_6_);}
	.st3{clip-path:url(#SVGID_8_);}
	.st4{clip-path:url(#SVGID_10_);}
	.st5{clip-path:url(#SVGID_12_);}
	.st6{fill:none;stroke:#231F20;stroke-miterlimit:10;}
	.st7{opacity:0;fill:url(#SVGID_13_);}
	.st8{opacity:0.3;fill:url(#SVGID_14_);}
	.st9{fill:#A3A7E6;stroke:#000769;stroke-width:5;stroke-miterlimit:10;}
	.st10{fill:#939598;stroke:#000000;stroke-width:5;stroke-miterlimit:10;}
	.st11{fill:none;stroke:#231F20;stroke-width:10;stroke-miterlimit:10;}
	.st12{fill:#231F20;stroke:#231F20;stroke-miterlimit:10;}
	.st13{fill:#D1D3D4;stroke:#000000;stroke-width:5;stroke-miterlimit:10;}
	.st14{fill:none;stroke:#D1D3D4;stroke-width:15;stroke-linecap:round;stroke-miterlimit:10;}
	.st15{fill:none;stroke:#231F20;stroke-linecap:round;stroke-miterlimit:10;}
	.st16{fill:#F1F2F2;stroke:#000000;stroke-width:5;stroke-miterlimit:10;}
	.st17{fill:#D1D3D4;}
	.st18{fill:#FFFFFF;stroke:#231F20;stroke-width:5;stroke-miterlimit:10;}
	.st19{fill:#939598;}
	.st20{fill:none;}
	.st21{fill:#333DC9;stroke:#000769;stroke-width:5;stroke-miterlimit:10;}
	.st22{fill:#E2E9FC;stroke:#000769;stroke-width:5;stroke-miterlimit:10;}
	.st23{fill:#000769;}
	.st24{fill:#A3A7E6;}
	.st25{fill:#333DC9;}
	.st26{fill:#FFFFFF;}
	.st27{opacity:0.5;fill:url(#SVGID_15_);}
	.st28{opacity:0.5;fill:url(#SVGID_16_);}
	.st29{fill:#E2E9FC;}
	.st30{fill:#FFFFFF;stroke:#000769;stroke-width:5;stroke-miterlimit:10;}
	.st31{fill:url(#SVGID_17_);}
	.st32{opacity:0.5;fill:url(#SVGID_18_);}
	.st33{opacity:0.5;fill:url(#SVGID_19_);}
	.st34{opacity:0.5;fill:url(#SVGID_20_);}
	.st35{opacity:0.5;fill:url(#SVGID_21_);}
	.st36{opacity:0.5;fill:url(#SVGID_22_);}
	.st37{opacity:0.5;fill:url(#SVGID_23_);}
	.st38{opacity:0.5;fill:url(#SVGID_24_);}
	.st39{opacity:0.5;fill:url(#SVGID_25_);}
	.st40{opacity:0.5;fill:url(#SVGID_26_);}
	.st41{fill:none;stroke:#231F20;stroke-width:5;stroke-miterlimit:10;}
	.st42{fill:#231F20;}
	.st43{opacity:0.5;fill:url(#SVGID_27_);}
	.st44{opacity:0.5;fill:url(#SVGID_28_);}
	.st45{opacity:0.5;fill:url(#SVGID_29_);}
	.st46{fill:url(#SVGID_30_);stroke:#000769;stroke-width:5;stroke-miterlimit:10;}
	.st47{opacity:0.5;fill:url(#SVGID_31_);}
	.st48{opacity:0.5;fill:url(#SVGID_32_);}
	.st49{opacity:0.5;fill:url(#SVGID_33_);}
	.st50{opacity:0.5;fill:url(#SVGID_34_);}
	.st51{opacity:0.5;fill:url(#SVGID_35_);}
	.st52{opacity:0.5;fill:url(#SVGID_36_);}
	.st53{opacity:0.5;fill:url(#SVGID_37_);}
	.st54{opacity:0.5;fill:url(#SVGID_38_);}
	.st55{opacity:0.5;fill:url(#SVGID_39_);}
	.st56{opacity:0.5;fill:url(#SVGID_40_);}
	.st57{opacity:0.5;fill:url(#SVGID_41_);}
	.st58{opacity:0.5;fill:url(#SVGID_42_);}
	.st59{opacity:0.5;fill:url(#SVGID_43_);}
	.st60{opacity:0.5;fill:url(#SVGID_44_);}
	.st61{opacity:0.5;fill:url(#SVGID_45_);}
	.st62{opacity:0.5;fill:url(#SVGID_46_);}
	.st63{fill:#FFFFFF;stroke:#231F20;stroke-miterlimit:10;}
	.st64{fill:none;stroke:#231F20;stroke-width:5;stroke-linecap:round;stroke-miterlimit:10;}
	.st65{fill:#FFFFFF;stroke:#231F20;stroke-width:5;stroke-linecap:round;stroke-miterlimit:10;}
	.st66{opacity:0.5;fill:url(#SVGID_47_);}
	.st67{opacity:0.5;fill:url(#SVGID_48_);}
	.st68{opacity:0.5;fill:url(#SVGID_49_);}
	.st69{opacity:0.8;fill:url(#SVGID_50_);}
	.st70{opacity:0.8;fill:url(#SVGID_51_);}
	.st71{opacity:0.8;fill:url(#SVGID_52_);}
	.st72{opacity:0.8;fill:url(#SVGID_53_);}
	.st73{opacity:0.8;fill:url(#SVGID_54_);}
	.st74{opacity:0.8;fill:url(#SVGID_55_);}
	.st75{fill:none;stroke:#231F20;stroke-width:16;stroke-miterlimit:10;}
	.st76{fill:none;stroke:#231F20;stroke-width:16;stroke-linecap:round;stroke-miterlimit:10;}
	.st77{fill:#FFFFFF;stroke:#000769;stroke-width:5;stroke-linecap:round;stroke-miterlimit:10;}
	.st78{fill:#231F20;stroke:#231F20;stroke-width:5;stroke-miterlimit:10;}
	.st79{opacity:0.8;fill:url(#SVGID_56_);}
	.st80{fill:none;stroke:#000769;stroke-width:16;stroke-linecap:round;stroke-miterlimit:10;}
	.st81{opacity:0.5;fill:url(#SVGID_57_);}
	.st82{opacity:0.5;fill:url(#SVGID_58_);}
	.st83{opacity:0.5;fill:url(#SVGID_59_);}
	.st84{opacity:0.5;fill:url(#SVGID_60_);}
	.st85{opacity:0.5;fill:url(#SVGID_61_);}
	.st86{fill:none;stroke:#000769;stroke-width:5;stroke-linecap:round;stroke-miterlimit:10;}
	.st87{opacity:0.5;fill:url(#SVGID_62_);}
	.st88{opacity:0.5;fill:url(#SVGID_63_);}
	.st89{opacity:0.5;fill:url(#SVGID_64_);}
	.st90{opacity:0.5;fill:url(#SVGID_65_);}
	.st91{opacity:0.5;fill:url(#SVGID_66_);}
	.st92{opacity:0.5;fill:url(#SVGID_67_);}
	.st93{opacity:0.5;fill:url(#SVGID_68_);}
	.st94{opacity:0.5;fill:url(#SVGID_69_);}
	.st95{opacity:0.5;fill:url(#SVGID_70_);}
	.st96{opacity:0.5;fill:url(#SVGID_71_);}
	.st97{opacity:0.5;fill:url(#SVGID_72_);}
	.st98{opacity:0.5;fill:url(#SVGID_73_);}
	.st99{opacity:0.5;fill:url(#SVGID_74_);}
	.st100{opacity:0.5;fill:url(#SVGID_75_);}
	.st101{opacity:0.5;fill:url(#SVGID_76_);}
	.st102{opacity:0.5;fill:url(#SVGID_77_);}
	.st103{opacity:0.5;fill:url(#SVGID_78_);}
	.st104{opacity:0.5;fill:url(#SVGID_79_);}
	.st105{opacity:0.5;fill:url(#SVGID_80_);}
	.st106{opacity:0.5;fill:url(#SVGID_81_);}
	.st107{opacity:0.5;fill:url(#SVGID_82_);}
	.st108{opacity:0.5;fill:url(#SVGID_83_);}
	.st109{opacity:0.5;fill:url(#SVGID_84_);}
	.st110{fill:none;stroke:#000769;stroke-width:7;stroke-linecap:round;stroke-miterlimit:10;}
	.st111{opacity:0.5;fill:url(#SVGID_85_);}
	.st112{fill:none;stroke:#000769;stroke-width:8;stroke-linecap:round;stroke-miterlimit:10;}
	.st113{opacity:0.5;fill:url(#SVGID_86_);}
	.st114{opacity:0.5;fill:url(#SVGID_87_);}
	.st115{opacity:0.5;fill:url(#SVGID_88_);}
	.st116{opacity:0.5;fill:url(#SVGID_89_);}
	.st117{opacity:0.5;fill:url(#SVGID_90_);}
	.st118{opacity:0.5;fill:url(#SVGID_91_);}
	.st119{opacity:0.5;fill:url(#SVGID_92_);}
	.st120{opacity:0.5;fill:url(#SVGID_93_);}
	.st121{opacity:0.5;fill:url(#SVGID_94_);}
	.st122{opacity:0.5;fill:url(#SVGID_95_);}
	.st123{fill:#FFFFFF;stroke:#000769;stroke-width:7;stroke-miterlimit:10;}
	.st124{fill:none;stroke:#000769;stroke-width:10;stroke-linecap:round;stroke-miterlimit:10;}
	.st125{fill:#E2E9FC;stroke:#000769;stroke-width:10;stroke-miterlimit:10;}
	.st126{opacity:0.5;fill:url(#SVGID_96_);}
	.st127{opacity:0.5;fill:url(#SVGID_97_);}
	.st128{opacity:0.5;fill:url(#SVGID_98_);}
	.st129{opacity:0.3;fill:url(#SVGID_99_);}
	.st130{opacity:0.3;fill:url(#SVGID_100_);}
	.st131{opacity:0.3;fill:url(#SVGID_101_);}
	.st132{opacity:0.5;fill:url(#SVGID_102_);}
	.st133{opacity:0.3;fill:url(#SVGID_103_);}
	.st134{opacity:0.5;fill:url(#SVGID_104_);}
	.st135{opacity:0;fill:url(#SVGID_105_);}
	.st136{opacity:0.5;fill:url(#SVGID_106_);}
	.st137{opacity:0.5;fill:url(#SVGID_107_);}
	.st138{opacity:0.5;fill:url(#SVGID_108_);}
	.st139{opacity:0.5;fill:url(#SVGID_109_);}
	.st140{opacity:0.5;fill:url(#SVGID_110_);}
	.st141{opacity:0.5;fill:url(#SVGID_111_);}
	.st142{fill:none;stroke:#000769;stroke-width:12;stroke-linecap:round;stroke-miterlimit:10;}
	.st143{opacity:0.5;fill:url(#SVGID_112_);}
	.st144{opacity:0.5;fill:url(#SVGID_113_);}
	.st145{opacity:0.5;fill:url(#SVGID_114_);}
	.st146{opacity:0.5;fill:url(#SVGID_115_);}
	.st147{opacity:0.5;fill:url(#SVGID_116_);}
	.st148{opacity:0.5;fill:url(#SVGID_117_);}
	.st149{opacity:0.5;fill:url(#SVGID_118_);}
	.st150{opacity:0.5;fill:url(#SVGID_119_);}
	.st151{opacity:0.5;fill:url(#SVGID_120_);}
	.st152{opacity:0.5;fill:url(#SVGID_121_);}
	.st153{opacity:0.8;fill:url(#SVGID_122_);}
	.st154{opacity:0.5;fill:url(#SVGID_123_);}
	.st155{opacity:0.5;fill:url(#SVGID_124_);}
	.st156{opacity:0.5;fill:url(#SVGID_125_);}
	.st157{opacity:0.5;fill:url(#SVGID_126_);}
	.st158{opacity:0.5;fill:url(#SVGID_127_);}
	.st159{opacity:0.5;fill:url(#SVGID_128_);}
	.st160{opacity:0.5;fill:url(#SVGID_129_);}
	.st161{opacity:0.5;fill:url(#SVGID_130_);}
	.st162{opacity:0.5;fill:url(#SVGID_131_);}
	.st163{opacity:0.5;fill:url(#SVGID_132_);}
	.st164{opacity:0.5;fill:#FFFFFF;stroke:#000769;stroke-width:5;stroke-linecap:round;stroke-miterlimit:10;}
	.st165{opacity:0.5;fill:url(#SVGID_133_);}
	.st166{opacity:0.5;fill:url(#SVGID_134_);}
	.st167{opacity:0.5;fill:url(#SVGID_135_);}
	.st168{opacity:0.5;fill:url(#SVGID_136_);}
	.st169{opacity:0.5;fill:url(#SVGID_137_);}
	.st170{opacity:0.5;fill:url(#SVGID_138_);}
	.st171{opacity:0.5;fill:url(#SVGID_139_);}
	.st172{opacity:0.5;fill:url(#SVGID_140_);}
	.st173{opacity:0.5;fill:url(#SVGID_141_);}
	.st174{opacity:0.5;fill:url(#SVGID_142_);}
	.st175{opacity:0.5;fill:url(#SVGID_143_);}
	.st176{opacity:0.5;}
	.st177{opacity:0.5;fill:url(#SVGID_144_);}
	.st178{opacity:0.5;fill:url(#SVGID_145_);}
	.st179{opacity:0.5;fill:url(#SVGID_146_);}
	.st180{opacity:0.5;fill:url(#SVGID_147_);}
	.st181{opacity:0.5;fill:url(#SVGID_148_);}
	.st182{opacity:0.8;fill:url(#SVGID_149_);}
	.st183{opacity:0.5;fill:url(#SVGID_150_);}
	.st184{opacity:0.5;fill:url(#SVGID_151_);}
	.st185{opacity:0.5;fill:url(#SVGID_152_);}
	.st186{opacity:0.5;fill:url(#SVGID_153_);}
	.st187{opacity:0.5;fill:url(#SVGID_154_);}
	.st188{opacity:0.5;fill:url(#SVGID_155_);}
	.st189{opacity:0.5;fill:url(#SVGID_156_);}
	.st190{opacity:0.5;fill:url(#SVGID_157_);}
	.st191{opacity:0.5;fill:url(#SVGID_158_);}
	.st192{opacity:0.5;fill:url(#SVGID_159_);}
</style>
<g id="Sketch">
</g>
<g id="Layer_2">
	<g>
		<path class="st29" d="M373.73,4.84l13.32,24.36c0.41,0.75,1.03,1.37,1.79,1.79l24.36,13.32c3.12,1.71,3.12,6.18,0,7.89
			l-24.36,13.32c-0.75,0.41-1.37,1.03-1.79,1.79l-13.32,24.36c-1.71,3.12-6.18,3.12-7.89,0l-13.32-24.36
			c-0.41-0.75-1.03-1.37-1.79-1.79L326.37,52.2c-3.12-1.71-3.12-6.18,0-7.89l24.36-13.32c0.75-0.41,1.37-1.03,1.79-1.79l13.32-24.36
			C367.55,1.72,372.03,1.72,373.73,4.84z"/>
		<path class="st23" d="M369.79,96.51c-2.56,0-4.91-1.39-6.14-3.64l-13.32-24.36c-0.18-0.34-0.46-0.61-0.79-0.79l-24.36-13.32
			c-2.24-1.23-3.64-3.58-3.64-6.14s1.39-4.91,3.64-6.14l24.36-13.32c0.34-0.18,0.61-0.46,0.79-0.79l13.32-24.36
			c1.23-2.24,3.58-3.64,6.14-3.64s4.91,1.39,6.14,3.64L389.25,28c0.18,0.34,0.46,0.61,0.79,0.79l24.36,13.32
			c2.24,1.23,3.64,3.58,3.64,6.14s-1.39,4.91-3.64,6.14l-24.36,13.32c-0.34,0.18-0.61,0.46-0.79,0.79l-13.32,24.36
			C374.7,95.12,372.35,96.51,369.79,96.51z M369.79,5c-0.36,0-1.24,0.1-1.75,1.04L354.71,30.4c-0.64,1.18-1.6,2.14-2.78,2.78
			L327.57,46.5c-0.94,0.51-1.04,1.4-1.04,1.75s0.1,1.24,1.04,1.75l24.36,13.32c1.18,0.64,2.14,1.61,2.78,2.78l13.32,24.36
			c0.51,0.94,1.4,1.04,1.75,1.04s1.24-0.1,1.75-1.04l13.32-24.36c0.64-1.18,1.6-2.14,2.78-2.78l24.36-13.32
			c0.94-0.51,1.04-1.4,1.04-1.75s-0.1-1.24-1.04-1.75l-24.36-13.32c-1.18-0.64-2.14-1.6-2.78-2.78L371.54,6.04
			C371.03,5.1,370.15,5,369.79,5z"/>
	</g>
	<g>
		<path class="st29" d="M44.38,28.98l5.03,9.2c0.28,0.5,0.69,0.92,1.19,1.19l9.2,5.03c2.08,1.14,2.08,4.13,0,5.26l-9.2,5.03
			c-0.5,0.28-0.92,0.69-1.19,1.19l-5.03,9.2c-1.14,2.08-4.13,2.08-5.26,0l-5.03-9.2c-0.28-0.5-0.69-0.92-1.19-1.19l-9.2-5.03
			c-2.08-1.14-2.08-4.13,0-5.26l9.2-5.03c0.5-0.28,0.92-0.69,1.19-1.19l5.03-9.2C40.25,26.9,43.24,26.9,44.38,28.98z"/>
		<path class="st23" d="M41.75,69.14c-2.01,0-3.86-1.1-4.83-2.86l-5.03-9.2c-0.05-0.08-0.11-0.15-0.2-0.2l-9.2-5.03
			c-1.76-0.97-2.86-2.81-2.86-4.83s1.1-3.86,2.86-4.83l9.2-5.03c0.08-0.05,0.15-0.11,0.2-0.2l5.03-9.2
			c0.97-1.76,2.81-2.86,4.83-2.86s3.86,1.1,4.83,2.86v0l5.03,9.2c0.05,0.08,0.11,0.15,0.2,0.2l9.2,5.03
			c1.76,0.97,2.86,2.81,2.86,4.83s-1.1,3.86-2.86,4.83l-9.2,5.03c-0.08,0.05-0.15,0.11-0.2,0.2l-5.03,9.2
			C45.61,68.05,43.76,69.14,41.75,69.14z M41.75,29.92c-0.2,0-0.34,0.09-0.44,0.26l-5.03,9.2c-0.51,0.92-1.26,1.68-2.19,2.19
			l-9.2,5.03c-0.17,0.09-0.26,0.24-0.26,0.44s0.09,0.34,0.26,0.44l9.2,5.03c0.92,0.51,1.68,1.26,2.19,2.19l5.03,9.2
			c0.19,0.35,0.69,0.35,0.88,0l5.03-9.2c0.51-0.92,1.26-1.68,2.19-2.19l9.2-5.03c0.17-0.09,0.26-0.24,0.26-0.44
			s-0.09-0.34-0.26-0.44l-9.2-5.03c-0.92-0.51-1.68-1.26-2.19-2.19l-5.03-9.2v0C42.09,30.01,41.94,29.92,41.75,29.92z"/>
	</g>
	<g>
		<path class="st29" d="M24.74,377.88l5.03,9.2c0.28,0.5,0.69,0.92,1.19,1.19l9.2,5.03c2.08,1.14,2.08,4.13,0,5.26l-9.2,5.03
			c-0.5,0.28-0.92,0.69-1.19,1.19l-5.03,9.2c-1.14,2.08-4.13,2.08-5.26,0l-5.03-9.2c-0.28-0.5-0.69-0.92-1.19-1.19l-9.2-5.03
			c-2.08-1.14-2.08-4.13,0-5.26l9.2-5.03c0.5-0.28,0.92-0.69,1.19-1.19l5.03-9.2C20.62,375.8,23.6,375.8,24.74,377.88z"/>
		<path class="st23" d="M22.11,418.05c-2.01,0-3.86-1.1-4.83-2.86l-5.03-9.2c-0.05-0.08-0.11-0.15-0.2-0.2l-9.2-5.03
			C1.1,399.8,0,397.95,0,395.93s1.1-3.86,2.86-4.83l9.2-5.03c0.08-0.05,0.15-0.11,0.2-0.2l5.03-9.2c0.97-1.76,2.81-2.86,4.83-2.86
			s3.86,1.1,4.83,2.86l5.03,9.2c0.05,0.08,0.11,0.15,0.2,0.2l9.2,5.03c1.76,0.97,2.86,2.81,2.86,4.83s-1.1,3.86-2.86,4.83l-9.2,5.03
			c-0.08,0.05-0.15,0.11-0.2,0.2l-5.03,9.2C25.97,416.95,24.12,418.05,22.11,418.05z M22.11,378.82c-0.2,0-0.34,0.09-0.44,0.26
			l-5.03,9.2c-0.51,0.92-1.26,1.68-2.19,2.19l-9.2,5.03C5.09,395.59,5,395.74,5,395.93s0.09,0.34,0.26,0.44l9.2,5.03
			c0.92,0.51,1.68,1.26,2.19,2.19l5.03,9.2c0.19,0.35,0.69,0.35,0.88,0l5.03-9.2c0.51-0.93,1.26-1.68,2.19-2.19l9.2-5.03
			c0.17-0.09,0.26-0.24,0.26-0.44s-0.09-0.34-0.26-0.44l-9.2-5.03c-0.92-0.51-1.68-1.26-2.19-2.19l-5.03-9.2
			C22.45,378.91,22.31,378.82,22.11,378.82z"/>
	</g>
	<g>
		<path class="st24" d="M376.84,332.17l5.03,9.2c0.28,0.5,0.69,0.92,1.19,1.19l9.2,5.03c2.08,1.14,2.08,4.13,0,5.26l-9.2,5.03
			c-0.5,0.28-0.92,0.69-1.19,1.19l-5.03,9.2c-1.14,2.08-4.13,2.08-5.26,0l-5.03-9.2c-0.28-0.5-0.69-0.92-1.19-1.19l-9.2-5.03
			c-2.08-1.14-2.08-4.13,0-5.26l9.2-5.03c0.5-0.28,0.92-0.69,1.19-1.19l5.03-9.2C372.72,330.09,375.7,330.09,376.84,332.17z"/>
		<path class="st23" d="M374.21,372.34c-2.01,0-3.86-1.1-4.83-2.86l-5.03-9.2c-0.05-0.08-0.11-0.15-0.2-0.2l-9.2-5.03
			c-1.76-0.97-2.86-2.81-2.86-4.83s1.1-3.86,2.86-4.83l9.2-5.03c0.08-0.05,0.15-0.11,0.2-0.2l5.03-9.2
			c0.97-1.76,2.81-2.86,4.83-2.86s3.86,1.1,4.83,2.86v0l5.03,9.2c0.05,0.08,0.11,0.15,0.2,0.2l9.2,5.03
			c1.76,0.97,2.86,2.81,2.86,4.83s-1.1,3.86-2.86,4.83l-9.2,5.03c-0.08,0.05-0.15,0.11-0.2,0.2l-5.03,9.2
			C378.07,371.24,376.22,372.34,374.21,372.34z M374.21,333.11c-0.2,0-0.34,0.09-0.44,0.26l-5.03,9.2
			c-0.51,0.93-1.26,1.68-2.19,2.19l-9.2,5.03c-0.17,0.09-0.26,0.24-0.26,0.44s0.09,0.34,0.26,0.44l9.2,5.03
			c0.92,0.51,1.68,1.26,2.19,2.19l5.03,9.2c0.19,0.35,0.69,0.35,0.88,0l5.03-9.2c0.51-0.92,1.26-1.68,2.19-2.19l9.2-5.03
			c0.17-0.09,0.26-0.24,0.26-0.44s-0.09-0.34-0.26-0.44l-9.2-5.03c-0.92-0.51-1.68-1.26-2.19-2.19l-5.03-9.2
			C374.55,333.2,374.41,333.11,374.21,333.11z"/>
	</g>
	<g>
		<path class="st29" d="M245.36,10.47l5.03,9.2c0.28,0.5,0.69,0.92,1.19,1.19l9.2,5.03c2.08,1.14,2.08,4.13,0,5.26l-9.2,5.03
			c-0.5,0.28-0.92,0.69-1.19,1.19l-5.03,9.2c-1.14,2.08-4.13,2.08-5.26,0l-5.03-9.2c-0.28-0.5-0.69-0.92-1.19-1.19l-9.2-5.03
			c-2.08-1.14-2.08-4.13,0-5.26l9.2-5.03c0.5-0.28,0.92-0.69,1.19-1.19l5.03-9.2C241.23,8.39,244.22,8.39,245.36,10.47z"/>
		<path class="st23" d="M242.73,50.63c-2.01,0-3.86-1.1-4.83-2.86l-5.03-9.2c-0.05-0.08-0.11-0.15-0.2-0.2l-9.2-5.03
			c-1.76-0.97-2.86-2.81-2.86-4.83s1.1-3.86,2.86-4.83l9.2-5.03c0.08-0.05,0.15-0.11,0.2-0.2l5.03-9.2
			c0.97-1.76,2.81-2.86,4.83-2.86s3.86,1.1,4.83,2.86v0l5.03,9.2c0.05,0.08,0.11,0.15,0.2,0.2l9.2,5.03
			c1.76,0.97,2.86,2.81,2.86,4.83s-1.1,3.86-2.86,4.83l-9.2,5.03c-0.08,0.05-0.15,0.11-0.2,0.2l-5.03,9.2
			C246.59,49.54,244.74,50.63,242.73,50.63z M242.73,11.41c-0.2,0-0.34,0.09-0.44,0.26l-5.03,9.2c-0.51,0.93-1.26,1.68-2.19,2.19
			l-9.2,5.03c-0.17,0.09-0.26,0.24-0.26,0.44s0.09,0.34,0.26,0.44l9.2,5.03c0.92,0.5,1.68,1.26,2.19,2.19l5.03,9.2
			c0.19,0.35,0.69,0.35,0.88,0l5.03-9.2c0.51-0.92,1.26-1.68,2.19-2.19l9.2-5.03c0.17-0.09,0.26-0.24,0.26-0.44
			s-0.09-0.34-0.26-0.44l-9.2-5.03c-0.92-0.51-1.68-1.26-2.19-2.19l-5.03-9.2C243.07,11.5,242.93,11.41,242.73,11.41z"/>
	</g>
	<g>
		<path class="st24" d="M134.76,356.93l3.65,6.67c0.2,0.37,0.5,0.67,0.87,0.87l6.67,3.65c1.51,0.83,1.51,2.99,0,3.82l-6.67,3.65
			c-0.37,0.2-0.67,0.5-0.87,0.87l-3.65,6.67c-0.83,1.51-2.99,1.51-3.82,0l-3.65-6.67c-0.2-0.37-0.5-0.67-0.87-0.87l-6.67-3.65
			c-1.51-0.83-1.51-2.99,0-3.82l6.67-3.65c0.37-0.2,0.67-0.5,0.87-0.87l3.65-6.67C131.76,355.42,133.93,355.42,134.76,356.93z"/>
		<path class="st23" d="M132.84,386.76c-1.71,0-3.28-0.93-4.1-2.43l-3.6-6.59l-6.59-3.6c-1.5-0.82-2.43-2.39-2.43-4.1
			c0-1.71,0.93-3.28,2.43-4.1l6.59-3.6l3.6-6.59c0.82-1.5,2.39-2.43,4.1-2.43c1.71,0,3.28,0.93,4.1,2.43l3.6,6.59l6.59,3.6
			c1.5,0.82,2.43,2.39,2.43,4.1c0,1.71-0.93,3.28-2.43,4.1l-6.59,3.6l-3.6,6.59C136.13,385.83,134.56,386.76,132.84,386.76z
			 M121.46,370.03l6.16,3.37c0.79,0.43,1.43,1.07,1.86,1.86l3.37,6.16l3.37-6.16c0.43-0.79,1.07-1.43,1.86-1.86l6.16-3.37
			l-6.16-3.37c-0.79-0.43-1.43-1.07-1.86-1.86l-3.37-6.16l-3.37,6.16c-0.43,0.79-1.07,1.43-1.86,1.86L121.46,370.03z M132.56,358.12
			C132.56,358.12,132.56,358.13,132.56,358.12L132.56,358.12z"/>
	</g>
	<g>
		<circle class="st24" cx="153.58" cy="64.77" r="10.28"/>
		<path class="st23" d="M153.58,59.49c2.91,0,5.28,2.37,5.28,5.28c0,2.91-2.37,5.28-5.28,5.28s-5.28-2.37-5.28-5.28
			C148.3,61.86,150.67,59.49,153.58,59.49 M153.58,54.49c-5.68,0-10.28,4.6-10.28,10.28s4.6,10.28,10.28,10.28
			c5.68,0,10.28-4.6,10.28-10.28S159.26,54.49,153.58,54.49L153.58,54.49z"/>
	</g>
	<g>
		<circle class="st29" cx="280" cy="398.43" r="10.28"/>
		<path class="st23" d="M280,411.21c-7.05,0-12.78-5.73-12.78-12.78s5.73-12.78,12.78-12.78s12.78,5.73,12.78,12.78
			S287.05,411.21,280,411.21z M280,390.66c-4.29,0-7.78,3.49-7.78,7.78s3.49,7.78,7.78,7.78s7.78-3.49,7.78-7.78
			S284.29,390.66,280,390.66z"/>
	</g>
	<g>
		<circle class="st24" cx="366.52" cy="266.27" r="10.28"/>
		<path class="st23" d="M366.52,261c2.91,0,5.28,2.37,5.28,5.28c0,2.91-2.37,5.28-5.28,5.28s-5.28-2.37-5.28-5.28
			C361.25,263.36,363.61,261,366.52,261 M366.52,256c-5.68,0-10.28,4.6-10.28,10.28c0,5.68,4.6,10.28,10.28,10.28
			s10.28-4.6,10.28-10.28C376.8,260.6,372.2,256,366.52,256L366.52,256z"/>
	</g>
	<g>
		<circle class="st29" cx="49.47" cy="292.94" r="10.28"/>
		<path class="st23" d="M49.47,305.71c-7.05,0-12.78-5.73-12.78-12.78s5.73-12.78,12.78-12.78s12.78,5.73,12.78,12.78
			S56.51,305.71,49.47,305.71z M49.47,285.16c-4.29,0-7.78,3.49-7.78,7.78s3.49,7.78,7.78,7.78s7.78-3.49,7.78-7.78
			S53.76,285.16,49.47,285.16z"/>
	</g>
	<g>
		<path class="st29" d="M405.05,146.54l3.85,7.04c0.21,0.39,0.53,0.7,0.91,0.91l7.04,3.85c1.59,0.87,1.59,3.16,0,4.03l-7.04,3.85
			c-0.39,0.21-0.7,0.53-0.91,0.91l-3.85,7.04c-0.87,1.59-3.16,1.59-4.03,0l-3.85-7.04c-0.21-0.39-0.53-0.7-0.91-0.91l-7.04-3.85
			c-1.59-0.87-1.59-3.16,0-4.03l7.04-3.85c0.39-0.21,0.7-0.53,0.91-0.91l3.85-7.04C401.89,144.95,404.18,144.95,405.05,146.54z"/>
		<path class="st23" d="M403.04,177.87c-1.75,0-3.37-0.96-4.21-2.49l-3.82-6.99l-6.99-3.82c-1.54-0.84-2.49-2.45-2.49-4.21
			c0-1.75,0.96-3.37,2.49-4.21l6.99-3.82l3.82-6.99c0.84-1.54,2.45-2.49,4.21-2.49c1.75,0,3.37,0.96,4.21,2.49l3.82,6.99l6.99,3.82
			c1.54,0.84,2.49,2.45,2.49,4.21c0,1.75-0.96,3.37-2.49,4.21l-6.99,3.82l-3.82,6.99C406.4,176.91,404.79,177.87,403.04,177.87z
			 M390.75,160.36l6.71,3.67c0.81,0.44,1.47,1.1,1.91,1.91l3.67,6.71l3.67-6.71c0.44-0.81,1.1-1.47,1.91-1.91l6.71-3.67l-6.71-3.67
			c-0.81-0.44-1.47-1.1-1.91-1.91l-3.67-6.71l-3.67,6.71c-0.44,0.81-1.1,1.47-1.91,1.91L390.75,160.36z M402.86,147.74
			C402.86,147.74,402.86,147.74,402.86,147.74L402.86,147.74z"/>
	</g>
	<g>
		<path class="st29" d="M25.15,157l3.85,7.04c0.21,0.39,0.53,0.7,0.91,0.91l7.04,3.85c1.59,0.87,1.59,3.16,0,4.03l-7.04,3.85
			c-0.39,0.21-0.7,0.53-0.91,0.91l-3.85,7.04c-0.87,1.59-3.16,1.59-4.03,0l-3.85-7.04c-0.21-0.39-0.53-0.7-0.91-0.91l-7.04-3.85
			c-1.59-0.87-1.59-3.16,0-4.03l7.04-3.85c0.39-0.21,0.7-0.53,0.91-0.91l3.85-7.04C21.99,155.41,24.28,155.41,25.15,157z"/>
		<path class="st23" d="M23.13,188.33L23.13,188.33c-1.75,0-3.37-0.96-4.21-2.49l-3.82-6.99l-6.99-3.82
			c-1.54-0.84-2.49-2.45-2.49-4.21c0-1.75,0.96-3.37,2.49-4.21l6.99-3.82l3.82-6.99c0.84-1.54,2.45-2.49,4.21-2.49
			c1.75,0,3.37,0.96,4.21,2.49l3.82,6.99l6.99,3.82c1.54,0.84,2.49,2.45,2.49,4.21c0,1.75-0.96,3.37-2.49,4.21l-6.99,3.82
			l-3.82,6.99C26.5,187.37,24.89,188.33,23.13,188.33z M10.84,170.82l6.71,3.67c0.81,0.44,1.47,1.1,1.91,1.91l3.67,6.71l3.67-6.71
			c0.44-0.81,1.1-1.47,1.91-1.91l6.71-3.67l-6.71-3.67c-0.81-0.44-1.47-1.1-1.91-1.91l-3.67-6.71l-3.67,6.71
			c-0.44,0.81-1.1,1.47-1.91,1.91L10.84,170.82z M22.95,158.2C22.95,158.2,22.95,158.2,22.95,158.2L22.95,158.2z"/>
	</g>
	<g>
		<path id="XMLID_64_" class="st26" d="M268.34,106.86c-24.17,0-45.65,11.48-59.31,29.28c-13.66-17.8-35.14-29.28-59.31-29.28
			c-41.27,0-74.72,33.46-74.72,74.73c0,92.47,134.04,148.2,134.04,148.2s134.04-54.89,134.04-148.2
			C343.06,140.32,309.6,106.86,268.34,106.86z"/>
		<path class="st23" d="M209.02,332.49l-0.95-0.4c-0.34-0.14-34.19-14.35-67.57-39.74c-19.67-14.96-35.35-30.83-46.62-47.18
			c-14.19-20.58-21.39-41.98-21.39-63.59c0-42.58,34.64-77.23,77.22-77.23c23.14,0,44.58,10.08,59.31,27.77
			c14.73-17.69,36.17-27.77,59.31-27.77c20.63,0,40.02,8.03,54.61,22.62s22.62,33.98,22.62,54.61c0,21.8-7.19,43.31-21.38,63.94
			c-11.27,16.38-26.96,32.24-46.63,47.14c-33.38,25.29-67.24,39.29-67.58,39.43L209.02,332.49z M149.71,109.36
			c-39.82,0-72.22,32.4-72.22,72.23c0,25.78,11.44,65.23,65.95,106.72c29.76,22.66,59.91,36.28,65.6,38.76
			c5.69-2.45,35.83-15.89,65.59-38.45c30.08-22.81,65.94-59.89,65.94-107.03c0-19.29-7.51-37.43-21.15-51.07
			c-13.64-13.64-31.78-21.15-51.07-21.15c-22.63,0-43.53,10.31-57.33,28.3l-1.98,2.58l-1.98-2.58
			C193.24,119.68,172.34,109.36,149.71,109.36z"/>
	</g>
	<linearGradient id="SVGID_2_" gradientUnits="userSpaceOnUse" x1="67.4672" y1="298.4277" x2="256.5295" y2="156.7241">
		<stop  offset="0" style="stop-color:#333DC9"/>
		<stop  offset="1" style="stop-color:#333DC9;stop-opacity:0.2"/>
	</linearGradient>
	<path style="opacity:0.5;fill:url(#SVGID_2_);" d="M137.16,110.45c-33.86,5.96-59.68,35.57-59.68,71.11
		c0,25.78,11.44,65.23,65.95,106.72c29.76,22.66,59.91,36.28,65.6,38.76c5.69-2.45,35.83-15.89,65.59-38.45
		c7.34-5.57,15.03-11.99,22.46-19.2C217.57,252.12,154.91,189.77,137.16,110.45z"/>
</g>
</svg>
