<svg xmlns="http://www.w3.org/2000/svg" width="17" height="20" viewBox="0 0 17 20">
    <g>
        <path d="M7.554 16.452h-3.12c-.322 0-.584.262-.584.585 0 .323.262.585.585.585h3.119c.323 0 .584-.262.584-.585 0-.323-.261-.585-.584-.585z"/>
        <path d="M11.969 3.545v-1.82C11.969.774 11.195 0 10.244 0h-8.5C.794 0 .02.774.02 1.725v16.511c0 .951.774 1.725 1.725 1.725h8.5c.951 0 1.725-.774 1.725-1.725v-4.159c2.635-.305 4.688-2.55 4.688-5.266s-2.053-4.96-4.688-5.266zm-10.78-1.82c0-.306.25-.555.555-.555h8.5c.306 0 .555.249.555.555v.85c-.292-.15-.623-.236-.974-.236H2.16c-.35 0-.68.085-.972.235v-.85zm0 2.726c.017-.522.447-.942.972-.942h7.664c.162 0 .315.04.45.11-2.408.5-4.223 2.638-4.223 5.192 0 2.554 1.815 4.691 4.223 5.192-.135.07-.288.11-.45.11H2.16c-.525 0-.955-.42-.972-.942V4.45zm9.61 13.785c0 .306-.249.556-.555.556h-8.5c-.306 0-.555-.25-.555-.556v-3.188c.292.15.623.235.972.235h7.664c.35 0 .682-.086.974-.236v3.19zm.555-5.292c-2.278 0-4.132-1.854-4.132-4.133s1.854-4.133 4.132-4.133c2.28 0 4.133 1.854 4.133 4.133s-1.854 4.133-4.133 4.133z"/>
        <path d="M9.756 7.563c.322 0 .585-.262.585-.584 0-.322-.263-.585-.585-.585-.322 0-.585.263-.585.585 0 .322.263.584.585.584zM12.953 7.563c.322 0 .585-.262.585-.584 0-.322-.263-.585-.585-.585-.322 0-.585.263-.585.585 0 .322.263.584.585.584zM11.355 8.928c-.992 0-1.918.489-2.478 1.308-.183.266-.114.63.153.812.1.07.215.103.33.103.186 0 .369-.09.482-.255.342-.5.908-.798 1.513-.798.602 0 1.166.296 1.508.792.184.266.548.333.814.15.266-.184.333-.548.15-.814-.56-.813-1.485-1.298-2.472-1.298z"/>
    </g>
</svg>
