<svg xmlns="http://www.w3.org/2000/svg" width="22" height="20" viewBox="0 0 22 20">
    <g>
        <path d="M1.56 5.638c.061.193.143.388.242.58l.088.17-.43.723 1.084 1.084.723-.43.17.088c.193.1.388.18.58.243l.183.058.206.812h1.533l.206-.812.182-.058c.193-.062.388-.144.581-.243l.17-.088.722.43L8.884 7.11l-.43-.723.089-.17c.1-.192.18-.387.243-.58l.057-.182.812-.207V3.717l-.812-.207-.057-.182c-.062-.192-.144-.388-.244-.58l-.088-.17.43-.723L7.8.771l-.722.43-.17-.088c-.193-.1-.388-.18-.581-.242L6.145.81 5.939 0H4.406L4.2.812 4.018.87c-.193.062-.388.143-.581.243l-.17.087-.723-.429-1.083 1.084.43.722-.089.17c-.1.193-.181.388-.243.58l-.058.183-.811.206V5.25l.811.207.058.182zm3.612-3.914c1.524 0 2.759 1.235 2.759 2.759 0 1.523-1.235 2.758-2.759 2.758-1.523 0-2.758-1.235-2.758-2.758 0-1.524 1.235-2.759 2.758-2.759zM10.345 19.31L18.621 19.31 18.621 20 10.345 20zM10.345 17.931L18.621 17.931 18.621 18.621 10.345 18.621zM19.655 17.931h-.345V20h.345c.57 0 1.035-.464 1.035-1.034 0-.57-.464-1.035-1.035-1.035zM8.276 18.966c0 .08.045.154.118.19l1.261.63v-1.642l-1.261.63c-.073.037-.118.11-.118.192z"/>
        <path d="M17.931 4.138h-.049c-.154-.593-.69-1.035-1.33-1.035-.641 0-1.176.442-1.33 1.035h-4.188v.69h4.187c.155.593.69 1.034 1.33 1.034.642 0 1.177-.441 1.331-1.034h.049c1.521 0 2.759 1.237 2.759 2.758v2.07c0 1.52-1.238 2.758-2.759 2.758h-1.083c-.155-.593-.69-1.035-1.33-1.035-.642 0-1.177.442-1.331 1.035H12.02c-.154-.593-.69-1.035-1.33-1.035-.641 0-1.177.442-1.33 1.035H7.191c-.154-.593-.689-1.035-1.33-1.035-.641 0-1.176.442-1.33 1.035H3.448C1.547 12.414 0 13.96 0 15.862s1.547 3.448 3.448 3.448h3.449v-.69H3.448c-1.52 0-2.758-1.237-2.758-2.758s1.237-2.759 2.758-2.759h1.084c.154.594.689 1.035 1.33 1.035.641 0 1.176-.441 1.33-1.035H9.36c.154.594.69 1.035 1.33 1.035.642 0 1.177-.441 1.331-1.035h2.167c.154.594.69 1.035 1.33 1.035.641 0 1.176-.441 1.33-1.035h1.084c1.901 0 3.448-1.546 3.448-3.448V7.586c0-1.901-1.547-3.448-3.448-3.448z"/>
        <path d="M11.034 6.552L15.862 6.552 15.862 7.241 11.034 7.241zM11.034 7.931L15.862 7.931 15.862 8.621 11.034 8.621zM13.793 9.31L14.483 9.31 14.483 10 13.793 10zM12.414 9.31L13.103 9.31 13.103 10 12.414 10zM11.034 9.31L11.724 9.31 11.724 10 11.034 10zM15.172 9.31L15.862 9.31 15.862 10 15.172 10zM1.379 15.517L2.069 15.517 2.069 16.207 1.379 16.207zM4.138 15.517L4.828 15.517 4.828 16.207 4.138 16.207zM5.517 15.517L6.207 15.517 6.207 16.207 5.517 16.207zM2.759 15.517L3.448 15.517 3.448 16.207 2.759 16.207z"/>
    </g>
</svg>
