<svg xmlns="http://www.w3.org/2000/svg" viewBox="0 0 157.58651 29.47896"><defs><style>.cls-1{fill:#191919;}</style></defs><title>Epsilon PeopleCloud Loyalty</title><g id="Layer_2" data-name="Layer 2"><g id="Layer_1-2" data-name="Layer 1"><path class="cls-1" d="M0,0V29.479H1.73406v0H84.96869v0h1.7341V0ZM84.96869,27.74488H1.73406V1.734H84.96869Z"/><path class="cls-1" d="M35.94093,16.981a1.3237,1.3237,0,0,1-.28515.11705l-.02763.0084a1.972,1.972,0,0,1-.69884.052,2.88534,2.88534,0,0,1-1.38769-.52711l-.00015-.00009-.00059.00089-.84331,1.28406a3.34452,3.34452,0,0,0,.99236.57266,4.27,4.27,0,0,0,2.48615.07479,2.70525,2.70525,0,0,0,.93045-.46019,2.23345,2.23345,0,0,0,.63634-.78052,2.43631,2.43631,0,0,0,.23515-1.10125,1.92288,1.92288,0,0,0-.2567-1.05879,2.0316,2.0316,0,0,0-.37046-.42546,1.95461,1.95461,0,0,0-.27637-.20551,3.463,3.463,0,0,0-.83946-.36365q-.44922-.12833-.83949-.25652a2.42648,2.42648,0,0,1-.64713-.31009.66706.66706,0,0,1-.14958-.88766.79322.79322,0,0,1,.27791-.24053,1.42338,1.42338,0,0,1,.13792-.06159,1.45915,1.45915,0,0,1,.22589-.07215c.055-.01219.10888-.02059.16249-.02746l.04526-.00519c.05294-.00538.10551-.00928.15719-.0096.00481-.00007.00982,0,.01463,0a1.97978,1.97978,0,0,1,.65229.12244,2.41618,2.41618,0,0,1,.61465.30985l.03334-.03713.00026.00015.00351.00567.02472-.03754.83919-1.27791a3.31052,3.31052,0,0,0-.90087-.44415,4.2487,4.2487,0,0,0-1.24035-.18174,3.78718,3.78718,0,0,0-1.08.155,2.79,2.79,0,0,0-.92508.46522A2.321,2.321,0,0,0,33,12.14717a2.27514,2.27514,0,0,0-.24053,1.0694,1.7727,1.7727,0,0,0,.26211,1.01586,2.05783,2.05783,0,0,0,.50428.505c.05186.03763.09752.0822.15331.11537a3.83464,3.83464,0,0,0,.85566.37427q.4593.13894.85529.27792a2.42412,2.42412,0,0,1,.65758.33688.63977.63977,0,0,1,.26211.54016.61466.61466,0,0,1-.10174.353A.80867.80867,0,0,1,35.94093,16.981Z"/><polygon class="cls-1" points="21.094 16.988 17.422 16.988 17.422 15.446 20.708 15.446 20.708 13.904 17.422 13.904 17.422 12.491 21.094 12.491 21.094 10.95 15.752 10.95 15.752 18.529 21.094 18.529 21.094 16.988"/><path class="cls-1" d="M26.2969,15.57448h1.22048a5.20457,5.20457,0,0,0,1.11325-.11231,2.39069,2.39069,0,0,0,.88863-.37994,1.82614,1.82614,0,0,0,.58874-.71748,2.58106,2.58106,0,0,0,.21417-1.11325,2.42021,2.42021,0,0,0-.23015-1.11863,1.87261,1.87261,0,0,0-.621-.70672,2.53626,2.53626,0,0,0-.91521-.3692,5.56235,5.56235,0,0,0-1.1134-.10693H24.62687v7.5792h1.67Zm0-3.21161h.85637a4.82493,4.82493,0,0,1,.49255.02688,1.46829,1.46829,0,0,1,.46567.12307.89213.89213,0,0,1,.34261.273.75164.75164,0,0,1,.13382.46567.88038.88038,0,0,1-.10171.44416.769.769,0,0,1-.26763.27839,1.1454,1.1454,0,0,1-.37472.14457,2.14382,2.14382,0,0,1-.43356.043H26.2969Z"/><rect class="cls-1" x="41.35657" y="10.95002" width="1.67003" height="7.5792"/><polygon class="cls-1" points="51.234 16.988 48.14 16.988 48.14 10.95 46.47 10.95 46.47 18.529 51.234 18.529 51.234 16.988"/><path class="cls-1" d="M54.502,17.646a3.7058,3.7058,0,0,0,1.28269.79783,4.8683,4.8683,0,0,0,3.24365,0A3.70868,3.70868,0,0,0,60.311,17.646a3.61628,3.61628,0,0,0,.84263-1.25782,4.65066,4.65066,0,0,0,0-3.297A3.62308,3.62308,0,0,0,60.311,11.833a3.71692,3.71692,0,0,0-1.28269-.79753,4.86335,4.86335,0,0,0-3.24365,0A3.714,3.714,0,0,0,54.502,11.833a3.62281,3.62281,0,0,0-.84263,1.25812,4.65051,4.65051,0,0,0,0,3.297A3.616,3.616,0,0,0,54.502,17.646Zm.73674-3.8807a2.23684,2.23684,0,0,1,.47172-.776,2.15,2.15,0,0,1,.73674-.50839,2.61655,2.61655,0,0,1,1.91862,0,2.14991,2.14991,0,0,1,.73674.50839,2.24078,2.24078,0,0,1,.47173.776,2.98858,2.98858,0,0,1,0,1.95379,2.24924,2.24924,0,0,1-.47173.77095,2.14975,2.14975,0,0,1-.73674.50838,2.62044,2.62044,0,0,1-1.91862,0,2.14984,2.14984,0,0,1-.73674-.50838,2.24524,2.24524,0,0,1-.47172-.77095,2.98909,2.98909,0,0,1,0-1.95379Z"/><polygon class="cls-1" points="65.667 13.134 65.687 13.134 68.874 18.529 70.978 18.529 70.978 10.95 69.369 10.95 69.369 16.217 69.348 16.217 66.244 10.95 64.057 10.95 64.057 18.529 65.667 18.529 65.667 13.134"/><path class="cls-1" d="M73.1901,8.8566a.95023.95023,0,1,1-.95034.95023A.95028.95028,0,0,1,73.1901,8.8566Zm0,1.689a.73876.73876,0,1,0-.73886-.73876A.73933.73933,0,0,0,73.1901,10.54559Zm-.032-.68027H73.063v.31638h-.15179V9.4192h.289c.192,0,.29985.06038.29985.22675a.19624.19624,0,0,1-.19742.21208l.19928.32367h-.15722Zm.04-.1107c.09737,0,.15344-.03375.15344-.1123,0-.073-.06354-.10111-.13105-.10111H73.0596v.21341Z"/><path class="cls-1" d="M95.46542,2.74876h2.24805c1.76367,0,2.9541.59277,2.9541,2.31738,0,1.65625-1.18408,2.43164-2.90625,2.43164H96.46737v3.12207h-1.002Zm2.16992,3.93652c1.37647,0,2.0332-.499,2.0332-1.61914,0-1.13574-.69824-1.50488-2.081-1.50488H96.46737v3.124Z"/><path class="cls-1" d="M101.44442,7.71262a2.81059,2.81059,0,0,1,2.62061-3.0664c1.48681,0,2.32617,1.06738,2.32617,2.73535a3.14191,3.14191,0,0,1-.0459.56055h-3.92578a1.93807,1.93807,0,0,0,1.937,2.03613,2.54481,2.54481,0,0,0,1.45069-.4668l.353.64746a3.42157,3.42157,0,0,1-1.9248.60449A2.78682,2.78682,0,0,1,101.44442,7.71262Zm4.0752-.47754c0-1.168-.52539-1.80273-1.437-1.80273a1.78753,1.78753,0,0,0-1.67188,1.80273Z"/><path class="cls-1" d="M107.39657,7.71262a2.72314,2.72314,0,1,1,5.40283,0,2.72142,2.72142,0,1,1-5.40283,0Zm4.3833,0c0-1.33593-.6792-2.24511-1.68213-2.24511-1.00244,0-1.68213.90918-1.68213,2.24511s.67969,2.2295,1.68213,2.2295C111.10067,9.94212,111.77987,9.04856,111.77987,7.71262Z"/><path class="cls-1" d="M114.33358,4.78977h.81494l.083.67285h.03272a3.07091,3.07091,0,0,1,1.85888-.8164c1.50586,0,2.31153,1.16894,2.31153,2.9707,0,1.98633-1.19336,3.14648-2.5249,3.14648a2.64884,2.64884,0,0,1-1.61622-.6748l.02637,1.01758v1.97363h-.98633Zm4.08155,2.83594c0-1.28711-.43946-2.14941-1.53711-2.14941a2.3969,2.3969,0,0,0-1.55811.79589V9.32786a2.2808,2.2808,0,0,0,1.41943.60547C117.70419,9.93333,118.41513,9.06516,118.41513,7.62571Z"/><path class="cls-1" d="M120.9454,9.449v-7.374h.98633V9.52122c0,.30176.13135.4209.2749.4209a.87291.87291,0,0,0,.21631-.02344l.13379.75293a1.58037,1.58037,0,0,1-.56787.09179C121.24911,10.7634,120.9454,10.29173,120.9454,9.449Z"/><path class="cls-1" d="M123.57235,7.71262a2.81059,2.81059,0,0,1,2.62061-3.0664c1.48681,0,2.32617,1.06738,2.32617,2.73535a3.14191,3.14191,0,0,1-.0459.56055h-3.92578a1.93807,1.93807,0,0,0,1.937,2.03613,2.54481,2.54481,0,0,0,1.45069-.4668l.353.64746a3.42157,3.42157,0,0,1-1.9248.60449A2.78682,2.78682,0,0,1,123.57235,7.71262Zm4.0752-.47754c0-1.168-.52539-1.80273-1.437-1.80273a1.78753,1.78753,0,0,0-1.67188,1.80273Z"/><path class="cls-1" d="M129.59188,6.69114c0-2.53906,1.49561-4.08691,3.49317-4.08691a2.93542,2.93542,0,0,1,2.165.9707l-.54883.65234a2.14215,2.14215,0,0,0-1.59863-.74219c-1.4878,0-2.47608,1.21875-2.47608,3.17969,0,1.97852.94434,3.21875,2.437,3.21875a2.362,2.362,0,0,0,1.82422-.88379l.54883.62793a3.03546,3.03546,0,0,1-2.415,1.13574C131.06112,10.7634,129.59188,9.24778,129.59188,6.69114Z"/><path class="cls-1" d="M136.80917,9.449v-7.374h.98633V9.52122c0,.30176.13134.4209.2749.4209a.87291.87291,0,0,0,.21631-.02344l.13379.75293a1.58037,1.58037,0,0,1-.56787.09179C137.11288,10.7634,136.80917,10.29173,136.80917,9.449Z"/><path class="cls-1" d="M139.43563,7.71262a2.72314,2.72314,0,1,1,5.40284,0,2.72142,2.72142,0,1,1-5.40284,0Zm4.3833,0c0-1.33593-.67919-2.24511-1.68212-2.24511-1.00245,0-1.68213.90918-1.68213,2.24511s.67968,2.2295,1.68213,2.2295C143.13974,9.94212,143.81893,9.04856,143.81893,7.71262Z"/><path class="cls-1" d="M146.294,8.48411V4.78977h.98682V8.35618c0,1.08594.32812,1.55078,1.09961,1.55078.59619,0,1.00928-.29492,1.561-.98242V4.78977h.98633v5.83008h-.81494l-.083-.91309h-.03271a2.47551,2.47551,0,0,1-1.92285,1.05664C146.84579,10.7634,146.294,9.97141,146.294,8.48411Z"/><path class="cls-1" d="M152.48544,7.71262c0-1.8916,1.19287-3.0664,2.52246-3.0664a2.39153,2.39153,0,0,1,1.63379.6748l-.042-1V2.07493h.98681v8.54492h-.81494l-.08349-.68848h-.03272a2.57966,2.57966,0,0,1-1.769.832C153.42977,10.7634,152.48544,9.655,152.48544,7.71262ZM156.5997,9.1384V6.08274a2.05286,2.05286,0,0,0-1.42188-.60644c-.93213,0-1.67334.89941-1.67334,2.22753,0,1.39747.57861,2.2295,1.6001,2.2295A2.01451,2.01451,0,0,0,156.5997,9.1384Z"/><path class="cls-1" d="M95.39852,18.73508H97.8077V25.822h3.44581v2.01758h-5.855Z"/><path class="cls-1" d="M101.86581,23.24485c0-2.99707,1.709-4.67871,4.23047-4.67871s4.23,1.69531,4.23,4.67871c0,2.998-1.7085,4.7627-4.23,4.7627S101.86581,26.2429,101.86581,23.24485Zm5.99561,0c0-1.65234-.67286-2.60547-1.76514-2.60547-1.09277,0-1.76514.95313-1.76514,2.60547,0,1.65332.67237,2.68945,1.76514,2.68945C107.18856,25.9343,107.86142,24.89817,107.86142,23.24485Z"/><path class="cls-1" d="M113.26327,24.70188l-2.7456-5.9668h2.57763l.67237,1.9043c.22412.68652.44824,1.31738.686,2.03125h.05615c.23828-.71387.47608-1.34473.71436-2.03125l.67236-1.9043h2.52149l-2.74561,5.9668v3.1377h-2.40918Z"/><path class="cls-1" d="M120.627,18.73508h2.91357l2.77344,9.1045h-2.54931l-1.03663-4.42676c-.22412-.86817-.44824-1.97461-.67236-2.88477h-.05566c-.19629.92383-.42041,2.0166-.64453,2.88477l-1.03663,4.42676H117.8536Zm-.78418,5.3086h4.4541V25.907h-4.4541Z"/><path class="cls-1" d="M127.03817,18.73508h2.40967V25.822h3.4458v2.01758h-5.85547Z"/><path class="cls-1" d="M134.51571,20.75169h-2.40918V18.73508h7.22754v2.01661h-2.40918v7.08789h-2.40918Z"/><path class="cls-1" d="M141.9913,24.70188l-2.74561-5.9668h2.57764l.67236,1.9043c.22412.68652.44824,1.31738.686,2.03125h.05615c.23828-.71387.47607-1.34473.71436-2.03125l.67236-1.9043h2.52148l-2.7456,5.9668v3.1377H141.9913Z"/></g></g></svg>