<?xml version="1.0" encoding="utf-8"?>
<!-- Generator: Adobe Illustrator 23.1.1, SVG Export Plug-In . SVG Version: 6.00 Build 0)  -->
<svg version="1.1" id="Layer_1" xmlns="http://www.w3.org/2000/svg" xmlns:xlink="http://www.w3.org/1999/xlink" x="0px" y="0px"
	 viewBox="0 0 157.5 26" style="enable-background:new 0 0 157.5 26;" xml:space="preserve">
<style type="text/css">
	.st0{fill:#14151D;}
</style>
<path class="st0" d="M91.5,25.2c1.2,0,2.2-0.4,3-1.3l-1.3-1.5c-0.4,0.4-1,0.8-1.7,0.8c-1.2,0-2-1-2-2.7s0.9-2.6,2-2.6
	c0.6,0,1.1,0.3,1.5,0.7l1.3-1.5c-0.6-0.6-1.6-1.2-2.8-1.2c-2.3,0-4.4,1.7-4.4,4.8C87.1,23.6,89.1,25.2,91.5,25.2z M99.4,25.2
	c2.5,0,3.7-1.5,3.7-4.6v-4.7h-2.3v5c0,1.6-0.4,2.2-1.4,2.2S98,22.5,98,20.9v-5h-2.4v4.7C95.7,23.7,96.9,25.2,99.4,25.2z M108,25.2
	c2.3,0,3.6-1.4,3.6-2.9c0-1.3-0.6-2-1.8-2.5l-1.1-0.4c-0.8-0.3-1.3-0.5-1.3-0.9s0.4-0.6,1-0.6c0.7,0,1.2,0.2,1.8,0.7l1.2-1.5
	c-0.8-0.8-2-1.2-3-1.2c-2,0-3.4,1.3-3.4,2.8c0,1.3,0.9,2.1,1.8,2.5l1.1,0.5l0.3,0.1c0.6,0.2,0.9,0.4,0.9,0.8s-0.3,0.6-1,0.6
	c-0.7,0-1.5-0.4-2.1-0.9l-1.4,1.7C105.5,24.7,106.9,25.2,108,25.2z M117.2,25v-7.1h2.4v-2h-7.2v2h2.4V25C114.8,25,117.2,25,117.2,25
	z M124.7,25.2c2.5,0,4.2-1.8,4.2-4.8s-1.7-4.7-4.2-4.7s-4.2,1.7-4.2,4.7S122.2,25.2,124.7,25.2z M124.7,23.1c-1.1,0-1.8-1-1.8-2.7
	s0.7-2.6,1.8-2.6s1.8,1,1.8,2.6S125.8,23.1,124.7,23.1z M132.8,25v-2.7c0-0.9-0.2-2.3-0.3-3.2l0,0l0.7,2.2l1.1,3h1.3l1.1-3l0.8-2.2
	h0.1c-0.1,0.9-0.3,2.3-0.3,3.2V25h2.2v-9.1h-2.6l-1.3,3.7c-0.2,0.5-0.3,1.1-0.5,1.6H135c-0.2-0.5-0.3-1.1-0.5-1.6l-1.4-3.7h-2.6V25
	H132.8z M147.5,25v-2h-3.6v-1.6h3v-2h-3V18h3.5v-2h-5.9v9H147.5z M151.7,25v-3.1h0.9l1.6,3.1h2.7l-2-3.5c0.9-0.5,1.5-1.3,1.5-2.6
	c0-2.3-1.7-2.9-3.6-2.9h-3.4v9H151.7L151.7,25z M152.5,20h-0.9v-2.2h0.9c1,0,1.5,0.3,1.5,1S153.5,20,152.5,20z M88.6,9V5.9h1.3
	c1.7,0,2.9-0.8,2.9-2.4c0-1.7-1.2-2.3-3-2.3h-2.2V9H88.6z M89.8,5.1h-1.2V1.9h1.1c1.4,0,2.1,0.4,2.1,1.5C91.8,4.6,91.1,5.1,89.8,5.1
	z M96.6,9.1c0.8,0,1.4-0.3,1.9-0.6l-0.3-0.6c-0.4,0.3-0.9,0.5-1.5,0.5c-1.1,0-1.9-0.8-1.9-2h3.9c0-0.1,0-0.4,0-0.6
	C98.8,4.1,97.9,3,96.5,3c-1.3,0-2.6,1.2-2.6,3.1S95.1,9.1,96.6,9.1z M97.9,5.6h-3.1c0.1-1.2,0.9-1.8,1.7-1.8
	C97.4,3.8,97.9,4.4,97.9,5.6z M102.5,9.1c1.4,0,2.7-1.1,2.7-3c0-2-1.3-3.1-2.7-3.1s-2.7,1.1-2.7,3.1C99.8,8,101.1,9.1,102.5,9.1z
	 M102.5,8.3c-1,0-1.7-0.9-1.7-2.2s0.7-2.3,1.7-2.3s1.7,0.9,1.7,2.3C104.2,7.4,103.5,8.3,102.5,8.3z M107.7,11.5v-2v-1
	c0.5,0.4,1.1,0.7,1.6,0.7c1.3,0,2.5-1.2,2.5-3.1c0-1.8-0.8-3-2.3-3c-0.7,0-1.3,0.4-1.9,0.8l0,0l-0.1-0.7h-0.8v8.3H107.7z M109.1,8.3
	c-0.4,0-0.9-0.2-1.4-0.6V4.6c0.6-0.5,1.1-0.8,1.6-0.8c1.1,0,1.5,0.9,1.5,2.1C110.8,7.4,110.1,8.3,109.1,8.3z M114.4,9.1
	c0.3,0,0.4,0,0.6-0.1l-0.1-0.7c-0.1,0-0.2,0-0.2,0c-0.1,0-0.3-0.1-0.3-0.4V0.5h-1v7.4C113.4,8.7,113.7,9.1,114.4,9.1L114.4,9.1z
	 M118.8,9.1c0.8,0,1.4-0.3,1.9-0.6l-0.3-0.6c-0.4,0.3-0.9,0.5-1.5,0.5c-1.1,0-1.9-0.8-1.9-2h3.9c0-0.1,0-0.4,0-0.6
	c0-1.7-0.8-2.7-2.3-2.7c-1.3,0-2.6,1.2-2.6,3.1S117.3,9.1,118.8,9.1z M120.1,5.6H117c0.1-1.2,0.9-1.8,1.7-1.8
	C119.6,3.8,120.1,4.4,120.1,5.6z M125.5,9.1c1,0,1.8-0.4,2.4-1.1l-0.6-0.6c-0.5,0.6-1.1,0.9-1.8,0.9c-1.5,0-2.4-1.2-2.4-3.2
	s1-3.2,2.5-3.2c0.7,0,1.2,0.3,1.6,0.7l0.5-0.6c-0.5-0.6-1.2-1-2.2-1c-2,0-3.5,1.5-3.5,4.1C122,7.6,123.5,9.1,125.5,9.1z M130.3,9.1
	c0.3,0,0.4,0,0.6-0.1l-0.1-0.7c-0.1,0-0.2,0-0.2,0c-0.1,0-0.3-0.1-0.3-0.4V0.5h-1v7.4C129.3,8.7,129.6,9.1,130.3,9.1z M134.6,9.1
	c1.4,0,2.7-1.1,2.7-3c0-2-1.3-3.1-2.7-3.1c-1.4,0-2.7,1.1-2.7,3.1C131.9,8,133.2,9.1,134.6,9.1z M134.6,8.3c-1,0-1.7-0.9-1.7-2.2
	s0.7-2.3,1.7-2.3s1.7,0.9,1.7,2.3C136.3,7.4,135.6,8.3,134.6,8.3z M140.5,9.1c0.8,0,1.4-0.4,1.9-1.1l0,0l0.2,1h0.8V3.2h-1v4.1
	c-0.6,0.7-1,1-1.6,1c-0.8,0-1.1-0.5-1.1-1.6V3.2h-1v3.7C138.7,8.4,139.3,9.1,140.5,9.1z M147.3,9.1c0.7,0,1.3-0.4,1.8-0.8l0,0
	l0.1,0.7h0.8V0.5h-1v2.2v1c-0.4-0.4-0.9-0.7-1.5-0.7c-1.3,0-2.5,1.2-2.5,3.1C144.9,8,145.9,9.1,147.3,9.1z M147.6,8.3
	c-1,0-1.6-0.8-1.6-2.2c0-1.3,0.7-2.2,1.7-2.2c0.5,0,0.9,0.2,1.4,0.6v3C148.6,8.1,148.1,8.3,147.6,8.3z"/>
<g>
	<path d="M0-0.1v1.5v22.9v1.5h1.5h73.4h1.5v-1.5V1.4v-1.5H0z M74.9,24.4H1.5V1.4h73.4V24.4z"/>
	<path d="M31.7,14.9c-0.1,0-0.2,0.1-0.3,0.1c0,0,0,0,0,0c-0.1,0-0.3,0.1-0.6,0c-0.3,0-0.8-0.1-1.2-0.5l0,0l-0.7,1.1
		c0.3,0.2,0.6,0.4,0.9,0.5c0.4,0.1,0.8,0.2,1.2,0.2c0.3,0,0.7,0,1-0.1c0.3-0.1,0.6-0.2,0.8-0.4c0.2-0.2,0.4-0.4,0.6-0.7
		c0.1-0.3,0.2-0.6,0.2-1c0-0.4-0.1-0.7-0.2-0.9c-0.1-0.1-0.2-0.3-0.3-0.4c-0.1-0.1-0.2-0.1-0.2-0.2c-0.2-0.1-0.5-0.2-0.7-0.3
		c-0.3-0.1-0.5-0.2-0.7-0.2c-0.2-0.1-0.4-0.2-0.6-0.3c-0.2-0.1-0.2-0.3-0.2-0.5c0-0.1,0-0.2,0.1-0.3c0.1-0.1,0.1-0.2,0.2-0.2
		c0,0,0.1,0,0.1-0.1c0.1,0,0.1,0,0.2-0.1c0,0,0.1,0,0.1,0c0,0,0,0,0,0c0,0,0.1,0,0.1,0h0c0.2,0,0.4,0,0.6,0.1
		c0.2,0.1,0.3,0.1,0.5,0.3l0,0l0,0l0,0l0.7-1.1c-0.3-0.2-0.5-0.3-0.8-0.4c-0.4-0.1-0.7-0.2-1.1-0.2c-0.3,0-0.6,0-1,0.1
		c-0.3,0.1-0.6,0.2-0.8,0.4c-0.2,0.2-0.4,0.4-0.6,0.7c-0.1,0.3-0.2,0.6-0.2,0.9c0,0.4,0.1,0.7,0.2,0.9c0.1,0.2,0.3,0.3,0.4,0.4
		c0,0,0.1,0.1,0.1,0.1c0.2,0.1,0.5,0.2,0.8,0.3c0.3,0.1,0.5,0.2,0.8,0.2c0.2,0.1,0.4,0.2,0.6,0.3c0.2,0.1,0.2,0.3,0.2,0.5
		c0,0.1,0,0.2-0.1,0.3C31.9,14.7,31.8,14.8,31.7,14.9"/>
	<polygon points="18.6,14.9 15.4,14.9 15.4,13.5 18.3,13.5 18.3,12.1 15.4,12.1 15.4,10.9 18.6,10.9 18.6,9.5 13.9,9.5 13.9,16.2 
		18.6,16.2 	"/>
	<path d="M23.2,13.6h1.1c0.4,0,0.7,0,1-0.1c0.3-0.1,0.6-0.2,0.8-0.3s0.4-0.4,0.5-0.6c0.1-0.3,0.2-0.6,0.2-1c0-0.4-0.1-0.7-0.2-1
		c-0.1-0.3-0.3-0.5-0.5-0.6c-0.2-0.2-0.5-0.3-0.8-0.3c-0.3-0.1-0.6-0.1-1-0.1h-2.5v6.7h1.5V13.6z M23.2,10.8h0.8c0.1,0,0.3,0,0.4,0
		c0.2,0,0.3,0.1,0.4,0.1s0.2,0.1,0.3,0.2c0.1,0.1,0.1,0.2,0.1,0.4c0,0.2,0,0.3-0.1,0.4c-0.1,0.1-0.1,0.2-0.2,0.2
		c-0.1,0.1-0.2,0.1-0.3,0.1c-0.1,0-0.2,0-0.4,0h-1V10.8z"/>
	<rect x="36.5" y="9.5" width="1.5" height="6.7"/>
	<polygon points="45.2,14.9 42.5,14.9 42.5,9.5 41,9.5 41,16.2 45.2,16.2 	"/>
	<path d="M48.1,15.4c0.3,0.3,0.7,0.5,1.1,0.7c0.4,0.2,0.9,0.2,1.4,0.2c0.5,0,1-0.1,1.4-0.2c0.4-0.2,0.8-0.4,1.1-0.7
		c0.3-0.3,0.6-0.7,0.7-1.1c0.2-0.4,0.3-0.9,0.3-1.5c0-0.5-0.1-1-0.3-1.5c-0.2-0.4-0.4-0.8-0.7-1.1c-0.3-0.3-0.7-0.5-1.1-0.7
		c-0.4-0.2-0.9-0.2-1.4-0.2c-0.5,0-1,0.1-1.4,0.2c-0.4,0.2-0.8,0.4-1.1,0.7c-0.3,0.3-0.6,0.7-0.7,1.1c-0.2,0.4-0.3,0.9-0.3,1.5
		c0,0.5,0.1,1,0.3,1.5C47.5,14.8,47.8,15.1,48.1,15.4 M48.7,12c0.1-0.3,0.2-0.5,0.4-0.7c0.2-0.2,0.4-0.3,0.6-0.4
		c0.3-0.1,0.5-0.2,0.8-0.2c0.3,0,0.6,0.1,0.8,0.2c0.3,0.1,0.5,0.3,0.6,0.4c0.2,0.2,0.3,0.4,0.4,0.7c0.1,0.3,0.1,0.6,0.1,0.9
		c0,0.3,0,0.6-0.1,0.9c-0.1,0.3-0.2,0.5-0.4,0.7c-0.2,0.2-0.4,0.3-0.6,0.4C51.2,15,50.9,15,50.6,15c-0.3,0-0.6-0.1-0.8-0.2
		c-0.3-0.1-0.5-0.3-0.6-0.4c-0.2-0.2-0.3-0.4-0.4-0.7c-0.1-0.3-0.1-0.5-0.1-0.9C48.6,12.6,48.6,12.3,48.7,12"/>
	<polygon points="57.9,11.5 57.9,11.5 60.7,16.2 62.6,16.2 62.6,9.5 61.2,9.5 61.2,14.2 61.2,14.2 58.4,9.5 56.5,9.5 56.5,16.2 
		57.9,16.2 	"/>
	<path d="M64.6,7.7c0.5,0,0.8,0.4,0.8,0.8c0,0.5-0.4,0.8-0.8,0.8c-0.5,0-0.8-0.4-0.8-0.8C63.7,8.1,64.1,7.7,64.6,7.7 M64.6,9.2
		c0.4,0,0.7-0.3,0.7-0.7c0-0.4-0.3-0.7-0.7-0.7c-0.4,0-0.7,0.3-0.7,0.7C63.9,8.9,64.2,9.2,64.6,9.2 M64.5,8.6L64.5,8.6l-0.1,0.3
		h-0.1V8.2h0.3c0.2,0,0.3,0.1,0.3,0.2c0,0.1-0.1,0.2-0.2,0.2l0.2,0.3h-0.1L64.5,8.6z M64.6,8.5c0.1,0,0.1,0,0.1-0.1
		c0-0.1-0.1-0.1-0.1-0.1h-0.1v0.2H64.6z"/>
</g>
</svg>
