<?xml version="1.0" encoding="utf-8"?>
<!-- Generator: Adobe Illustrator 23.1.1, SVG Export Plug-In . SVG Version: 6.00 Build 0)  -->
<svg version="1.1" id="Layer_1" xmlns="http://www.w3.org/2000/svg" xmlns:xlink="http://www.w3.org/1999/xlink" x="0px" y="0px"
	 viewBox="0 0 149.7 26" style="enable-background:new 0 0 149.7 26;" xml:space="preserve">
<style type="text/css">
	.st0{fill:#14151D;}
</style>
<path class="st0" d="M90.3,17.5c2.6,0,4.5-1.4,4.5-4.6s-1.9-4.5-4.7-4.5h-2.6v9.1H90.3z M90.1,15.6L90.1,15.6L90,10.4h0.1
	c1.3,0,2.4,0.4,2.4,2.6S91.4,15.6,90.1,15.6z M97.8,17.5l0.4-1.9h2.5l0.4,1.9h2.5l-2.8-9.1h-2.9l-2.6,9.1H97.8z M100.4,13.7h-1.7
	l0.2-0.6c0.2-0.9,0.4-2,0.6-2.9l0,0c0.2,0.9,0.4,2,0.7,2.9L100.4,13.7z M108.8,17.5v-7.1h2.4v-2H104v2h2.4v7.1H108.8z M113.9,17.5
	l0.4-1.9h2.5l0.4,1.9h2.5l-2.8-9.1H114l-2.6,9.1H113.9z M116.4,13.7h-1.7l0.2-0.6c0.2-0.9,0.4-2,0.6-2.9h0.1c0.2,0.9,0.4,2,0.7,2.9
	C116.3,13.1,116.4,13.7,116.4,13.7z M126,17.5v-3.6h2.7v3.6h2.4V8.4h-2.4v3.4H126V8.4h-2.5v9.1H126z M136.8,17.7
	c2.5,0,3.7-1.5,3.7-4.6V8.4h-2.3v5c0,1.6-0.4,2.2-1.4,2.2s-1.4-0.6-1.4-2.2v-5H133v4.7C133,16.2,134.3,17.7,136.8,17.7z M146.1,17.5
	c2,0,3.6-0.8,3.6-2.7c0-1.2-0.7-1.9-1.6-2.1v-0.1c0.7-0.3,1.1-1.2,1.1-2c0-1.8-1.5-2.3-3.4-2.3h-3.3v9.2H146.1z M145.7,12h-0.8v-1.7
	h0.8c0.8,0,1.1,0.2,1.1,0.8S146.5,12,145.7,12z M145.9,15.7h-1v-1.9h1c1,0,1.4,0.3,1.4,0.9S146.8,15.7,145.9,15.7z"/>
<g>
	<path d="M0,0.1v1.5v22.9v1.5h1.5h73.4h1.5v-1.5V1.6V0.1C76.4,0.1,0,0.1,0,0.1z M74.9,24.5H1.5v-23h73.4V24.5z"/>
	<path d="M31.7,15.1c-0.1,0-0.2,0.1-0.3,0.1l0,0c-0.1,0-0.3,0.1-0.6,0c-0.3,0-0.8-0.1-1.2-0.5l0,0l-0.7,1.1c0.3,0.2,0.6,0.4,0.9,0.5
		c0.4,0.1,0.8,0.2,1.2,0.2c0.3,0,0.7,0,1-0.1s0.6-0.2,0.8-0.4c0.2-0.2,0.4-0.4,0.6-0.7c0.1-0.3,0.2-0.6,0.2-1s-0.1-0.7-0.2-0.9
		c-0.1-0.1-0.2-0.3-0.3-0.4c-0.1-0.1-0.2-0.1-0.2-0.2c-0.2-0.1-0.5-0.2-0.7-0.3c-0.3-0.1-0.5-0.2-0.7-0.2c-0.2-0.1-0.4-0.2-0.6-0.3
		s-0.2-0.3-0.2-0.5c0-0.1,0-0.2,0.1-0.3S30.9,11,31,11c0,0,0.1,0,0.1-0.1c0.1,0,0.1,0,0.2-0.1h0.1l0,0h0.1l0,0c0.2,0,0.4,0,0.6,0.1
		s0.3,0.1,0.5,0.3l0,0l0,0l0,0l0.7-1.1c-0.3-0.2-0.5-0.3-0.8-0.4c-0.4-0.1-0.7-0.2-1.1-0.2c-0.3,0-0.6,0-1,0.1
		c-0.3,0.1-0.6,0.2-0.8,0.4c-0.2,0.2-0.4,0.4-0.6,0.7c-0.1,0.3-0.2,0.6-0.2,0.9c0,0.4,0.1,0.7,0.2,0.9s0.3,0.3,0.4,0.4l0.1,0.1
		c0.2,0.1,0.5,0.2,0.8,0.3s0.5,0.2,0.8,0.2c0.2,0.1,0.4,0.2,0.6,0.3s0.2,0.3,0.2,0.5c0,0.1,0,0.2-0.1,0.3
		C31.9,14.9,31.8,15,31.7,15.1"/>
	<polygon points="18.6,15.1 15.4,15.1 15.4,13.7 18.3,13.7 18.3,12.3 15.4,12.3 15.4,11.1 18.6,11.1 18.6,9.7 13.9,9.7 13.9,16.4 
		18.6,16.4 	"/>
	<path d="M23.2,13.8h1.1c0.4,0,0.7,0,1-0.1s0.6-0.2,0.8-0.3s0.4-0.4,0.5-0.6c0.1-0.3,0.2-0.6,0.2-1s-0.1-0.7-0.2-1s-0.3-0.5-0.5-0.6
		c-0.2-0.2-0.5-0.3-0.8-0.3c-0.3-0.1-0.6-0.1-1-0.1h-2.5v6.7h1.5v-2.7H23.2z M23.2,11H24c0.1,0,0.3,0,0.4,0c0.2,0,0.3,0.1,0.4,0.1
		s0.2,0.1,0.3,0.2c0.1,0.1,0.1,0.2,0.1,0.4s0,0.3-0.1,0.4c-0.1,0.1-0.1,0.2-0.2,0.2c-0.1,0.1-0.2,0.1-0.3,0.1c-0.1,0-0.2,0-0.4,0h-1
		C23.2,12.4,23.2,11,23.2,11z"/>
	<rect x="36.5" y="9.7" width="1.5" height="6.7"/>
	<polygon points="45.2,15.1 42.5,15.1 42.5,9.7 41,9.7 41,16.4 45.2,16.4 	"/>
	<path d="M48.1,15.6c0.3,0.3,0.7,0.5,1.1,0.7c0.4,0.2,0.9,0.2,1.4,0.2s1-0.1,1.4-0.2c0.4-0.2,0.8-0.4,1.1-0.7s0.6-0.7,0.7-1.1
		c0.2-0.4,0.3-0.9,0.3-1.5c0-0.5-0.1-1-0.3-1.5c-0.2-0.4-0.4-0.8-0.7-1.1S52.4,9.9,52,9.7c-0.4-0.2-0.9-0.2-1.4-0.2s-1,0.1-1.4,0.2
		c-0.4,0.2-0.8,0.4-1.1,0.7s-0.6,0.7-0.7,1.1c-0.2,0.4-0.3,0.9-0.3,1.5c0,0.5,0.1,1,0.3,1.5C47.5,15,47.8,15.3,48.1,15.6 M48.7,12.2
		c0.1-0.3,0.2-0.5,0.4-0.7s0.4-0.3,0.6-0.4c0.3-0.1,0.5-0.2,0.8-0.2s0.6,0.1,0.8,0.2c0.3,0.1,0.5,0.3,0.6,0.4
		c0.2,0.2,0.3,0.4,0.4,0.7c0.1,0.3,0.1,0.6,0.1,0.9c0,0.3,0,0.6-0.1,0.9c-0.1,0.3-0.2,0.5-0.4,0.7s-0.4,0.3-0.6,0.4
		c-0.1,0.1-0.4,0.1-0.7,0.1c-0.3,0-0.6-0.1-0.8-0.2c-0.3-0.1-0.5-0.3-0.6-0.4c-0.2-0.2-0.3-0.4-0.4-0.7c-0.1-0.3-0.1-0.5-0.1-0.9
		C48.6,12.8,48.6,12.5,48.7,12.2"/>
	<polygon points="57.9,11.7 57.9,11.7 60.7,16.4 62.6,16.4 62.6,9.7 61.2,9.7 61.2,14.4 61.2,14.4 58.4,9.7 56.5,9.7 56.5,16.4 
		57.9,16.4 	"/>
	<path d="M64.6,7.9c0.5,0,0.8,0.4,0.8,0.8c0,0.5-0.4,0.8-0.8,0.8c-0.5,0-0.8-0.4-0.8-0.8C63.7,8.3,64.1,7.9,64.6,7.9 M64.6,9.4
		c0.4,0,0.7-0.3,0.7-0.7S65,8,64.6,8c-0.4,0-0.7,0.3-0.7,0.7C63.9,9.1,64.2,9.4,64.6,9.4 M64.5,8.8L64.5,8.8l-0.1,0.3h-0.1V8.4h0.3
		c0.2,0,0.3,0.1,0.3,0.2c0,0.1-0.1,0.2-0.2,0.2l0.2,0.3h-0.1L64.5,8.8z M64.6,8.7c0.1,0,0.1,0,0.1-0.1s-0.1-0.1-0.1-0.1h-0.1
		L64.6,8.7C64.5,8.6,64.6,8.6,64.6,8.7z"/>
</g>
</svg>
