<svg xmlns="http://www.w3.org/2000/svg" viewBox="0 0 163.60981 29.47896"><defs><style>.cls-1{fill:#191919;}</style></defs><title>Epsilon PeopleCloud Customer</title><g id="Layer_2" data-name="Layer 2"><g id="Layer_1-2" data-name="Layer 1"><path class="cls-1" d="M0,0V29.479H1.73406v0H84.96869v0h1.7341V0ZM84.96869,27.74488H1.73406V1.734H84.96869Z"/><path class="cls-1" d="M35.94093,16.981a1.3237,1.3237,0,0,1-.28515.11705l-.02763.0084a1.972,1.972,0,0,1-.69884.052,2.88534,2.88534,0,0,1-1.38769-.52711l-.00015-.00009-.00059.00089-.84331,1.28406a3.34452,3.34452,0,0,0,.99236.57266,4.27,4.27,0,0,0,2.48615.07479,2.70525,2.70525,0,0,0,.93045-.46019,2.23345,2.23345,0,0,0,.63634-.78052,2.43631,2.43631,0,0,0,.23515-1.10125,1.92288,1.92288,0,0,0-.2567-1.05879,2.0316,2.0316,0,0,0-.37046-.42546,1.95461,1.95461,0,0,0-.27637-.20551,3.463,3.463,0,0,0-.83946-.36365q-.44922-.12833-.83949-.25652a2.42648,2.42648,0,0,1-.64713-.31009.66706.66706,0,0,1-.14958-.88766.79322.79322,0,0,1,.27791-.24053,1.42338,1.42338,0,0,1,.13792-.06159,1.45915,1.45915,0,0,1,.22589-.07215c.055-.01219.10888-.02059.16249-.02746l.04526-.00519c.05294-.00538.10551-.00928.15719-.0096.00481-.00007.00982,0,.01463,0a1.97978,1.97978,0,0,1,.65229.12244,2.41618,2.41618,0,0,1,.61465.30985l.03334-.03713.00026.00015.00351.00567.02472-.03754.83919-1.27791a3.31052,3.31052,0,0,0-.90087-.44415,4.2487,4.2487,0,0,0-1.24035-.18174,3.78718,3.78718,0,0,0-1.08.155,2.79,2.79,0,0,0-.92508.46522A2.321,2.321,0,0,0,33,12.14717a2.27514,2.27514,0,0,0-.24053,1.0694,1.7727,1.7727,0,0,0,.26211,1.01586,2.05783,2.05783,0,0,0,.50428.505c.05186.03763.09752.0822.15331.11537a3.83464,3.83464,0,0,0,.85566.37427q.4593.13894.85529.27792a2.42412,2.42412,0,0,1,.65758.33688.63977.63977,0,0,1,.26211.54016.61466.61466,0,0,1-.10174.353A.80867.80867,0,0,1,35.94093,16.981Z"/><polygon class="cls-1" points="21.094 16.988 17.422 16.988 17.422 15.446 20.708 15.446 20.708 13.904 17.422 13.904 17.422 12.491 21.094 12.491 21.094 10.95 15.752 10.95 15.752 18.529 21.094 18.529 21.094 16.988"/><path class="cls-1" d="M26.2969,15.57448h1.22048a5.20457,5.20457,0,0,0,1.11325-.11231,2.39069,2.39069,0,0,0,.88863-.37994,1.82614,1.82614,0,0,0,.58874-.71748,2.58106,2.58106,0,0,0,.21417-1.11325,2.42021,2.42021,0,0,0-.23015-1.11863,1.87261,1.87261,0,0,0-.621-.70672,2.53626,2.53626,0,0,0-.91521-.3692,5.56235,5.56235,0,0,0-1.1134-.10693H24.62687v7.5792h1.67Zm0-3.21161h.85637a4.82493,4.82493,0,0,1,.49255.02688,1.46829,1.46829,0,0,1,.46567.12307.89213.89213,0,0,1,.34261.273.75164.75164,0,0,1,.13382.46567.88038.88038,0,0,1-.10171.44416.769.769,0,0,1-.26763.27839,1.1454,1.1454,0,0,1-.37472.14457,2.14382,2.14382,0,0,1-.43356.043H26.2969Z"/><rect class="cls-1" x="41.35657" y="10.95002" width="1.67003" height="7.5792"/><polygon class="cls-1" points="51.234 16.988 48.14 16.988 48.14 10.95 46.47 10.95 46.47 18.529 51.234 18.529 51.234 16.988"/><path class="cls-1" d="M54.502,17.646a3.7058,3.7058,0,0,0,1.28269.79783,4.8683,4.8683,0,0,0,3.24365,0A3.70868,3.70868,0,0,0,60.311,17.646a3.61628,3.61628,0,0,0,.84263-1.25782,4.65066,4.65066,0,0,0,0-3.297A3.62308,3.62308,0,0,0,60.311,11.833a3.71692,3.71692,0,0,0-1.28269-.79753,4.86335,4.86335,0,0,0-3.24365,0A3.714,3.714,0,0,0,54.502,11.833a3.62281,3.62281,0,0,0-.84263,1.25812,4.65051,4.65051,0,0,0,0,3.297A3.616,3.616,0,0,0,54.502,17.646Zm.73674-3.8807a2.23684,2.23684,0,0,1,.47172-.776,2.15,2.15,0,0,1,.73674-.50839,2.61655,2.61655,0,0,1,1.91862,0,2.14991,2.14991,0,0,1,.73674.50839,2.24078,2.24078,0,0,1,.47173.776,2.98858,2.98858,0,0,1,0,1.95379,2.24924,2.24924,0,0,1-.47173.77095,2.14975,2.14975,0,0,1-.73674.50838,2.62044,2.62044,0,0,1-1.91862,0,2.14984,2.14984,0,0,1-.73674-.50838,2.24524,2.24524,0,0,1-.47172-.77095,2.98909,2.98909,0,0,1,0-1.95379Z"/><polygon class="cls-1" points="65.667 13.134 65.687 13.134 68.874 18.529 70.978 18.529 70.978 10.95 69.369 10.95 69.369 16.217 69.348 16.217 66.244 10.95 64.057 10.95 64.057 18.529 65.667 18.529 65.667 13.134"/><path class="cls-1" d="M73.1901,8.8566a.95023.95023,0,1,1-.95034.95023A.95028.95028,0,0,1,73.1901,8.8566Zm0,1.689a.73876.73876,0,1,0-.73886-.73876A.73933.73933,0,0,0,73.1901,10.54559Zm-.032-.68027H73.063v.31638h-.15179V9.4192h.289c.192,0,.29985.06038.29985.22675a.19624.19624,0,0,1-.19742.21208l.19928.32367h-.15722Zm.04-.1107c.09737,0,.15344-.03375.15344-.1123,0-.073-.06354-.10111-.13105-.10111H73.0596v.21341Z"/><path class="cls-1" d="M95.46528,2.74878h2.248c1.76367,0,2.9541.59277,2.9541,2.31738,0,1.65625-1.18408,2.43164-2.90625,2.43164H96.46724v3.12207h-1.002ZM97.63521,6.6853c1.37646,0,2.0332-.499,2.0332-1.61914,0-1.13574-.69824-1.50488-2.08106-1.50488H96.46724v3.124Z"/><path class="cls-1" d="M101.44429,7.71264a2.81059,2.81059,0,0,1,2.6206-3.0664c1.48682,0,2.32617,1.06738,2.32617,2.73535a3.142,3.142,0,0,1-.04589.56055h-3.92578a1.93807,1.93807,0,0,0,1.937,2.03613,2.54478,2.54478,0,0,0,1.45068-.4668l.353.64746a3.42161,3.42161,0,0,1-1.92481.60449A2.78681,2.78681,0,0,1,101.44429,7.71264Zm4.07519-.47754c0-1.168-.52539-1.80273-1.437-1.80273A1.78753,1.78753,0,0,0,102.4106,7.2351Z"/><path class="cls-1" d="M107.39644,7.71264a2.72314,2.72314,0,1,1,5.40283,0,2.72142,2.72142,0,1,1-5.40283,0Zm4.3833,0c0-1.33593-.6792-2.24511-1.68213-2.24511-1.00244,0-1.68213.90918-1.68213,2.24511s.67969,2.2295,1.68213,2.2295C111.10054,9.94214,111.77974,9.04858,111.77974,7.71264Z"/><path class="cls-1" d="M114.33345,4.78979h.81494l.083.67285h.03271a3.071,3.071,0,0,1,1.85889-.8164c1.50586,0,2.31152,1.16894,2.31152,2.9707,0,1.98633-1.19336,3.14648-2.5249,3.14648a2.64879,2.64879,0,0,1-1.61621-.6748l.02637,1.01758v1.97363h-.98633ZM118.415,7.62573c0-1.28711-.43945-2.14941-1.53711-2.14941a2.39688,2.39688,0,0,0-1.5581.79589V9.32788a2.2808,2.2808,0,0,0,1.41943.60547C117.70405,9.93335,118.415,9.06518,118.415,7.62573Z"/><path class="cls-1" d="M120.94526,9.449V2.075h.98633V9.52124c0,.30175.13135.4209.2749.4209a.87286.87286,0,0,0,.21631-.02344l.13379.75293a1.58033,1.58033,0,0,1-.56787.09179C121.249,10.76342,120.94526,10.29174,120.94526,9.449Z"/><path class="cls-1" d="M123.57222,7.71264a2.81059,2.81059,0,0,1,2.6206-3.0664c1.48682,0,2.32617,1.06738,2.32617,2.73535a3.142,3.142,0,0,1-.04589.56055h-3.92579a1.93808,1.93808,0,0,0,1.937,2.03613,2.54478,2.54478,0,0,0,1.45068-.4668l.353.64746a3.42161,3.42161,0,0,1-1.92481.60449A2.78681,2.78681,0,0,1,123.57222,7.71264Zm4.07519-.47754c0-1.168-.52539-1.80273-1.437-1.80273a1.78752,1.78752,0,0,0-1.67187,1.80273Z"/><path class="cls-1" d="M129.59175,6.69116c0-2.53906,1.4956-4.08692,3.49316-4.08692a2.93541,2.93541,0,0,1,2.165.97071l-.54883.65234a2.14215,2.14215,0,0,0-1.59863-.74219c-1.48779,0-2.47607,1.21875-2.47607,3.17969,0,1.97852.94433,3.21875,2.437,3.21875a2.362,2.362,0,0,0,1.82422-.88379l.54883.62793a3.03548,3.03548,0,0,1-2.415,1.13574C131.061,10.76342,129.59175,9.2478,129.59175,6.69116Z"/><path class="cls-1" d="M136.809,9.449V2.075h.98633V9.52124c0,.30175.13135.4209.2749.4209a.87291.87291,0,0,0,.21631-.02344l.13379.75293a1.58033,1.58033,0,0,1-.56787.09179C137.11274,10.76342,136.809,10.29174,136.809,9.449Z"/><path class="cls-1" d="M139.4355,7.71264a2.72314,2.72314,0,1,1,5.40283,0,2.72142,2.72142,0,1,1-5.40283,0Zm4.3833,0c0-1.33593-.6792-2.24511-1.68213-2.24511-1.00244,0-1.68213.90918-1.68213,2.24511s.67969,2.2295,1.68213,2.2295C143.1396,9.94214,143.8188,9.04858,143.8188,7.71264Z"/><path class="cls-1" d="M146.2939,8.48413V4.78979h.98681V8.3562c0,1.08594.32813,1.55078,1.09961,1.55078.59619,0,1.00928-.29492,1.561-.98242V4.78979h.98633v5.83008h-.815l-.083-.91309H149.997a2.47551,2.47551,0,0,1-1.92285,1.05664C146.84565,10.76342,146.2939,9.97143,146.2939,8.48413Z"/><path class="cls-1" d="M152.4853,7.71264c0-1.8916,1.19287-3.0664,2.52246-3.0664a2.39151,2.39151,0,0,1,1.63379.6748l-.042-1V2.075h.98682v8.54492h-.81494l-.0835-.68848h-.03271a2.57969,2.57969,0,0,1-1.769.832C153.42964,10.76342,152.4853,9.655,152.4853,7.71264Zm4.11426,1.42578V6.08276a2.05286,2.05286,0,0,0-1.42187-.60644c-.93213,0-1.67334.89941-1.67334,2.22753,0,1.39747.57861,2.2295,1.60009,2.2295A2.01449,2.01449,0,0,0,156.59956,9.13842Z"/><path class="cls-1" d="M95.00581,23.35571a4.44055,4.44055,0,0,1,4.39844-4.791,4.01843,4.01843,0,0,1,2.82959,1.20508l-1.26074,1.541a2.22,2.22,0,0,0-1.5127-.67285c-1.06445,0-1.98926.98047-1.98926,2.63379,0,1.709.78467,2.66113,1.96143,2.66113a2.27476,2.27476,0,0,0,1.65283-.78418l1.26025,1.51269A3.83933,3.83933,0,0,1,99.3481,28.0061C97.0229,28.0061,95.00581,26.46508,95.00581,23.35571Z"/><path class="cls-1" d="M103.26655,23.43969v-4.706h2.40918V23.72c0,1.625.42041,2.21289,1.37256,2.21289.95264,0,1.40088-.58789,1.40088-2.21289V18.73364h2.3252v4.706c0,3.10938-1.17676,4.56641-3.72608,4.56641S103.26655,26.54907,103.26655,23.43969Z"/><path class="cls-1" d="M112.03023,26.70337l1.37255-1.65235a3.70294,3.70294,0,0,0,2.1294.88184c.72851,0,1.03662-.23828,1.03662-.64453,0-.4336-.4624-.57422-1.23291-.88184l-1.13428-.47656a2.69061,2.69061,0,0,1-1.83545-2.53516c0-1.55469,1.40088-2.83008,3.39014-2.83008a4.37732,4.37732,0,0,1,3.02539,1.21875l-1.20459,1.5127a3.00357,3.00357,0,0,0-1.8208-.6582c-.58838,0-.95264.21-.95264.61621,0,.43457.51856.58886,1.34473.91113l1.10644.43359a2.50357,2.50357,0,0,1,1.7793,2.49414c0,1.54-1.28906,2.91309-3.5581,2.91309A5.27157,5.27157,0,0,1,112.03023,26.70337Z"/><path class="cls-1" d="M121.94331,20.75024h-2.40918v-2.0166h7.22754v2.0166h-2.40918v7.08789h-2.40918Z"/><path class="cls-1" d="M127.29,23.24341c0-2.99708,1.709-4.67872,4.23047-4.67872s4.23047,1.69532,4.23047,4.67872c0,2.998-1.709,4.76269-4.23047,4.76269S127.29,26.24145,127.29,23.24341Zm5.99512,0c0-1.65235-.67188-2.60547-1.76465-2.60547s-1.76514.95312-1.76514,2.60547c0,1.65332.67237,2.68945,1.76514,2.68945S133.28511,24.89673,133.28511,23.24341Z"/><path class="cls-1" d="M137.37007,18.73364h2.57764l1.37255,3.72559c.16846.5039.3086,1.06445.47657,1.59668h.05566c.16846-.53223.30859-1.09278.47656-1.59668l1.31641-3.72559h2.57764v9.10449H144.038V25.14868a31.43405,31.43405,0,0,1,.3081-3.25H144.29l-.75635,2.18555-1.1206,3.01171h-1.28858l-1.1206-3.01171-.72852-2.18555h-.05615a31.43407,31.43407,0,0,1,.30811,3.25v2.68945h-2.15723Z"/><path class="cls-1" d="M148.23433,18.73364h5.88281v2.0166h-3.47363V22.179h2.96972v2.01758h-2.96972v1.624h3.61377v2.01758h-6.023Z"/><path class="cls-1" d="M156.01753,18.73364h3.44629c1.96094,0,3.6416.67187,3.6416,2.94141,0,2.19921-1.68066,3.10937-3.6416,3.10937H158.4272v3.05371h-2.40967Zm3.27783,4.14551c.95264,0,1.457-.41992,1.457-1.2041s-.50439-1.03711-1.457-1.03711h-.86816v2.24121Zm-.26611,1.27539,1.625-1.59766,2.95556,5.28125h-2.68945Z"/></g></g></svg>