<svg xmlns="http://www.w3.org/2000/svg" viewBox="0 0 167.75389 29.47896"><defs><style>.cls-1{fill:#191919;}</style></defs><title>Epsilon PeopleCloud Messaging</title><g id="Layer_2" data-name="Layer 2"><g id="Layer_1-2" data-name="Layer 1"><path class="cls-1" d="M0,0V29.479H1.73406v0H84.96869v0h1.7341V0ZM84.96869,27.74488H1.73406V1.734H84.96869Z"/><path class="cls-1" d="M35.94093,16.981a1.3237,1.3237,0,0,1-.28515.11705l-.02763.0084a1.972,1.972,0,0,1-.69884.052,2.88534,2.88534,0,0,1-1.38769-.52711l-.00015-.00009-.00059.00089-.84331,1.28406a3.34452,3.34452,0,0,0,.99236.57266,4.27,4.27,0,0,0,2.48615.07479,2.70525,2.70525,0,0,0,.93045-.46019,2.23345,2.23345,0,0,0,.63634-.78052,2.43631,2.43631,0,0,0,.23515-1.10125,1.92288,1.92288,0,0,0-.2567-1.05879,2.0316,2.0316,0,0,0-.37046-.42546,1.95461,1.95461,0,0,0-.27637-.20551,3.463,3.463,0,0,0-.83946-.36365q-.44922-.12833-.83949-.25652a2.42648,2.42648,0,0,1-.64713-.31009.66706.66706,0,0,1-.14958-.88766.79322.79322,0,0,1,.27791-.24053,1.42338,1.42338,0,0,1,.13792-.06159,1.45915,1.45915,0,0,1,.22589-.07215c.055-.01219.10888-.02059.16249-.02746l.04526-.00519c.05294-.00538.10551-.00928.15719-.0096.00481-.00007.00982,0,.01463,0a1.97978,1.97978,0,0,1,.65229.12244,2.41618,2.41618,0,0,1,.61465.30985l.03334-.03713.00026.00015.00351.00567.02472-.03754.83919-1.27791a3.31052,3.31052,0,0,0-.90087-.44415,4.2487,4.2487,0,0,0-1.24035-.18174,3.78718,3.78718,0,0,0-1.08.155,2.79,2.79,0,0,0-.92508.46522A2.321,2.321,0,0,0,33,12.14717a2.27514,2.27514,0,0,0-.24053,1.0694,1.7727,1.7727,0,0,0,.26211,1.01586,2.05783,2.05783,0,0,0,.50428.505c.05186.03763.09752.0822.15331.11537a3.83464,3.83464,0,0,0,.85566.37427q.4593.13894.85529.27792a2.42412,2.42412,0,0,1,.65758.33688.63977.63977,0,0,1,.26211.54016.61466.61466,0,0,1-.10174.353A.80867.80867,0,0,1,35.94093,16.981Z"/><polygon class="cls-1" points="21.094 16.988 17.422 16.988 17.422 15.446 20.708 15.446 20.708 13.904 17.422 13.904 17.422 12.491 21.094 12.491 21.094 10.95 15.752 10.95 15.752 18.529 21.094 18.529 21.094 16.988"/><path class="cls-1" d="M26.2969,15.57448h1.22048a5.20457,5.20457,0,0,0,1.11325-.11231,2.39069,2.39069,0,0,0,.88863-.37994,1.82614,1.82614,0,0,0,.58874-.71748,2.58106,2.58106,0,0,0,.21417-1.11325,2.42021,2.42021,0,0,0-.23015-1.11863,1.87261,1.87261,0,0,0-.621-.70672,2.53626,2.53626,0,0,0-.91521-.3692,5.56235,5.56235,0,0,0-1.1134-.10693H24.62687v7.5792h1.67Zm0-3.21161h.85637a4.82493,4.82493,0,0,1,.49255.02688,1.46829,1.46829,0,0,1,.46567.12307.89213.89213,0,0,1,.34261.273.75164.75164,0,0,1,.13382.46567.88038.88038,0,0,1-.10171.44416.769.769,0,0,1-.26763.27839,1.1454,1.1454,0,0,1-.37472.14457,2.14382,2.14382,0,0,1-.43356.043H26.2969Z"/><rect class="cls-1" x="41.35657" y="10.95002" width="1.67003" height="7.5792"/><polygon class="cls-1" points="51.234 16.988 48.14 16.988 48.14 10.95 46.47 10.95 46.47 18.529 51.234 18.529 51.234 16.988"/><path class="cls-1" d="M54.502,17.646a3.7058,3.7058,0,0,0,1.28269.79783,4.8683,4.8683,0,0,0,3.24365,0A3.70868,3.70868,0,0,0,60.311,17.646a3.61628,3.61628,0,0,0,.84263-1.25782,4.65066,4.65066,0,0,0,0-3.297A3.62308,3.62308,0,0,0,60.311,11.833a3.71692,3.71692,0,0,0-1.28269-.79753,4.86335,4.86335,0,0,0-3.24365,0A3.714,3.714,0,0,0,54.502,11.833a3.62281,3.62281,0,0,0-.84263,1.25812,4.65051,4.65051,0,0,0,0,3.297A3.616,3.616,0,0,0,54.502,17.646Zm.73674-3.8807a2.23684,2.23684,0,0,1,.47172-.776,2.15,2.15,0,0,1,.73674-.50839,2.61655,2.61655,0,0,1,1.91862,0,2.14991,2.14991,0,0,1,.73674.50839,2.24078,2.24078,0,0,1,.47173.776,2.98858,2.98858,0,0,1,0,1.95379,2.24924,2.24924,0,0,1-.47173.77095,2.14975,2.14975,0,0,1-.73674.50838,2.62044,2.62044,0,0,1-1.91862,0,2.14984,2.14984,0,0,1-.73674-.50838,2.24524,2.24524,0,0,1-.47172-.77095,2.98909,2.98909,0,0,1,0-1.95379Z"/><polygon class="cls-1" points="65.667 13.134 65.687 13.134 68.874 18.529 70.978 18.529 70.978 10.95 69.369 10.95 69.369 16.217 69.348 16.217 66.244 10.95 64.057 10.95 64.057 18.529 65.667 18.529 65.667 13.134"/><path class="cls-1" d="M73.1901,8.8566a.95023.95023,0,1,1-.95034.95023A.95028.95028,0,0,1,73.1901,8.8566Zm0,1.689a.73876.73876,0,1,0-.73886-.73876A.73933.73933,0,0,0,73.1901,10.54559Zm-.032-.68027H73.063v.31638h-.15179V9.4192h.289c.192,0,.29985.06038.29985.22675a.19624.19624,0,0,1-.19742.21208l.19928.32367h-.15722Zm.04-.1107c.09737,0,.15344-.03375.15344-.1123,0-.073-.06354-.10111-.13105-.10111H73.0596v.21341Z"/><path class="cls-1" d="M95.46531,2.74907h2.248c1.76367,0,2.9541.59278,2.9541,2.31739,0,1.65625-1.18408,2.43164-2.90625,2.43164H96.46727v3.12207h-1.002ZM97.63524,6.6856c1.37646,0,2.0332-.499,2.0332-1.61914,0-1.13575-.69824-1.50489-2.08106-1.50489H96.46727v3.124Z"/><path class="cls-1" d="M101.44432,7.71294a2.81059,2.81059,0,0,1,2.6206-3.0664c1.48682,0,2.32618,1.06738,2.32618,2.73535a3.14179,3.14179,0,0,1-.0459.56054h-3.92578a1.93807,1.93807,0,0,0,1.937,2.03614,2.54478,2.54478,0,0,0,1.45068-.4668l.353.64746a3.42161,3.42161,0,0,1-1.92481.60449A2.78681,2.78681,0,0,1,101.44432,7.71294Zm4.07519-.47754c0-1.168-.52539-1.80273-1.437-1.80273a1.78752,1.78752,0,0,0-1.67187,1.80273Z"/><path class="cls-1" d="M107.39647,7.71294a2.72314,2.72314,0,1,1,5.40283,0,2.72142,2.72142,0,1,1-5.40283,0Zm4.3833,0c0-1.33594-.6792-2.24512-1.68213-2.24512-1.00244,0-1.68213.90918-1.68213,2.24512s.67969,2.22949,1.68213,2.22949C111.10057,9.94243,111.77977,9.04888,111.77977,7.71294Z"/><path class="cls-1" d="M114.33348,4.79009h.81494l.083.67285h.03271a3.071,3.071,0,0,1,1.85889-.8164c1.50586,0,2.31152,1.16894,2.31152,2.9707,0,1.98633-1.19336,3.14648-2.5249,3.14648a2.64881,2.64881,0,0,1-1.61621-.6748l.02637,1.01758v1.97363h-.98633ZM118.415,7.626c0-1.28711-.43945-2.14942-1.53711-2.14942a2.3969,2.3969,0,0,0-1.5581.7959V9.32818a2.28078,2.28078,0,0,0,1.41943.60546C117.70408,9.93364,118.415,9.06548,118.415,7.626Z"/><path class="cls-1" d="M120.94529,9.44927v-7.374h.98633V9.52154c0,.30175.13135.42089.2749.42089a.87322.87322,0,0,0,.21631-.02343l.13379.75293a1.58033,1.58033,0,0,1-.56787.09179C121.249,10.76372,120.94529,10.292,120.94529,9.44927Z"/><path class="cls-1" d="M123.57225,7.71294a2.81059,2.81059,0,0,1,2.6206-3.0664c1.48682,0,2.32617,1.06738,2.32617,2.73535a3.14188,3.14188,0,0,1-.04589.56054h-3.92578a1.93807,1.93807,0,0,0,1.937,2.03614,2.54478,2.54478,0,0,0,1.45068-.4668l.353.64746a3.42161,3.42161,0,0,1-1.92481.60449A2.78681,2.78681,0,0,1,123.57225,7.71294Zm4.07519-.47754c0-1.168-.52539-1.80273-1.437-1.80273a1.78751,1.78751,0,0,0-1.67187,1.80273Z"/><path class="cls-1" d="M129.59178,6.69146c0-2.53907,1.4956-4.08692,3.49316-4.08692a2.93541,2.93541,0,0,1,2.165.97071l-.54883.65234a2.14212,2.14212,0,0,0-1.59863-.74219c-1.48779,0-2.47607,1.21875-2.47607,3.17969,0,1.97852.94433,3.21875,2.437,3.21875a2.362,2.362,0,0,0,1.82422-.88379l.54883.62793a3.03548,3.03548,0,0,1-2.415,1.13574C131.061,10.76372,129.59178,9.2481,129.59178,6.69146Z"/><path class="cls-1" d="M136.80906,9.44927v-7.374h.98633V9.52154c0,.30175.13135.42089.2749.42089a.87326.87326,0,0,0,.21631-.02343l.13379.75293a1.58033,1.58033,0,0,1-.56787.09179C137.11277,10.76372,136.80906,10.292,136.80906,9.44927Z"/><path class="cls-1" d="M139.43553,7.71294a2.72314,2.72314,0,1,1,5.40283,0,2.72142,2.72142,0,1,1-5.40283,0Zm4.3833,0c0-1.33594-.6792-2.24512-1.68213-2.24512-1.00244,0-1.68213.90918-1.68213,2.24512s.67969,2.22949,1.68213,2.22949C143.13963,9.94243,143.81883,9.04888,143.81883,7.71294Z"/><path class="cls-1" d="M146.29393,8.48443V4.79009h.98681V8.3565c0,1.08593.32813,1.55078,1.09961,1.55078.59619,0,1.00928-.29492,1.561-.98242V4.79009h.98633v5.83008h-.81495l-.083-.91309h-.03272a2.47551,2.47551,0,0,1-1.92285,1.05664C146.84568,10.76372,146.29393,9.97173,146.29393,8.48443Z"/><path class="cls-1" d="M152.48533,7.71294c0-1.8916,1.19287-3.0664,2.52246-3.0664a2.39151,2.39151,0,0,1,1.63379.6748l-.042-1V2.07525h.98682v8.54492h-.81494l-.0835-.68848h-.03271a2.57969,2.57969,0,0,1-1.769.832C153.42967,10.76372,152.48533,9.65532,152.48533,7.71294Zm4.11426,1.42578V6.08306a2.05287,2.05287,0,0,0-1.42187-.60645c-.93213,0-1.67334.89942-1.67334,2.22754,0,1.39746.57861,2.22949,1.60009,2.22949A2.01448,2.01448,0,0,0,156.59959,9.13872Z"/><path class="cls-1" d="M95.39842,18.379h2.57715l1.37256,3.72558c.16845.50391.3081,1.06446.47656,1.59668h.05615c.168-.53222.30811-1.09277.47608-1.59668l1.31689-3.72558H104.251v9.10449H102.0659V24.794a31.4313,31.4313,0,0,1,.30811-3.25h-.05616l-.75634,2.18554-1.12061,3.01172H99.15233l-1.12061-3.01172L97.3032,21.544h-.05615a31.4313,31.4313,0,0,1,.30811,3.25v2.68945H95.39842Z"/><path class="cls-1" d="M106.2617,18.379h5.8833v2.0166h-3.47363v1.42871h2.96924v2.01758h-2.96924v1.624h3.61377v2.01758H106.2617Z"/><path class="cls-1" d="M113.48582,26.34868l1.37256-1.65234a3.70294,3.70294,0,0,0,2.12939.88184c.72852,0,1.03663-.23829,1.03663-.64454,0-.43359-.46241-.57421-1.23291-.88183l-1.13428-.47656a2.69019,2.69019,0,0,1-1.835-2.53516c0-1.55469,1.40039-2.83008,3.38965-2.83008a4.37734,4.37734,0,0,1,3.02539,1.21875l-1.20459,1.5127a3.00352,3.00352,0,0,0-1.8208-.65821c-.58838,0-.95264.21-.95264.61621,0,.43458.51855.58887,1.34473.91114l1.10644.43359a2.50356,2.50356,0,0,1,1.7793,2.49414c0,1.54-1.28858,2.91309-3.55811,2.91309A5.27155,5.27155,0,0,1,113.48582,26.34868Z"/><path class="cls-1" d="M121.10154,26.34868l1.37256-1.65234a3.70294,3.70294,0,0,0,2.1294.88184c.72851,0,1.03662-.23829,1.03662-.64454,0-.43359-.4624-.57421-1.23291-.88183l-1.13428-.47656a2.69061,2.69061,0,0,1-1.83545-2.53516c0-1.55469,1.40088-2.83008,3.39014-2.83008a4.37732,4.37732,0,0,1,3.02539,1.21875l-1.20459,1.5127a3.00352,3.00352,0,0,0-1.8208-.65821c-.58838,0-.95264.21-.95264.61621,0,.43458.51856.58887,1.34473.91114l1.10644.43359a2.50356,2.50356,0,0,1,1.7793,2.49414c0,1.54-1.28906,2.91309-3.5581,2.91309A5.27157,5.27157,0,0,1,121.10154,26.34868Z"/><path class="cls-1" d="M131.1826,18.379h2.91357l2.77344,9.10449h-2.54932l-1.03662-4.42676c-.22412-.86816-.44824-1.97461-.67236-2.88476h-.05566c-.19629.92382-.42041,2.0166-.64454,2.88476l-1.03662,4.42676h-2.46533Zm-.78418,5.30859h4.4541v1.86328h-4.4541Z"/><path class="cls-1" d="M137.20164,23.001a4.46763,4.46763,0,0,1,4.53858-4.791,4.107,4.107,0,0,1,2.96972,1.20508l-1.26074,1.541a2.27791,2.27791,0,0,0-1.625-.67286c-1.23242,0-2.15723.98047-2.15723,2.63379,0,1.709.75635,2.66114,2.38135,2.66114a1.36363,1.36363,0,0,0,.70069-.168V24.14946h-1.34473V22.18853h3.47363V26.5313a4.59979,4.59979,0,0,1-3.08154,1.12012A4.30689,4.30689,0,0,1,137.20164,23.001Z"/><path class="cls-1" d="M146.63768,18.379h2.40967v9.10449h-2.40967Z"/><path class="cls-1" d="M151.06151,18.379h2.46582l2.0166,4.06152.86865,2.04492h.05615a32.61386,32.61386,0,0,1-.3081-3.47363V18.379H158.458v9.10449h-2.46582l-2.0166-4.07617-.86865-2.03125h-.05616a34.02,34.02,0,0,1,.30811,3.47363v2.63379h-2.29736Z"/><path class="cls-1" d="M160.07762,23.001a4.46762,4.46762,0,0,1,4.53857-4.791,4.107,4.107,0,0,1,2.96973,1.20508l-1.26074,1.541a2.27794,2.27794,0,0,0-1.625-.67286c-1.23242,0-2.15723.98047-2.15723,2.63379,0,1.709.75635,2.66114,2.38135,2.66114a1.3636,1.3636,0,0,0,.70068-.168V24.14946h-1.34472V22.18853h3.47363V26.5313a4.59979,4.59979,0,0,1-3.08154,1.12012A4.30689,4.30689,0,0,1,160.07762,23.001Z"/></g></g></svg>