<?xml version="1.0" encoding="utf-8"?>
<!-- Generator: Adobe Illustrator 23.1.1, SVG Export Plug-In . SVG Version: 6.00 Build 0)  -->
<svg version="1.1" id="Layer_1" xmlns="http://www.w3.org/2000/svg" xmlns:xlink="http://www.w3.org/1999/xlink" x="0px" y="0px"
	 viewBox="0 0 100 26" style="enable-background:new 0 0 100 26;" xml:space="preserve">
<style type="text/css">
	.st0{fill:#14151D;}
</style>
<g>
	<path class="st0" d="M89.4,16.3V7.2H87v9.1H89.4z M98.3,18.9c0.8,0,1.4-0.1,1.7-0.3l-0.4-1.7c-0.3,0.1-0.6,0.2-1,0.2
		c-0.7,0-1.5-0.2-1.9-0.8c1.7-0.6,2.8-2.2,2.8-4.5c0-3-1.7-4.7-4.2-4.7S91,8.7,91,11.7c0,2.5,1.2,4.2,3.1,4.6
		C94.9,17.9,96.3,18.9,98.3,18.9z M95.3,14.5c-1.1,0-1.8-1-1.8-2.8c0-1.7,0.7-2.6,1.8-2.6s1.8,1,1.8,2.6
		C97,13.5,96.4,14.5,95.3,14.5z"/>
	<g>
		<path d="M0,0v1.5v22.9V26h1.5h73.4h1.5v-1.5v-23V0H0z M74.9,24.5H1.5v-23h73.4V24.5z"/>
		<path d="M31.7,15c-0.1,0-0.2,0.1-0.3,0.1l0,0c-0.1,0-0.3,0.1-0.6,0c-0.3,0-0.8-0.1-1.2-0.5l0,0l-0.7,1.1c0.3,0.2,0.6,0.4,0.9,0.5
			c0.4,0.1,0.8,0.2,1.2,0.2c0.3,0,0.7,0,1-0.1s0.6-0.2,0.8-0.4c0.2-0.2,0.4-0.4,0.6-0.7c0.1-0.3,0.2-0.6,0.2-1s-0.1-0.7-0.2-0.9
			c-0.1-0.1-0.2-0.3-0.3-0.4c-0.1-0.1-0.2-0.1-0.2-0.2c-0.2-0.1-0.5-0.2-0.7-0.3c-0.3-0.1-0.5-0.2-0.7-0.2c-0.2-0.1-0.4-0.2-0.6-0.3
			s-0.2-0.3-0.2-0.5c0-0.1,0-0.2,0.1-0.3s0.1-0.2,0.2-0.2c0,0,0.1,0,0.1-0.1c0.1,0,0.1,0,0.2-0.1h0.1l0,0h0.1l0,0
			c0.2,0,0.4,0,0.6,0.1s0.3,0.1,0.5,0.3l0,0l0,0l0,0l0.7-1.1c-0.3-0.2-0.5-0.3-0.8-0.4c-0.4-0.1-0.7-0.2-1.1-0.2c-0.3,0-0.6,0-1,0.1
			c-0.3,0.1-0.6,0.2-0.8,0.4c-0.2,0.2-0.4,0.4-0.6,0.7c-0.1,0.3-0.2,0.6-0.2,0.9c0,0.4,0.1,0.7,0.2,0.9s0.3,0.3,0.4,0.4l0.1,0.1
			c0.2,0.1,0.5,0.2,0.8,0.3s0.5,0.2,0.8,0.2c0.2,0.1,0.4,0.2,0.6,0.3s0.2,0.3,0.2,0.5c0,0.1,0,0.2-0.1,0.3
			C31.9,14.8,31.8,14.9,31.7,15"/>
		<polygon points="18.6,15 15.4,15 15.4,13.6 18.3,13.6 18.3,12.3 15.4,12.3 15.4,11 18.6,11 18.6,9.7 13.9,9.7 13.9,16.3 
			18.6,16.3 		"/>
		<path d="M23.2,13.7h1.1c0.4,0,0.7,0,1-0.1s0.6-0.2,0.8-0.3s0.4-0.4,0.5-0.6c0.1-0.3,0.2-0.6,0.2-1s-0.1-0.7-0.2-1
			s-0.3-0.5-0.5-0.6c-0.2-0.2-0.5-0.3-0.8-0.3c-0.3-0.1-0.6-0.1-1-0.1h-2.5v6.7h1.5v-2.7H23.2z M23.2,10.9H24c0.1,0,0.3,0,0.4,0
			c0.2,0,0.3,0.1,0.4,0.1c0.1,0.1,0.2,0.1,0.3,0.2c0.1,0.1,0.1,0.2,0.1,0.4s0,0.3-0.1,0.4c-0.1,0.1-0.1,0.2-0.2,0.2
			c-0.1,0.1-0.2,0.1-0.3,0.1c-0.1,0-0.2,0-0.4,0h-1C23.2,12.3,23.2,10.9,23.2,10.9z"/>
		<rect x="36.5" y="9.7" width="1.5" height="6.7"/>
		<polygon points="45.2,15 42.5,15 42.5,9.7 41,9.7 41,16.3 45.2,16.3 		"/>
		<path d="M48.1,15.6c0.3,0.3,0.7,0.5,1.1,0.7c0.4,0.2,0.9,0.2,1.4,0.2s1-0.1,1.4-0.2c0.4-0.2,0.8-0.4,1.1-0.7s0.6-0.7,0.7-1.1
			c0.2-0.4,0.3-0.9,0.3-1.5c0-0.5-0.1-1-0.3-1.5c-0.2-0.4-0.4-0.8-0.7-1.1S52.4,9.9,52,9.7c-0.4-0.2-0.9-0.2-1.4-0.2s-1,0.1-1.4,0.2
			c-0.4,0.2-0.8,0.4-1.1,0.7s-0.6,0.7-0.7,1.1c-0.2,0.4-0.3,0.9-0.3,1.5c0,0.5,0.1,1,0.3,1.5C47.5,14.9,47.8,15.3,48.1,15.6
			 M48.7,12.1c0.1-0.3,0.2-0.5,0.4-0.7s0.4-0.3,0.6-0.4c0.3-0.1,0.5-0.2,0.8-0.2s0.6,0.1,0.8,0.2c0.3,0.1,0.5,0.3,0.6,0.4
			c0.2,0.2,0.3,0.4,0.4,0.7c0.1,0.3,0.1,0.6,0.1,0.9c0,0.3,0,0.6-0.1,0.9c-0.1,0.3-0.2,0.5-0.4,0.7s-0.4,0.3-0.6,0.4
			c-0.3,0.1-0.5,0.2-0.8,0.2s-0.6-0.1-0.8-0.2c-0.3-0.1-0.5-0.3-0.6-0.4c-0.2-0.2-0.3-0.4-0.4-0.7c-0.1-0.3-0.1-0.5-0.1-0.9
			C48.6,12.7,48.6,12.4,48.7,12.1"/>
		<polygon points="57.9,11.6 57.9,11.6 60.7,16.3 62.6,16.3 62.6,9.7 61.2,9.7 61.2,14.3 61.2,14.3 58.4,9.7 56.5,9.7 56.5,16.3 
			57.9,16.3 		"/>
		<path d="M64.6,7.8c0.5,0,0.8,0.4,0.8,0.8c0,0.5-0.4,0.8-0.8,0.8c-0.5,0-0.8-0.4-0.8-0.8C63.7,8.2,64.1,7.8,64.6,7.8 M64.6,9.3
			c0.4,0,0.7-0.3,0.7-0.7S65,7.9,64.6,7.9c-0.4,0-0.7,0.3-0.7,0.7C63.9,9,64.2,9.3,64.6,9.3 M64.5,8.7L64.5,8.7L64.4,9h-0.1V8.3h0.3
			c0.2,0,0.3,0.1,0.3,0.2c0,0.1-0.1,0.2-0.2,0.2L64.8,9h-0.1L64.5,8.7z M64.6,8.6c0.1,0,0.1,0,0.1-0.1s-0.1-0.1-0.1-0.1h-0.1
			L64.6,8.6C64.5,8.6,64.6,8.6,64.6,8.6z"/>
	</g>
</g>
</svg>
