<svg xmlns="http://www.w3.org/2000/svg" viewBox="0 0 155.57442 29.47896"><defs><style>.cls-1{fill:#191919;}</style></defs><title>Epsilon Data Hub</title><g id="Layer_2" data-name="Layer 2"><g id="Layer_1-2" data-name="Layer 1"><path class="cls-1" d="M0,0V29.479H1.73406v0H84.96869v0h1.7341V0ZM84.96869,27.74488H1.73406V1.734H84.96869Z"/><path class="cls-1" d="M35.94093,16.981a1.3237,1.3237,0,0,1-.28515.11705l-.02763.0084a1.972,1.972,0,0,1-.69884.052,2.88534,2.88534,0,0,1-1.38769-.52711l-.00015-.00009-.00059.00089-.84331,1.28406a3.34452,3.34452,0,0,0,.99236.57266,4.27,4.27,0,0,0,2.48615.07479,2.70525,2.70525,0,0,0,.93045-.46019,2.23345,2.23345,0,0,0,.63634-.78052,2.43631,2.43631,0,0,0,.23515-1.10125,1.92288,1.92288,0,0,0-.2567-1.05879,2.0316,2.0316,0,0,0-.37046-.42546,1.95461,1.95461,0,0,0-.27637-.20551,3.463,3.463,0,0,0-.83946-.36365q-.44922-.12833-.83949-.25652a2.42648,2.42648,0,0,1-.64713-.31009.66706.66706,0,0,1-.14958-.88766.79322.79322,0,0,1,.27791-.24053,1.42338,1.42338,0,0,1,.13792-.06159,1.45915,1.45915,0,0,1,.22589-.07215c.055-.01219.10888-.02059.16249-.02746l.04526-.00519c.05294-.00538.10551-.00928.15719-.0096.00481-.00007.00982,0,.01463,0a1.97978,1.97978,0,0,1,.65229.12244,2.41618,2.41618,0,0,1,.61465.30985l.03334-.03713.00026.00015.00351.00567.02472-.03754.83919-1.27791a3.31052,3.31052,0,0,0-.90087-.44415,4.2487,4.2487,0,0,0-1.24035-.18174,3.78718,3.78718,0,0,0-1.08.155,2.79,2.79,0,0,0-.92508.46522A2.321,2.321,0,0,0,33,12.14717a2.27514,2.27514,0,0,0-.24053,1.0694,1.7727,1.7727,0,0,0,.26211,1.01586,2.05783,2.05783,0,0,0,.50428.505c.05186.03763.09752.0822.15331.11537a3.83464,3.83464,0,0,0,.85566.37427q.4593.13894.85529.27792a2.42412,2.42412,0,0,1,.65758.33688.63977.63977,0,0,1,.26211.54016.61466.61466,0,0,1-.10174.353A.80867.80867,0,0,1,35.94093,16.981Z"/><polygon class="cls-1" points="21.094 16.988 17.422 16.988 17.422 15.446 20.708 15.446 20.708 13.904 17.422 13.904 17.422 12.491 21.094 12.491 21.094 10.95 15.752 10.95 15.752 18.529 21.094 18.529 21.094 16.988"/><path class="cls-1" d="M26.2969,15.57448h1.22048a5.20457,5.20457,0,0,0,1.11325-.11231,2.39069,2.39069,0,0,0,.88863-.37994,1.82614,1.82614,0,0,0,.58874-.71748,2.58106,2.58106,0,0,0,.21417-1.11325,2.42021,2.42021,0,0,0-.23015-1.11863,1.87261,1.87261,0,0,0-.621-.70672,2.53626,2.53626,0,0,0-.91521-.3692,5.56235,5.56235,0,0,0-1.1134-.10693H24.62687v7.5792h1.67Zm0-3.21161h.85637a4.82493,4.82493,0,0,1,.49255.02688,1.46829,1.46829,0,0,1,.46567.12307.89213.89213,0,0,1,.34261.273.75164.75164,0,0,1,.13382.46567.88038.88038,0,0,1-.10171.44416.769.769,0,0,1-.26763.27839,1.1454,1.1454,0,0,1-.37472.14457,2.14382,2.14382,0,0,1-.43356.043H26.2969Z"/><rect class="cls-1" x="41.35657" y="10.95002" width="1.67003" height="7.5792"/><polygon class="cls-1" points="51.234 16.988 48.14 16.988 48.14 10.95 46.47 10.95 46.47 18.529 51.234 18.529 51.234 16.988"/><path class="cls-1" d="M54.502,17.646a3.7058,3.7058,0,0,0,1.28269.79783,4.8683,4.8683,0,0,0,3.24365,0A3.70868,3.70868,0,0,0,60.311,17.646a3.61628,3.61628,0,0,0,.84263-1.25782,4.65066,4.65066,0,0,0,0-3.297A3.62308,3.62308,0,0,0,60.311,11.833a3.71692,3.71692,0,0,0-1.28269-.79753,4.86335,4.86335,0,0,0-3.24365,0A3.714,3.714,0,0,0,54.502,11.833a3.62281,3.62281,0,0,0-.84263,1.25812,4.65051,4.65051,0,0,0,0,3.297A3.616,3.616,0,0,0,54.502,17.646Zm.73674-3.8807a2.23684,2.23684,0,0,1,.47172-.776,2.15,2.15,0,0,1,.73674-.50839,2.61655,2.61655,0,0,1,1.91862,0,2.14991,2.14991,0,0,1,.73674.50839,2.24078,2.24078,0,0,1,.47173.776,2.98858,2.98858,0,0,1,0,1.95379,2.24924,2.24924,0,0,1-.47173.77095,2.14975,2.14975,0,0,1-.73674.50838,2.62044,2.62044,0,0,1-1.91862,0,2.14984,2.14984,0,0,1-.73674-.50838,2.24524,2.24524,0,0,1-.47172-.77095,2.98909,2.98909,0,0,1,0-1.95379Z"/><polygon class="cls-1" points="65.667 13.134 65.687 13.134 68.874 18.529 70.978 18.529 70.978 10.95 69.369 10.95 69.369 16.217 69.348 16.217 66.244 10.95 64.057 10.95 64.057 18.529 65.667 18.529 65.667 13.134"/><path class="cls-1" d="M73.1901,8.8566a.95023.95023,0,1,1-.95034.95023A.95028.95028,0,0,1,73.1901,8.8566Zm0,1.689a.73876.73876,0,1,0-.73886-.73876A.73933.73933,0,0,0,73.1901,10.54559Zm-.032-.68027H73.063v.31638h-.15179V9.4192h.289c.192,0,.29985.06038.29985.22675a.19624.19624,0,0,1-.19742.21208l.19928.32367h-.15722Zm.04-.1107c.09737,0,.15344-.03375.15344-.1123,0-.073-.06354-.10111-.13105-.10111H73.0596v.21341Z"/><path class="cls-1" d="M95.39864,10.4289h2.68945c2.77344,0,4.67823,1.28808,4.67823,4.50976s-1.90479,4.59473-4.53858,4.59473h-2.8291ZM97.948,17.60077c1.3164,0,2.353-.53222,2.353-2.66211,0-2.1289-1.03662-2.57715-2.353-2.57715h-.14014v5.23926Z"/><path class="cls-1" d="M105.8713,10.4289h2.91357l2.77344,9.10449H109.009l-1.03662-4.42676c-.22412-.86816-.44824-1.97461-.67236-2.88476h-.05567c-.19629.92382-.42041,2.0166-.64453,2.88476l-1.03662,4.42676h-2.46533Zm-.78418,5.30859h4.4541v1.86328h-4.4541Z"/><path class="cls-1" d="M113.03975,12.4455h-2.40966V10.4289h7.228v2.0166h-2.40918v7.08789h-2.40918Z"/><path class="cls-1" d="M120.26339,10.4289H123.177l2.77344,9.10449h-2.54932l-1.03662-4.42676c-.22412-.86816-.44824-1.97461-.67236-2.88476h-.05567c-.19629.92382-.42041,2.0166-.64453,2.88476l-1.03662,4.42676H117.49Zm-.78418,5.30859h4.4541v1.86328h-4.4541Z"/><path class="cls-1" d="M129.47481,10.4289H131.884v3.38965h2.71729V10.4289h2.40918v9.10449h-2.40918V15.91913H131.884v3.61426h-2.40918Z"/><path class="cls-1" d="M138.96651,15.135v-4.706h2.40918v4.98632c0,1.625.42041,2.2129,1.37256,2.2129.95264,0,1.40088-.5879,1.40088-2.2129V10.4289h2.32519v4.706c0,3.10938-1.17627,4.56641-3.72607,4.56641C140.19893,19.70136,138.96651,18.24433,138.96651,15.135Z"/><path class="cls-1" d="M148.43087,10.4289h3.27734c1.90527,0,3.44629.47558,3.44629,2.26855a2.16144,2.16144,0,0,1-1.14893,1.96094V14.715a2.07311,2.07311,0,0,1,1.56885,2.12891c0,1.877-1.625,2.68945-3.58594,2.68945h-3.55761Zm3.22168,3.55761c.78418,0,1.14843-.36425,1.14843-.9248s-.36425-.78418-1.14843-.78418h-.8125v1.709Zm.168,3.69825c.95264,0,1.40088-.33692,1.40088-1.00879,0-.67285-.44824-.92481-1.40088-.92481h-.98046v1.9336Z"/></g></g></svg>