<svg xmlns="http://www.w3.org/2000/svg" viewBox="0 0 157.58628 29.47896"><defs><style>.cls-1{fill:#191919;}</style></defs><title>Epsilon PeopleCloud Product</title><g id="Layer_2" data-name="Layer 2"><g id="Layer_1-2" data-name="Layer 1"><path class="cls-1" d="M95.46518,2.422h2.248c1.76367,0,2.9541.59278,2.9541,2.31739,0,1.65625-1.18408,2.43164-2.90625,2.43164h-1.294V10.293H95.46518ZM97.6351,6.35848c1.37647,0,2.03321-.499,2.03321-1.61914,0-1.13575-.69825-1.50489-2.08106-1.50489H96.46713v3.124Z"/><path class="cls-1" d="M101.44419,7.38582a2.8106,2.8106,0,0,1,2.6206-3.06641c1.48682,0,2.32617,1.06739,2.32617,2.73536a3.14179,3.14179,0,0,1-.0459.56054h-3.92578a1.93809,1.93809,0,0,0,1.937,2.03614,2.54478,2.54478,0,0,0,1.45069-.4668l.353.64746a3.42161,3.42161,0,0,1-1.92481.60449A2.78681,2.78681,0,0,1,101.44419,7.38582Zm4.07519-.47754c0-1.168-.52539-1.80273-1.437-1.80273a1.78752,1.78752,0,0,0-1.67188,1.80273Z"/><path class="cls-1" d="M107.39633,7.38582a2.72314,2.72314,0,1,1,5.40284,0,2.72142,2.72142,0,1,1-5.40284,0Zm4.3833,0c0-1.33594-.67919-2.24512-1.68212-2.24512-1.00245,0-1.68213.90918-1.68213,2.24512s.67968,2.22949,1.68213,2.22949C111.10044,9.61531,111.77963,8.72176,111.77963,7.38582Z"/><path class="cls-1" d="M114.33335,4.463h.81494l.083.67285h.03272a3.071,3.071,0,0,1,1.85889-.81641c1.50586,0,2.31152,1.16895,2.31152,2.97071,0,1.98633-1.19336,3.14648-2.5249,3.14648a2.64879,2.64879,0,0,1-1.61621-.6748l.02636,1.01757V12.753h-.98632Zm4.08154,2.83594c0-1.28711-.43945-2.14942-1.53711-2.14942a2.39694,2.39694,0,0,0-1.55811.7959V9.00105a2.28077,2.28077,0,0,0,1.41944.60547C117.704,9.60652,118.41489,8.73836,118.41489,7.29891Z"/><path class="cls-1" d="M120.94516,9.12215v-7.374h.98633V9.19441c0,.30176.13135.4209.2749.4209a.87291.87291,0,0,0,.21631-.02344l.13379.75293a1.58011,1.58011,0,0,1-.56787.0918C121.24887,10.4366,120.94516,9.96492,120.94516,9.12215Z"/><path class="cls-1" d="M123.57212,7.38582a2.8106,2.8106,0,0,1,2.6206-3.06641c1.48682,0,2.32617,1.06739,2.32617,2.73536a3.14179,3.14179,0,0,1-.0459.56054h-3.92578a1.93809,1.93809,0,0,0,1.937,2.03614,2.54478,2.54478,0,0,0,1.45069-.4668l.353.64746a3.42161,3.42161,0,0,1-1.92481.60449A2.78681,2.78681,0,0,1,123.57212,7.38582Zm4.07519-.47754c0-1.168-.52539-1.80273-1.437-1.80273a1.78752,1.78752,0,0,0-1.67188,1.80273Z"/><path class="cls-1" d="M129.59165,6.36434c0-2.53907,1.4956-4.08692,3.49316-4.08692a2.93544,2.93544,0,0,1,2.165.9707l-.54883.65235a2.14212,2.14212,0,0,0-1.59863-.74219c-1.48779,0-2.47608,1.21875-2.47608,3.17969,0,1.97851.94434,3.21875,2.437,3.21875a2.362,2.362,0,0,0,1.82421-.88379l.54883.62793a3.03546,3.03546,0,0,1-2.415,1.13574C131.06088,10.4366,129.59165,8.921,129.59165,6.36434Z"/><path class="cls-1" d="M136.80893,9.12215v-7.374h.98633V9.19441c0,.30176.13135.4209.2749.4209a.87291.87291,0,0,0,.21631-.02344l.13379.75293a1.58011,1.58011,0,0,1-.56787.0918C137.11264,10.4366,136.80893,9.96492,136.80893,9.12215Z"/><path class="cls-1" d="M139.4354,7.38582a2.72314,2.72314,0,1,1,5.40283,0,2.72142,2.72142,0,1,1-5.40283,0Zm4.3833,0c0-1.33594-.6792-2.24512-1.68213-2.24512-1.00244,0-1.68213.90918-1.68213,2.24512s.67969,2.22949,1.68213,2.22949C143.1395,9.61531,143.8187,8.72176,143.8187,7.38582Z"/><path class="cls-1" d="M146.29379,8.1573V4.463h.98682v3.5664c0,1.08594.32813,1.55079,1.09961,1.55079.59619,0,1.00928-.29493,1.561-.98243V4.463h.98632V10.293h-.81494l-.083-.91309h-.03271a2.47551,2.47551,0,0,1-1.92285,1.05664C146.84555,10.4366,146.29379,9.64461,146.29379,8.1573Z"/><path class="cls-1" d="M152.4852,7.38582c0-1.8916,1.19287-3.06641,2.52246-3.06641a2.39152,2.39152,0,0,1,1.63379.67481l-.042-1V1.74812h.98682V10.293h-.81495l-.08349-.68848h-.03272a2.57966,2.57966,0,0,1-1.769.832C153.42954,10.4366,152.4852,9.3282,152.4852,7.38582Zm4.11426,1.42578V5.75594a2.05288,2.05288,0,0,0-1.42188-.60645c-.93212,0-1.67334.89942-1.67334,2.22754,0,1.39746.57862,2.22949,1.6001,2.22949A2.01449,2.01449,0,0,0,156.59946,8.8116Z"/><path class="cls-1" d="M0,0V29.479H1.73406v0H84.96869v0h1.7341V0ZM84.96869,27.74488H1.73406V1.734H84.96869Z"/><path class="cls-1" d="M35.94093,16.981a1.3237,1.3237,0,0,1-.28515.11705l-.02763.0084a1.972,1.972,0,0,1-.69884.052,2.88534,2.88534,0,0,1-1.38769-.52711l-.00015-.00009-.00059.00089-.84331,1.28406a3.34452,3.34452,0,0,0,.99236.57266,4.27,4.27,0,0,0,2.48615.07479,2.70525,2.70525,0,0,0,.93045-.46019,2.23345,2.23345,0,0,0,.63634-.78052,2.43631,2.43631,0,0,0,.23515-1.10125,1.92288,1.92288,0,0,0-.2567-1.05879,2.0316,2.0316,0,0,0-.37046-.42546,1.95461,1.95461,0,0,0-.27637-.20551,3.463,3.463,0,0,0-.83946-.36365q-.44922-.12833-.83949-.25652a2.42648,2.42648,0,0,1-.64713-.31009.66706.66706,0,0,1-.14958-.88766.79322.79322,0,0,1,.27791-.24053,1.42338,1.42338,0,0,1,.13792-.06159,1.45915,1.45915,0,0,1,.22589-.07215c.055-.01219.10888-.02059.16249-.02746l.04526-.00519c.05294-.00538.10551-.00928.15719-.0096.00481-.00007.00982,0,.01463,0a1.97978,1.97978,0,0,1,.65229.12244,2.41618,2.41618,0,0,1,.61465.30985l.03334-.03713.00026.00015.00351.00567.02472-.03754.83919-1.27791a3.31052,3.31052,0,0,0-.90087-.44415,4.2487,4.2487,0,0,0-1.24035-.18174,3.78718,3.78718,0,0,0-1.08.155,2.79,2.79,0,0,0-.92508.46522A2.321,2.321,0,0,0,33,12.14717a2.27514,2.27514,0,0,0-.24053,1.0694,1.7727,1.7727,0,0,0,.26211,1.01586,2.05783,2.05783,0,0,0,.50428.505c.05186.03763.09752.0822.15331.11537a3.83464,3.83464,0,0,0,.85566.37427q.4593.13894.85529.27792a2.42412,2.42412,0,0,1,.65758.33688.63977.63977,0,0,1,.26211.54016.61466.61466,0,0,1-.10174.353A.80867.80867,0,0,1,35.94093,16.981Z"/><polygon class="cls-1" points="21.094 16.988 17.422 16.988 17.422 15.446 20.708 15.446 20.708 13.904 17.422 13.904 17.422 12.491 21.094 12.491 21.094 10.95 15.752 10.95 15.752 18.529 21.094 18.529 21.094 16.988"/><path class="cls-1" d="M26.2969,15.57448h1.22048a5.20457,5.20457,0,0,0,1.11325-.11231,2.39069,2.39069,0,0,0,.88863-.37994,1.82614,1.82614,0,0,0,.58874-.71748,2.58106,2.58106,0,0,0,.21417-1.11325,2.42021,2.42021,0,0,0-.23015-1.11863,1.87261,1.87261,0,0,0-.621-.70672,2.53626,2.53626,0,0,0-.91521-.3692,5.56235,5.56235,0,0,0-1.1134-.10693H24.62687v7.5792h1.67Zm0-3.21161h.85637a4.82493,4.82493,0,0,1,.49255.02688,1.46829,1.46829,0,0,1,.46567.12307.89213.89213,0,0,1,.34261.273.75164.75164,0,0,1,.13382.46567.88038.88038,0,0,1-.10171.44416.769.769,0,0,1-.26763.27839,1.1454,1.1454,0,0,1-.37472.14457,2.14382,2.14382,0,0,1-.43356.043H26.2969Z"/><rect class="cls-1" x="41.35657" y="10.95002" width="1.67003" height="7.5792"/><polygon class="cls-1" points="51.234 16.988 48.14 16.988 48.14 10.95 46.47 10.95 46.47 18.529 51.234 18.529 51.234 16.988"/><path class="cls-1" d="M54.502,17.646a3.7058,3.7058,0,0,0,1.28269.79783,4.8683,4.8683,0,0,0,3.24365,0A3.70868,3.70868,0,0,0,60.311,17.646a3.61628,3.61628,0,0,0,.84263-1.25782,4.65066,4.65066,0,0,0,0-3.297A3.62308,3.62308,0,0,0,60.311,11.833a3.71692,3.71692,0,0,0-1.28269-.79753,4.86335,4.86335,0,0,0-3.24365,0A3.714,3.714,0,0,0,54.502,11.833a3.62281,3.62281,0,0,0-.84263,1.25812,4.65051,4.65051,0,0,0,0,3.297A3.616,3.616,0,0,0,54.502,17.646Zm.73674-3.8807a2.23684,2.23684,0,0,1,.47172-.776,2.15,2.15,0,0,1,.73674-.50839,2.61655,2.61655,0,0,1,1.91862,0,2.14991,2.14991,0,0,1,.73674.50839,2.24078,2.24078,0,0,1,.47173.776,2.98858,2.98858,0,0,1,0,1.95379,2.24924,2.24924,0,0,1-.47173.77095,2.14975,2.14975,0,0,1-.73674.50838,2.62044,2.62044,0,0,1-1.91862,0,2.14984,2.14984,0,0,1-.73674-.50838,2.24524,2.24524,0,0,1-.47172-.77095,2.98909,2.98909,0,0,1,0-1.95379Z"/><polygon class="cls-1" points="65.667 13.134 65.687 13.134 68.874 18.529 70.978 18.529 70.978 10.95 69.369 10.95 69.369 16.217 69.348 16.217 66.244 10.95 64.057 10.95 64.057 18.529 65.667 18.529 65.667 13.134"/><path class="cls-1" d="M73.1901,8.8566a.95023.95023,0,1,1-.95034.95023A.95028.95028,0,0,1,73.1901,8.8566Zm0,1.689a.73876.73876,0,1,0-.73886-.73876A.73933.73933,0,0,0,73.1901,10.54559Zm-.032-.68027H73.063v.31638h-.15179V9.4192h.289c.192,0,.29985.06038.29985.22675a.19624.19624,0,0,1-.19742.21208l.19928.32367h-.15722Zm.04-.1107c.09737,0,.15344-.03375.15344-.1123,0-.073-.06354-.10111-.13105-.10111H73.0596v.21341Z"/><path class="cls-1" d="M95.39829,18.046h3.33349c1.98926,0,3.69825.72754,3.69825,3.02539,0,2.22656-1.73731,3.19336-3.64209,3.19336h-.98047v2.88574H95.39829Zm3.27734,4.31347c.95264,0,1.40088-.47558,1.40088-1.28808s-.53223-1.1211-1.45654-1.1211h-.8125v2.40918Z"/><path class="cls-1" d="M103.91,18.046h3.4458c1.96093,0,3.6416.67187,3.6416,2.9414,0,2.19922-1.68067,3.10938-3.6416,3.10938h-1.03662v3.05371H103.91Zm3.27734,4.1455c.95264,0,1.457-.41992,1.457-1.2041s-.50439-1.03711-1.457-1.03711h-.86816v2.24121Zm-.26611,1.27539,1.625-1.59765,2.95556,5.28125h-2.68945Z"/><path class="cls-1" d="M112.33725,22.55574c0-2.99707,1.709-4.67871,4.23047-4.67871s4.23,1.69531,4.23,4.67871c0,2.998-1.70849,4.7627-4.23,4.7627S112.33725,25.55379,112.33725,22.55574Zm5.99561,0c0-1.65234-.67285-2.60547-1.76514-2.60547-1.09277,0-1.76514.95313-1.76514,2.60547,0,1.65332.67237,2.68946,1.76514,2.68946C117.66,25.2452,118.33286,24.20906,118.33286,22.55574Z"/><path class="cls-1" d="M122.41782,18.046h2.68945c2.77344,0,4.67822,1.28808,4.67822,4.50976s-1.90478,4.59473-4.53857,4.59473h-2.8291Zm2.54931,7.17187c1.31641,0,2.353-.53223,2.353-2.66211,0-2.1289-1.03662-2.57715-2.353-2.57715H124.827v5.23926Z"/><path class="cls-1" d="M131.34946,22.752V18.046h2.40918V23.0323c0,1.625.42041,2.2129,1.37256,2.2129.95263,0,1.40088-.5879,1.40088-2.2129V18.046h2.32519V22.752c0,3.10938-1.17676,4.56641-3.72607,4.56641S131.34946,25.86141,131.34946,22.752Z"/><path class="cls-1" d="M140.42124,22.66805a4.44054,4.44054,0,0,1,4.39843-4.791,4.01843,4.01843,0,0,1,2.82959,1.20508l-1.26074,1.541a2.22,2.22,0,0,0-1.51269-.67285c-1.06446,0-1.98926.98047-1.98926,2.63379,0,1.709.78467,2.66114,1.96094,2.66114a2.275,2.275,0,0,0,1.65332-.78418l1.26074,1.51269a3.84105,3.84105,0,0,1-2.99805,1.34473C142.43833,27.31844,140.42124,25.77742,140.42124,22.66805Z"/><path class="cls-1" d="M150.6146,20.06258h-2.40967V18.046h7.228v2.0166h-2.40918v7.08789H150.6146Z"/></g></g></svg>