<?xml version="1.0" encoding="UTF-8"?>
<svg width="151px" height="25px" viewBox="0 0 151 25" version="1.1" xmlns="http://www.w3.org/2000/svg" xmlns:xlink="http://www.w3.org/1999/xlink">
    <title>C1F8EAB7-5C42-44EC-B802-F3DE9CC0E934</title>
    <g id="Symbols" stroke="none" stroke-width="1" fill="none" fill-rule="evenodd">
        <g id="Library-Header" transform="translate(-20.000000, -12.000000)" fill-rule="nonzero">
            <g id="Logo" transform="translate(20.000000, 12.000000)">
                <path d="M88.2807617,19 C89.4770508,19 90.4108887,18.7277832 91.0822754,18.1833496 C91.7536621,17.638916 92.0893555,16.8857422 92.0893555,15.9238281 C92.0893555,15.2109375 91.9123535,14.645752 91.5583496,14.2282715 C91.2043457,13.810791 90.6513672,13.53125 89.8994141,13.3896484 L89.8994141,13.3896484 L89.8994141,13.3164062 C90.5048828,13.2089844 90.96875,12.9477539 91.2910156,12.5327148 C91.6132812,12.1176758 91.7744141,11.5976562 91.7744141,10.9726562 C91.7744141,10.0449219 91.4460449,9.36621094 90.7893066,8.93652344 C90.1325684,8.50683594 89.0668945,8.29199219 87.5922852,8.29199219 L87.5922852,8.29199219 L84.4135742,8.29199219 L84.4135742,19 L88.2807617,19 Z M87.8486328,12.7158203 L86.1640625,12.7158203 L86.1640625,9.75683594 L87.6801758,9.75683594 C88.4711914,9.75683594 89.048584,9.86914062 89.4123535,10.09375 C89.776123,10.3183594 89.9580078,10.6821289 89.9580078,11.1850586 C89.9580078,11.7416992 89.7895508,12.1359863 89.4526367,12.3679199 C89.1157227,12.5998535 88.5810547,12.7158203 87.8486328,12.7158203 L87.8486328,12.7158203 Z M88.0244141,17.527832 L86.1640625,17.527832 L86.1640625,14.1367188 L87.9365234,14.1367188 C88.7128906,14.1367188 89.2915039,14.2709961 89.6723633,14.5395508 C90.0532227,14.8081055 90.2436523,15.2207031 90.2436523,15.7773438 C90.2436523,16.3828125 90.0568848,16.8259277 89.6833496,17.1066895 C89.3098145,17.3874512 88.7568359,17.527832 88.0244141,17.527832 L88.0244141,17.527832 Z M95.8540039,19 L95.8540039,7.60351562 L94.1328125,7.60351562 L94.1328125,19 L95.8540039,19 Z M101.164062,19.1464844 C101.730469,19.1464844 102.234619,19.0390625 102.676514,18.8242188 C103.118408,18.609375 103.458984,18.3139648 103.698242,17.9379883 L103.698242,17.9379883 L103.786133,17.9379883 L104.027832,19 L105.382812,19 L105.382812,10.8994141 L103.654297,10.8994141 L103.654297,14.9350586 C103.654297,15.9506836 103.484619,16.6745605 103.145264,17.1066895 C102.805908,17.5388184 102.274902,17.7548828 101.552246,17.7548828 C101.010254,17.7548828 100.612305,17.5998535 100.358398,17.2897949 C100.104492,16.9797363 99.9775391,16.5146484 99.9775391,15.8945312 L99.9775391,15.8945312 L99.9775391,10.8994141 L98.2416992,10.8994141 L98.2416992,16.1948242 C98.2416992,17.1860352 98.4833984,17.9257812 98.9667969,18.4140625 C99.4501953,18.9023438 100.182617,19.1464844 101.164062,19.1464844 Z M111.374023,19.1464844 C111.925781,19.1464844 112.416504,19.1049805 112.846191,19.0219727 C113.275879,18.9389648 113.700684,18.7973633 114.120605,18.597168 L114.120605,18.597168 L114.120605,17.1982422 C113.646973,17.4082031 113.203857,17.5583496 112.79126,17.6486816 C112.378662,17.7390137 111.933105,17.7841797 111.45459,17.7841797 C110.727051,17.7841797 110.163086,17.572998 109.762695,17.1506348 C109.362305,16.7282715 109.149902,16.1240234 109.125488,15.3378906 L109.125488,15.3378906 L114.523438,15.3378906 L114.523438,14.4077148 C114.523438,13.2700195 114.213379,12.3764648 113.593262,11.7270508 C112.973145,11.0776367 112.128418,10.7529297 111.059082,10.7529297 C109.906738,10.7529297 109.000977,11.1313477 108.341797,11.8881836 C107.682617,12.6450195 107.353027,13.6850586 107.353027,15.0083008 C107.353027,16.2973633 107.708252,17.3093262 108.418701,18.0441895 C109.12915,18.7790527 110.114258,19.1464844 111.374023,19.1464844 Z M112.831543,14.0927734 L109.154785,14.0927734 C109.218262,13.4287109 109.414795,12.9233398 109.744385,12.5766602 C110.073975,12.2299805 110.512207,12.0566406 111.059082,12.0566406 C111.605957,12.0566406 112.035645,12.2287598 112.348145,12.572998 C112.660645,12.9172363 112.821777,13.4238281 112.831543,14.0927734 L112.831543,14.0927734 Z M118.200195,22.6035156 L118.200195,19.2856445 C118.200195,19.1391602 118.166016,18.7241211 118.097656,18.0405273 L118.097656,18.0405273 L118.200195,18.0405273 C118.766602,18.777832 119.5625,19.1464844 120.587891,19.1464844 C121.598633,19.1464844 122.390869,18.7753906 122.9646,18.0332031 C123.53833,17.2910156 123.825195,16.2583008 123.825195,14.9350586 C123.825195,13.6118164 123.543213,12.5839844 122.979248,11.8515625 C122.415283,11.1191406 121.62793,10.7529297 120.617188,10.7529297 C119.542969,10.7529297 118.737305,11.1630859 118.200195,11.9833984 L118.200195,11.9833984 L118.112305,11.9833984 C117.990234,11.4121094 117.909668,11.0507812 117.870605,10.8994141 L117.870605,10.8994141 L116.479004,10.8994141 L116.479004,22.6035156 L118.200195,22.6035156 Z M120.199707,17.7402344 C119.491699,17.7402344 118.981445,17.5192871 118.668945,17.0773926 C118.356445,16.635498 118.200195,15.9213867 118.200195,14.9350586 L118.200195,14.9350586 L118.200195,14.6787109 C118.200195,13.7998047 118.357666,13.1601562 118.672607,12.7597656 C118.987549,12.359375 119.486816,12.1591797 120.17041,12.1591797 C120.790527,12.1591797 121.260498,12.392334 121.580322,12.8586426 C121.900146,13.3249512 122.060059,14.012207 122.060059,14.9204102 C122.060059,15.8237305 121.898926,16.5195312 121.57666,17.0078125 C121.254395,17.4960938 120.79541,17.7402344 120.199707,17.7402344 Z M127.545898,19 L127.545898,14.7666016 C127.545898,14.0488281 127.759521,13.465332 128.186768,13.0161133 C128.614014,12.5668945 129.171875,12.3422852 129.860352,12.3422852 C130.124023,12.3422852 130.37793,12.371582 130.62207,12.4301758 L130.62207,12.4301758 L130.790527,10.8261719 C130.565918,10.7773438 130.280273,10.7529297 129.933594,10.7529297 C129.435547,10.7529297 128.970459,10.8945312 128.53833,11.1777344 C128.106201,11.4609375 127.755859,11.8442383 127.487305,12.3276367 L127.487305,12.3276367 L127.399414,12.3276367 L127.172363,10.8994141 L125.824707,10.8994141 L125.824707,19 L127.545898,19 Z M133.163574,9.69824219 C133.466309,9.69824219 133.701904,9.61401367 133.870361,9.44555664 C134.038818,9.27709961 134.123047,9.04638672 134.123047,8.75341797 C134.123047,8.44580078 134.038818,8.20898438 133.870361,8.04296875 C133.701904,7.87695312 133.466309,7.79394531 133.163574,7.79394531 C132.851074,7.79394531 132.610596,7.87695312 132.442139,8.04296875 C132.273682,8.20898438 132.189453,8.44580078 132.189453,8.75341797 C132.189453,9.04638672 132.273682,9.27709961 132.442139,9.44555664 C132.610596,9.61401367 132.851074,9.69824219 133.163574,9.69824219 Z M134.013184,19 L134.013184,10.8994141 L132.291992,10.8994141 L132.291992,19 L134.013184,19 Z M138.195312,19 L138.195312,14.9643555 C138.195312,13.9536133 138.36377,13.2333984 138.700684,12.8037109 C139.037598,12.3740234 139.569824,12.1591797 140.297363,12.1591797 C140.844238,12.1591797 141.243408,12.3129883 141.494873,12.6206055 C141.746338,12.9282227 141.87207,13.3945312 141.87207,14.0195312 L141.87207,14.0195312 L141.87207,19 L143.600586,19 L143.600586,13.7192383 C143.600586,11.7416992 142.628906,10.7529297 140.685547,10.7529297 C140.138672,10.7529297 139.640625,10.8579102 139.191406,11.0678711 C138.742188,11.277832 138.395508,11.5756836 138.151367,11.9614258 L138.151367,11.9614258 L138.063477,11.9614258 L137.821777,10.8994141 L136.474121,10.8994141 L136.474121,19 L138.195312,19 Z M148.603027,19.1464844 C148.925293,19.1464844 149.236572,19.1184082 149.536865,19.0622559 C149.837158,19.0061035 150.08252,18.9365234 150.272949,18.8535156 L150.272949,18.8535156 L150.272949,17.5571289 C149.853027,17.6889648 149.433105,17.7548828 149.013184,17.7548828 C148.67627,17.7548828 148.404053,17.6560059 148.196533,17.458252 C147.989014,17.260498 147.885254,16.9541016 147.885254,16.5390625 L147.885254,16.5390625 L147.885254,12.203125 L150.192383,12.203125 L150.192383,10.8994141 L147.885254,10.8994141 L147.885254,9.09765625 L146.823242,9.09765625 L146.237305,10.8115234 L145.050781,11.4414062 L145.050781,12.203125 L146.156738,12.203125 L146.156738,16.5683594 C146.156738,18.2871094 146.972168,19.1464844 148.603027,19.1464844 Z" id="Blueprint" fill="#221F4D"></path>
                <g id="logo-epsilon" fill="#000000">
                    <g id="Group">
                        <path d="M0,0 L0,1.46373057 L0,23.4715026 L0,24.9352332 L0,24.9352332 L1.45485009,24.9352332 L1.45485009,24.9352332 L71.4550265,24.9352332 L71.4550265,24.9352332 L72.9098765,24.9352332 L72.9098765,24.9352332 L72.9098765,23.4715026 L72.9098765,1.46373057 L72.9098765,0 L72.9098765,0 L0,0 Z M71.4679012,23.4715026 L1.45485009,23.4715026 L1.45485009,1.46373057 L71.4550265,1.46373057 L71.4550265,23.4715026 L71.4679012,23.4715026 Z" id="Shape"></path>
                        <path d="M30.2299824,14.365285 C30.1527337,14.4041451 30.075485,14.4430052 29.9853616,14.4689119 C29.9724868,14.4689119 29.9724868,14.4689119 29.959612,14.4818653 C29.8952381,14.4948187 29.6763668,14.5595855 29.3673721,14.5207254 C29.0583774,14.4948187 28.6463845,14.3782383 28.1957672,14.0803109 L28.1957672,14.0803109 L28.1957672,14.0803109 L27.4876543,15.1683938 C27.7451499,15.388601 28.0283951,15.5440415 28.324515,15.6476684 C28.6850088,15.7772021 29.0583774,15.8419689 29.4703704,15.8419689 C29.8051146,15.8419689 30.1141093,15.8031088 30.4102293,15.7124352 C30.7063492,15.634715 30.9638448,15.5051813 31.1955908,15.3238342 C31.4273369,15.142487 31.594709,14.9222798 31.7363316,14.6632124 C31.8650794,14.3911917 31.9294533,14.0932642 31.9294533,13.7305699 C31.9294533,13.3549223 31.8522046,13.0569948 31.710582,12.8367876 C31.6204586,12.6943005 31.5174603,12.5777202 31.4015873,12.4740933 C31.3243386,12.4093264 31.2470899,12.357513 31.1698413,12.3056995 C30.95097,12.1761658 30.719224,12.0725389 30.4617284,11.9948187 C30.2042328,11.9170984 29.9724868,11.8523316 29.7536155,11.7746114 C29.5347443,11.6968912 29.3544974,11.619171 29.2128748,11.515544 C29.0712522,11.4119171 28.9940035,11.2694301 28.9940035,11.0751295 C28.9940035,10.9585492 29.0197531,10.8549223 29.084127,10.7642487 C29.1485009,10.6865285 29.2257496,10.6088083 29.315873,10.5569948 C29.3544974,10.5440415 29.3931217,10.5181347 29.431746,10.5051813 C29.4961199,10.4792746 29.5604938,10.4533679 29.6248677,10.4404145 C29.6763668,10.4274611 29.7149912,10.4274611 29.7664903,10.4145078 C29.7793651,10.4145078 29.7922399,10.4145078 29.8051146,10.4145078 C29.8566138,10.4145078 29.8952381,10.4015544 29.9338624,10.4015544 C29.9338624,10.4015544 29.9467372,10.4015544 29.9467372,10.4015544 C30.1141093,10.4015544 30.307231,10.4404145 30.5003527,10.5051813 C30.6934744,10.5699482 30.7835979,10.6217617 31.0153439,10.7642487 L31.0410935,10.738342 L31.0410935,10.738342 L31.0410935,10.738342 L31.066843,10.7124352 L31.7749559,9.62435233 C31.5303351,9.45595855 31.2985891,9.33937824 31.0153439,9.24870466 C30.6805996,9.14507772 30.3329806,9.09326425 29.9724868,9.09326425 C29.6634921,9.09326425 29.3544974,9.13212435 29.0583774,9.22279793 C28.7622575,9.3134715 28.5047619,9.44300518 28.2858907,9.61139896 C28.0541446,9.79274611 27.8867725,10 27.7451499,10.2590674 C27.6035273,10.5181347 27.5391534,10.8160622 27.5391534,11.1658031 C27.5391534,11.5284974 27.6164021,11.8134715 27.7580247,12.0207254 C27.8738977,12.1891192 28.0155203,12.3316062 28.1828924,12.4481865 C28.2215168,12.4740933 28.2601411,12.5129534 28.3116402,12.5518135 C28.5305115,12.6813472 28.7751323,12.7849741 29.0326279,12.8626943 C29.2901235,12.9404145 29.5347443,13.0181347 29.7536155,13.0958549 C29.9724868,13.1735751 30.1527337,13.2642487 30.307231,13.380829 C30.4488536,13.4974093 30.5261023,13.6398964 30.5261023,13.8341969 C30.5261023,13.9507772 30.5003527,14.0414508 30.4359788,14.1321244 C30.3973545,14.2487047 30.3201058,14.3134715 30.2299824,14.365285 Z" id="Path"></path>
                        <polygon id="Path" points="17.7414462 14.3782383 14.6514991 14.3782383 14.6514991 13.0699482 17.4195767 13.0699482 17.4195767 11.761658 14.6514991 11.761658 14.6514991 10.5699482 17.7414462 10.5699482 17.7414462 9.26165803 13.2481481 9.26165803 13.2481481 15.6865285 17.7414462 15.6865285"></polygon>
                        <path d="M22.1188713,13.1735751 L23.1488536,13.1735751 C23.4835979,13.1735751 23.7925926,13.1476684 24.0887125,13.0829016 C24.3719577,13.0181347 24.6294533,12.9145078 24.8354497,12.7590674 C25.0414462,12.6036269 25.2088183,12.4093264 25.3375661,12.1502591 C25.4534392,11.8911917 25.5178131,11.5803109 25.5178131,11.2046632 C25.5178131,10.8290155 25.4534392,10.5051813 25.3246914,10.2590674 C25.1959436,10.0129534 25.0156966,9.80569948 24.7968254,9.66321244 C24.5779541,9.52072539 24.3204586,9.41709845 24.0243386,9.35233161 C23.7282187,9.28756477 23.419224,9.26165803 23.0844797,9.26165803 L20.7155203,9.26165803 L20.7155203,15.6735751 L22.1188713,15.6735751 L22.1188713,13.1735751 L22.1188713,13.1735751 Z M22.1188713,10.4663212 L22.8398589,10.4663212 C22.9686067,10.4663212 23.1102293,10.4792746 23.2518519,10.492228 C23.3934744,10.5051813 23.5222222,10.5440415 23.6380952,10.5958549 C23.7539683,10.6476684 23.8440917,10.7253886 23.9213404,10.8290155 C23.9985891,10.9326425 24.0372134,11.0621762 24.0372134,11.2176166 C24.0372134,11.373057 24.0114638,11.4896373 23.9470899,11.5932642 C23.8955908,11.6968912 23.8183422,11.7746114 23.7153439,11.8264249 C23.6123457,11.8782383 23.5222222,11.9300518 23.3934744,11.9430052 C23.2776014,11.9689119 23.1488536,11.9818653 23.0329806,11.9818653 L22.0931217,11.9818653 L22.0931217,10.4663212 L22.1188713,10.4663212 Z" id="Shape"></path>
                        <rect id="Rectangle" x="34.7876543" y="9.26165803" width="1.40335097" height="6.4119171"></rect>
                        <polygon id="Path" points="43.0918871 14.3782383 40.4911817 14.3782383 40.4911817 9.26165803 39.0878307 9.26165803 39.0878307 15.6865285 43.0918871 15.6865285"></polygon>
                        <path d="M45.8342152,14.9352332 C46.1432099,15.2331606 46.4908289,15.4533679 46.9156966,15.6088083 C47.3405644,15.7642487 47.7911817,15.8419689 48.2804233,15.8419689 C48.7696649,15.8419689 49.233157,15.7642487 49.6451499,15.6088083 C50.0571429,15.4533679 50.4176367,15.2331606 50.7266314,14.9352332 C51.0227513,14.6373057 51.2673721,14.2875648 51.4347443,13.873057 C51.6021164,13.4585492 51.6922399,12.992228 51.6922399,12.4740933 C51.6922399,11.9559585 51.6021164,11.4896373 51.4347443,11.0751295 C51.2673721,10.6606218 51.0227513,10.2979275 50.7266314,10.0129534 C50.4176367,9.71502591 50.0571429,9.49481865 49.6451499,9.33937824 C49.233157,9.18393782 48.7696649,9.10621762 48.2804233,9.10621762 C47.7911817,9.10621762 47.3276896,9.18393782 46.9156966,9.33937824 C46.5037037,9.49481865 46.1432099,9.71502591 45.8342152,10.0129534 C45.5252205,10.3108808 45.2934744,10.6606218 45.1261023,11.0751295 C44.9587302,11.4896373 44.8686067,11.9559585 44.8686067,12.4740933 C44.8686067,12.992228 44.9587302,13.4585492 45.1261023,13.873057 C45.2934744,14.2875648 45.5380952,14.6373057 45.8342152,14.9352332 Z M46.4650794,11.6450777 C46.5552028,11.3860104 46.6839506,11.1787565 46.8641975,10.984456 C47.0315697,10.8031088 47.2375661,10.6606218 47.4821869,10.5569948 C47.7268078,10.4533679 47.9971781,10.4015544 48.2932981,10.4015544 C48.589418,10.4015544 48.8597884,10.4533679 49.1044092,10.5569948 C49.34903,10.6606218 49.5550265,10.8031088 49.7223986,10.984456 C49.8897707,11.1658031 50.0313933,11.3860104 50.1215168,11.6450777 C50.2116402,11.9041451 50.2631393,12.1761658 50.2631393,12.4740933 C50.2631393,12.7720207 50.2116402,13.0569948 50.1215168,13.3031088 C50.0313933,13.5492228 49.9026455,13.7694301 49.7223986,13.9507772 C49.5550265,14.1321244 49.34903,14.2746114 49.1044092,14.3782383 C48.8597884,14.4818653 48.589418,14.5336788 48.2932981,14.5336788 C47.9971781,14.5336788 47.7268078,14.4818653 47.4821869,14.3782383 C47.2375661,14.2746114 47.0315697,14.1321244 46.8641975,13.9507772 C46.6968254,13.7694301 46.5552028,13.5492228 46.4650794,13.3031088 C46.3749559,13.0569948 46.3234568,12.7720207 46.3234568,12.4740933 C46.3234568,12.1761658 46.3620811,11.9041451 46.4650794,11.6450777 Z" id="Shape"></path>
                        <polygon id="Path" points="55.2328042 11.1139896 55.245679 11.1139896 57.9236332 15.6865285 59.7003527 15.6865285 59.7003527 9.26165803 58.3485009 9.26165803 58.3485009 13.7176166 58.3227513 13.7176166 55.7220459 9.26165803 53.8809524 9.26165803 53.8809524 15.6865285 55.2328042 15.6865285"></polygon>
                    </g>
                    <path d="M61.554321,7.5 C61.9920635,7.5 62.3525573,7.8626943 62.3525573,8.30310881 C62.3525573,8.74352332 61.9920635,9.10621762 61.554321,9.10621762 C61.1165785,9.10621762 60.7560847,8.74352332 60.7560847,8.30310881 C60.7560847,7.8626943 61.1165785,7.5 61.554321,7.5 Z M61.554321,8.92487047 C61.90194,8.92487047 62.1723104,8.63989637 62.1723104,8.30310881 C62.1723104,7.95336788 61.8890653,7.68134715 61.554321,7.68134715 C61.2067019,7.68134715 60.9363316,7.96632124 60.9363316,8.30310881 C60.9363316,8.63989637 61.2195767,8.92487047 61.554321,8.92487047 Z M61.5285714,8.34196891 L61.4513228,8.34196891 L61.4513228,8.61398964 L61.322575,8.61398964 L61.322575,7.96632124 L61.5671958,7.96632124 C61.7216931,7.96632124 61.8246914,8.01813472 61.8246914,8.16062176 C61.8246914,8.27720207 61.7474427,8.34196891 61.6573192,8.34196891 L61.8246914,8.61398964 L61.6959436,8.61398964 L61.5285714,8.34196891 Z M61.5671958,8.25129534 C61.6444444,8.25129534 61.6959436,8.2253886 61.6959436,8.16062176 C61.6959436,8.09585492 61.6444444,8.06994819 61.5800705,8.06994819 L61.4513228,8.06994819 L61.4513228,8.25129534 L61.5671958,8.25129534 L61.5671958,8.25129534 Z" id="Shape"></path>
                </g>
            </g>
        </g>
    </g>
</svg>