<?xml version="1.0" encoding="utf-8"?>
<!-- Generator: Adobe Illustrator 23.0.4, SVG Export Plug-In . SVG Version: 6.00 Build 0)  -->
<svg version="1.1" id="Layer_1" xmlns="http://www.w3.org/2000/svg" xmlns:xlink="http://www.w3.org/1999/xlink" x="0px" y="0px"
	 viewBox="0 0 566.4 192.6" style="enable-background:new 0 0 566.4 192.6;" xml:space="preserve">
<g>
	<g>
		<path d="M0,0v11.3v169.9v11.3l0,0h11.3l0,0h543.7l0,0h11.3l0,0v-11.3V11.3V0l0,0H0z M555.1,181.2H11.3V11.3h543.7V181.2z"/>
		<path d="M234.8,110.9c-0.6,0.3-1.2,0.6-1.9,0.8c-0.1,0-0.1,0-0.2,0.1c-0.5,0.1-2.2,0.6-4.6,0.3c-2.4-0.2-5.6-1.1-9.1-3.4l0,0v0
			l-5.5,8.4c2,1.7,4.2,2.9,6.5,3.7c2.8,1,5.7,1.5,8.9,1.5c2.6,0,5-0.3,7.3-1c2.3-0.6,4.3-1.6,6.1-3c1.8-1.4,3.1-3.1,4.2-5.1
			c1-2.1,1.5-4.4,1.5-7.2c0-2.9-0.6-5.2-1.7-6.9c-0.7-1.1-1.5-2-2.4-2.8c-0.6-0.5-1.2-0.9-1.8-1.3c-1.7-1-3.5-1.8-5.5-2.4
			c-2-0.6-3.8-1.1-5.5-1.7c-1.7-0.6-3.1-1.2-4.2-2c-1.1-0.8-1.7-1.9-1.7-3.4c0-0.9,0.2-1.7,0.7-2.4c0.5-0.6,1.1-1.2,1.8-1.6
			c0.3-0.1,0.6-0.3,0.9-0.4c0.5-0.2,1-0.4,1.5-0.5c0.4-0.1,0.7-0.1,1.1-0.2c0.1,0,0.2,0,0.3,0c0.4,0,0.7-0.1,1-0.1c0,0,0.1,0,0.1,0
			c1.3,0,2.8,0.3,4.3,0.8c1.5,0.5,2.2,0.9,4,2l0.2-0.2l0,0l0,0l0.2-0.2l5.5-8.4c-1.9-1.3-3.7-2.2-5.9-2.9c-2.6-0.8-5.3-1.2-8.1-1.2
			c-2.4,0-4.8,0.3-7.1,1c-2.3,0.7-4.3,1.7-6,3c-1.8,1.4-3.1,3-4.2,5s-1.6,4.3-1.6,7c0,2.8,0.6,5,1.7,6.6c0.9,1.3,2,2.4,3.3,3.3
			c0.3,0.2,0.6,0.5,1,0.8c1.7,1,3.6,1.8,5.6,2.4c2,0.6,3.9,1.2,5.6,1.8c1.7,0.6,3.1,1.3,4.3,2.2c1.1,0.9,1.7,2,1.7,3.5
			c0,0.9-0.2,1.6-0.7,2.3C236.1,110,235.5,110.5,234.8,110.9z"/>
		<polygon points="137.8,111 113.8,111 113.8,100.9 135.3,100.9 135.3,90.8 113.8,90.8 113.8,81.6 137.8,81.6 137.8,71.5 
			102.9,71.5 102.9,121.1 137.8,121.1 		"/>
		<path d="M171.8,101.7h8c2.6,0,5-0.2,7.3-0.7c2.2-0.5,4.2-1.3,5.8-2.5c1.6-1.2,2.9-2.7,3.9-4.7c0.9-2,1.4-4.4,1.4-7.3
			c0-2.9-0.5-5.4-1.5-7.3c-1-1.9-2.4-3.5-4.1-4.6c-1.7-1.1-3.7-1.9-6-2.4c-2.3-0.5-4.7-0.7-7.3-0.7h-18.4V121h10.9L171.8,101.7
			L171.8,101.7z M171.8,80.8h5.6c1,0,2.1,0.1,3.2,0.2s2.1,0.4,3,0.8s1.6,1,2.2,1.8c0.6,0.8,0.9,1.8,0.9,3c0,1.2-0.2,2.1-0.7,2.9
			c-0.4,0.8-1,1.4-1.8,1.8s-1.5,0.8-2.5,0.9c-0.9,0.2-1.9,0.3-2.8,0.3h-7.3V80.8z"/>
		<rect x="270.2" y="71.5" width="10.9" height="49.5"/>
		<polygon points="334.7,111 314.5,111 314.5,71.5 303.6,71.5 303.6,121.1 334.7,121.1 		"/>
		<path d="M356,115.3c2.4,2.3,5.1,4,8.4,5.2s6.8,1.8,10.6,1.8s7.4-0.6,10.6-1.8c3.2-1.2,6-2.9,8.4-5.2c2.3-2.3,4.2-5,5.5-8.2
			c1.3-3.2,2-6.8,2-10.8s-0.7-7.6-2-10.8c-1.3-3.2-3.2-6-5.5-8.2c-2.4-2.3-5.2-4-8.4-5.2s-6.8-1.8-10.6-1.8s-7.4,0.6-10.6,1.8
			s-6,2.9-8.4,5.2c-2.4,2.3-4.2,5-5.5,8.2c-1.3,3.2-2,6.8-2,10.8s0.7,7.6,2,10.8S353.7,113,356,115.3z M360.9,89.9
			c0.7-2,1.7-3.6,3.1-5.1c1.3-1.4,2.9-2.5,4.8-3.3c1.9-0.8,4-1.2,6.3-1.2s4.4,0.4,6.3,1.2c1.9,0.8,3.5,1.9,4.8,3.3
			c1.3,1.4,2.4,3.1,3.1,5.1c0.7,2,1.1,4.1,1.1,6.4c0,2.3-0.4,4.5-1.1,6.4c-0.7,1.9-1.7,3.6-3.1,5c-1.3,1.4-2.9,2.5-4.8,3.3
			c-1.9,0.8-4,1.2-6.3,1.2s-4.4-0.4-6.3-1.2c-1.9-0.8-3.5-1.9-4.8-3.3c-1.3-1.4-2.4-3.1-3.1-5c-0.7-1.9-1.1-4.1-1.1-6.4
			C359.8,94,360.1,91.9,360.9,89.9z"/>
		<polygon points="429,85.8 429.1,85.8 449.9,121.1 463.7,121.1 463.7,71.5 453.2,71.5 453.2,105.9 453,105.9 432.8,71.5 
			418.5,71.5 418.5,121.1 429,121.1 		"/>
	</g>
	<path d="M478.1,57.9c3.4,0,6.2,2.8,6.2,6.2c0,3.4-2.8,6.2-6.2,6.2s-6.2-2.8-6.2-6.2S474.7,57.9,478.1,57.9z M478.1,68.9
		c2.7,0,4.8-2.2,4.8-4.8c0-2.7-2.2-4.8-4.8-4.8c-2.7,0-4.8,2.2-4.8,4.8C473.3,66.7,475.5,68.9,478.1,68.9z M477.9,64.4h-0.6v2.1h-1
		v-5h1.9c1.2,0,2,0.4,2,1.5c0,0.9-0.6,1.4-1.3,1.4l1.3,2.1h-1L477.9,64.4z M478.2,63.7c0.6,0,1-0.2,1-0.7c0-0.5-0.4-0.7-0.9-0.7h-1
		v1.4H478.2z"/>
</g>
</svg>
