<?xml version="1.0" encoding="utf-8"?>
<!-- Generator: Adobe Illustrator 21.0.2, SVG Export Plug-In . SVG Version: 6.00 Build 0)  -->
<svg version="1.1" id="Layer_1" xmlns="http://www.w3.org/2000/svg" xmlns:xlink="http://www.w3.org/1999/xlink" x="0px" y="0px"
	 viewBox="0 0 434.2 423" style="enable-background:new 0 0 434.2 423;" xml:space="preserve">
<style type="text/css">
	.st0{fill:#005454;stroke:#000000;stroke-width:5;stroke-miterlimit:10;}
	.st1{fill:#FFC5EC;}
	.st2{fill:#32DCE2;stroke:#000000;stroke-width:5;stroke-miterlimit:10;}
	.st3{opacity:0.5;fill:#2957EF;}
	.st4{opacity:0.5;fill:#833DC9;}
	.st5{opacity:0.5;fill:#333DC9;}
	.st6{fill:none;stroke:#000769;stroke-width:5;stroke-linecap:round;stroke-miterlimit:10;}
	.st7{fill:#333DC9;stroke:#000769;stroke-width:5;stroke-miterlimit:10;}
	.st8{fill:none;stroke:#231F20;stroke-width:5;stroke-miterlimit:10;}
	.st9{fill:none;stroke:#231F20;stroke-miterlimit:10;}
	.st10{fill:url(#SVGID_1_);}
	.st11{fill:none;stroke:#000000;stroke-width:5;stroke-miterlimit:10;}
	.st12{fill:#FFFFFF;stroke:#000000;stroke-width:5;stroke-miterlimit:10;}
	.st13{fill:#939598;stroke:#000000;stroke-width:5;stroke-miterlimit:10;}
	.st14{fill:#D1D3D4;stroke:#000000;stroke-width:5;stroke-miterlimit:10;}
	.st15{fill:#F1F2F2;stroke:#000000;stroke-width:5;stroke-miterlimit:10;}
	.st16{fill:#FFFFFF;stroke:#000769;stroke-width:5;stroke-miterlimit:10;}
	.st17{fill:#A3A7E6;stroke:#000769;stroke-width:5;stroke-miterlimit:10;}
	.st18{fill:#000769;}
	.st19{fill:#E2E9FC;stroke:#000769;stroke-width:5;stroke-miterlimit:10;}
	.st20{fill:url(#SVGID_2_);}
	.st21{fill:url(#SVGID_3_);}
	.st22{fill:url(#SVGID_4_);}
	.st23{fill:url(#SVGID_5_);}
	.st24{fill:url(#SVGID_6_);}
	.st25{fill:url(#SVGID_7_);}
	.st26{fill:url(#SVGID_8_);}
	.st27{fill:url(#SVGID_9_);}
	.st28{fill:url(#SVGID_10_);}
	.st29{fill:#FFFFFF;stroke:#231F20;stroke-width:5;stroke-miterlimit:10;}
	.st30{stroke:#000000;stroke-width:5;stroke-miterlimit:10;}
	.st31{fill:none;stroke:#000000;stroke-miterlimit:10;}
	.st32{fill:none;stroke:#231F20;stroke-width:5;stroke-linecap:round;stroke-miterlimit:10;}
	.st33{fill:none;stroke:#231F20;stroke-width:5;stroke-linecap:round;stroke-linejoin:round;stroke-miterlimit:10;}
	.st34{opacity:0.3;}
	.st35{fill:#FFFFFF;stroke:#231F20;stroke-miterlimit:10;}
	.st36{fill:none;stroke:#000000;stroke-width:10;stroke-miterlimit:10;}
	.st37{fill:none;stroke:#000769;stroke-width:10;stroke-miterlimit:10;}
	.st38{opacity:0.5;fill:#000769;}
	.st39{fill:#F26565;stroke:#000000;stroke-width:5;stroke-miterlimit:10;}
	.st40{fill:#0028A1;stroke:#000000;stroke-width:5;stroke-miterlimit:10;}
	.st41{fill:#678BF7;stroke:#000000;stroke-width:5;stroke-miterlimit:10;}
	.st42{fill:#6FEDED;stroke:#000000;stroke-width:5;stroke-miterlimit:10;}
	.st43{fill:#75FAFA;stroke:#000000;stroke-width:5;stroke-miterlimit:10;}
	.st44{fill:#A9F4F4;}
	.st45{fill:#3C8080;stroke:#000000;stroke-width:5;stroke-miterlimit:10;}
	.st46{fill:#4BA1A1;stroke:#000000;stroke-width:5;stroke-miterlimit:10;}
	.st47{opacity:0.5;fill:url(#SVGID_11_);}
	.st48{opacity:0.5;fill:url(#SVGID_12_);}
	.st49{opacity:0.5;fill:url(#SVGID_13_);}
	.st50{opacity:0.5;fill:url(#SVGID_14_);}
	.st51{fill:#FFFFFF;}
	.st52{opacity:0.5;fill:url(#SVGID_15_);}
	.st53{opacity:0.5;fill:url(#SVGID_16_);}
	.st54{opacity:0.5;fill:url(#SVGID_17_);}
	.st55{opacity:0.5;fill:url(#SVGID_18_);}
	.st56{fill:none;stroke:#005454;stroke-width:5;stroke-linecap:round;stroke-miterlimit:10;}
	.st57{opacity:0.5;fill:url(#SVGID_19_);}
	.st58{opacity:0.5;fill:url(#SVGID_20_);}
	.st59{opacity:0.5;fill:url(#SVGID_21_);}
	.st60{fill:none;stroke:#005454;stroke-width:10;stroke-miterlimit:10;}
	.st61{opacity:0.5;fill:url(#SVGID_22_);}
	.st62{fill:#184343;}
	.st63{opacity:0.5;fill:#184343;}
	.st64{opacity:0.5;fill:url(#SVGID_23_);}
	.st65{opacity:0.5;fill:url(#SVGID_24_);}
	.st66{opacity:0.5;fill:url(#SVGID_25_);}
	.st67{opacity:0.5;fill:url(#SVGID_26_);}
	.st68{opacity:0.5;fill:url(#SVGID_27_);}
	.st69{opacity:0.5;fill:url(#SVGID_28_);}
	.st70{fill:#F6F6F6;stroke:#000000;stroke-width:5;stroke-miterlimit:10;}
	.st71{opacity:0.5;fill:url(#SVGID_29_);}
	.st72{opacity:0.5;fill:url(#SVGID_30_);}
	.st73{fill:none;stroke:#CCCCCC;stroke-miterlimit:10;}
	.st74{fill:#85FBFF;stroke:#000000;stroke-width:5;stroke-miterlimit:10;}
	.st75{fill:#2957EF;stroke:#000000;stroke-width:5;stroke-miterlimit:10;}
	.st76{fill:#0028A1;}
	.st77{opacity:0.5;fill:url(#SVGID_31_);}
	.st78{fill:#C5F8F8;}
	.st79{fill:#5AA7D6;stroke:#000000;stroke-width:5;stroke-miterlimit:10;}
	.st80{fill:#FFFFFF;stroke:#000000;stroke-width:10;stroke-miterlimit:10;}
	.st81{opacity:0.75;fill:#A329EF;}
	.st82{opacity:0.75;fill:#E92B28;}
	.st83{opacity:0.75;fill:#AF157D;}
	.st84{fill:#85FBFF;}
	.st85{fill:#2957EF;}
	.st86{opacity:0.5;fill:url(#SVGID_32_);}
	.st87{opacity:0.5;fill:url(#SVGID_33_);}
	.st88{opacity:0.5;fill:url(#SVGID_34_);}
	.st89{opacity:0.5;fill:url(#SVGID_35_);}
	.st90{fill:#32DCE2;}
	.st91{opacity:0.5;fill:url(#SVGID_36_);}
	.st92{opacity:0.5;fill:url(#SVGID_37_);}
	.st93{opacity:0.5;fill:url(#SVGID_38_);}
	.st94{opacity:0.5;fill:url(#SVGID_39_);}
	.st95{opacity:0.5;fill:url(#SVGID_40_);}
	.st96{opacity:0.5;fill:url(#SVGID_41_);}
	.st97{opacity:0.5;fill:url(#SVGID_42_);}
	.st98{opacity:0.5;fill:url(#SVGID_43_);}
	.st99{fill:#231F20;}
	.st100{opacity:0.5;fill:url(#SVGID_44_);}
	.st101{opacity:0.75;fill:url(#SVGID_45_);}
	.st102{opacity:0.5;fill:url(#SVGID_46_);}
	.st103{opacity:0.5;fill:url(#SVGID_47_);}
	.st104{opacity:0.5;fill:url(#SVGID_48_);}
	.st105{opacity:0.5;fill:url(#SVGID_49_);}
	.st106{opacity:0.5;fill:url(#SVGID_50_);}
	.st107{opacity:0.5;fill:url(#SVGID_51_);}
	.st108{opacity:0.5;fill:url(#SVGID_52_);}
	.st109{opacity:0.5;fill:url(#SVGID_53_);}
	.st110{opacity:0.5;fill:url(#SVGID_54_);}
	.st111{opacity:0.5;fill:url(#SVGID_55_);}
	.st112{opacity:0.5;fill:url(#SVGID_56_);}
	.st113{opacity:0.5;fill:url(#SVGID_57_);}
	.st114{opacity:0.5;fill:url(#SVGID_58_);}
	.st115{opacity:0.5;fill:url(#SVGID_59_);}
	.st116{opacity:0.5;fill:url(#SVGID_60_);}
	.st117{opacity:0.5;fill:url(#SVGID_61_);}
	.st118{opacity:0.5;fill:url(#SVGID_62_);}
	.st119{opacity:0.5;fill:url(#SVGID_63_);}
	.st120{opacity:0.5;fill:url(#SVGID_64_);}
	.st121{fill:none;}
	.st122{fill:#E5584E;stroke:#000000;stroke-width:5;stroke-miterlimit:10;}
	.st123{fill:#A9463E;stroke:#000000;stroke-width:5;stroke-miterlimit:10;}
	.st124{fill:#F18049;stroke:#000000;stroke-width:5;stroke-miterlimit:10;}
	.st125{fill:#B46638;stroke:#000000;stroke-width:5;stroke-miterlimit:10;}
	.st126{fill:#F5D66A;stroke:#000000;stroke-width:5;stroke-miterlimit:10;}
	.st127{fill:#BDAC4F;stroke:#000000;stroke-width:5;stroke-miterlimit:10;}
	.st128{fill:#184343;stroke:#000000;stroke-width:5;stroke-miterlimit:10;}
	.st129{fill:#2C79AC;stroke:#000000;stroke-width:5;stroke-miterlimit:10;}
	.st130{fill:#39608B;stroke:#000000;stroke-width:5;stroke-miterlimit:10;}
	.st131{fill:#48535D;stroke:#000000;stroke-width:5;stroke-miterlimit:10;}
	.st132{fill:#292D33;stroke:#000000;stroke-width:5;stroke-miterlimit:10;}
	.st133{fill:#0088CC;stroke:#000000;stroke-width:5;stroke-miterlimit:10;}
	.st134{fill:#ECEBEC;stroke:#000000;stroke-width:5;stroke-miterlimit:10;}
	.st135{fill:#333333;stroke:#000000;stroke-width:5;stroke-miterlimit:10;}
	.st136{fill:#C4C4C4;stroke:#000000;stroke-width:5;stroke-miterlimit:10;}
	.st137{fill:#919DA9;stroke:#000000;stroke-width:5;stroke-miterlimit:10;}
	.st138{fill:#7A8594;stroke:#000000;stroke-width:5;stroke-miterlimit:10;}
	.st139{opacity:0.5;fill:url(#SVGID_65_);}
	.st140{fill:#3C8080;}
	.st141{fill:#4BA1A1;}
	.st142{opacity:0.5;fill:url(#SVGID_66_);}
	.st143{opacity:0.5;fill:url(#SVGID_67_);}
	.st144{fill:#005454;}
	.st145{opacity:0.5;fill:url(#SVGID_68_);}
	.st146{opacity:0.5;fill:url(#SVGID_69_);}
	.st147{opacity:0.5;fill:url(#SVGID_70_);}
	.st148{opacity:0.5;fill:url(#SVGID_71_);}
	.st149{opacity:0.5;fill:url(#SVGID_72_);}
	.st150{opacity:0.5;fill:url(#SVGID_73_);}
	.st151{fill:#A3A7E6;}
	.st152{fill:#E2E9FC;}
	.st153{opacity:0.5;fill:url(#SVGID_74_);}
	.st154{opacity:0.5;fill:url(#SVGID_75_);}
	.st155{fill:#333DC9;}
	.st156{opacity:0.5;fill:url(#SVGID_76_);}
	.st157{opacity:0.5;fill:url(#SVGID_77_);}
	.st158{opacity:0.5;fill:url(#SVGID_78_);}
	.st159{opacity:0.5;fill:url(#SVGID_79_);}
	.st160{opacity:0.5;fill:url(#SVGID_80_);}
	.st161{opacity:0.5;fill:url(#SVGID_81_);}
	.st162{opacity:0.5;fill:url(#SVGID_82_);}
	.st163{opacity:0.5;fill:url(#SVGID_83_);}
	.st164{opacity:0.5;fill:url(#SVGID_84_);}
	.st165{opacity:0.5;fill:url(#SVGID_85_);}
	.st166{opacity:0.5;fill:url(#SVGID_86_);}
	.st167{opacity:0.5;fill:url(#SVGID_87_);}
	.st168{opacity:0.5;fill:url(#SVGID_88_);}
	.st169{opacity:0.5;fill:url(#SVGID_89_);}
	.st170{opacity:0.5;fill:url(#SVGID_90_);}
	.st171{opacity:0.5;fill:url(#SVGID_91_);}
	.st172{opacity:0.5;fill:url(#SVGID_92_);}
</style>
<g>
	<g>
		<path class="st155" d="M371.9,419.9l-28.6-28.5c-0.8-0.8-2.1-0.8-2.9,0l-28.6,28.5c-1.3,1.3-3.5,0.4-3.5-1.4V317.1
			c0-1.1,0.9-2,2-2h62.8c1.1,0,2,0.9,2,2v101.4C375.4,420.3,373.2,421.2,371.9,419.9z"/>
		<path class="st18" d="M373.3,423c-1.2,0-2.3-0.5-3.2-1.3l-28.2-28.2l-28.2,28.2c-1.3,1.3-3.2,1.7-4.9,1c-1.7-0.7-2.8-2.3-2.8-4.2
			V317.1c0-2.5,2-4.5,4.5-4.5h62.8c2.5,0,4.5,2,4.5,4.5v101.4c0,1.8-1.1,3.5-2.8,4.2C374.5,422.9,373.9,423,373.3,423z M373.7,418.2
			L373.7,418.2L373.7,418.2z M341.9,388.3c1.2,0,2.3,0.5,3.2,1.3l27.7,27.7v-99.8H311v99.8l27.7-27.7
			C339.6,388.8,340.7,388.3,341.9,388.3z"/>
	</g>
	<g>
		<path class="st152" d="M384.9,302.6V22.5c0-11-9-20-20-20H22.5c-11,0-20,9-20,20v280.1c0,11,9,20,20,20h342.4
			C375.9,322.6,384.9,313.6,384.9,302.6z"/>
		<path class="st18" d="M364.9,325.1H22.5C10.1,325.1,0,315,0,302.6V22.5C0,10.1,10.1,0,22.5,0h342.4c12.4,0,22.5,10.1,22.5,22.5
			v280.1C387.4,315,377.3,325.1,364.9,325.1z M22.5,5C12.9,5,5,12.9,5,22.5v280.1c0,9.6,7.9,17.5,17.5,17.5h342.4
			c9.6,0,17.5-7.9,17.5-17.5V22.5c0-9.6-7.9-17.5-17.5-17.5H22.5z"/>
	</g>
	<g>
		<path class="st151" d="M348.4,176.3l9.8,9.3c2.3,2.2,5.5,3.1,8.6,2.3l13.2-3.2c4.8-1.2,9.7,1.7,11.1,6.4l3.8,13
			c0.9,3,3.3,5.4,6.3,6.3l13,3.8c4.8,1.4,7.6,6.3,6.4,11.1l-3.2,13.2c-0.7,3.1,0.1,6.3,2.3,8.6l9.3,9.8c3.4,3.6,3.4,9.3,0,12.9
			l-9.3,9.8c-2.2,2.3-3.1,5.5-2.3,8.6l3.2,13.2c1.2,4.8-1.7,9.7-6.4,11.1l-13,3.8c-3,0.9-5.4,3.3-6.3,6.3l-3.8,13
			c-1.4,4.8-6.3,7.6-11.1,6.4l-13.2-3.2c-3.1-0.7-6.3,0.1-8.6,2.3l-9.8,9.3c-3.6,3.4-9.3,3.4-12.9,0l-9.8-9.3
			c-2.3-2.2-5.5-3.1-8.6-2.3l-13.2,3.2c-4.8,1.2-9.7-1.7-11.1-6.4l-3.8-13c-0.9-3-3.3-5.4-6.3-6.3l-13-3.8
			c-4.8-1.4-7.6-6.3-6.4-11.1l3.2-13.2c0.7-3.1-0.1-6.3-2.3-8.6l-9.3-9.8c-3.4-3.6-3.4-9.3,0-12.9l9.3-9.8c2.2-2.3,3.1-5.5,2.3-8.6
			l-3.2-13.2c-1.2-4.8,1.7-9.7,6.4-11.1l13-3.8c3-0.9,5.4-3.3,6.3-6.3l3.8-13c1.4-4.8,6.3-7.6,11.1-6.4l13.2,3.2
			c3.1,0.7,6.3-0.1,8.6-2.3l9.8-9.3C339.1,172.8,344.8,172.8,348.4,176.3z"/>
		<path class="st18" d="M341.9,355.8c-2.9,0-5.9-1.1-8.2-3.3l-9.8-9.3c-1.7-1.6-4-2.2-6.3-1.7l-13.2,3.2c-6.1,1.5-12.3-2.1-14.1-8.2
			l-3.8-13c-0.7-2.2-2.4-4-4.6-4.6l-13-3.8c-6.1-1.8-9.6-8-8.2-14.1l3.2-13.2c0.5-2.3-0.1-4.6-1.7-6.3l-9.3-9.8
			c-4.4-4.6-4.4-11.7,0-16.3l9.3-9.8c1.6-1.7,2.2-4,1.7-6.3l-3.2-13.2c-1.5-6.1,2.1-12.3,8.2-14.1l13-3.8c2.2-0.7,4-2.4,4.6-4.6
			l3.8-13c1.8-6.1,8-9.6,14.1-8.2l13.2,3.2c2.3,0.5,4.6-0.1,6.3-1.7l9.8-9.3c4.6-4.3,11.7-4.4,16.3,0l9.8,9.3c1.7,1.6,4,2.2,6.3,1.7
			l13.2-3.2c6.1-1.5,12.3,2.1,14.1,8.2l3.8,13c0.7,2.2,2.4,4,4.6,4.6l13,3.8c6.1,1.8,9.6,8,8.2,14.1l-3.2,13.2
			c-0.5,2.3,0.1,4.6,1.7,6.3l9.3,9.8c4.4,4.6,4.4,11.7,0,16.3l-9.3,9.8c-1.6,1.7-2.2,4-1.7,6.3l3.2,13.2c1.5,6.1-2.1,12.3-8.2,14.1
			l-13,3.8c-2.2,0.7-4,2.4-4.6,4.6l-3.8,13c-1.8,6.1-8,9.6-14.1,8.2l-13.2-3.2c-2.3-0.5-4.6,0.1-6.3,1.7l-9.8,9.3
			C347.8,354.7,344.9,355.8,341.9,355.8z M319.3,336.3c3,0,5.9,1.1,8.1,3.3l9.8,9.3c2.6,2.5,6.8,2.5,9.4,0l9.8-9.3
			c2.9-2.8,7-3.9,10.9-2.9l13.2,3.2c3.5,0.9,7.1-1.2,8.2-4.7l3.8-13c1.1-3.9,4.1-6.9,8-8l13-3.8c3.5-1,5.6-4.6,4.7-8.2l-3.2-13.2
			c-0.9-3.9,0.1-8,2.9-10.9l9.3-9.8c2.5-2.6,2.5-6.8,0-9.4L418,249c-2.8-2.9-3.9-7-2.9-10.9l3.2-13.2c0.9-3.5-1.2-7.1-4.7-8.2
			l-13-3.8c-3.9-1.1-6.9-4.1-8-8l-3.8-13c-1-3.5-4.6-5.6-8.2-4.7l-13.2,3.2c-3.9,0.9-8-0.2-10.9-2.9l-9.8-9.3
			c-2.6-2.5-6.8-2.5-9.4,0l-9.8,9.3c-2.9,2.8-7,3.9-10.9,2.9l-13.2-3.2c-3.5-0.9-7.1,1.2-8.2,4.7l-3.8,13c-1.1,3.9-4.1,6.9-8,8
			l-13,3.8c-3.5,1-5.6,4.6-4.7,8.2l3.2,13.2c0.9,3.9-0.1,8-2.9,10.9l-9.3,9.8c-2.5,2.6-2.5,6.8,0,9.4l9.3,9.8
			c2.8,2.9,3.9,7,2.9,10.9l-3.2,13.2c-0.9,3.5,1.2,7.1,4.7,8.2l13,3.8c3.9,1.1,6.9,4.1,8,8l3.8,13c1,3.5,4.6,5.6,8.2,4.7l13.2-3.2
			C317.4,336.4,318.3,336.3,319.3,336.3z"/>
	</g>
	<g>
		<circle class="st152" cx="341.9" cy="263.5" r="51.4"/>
		<path class="st18" d="M341.9,317.4c-29.7,0-53.9-24.2-53.9-53.9c0-29.7,24.2-53.9,53.9-53.9c29.7,0,53.9,24.2,53.9,53.9
			C395.8,293.2,371.6,317.4,341.9,317.4z M341.9,214.6c-27,0-48.9,21.9-48.9,48.9c0,27,21.9,48.9,48.9,48.9
			c27,0,48.9-21.9,48.9-48.9C390.8,236.5,368.9,214.6,341.9,214.6z"/>
	</g>
	<g>
		<path class="st51" d="M346.2,235.3l6.3,12.7c0.7,1.4,2,2.4,3.6,2.6l14,2c3.9,0.6,5.5,5.4,2.6,8.1l-10.1,9.9
			c-1.1,1.1-1.6,2.7-1.4,4.2l2.4,13.9c0.7,3.9-3.4,6.9-6.9,5l-12.5-6.6c-1.4-0.7-3-0.7-4.4,0l-12.5,6.6c-3.5,1.8-7.6-1.1-6.9-5
			l2.4-13.9c0.3-1.5-0.2-3.1-1.4-4.2l-10.1-9.9c-2.8-2.8-1.3-7.6,2.6-8.1l14-2c1.6-0.2,2.9-1.2,3.6-2.6l6.3-12.7
			C339.4,231.8,344.4,231.8,346.2,235.3z"/>
		<path d="M325,296.8c-1.5,0-3-0.5-4.3-1.4c-2.3-1.6-3.4-4.4-2.9-7.1l2.4-13.9c0.1-0.7-0.1-1.5-0.7-2l-10.1-9.9
			c-2-1.9-2.7-4.8-1.8-7.4c0.9-2.6,3.1-4.5,5.9-4.9l14-2c0.7-0.1,1.4-0.6,1.7-1.2l6.3-12.7c1.2-2.5,3.7-4,6.5-4c2.8,0,5.3,1.6,6.5,4
			l6.3,12.7c0.3,0.7,1,1.1,1.7,1.2l14,2c2.8,0.4,5,2.3,5.9,4.9c0.9,2.6,0.2,5.5-1.8,7.4l-10.1,9.9c-0.5,0.5-0.8,1.3-0.7,2l2.4,13.9
			c0.5,2.7-0.6,5.5-2.9,7.1c-2.3,1.6-5.2,1.8-7.6,0.6l-12.5-6.6c-0.7-0.3-1.4-0.3-2.1,0l-12.5,6.6
			C327.3,296.5,326.1,296.8,325,296.8z M341.9,235.2c-0.3,0-1.5,0.1-2,1.3l-6.3,12.7c-1.1,2.1-3.1,3.6-5.5,4l-14,2
			c-1.3,0.2-1.7,1.2-1.8,1.5c-0.1,0.3-0.4,1.4,0.6,2.3l10.1,9.9c1.7,1.7,2.5,4.1,2.1,6.4l-2.4,13.9c-0.2,1.3,0.6,2,0.9,2.2
			c0.3,0.2,1.2,0.8,2.4,0.2l12.5-6.6c2.1-1.1,4.6-1.1,6.8,0l12.5,6.6c1.2,0.6,2.1,0,2.4-0.2c0.3-0.2,1.1-0.9,0.9-2.2l-2.4-13.9
			c-0.4-2.4,0.4-4.8,2.1-6.4l10.1-9.9c0.9-0.9,0.7-2,0.6-2.3c-0.1-0.3-0.5-1.4-1.8-1.5l-14-2c-2.4-0.3-4.4-1.8-5.5-4l-6.3-12.7
			C343.4,235.2,342.3,235.2,341.9,235.2z"/>
	</g>
	<linearGradient id="SVGID_1_" gradientUnits="userSpaceOnUse" x1="2.5" y1="162.537" x2="238.3797" y2="162.537">
		<stop  offset="0" style="stop-color:#333DC9"/>
		<stop  offset="1" style="stop-color:#333DC9;stop-opacity:0.2"/>
	</linearGradient>
	<path style="opacity:0.5;fill:url(#SVGID_1_);" d="M164.8,153.4c0-57.7,21.1-110.4,56-150.9H22.5c-11,0-20,9-20,20v280.1
		c0,11,9,20,20,20h215.9C193.1,280.4,164.8,220.2,164.8,153.4z"/>
	<g>
		<path class="st18" d="M324.8,67.4H62.6c-5,0-9.1,4.1-9.1,9.1v0c0,5,4.1,9.1,9.1,9.1h262.3c5,0,9.1-4.1,9.1-9.1v0
			C334,71.5,329.9,67.4,324.8,67.4z"/>
		<path class="st18" d="M324.8,110.4H62.6c-5,0-9.1,4.1-9.1,9.1v0c0,5,4.1,9.1,9.1,9.1h262.3c5,0,9.1-4.1,9.1-9.1v0
			C334,114.5,329.9,110.4,324.8,110.4z"/>
		<path class="st18" d="M281.5,153.4H62.6c-5,0-9.1,4.1-9.1,9.1v0c0,5,4.1,9.1,9.1,9.1h218.9c5,0,9.1-4.1,9.1-9.1v0
			C290.6,157.5,286.6,153.4,281.5,153.4z"/>
		<path class="st18" d="M228.2,196.4H62.6c-5,0-9.1,4.1-9.1,9.1v0c0,5,4.1,9.1,9.1,9.1h165.6c5,0,9.1-4.1,9.1-9.1v0
			C237.4,200.5,233.3,196.4,228.2,196.4z"/>
		<path class="st18" d="M190.7,239.4H62.6c-5,0-9.1,4.1-9.1,9.1v0c0,5,4.1,9.1,9.1,9.1h128.2c5,0,9.1-4.1,9.1-9.1v0
			C199.9,243.5,195.8,239.4,190.7,239.4z"/>
	</g>
</g>
</svg>
