<?xml version="1.0" encoding="utf-8"?>
<!-- Generator: Adobe Illustrator 21.0.2, SVG Export Plug-In . SVG Version: 6.00 Build 0)  -->
<svg version="1.1" id="Layer_1" xmlns="http://www.w3.org/2000/svg" xmlns:xlink="http://www.w3.org/1999/xlink" x="0px" y="0px"
	 viewBox="0 0 457.7 423.1" style="enable-background:new 0 0 457.7 423.1;" xml:space="preserve">
<style type="text/css">
	.st0{fill:#005454;stroke:#000000;stroke-width:5;stroke-miterlimit:10;}
	.st1{fill:#FFC5EC;}
	.st2{fill:#32DCE2;stroke:#000000;stroke-width:5;stroke-miterlimit:10;}
	.st3{opacity:0.5;fill:#2957EF;}
	.st4{opacity:0.5;fill:#833DC9;}
	.st5{opacity:0.5;fill:#333DC9;}
	.st6{fill:none;stroke:#000769;stroke-width:5;stroke-linecap:round;stroke-miterlimit:10;}
	.st7{fill:#333DC9;stroke:#000769;stroke-width:5;stroke-miterlimit:10;}
	.st8{fill:none;stroke:#231F20;stroke-width:5;stroke-miterlimit:10;}
	.st9{fill:none;stroke:#231F20;stroke-miterlimit:10;}
	.st10{fill:url(#SVGID_1_);}
	.st11{fill:none;stroke:#000000;stroke-width:5;stroke-miterlimit:10;}
	.st12{fill:#FFFFFF;stroke:#000000;stroke-width:5;stroke-miterlimit:10;}
	.st13{fill:#939598;stroke:#000000;stroke-width:5;stroke-miterlimit:10;}
	.st14{fill:#D1D3D4;stroke:#000000;stroke-width:5;stroke-miterlimit:10;}
	.st15{fill:#F1F2F2;stroke:#000000;stroke-width:5;stroke-miterlimit:10;}
	.st16{fill:#FFFFFF;stroke:#000769;stroke-width:5;stroke-miterlimit:10;}
	.st17{fill:#A3A7E6;stroke:#000769;stroke-width:5;stroke-miterlimit:10;}
	.st18{fill:#000769;}
	.st19{fill:#E2E9FC;stroke:#000769;stroke-width:5;stroke-miterlimit:10;}
	.st20{fill:url(#SVGID_2_);}
	.st21{fill:url(#SVGID_3_);}
	.st22{fill:url(#SVGID_4_);}
	.st23{fill:url(#SVGID_5_);}
	.st24{fill:url(#SVGID_6_);}
	.st25{fill:url(#SVGID_7_);}
	.st26{fill:url(#SVGID_8_);}
	.st27{fill:url(#SVGID_9_);}
	.st28{fill:url(#SVGID_10_);}
	.st29{fill:#FFFFFF;stroke:#231F20;stroke-width:5;stroke-miterlimit:10;}
	.st30{stroke:#000000;stroke-width:5;stroke-miterlimit:10;}
	.st31{fill:none;stroke:#000000;stroke-miterlimit:10;}
	.st32{fill:none;stroke:#231F20;stroke-width:5;stroke-linecap:round;stroke-miterlimit:10;}
	.st33{fill:none;stroke:#231F20;stroke-width:5;stroke-linecap:round;stroke-linejoin:round;stroke-miterlimit:10;}
	.st34{opacity:0.3;}
	.st35{fill:#FFFFFF;stroke:#231F20;stroke-miterlimit:10;}
	.st36{fill:none;stroke:#000000;stroke-width:10;stroke-miterlimit:10;}
	.st37{fill:none;stroke:#000769;stroke-width:10;stroke-miterlimit:10;}
	.st38{opacity:0.5;fill:#000769;}
	.st39{fill:#F26565;stroke:#000000;stroke-width:5;stroke-miterlimit:10;}
	.st40{fill:#0028A1;stroke:#000000;stroke-width:5;stroke-miterlimit:10;}
	.st41{fill:#678BF7;stroke:#000000;stroke-width:5;stroke-miterlimit:10;}
	.st42{fill:#6FEDED;stroke:#000000;stroke-width:5;stroke-miterlimit:10;}
	.st43{fill:#75FAFA;stroke:#000000;stroke-width:5;stroke-miterlimit:10;}
	.st44{fill:#A9F4F4;}
	.st45{fill:#3C8080;stroke:#000000;stroke-width:5;stroke-miterlimit:10;}
	.st46{fill:#4BA1A1;stroke:#000000;stroke-width:5;stroke-miterlimit:10;}
	.st47{opacity:0.5;fill:url(#SVGID_11_);}
	.st48{opacity:0.5;fill:url(#SVGID_12_);}
	.st49{opacity:0.5;fill:url(#SVGID_13_);}
	.st50{opacity:0.5;fill:url(#SVGID_14_);}
	.st51{fill:#FFFFFF;}
	.st52{opacity:0.5;fill:url(#SVGID_15_);}
	.st53{opacity:0.5;fill:url(#SVGID_16_);}
	.st54{opacity:0.5;fill:url(#SVGID_17_);}
	.st55{opacity:0.5;fill:url(#SVGID_18_);}
	.st56{fill:none;stroke:#005454;stroke-width:5;stroke-linecap:round;stroke-miterlimit:10;}
	.st57{opacity:0.5;fill:url(#SVGID_19_);}
	.st58{opacity:0.5;fill:url(#SVGID_20_);}
	.st59{opacity:0.5;fill:url(#SVGID_21_);}
	.st60{fill:none;stroke:#005454;stroke-width:10;stroke-miterlimit:10;}
	.st61{opacity:0.5;fill:url(#SVGID_22_);}
	.st62{fill:#184343;}
	.st63{opacity:0.5;fill:#184343;}
	.st64{opacity:0.5;fill:url(#SVGID_23_);}
	.st65{opacity:0.5;fill:url(#SVGID_24_);}
	.st66{opacity:0.5;fill:url(#SVGID_25_);}
	.st67{opacity:0.5;fill:url(#SVGID_26_);}
	.st68{opacity:0.5;fill:url(#SVGID_27_);}
	.st69{opacity:0.5;fill:url(#SVGID_28_);}
	.st70{fill:#F6F6F6;stroke:#000000;stroke-width:5;stroke-miterlimit:10;}
	.st71{opacity:0.5;fill:url(#SVGID_29_);}
	.st72{opacity:0.5;fill:url(#SVGID_30_);}
	.st73{fill:none;stroke:#CCCCCC;stroke-miterlimit:10;}
	.st74{fill:#85FBFF;stroke:#000000;stroke-width:5;stroke-miterlimit:10;}
	.st75{fill:#2957EF;stroke:#000000;stroke-width:5;stroke-miterlimit:10;}
	.st76{fill:#0028A1;}
	.st77{opacity:0.5;fill:url(#SVGID_31_);}
	.st78{fill:#C5F8F8;}
	.st79{fill:#5AA7D6;stroke:#000000;stroke-width:5;stroke-miterlimit:10;}
	.st80{fill:#FFFFFF;stroke:#000000;stroke-width:10;stroke-miterlimit:10;}
	.st81{opacity:0.75;fill:#A329EF;}
	.st82{opacity:0.75;fill:#E92B28;}
	.st83{opacity:0.75;fill:#AF157D;}
	.st84{fill:#85FBFF;}
	.st85{fill:#2957EF;}
	.st86{opacity:0.5;fill:url(#SVGID_32_);}
	.st87{opacity:0.5;fill:url(#SVGID_33_);}
	.st88{opacity:0.5;fill:url(#SVGID_34_);}
	.st89{opacity:0.5;fill:url(#SVGID_35_);}
	.st90{fill:#32DCE2;}
	.st91{opacity:0.5;fill:url(#SVGID_36_);}
	.st92{opacity:0.5;fill:url(#SVGID_37_);}
	.st93{opacity:0.5;fill:url(#SVGID_38_);}
	.st94{opacity:0.5;fill:url(#SVGID_39_);}
	.st95{opacity:0.5;fill:url(#SVGID_40_);}
	.st96{opacity:0.5;fill:url(#SVGID_41_);}
	.st97{opacity:0.5;fill:url(#SVGID_42_);}
	.st98{opacity:0.5;fill:url(#SVGID_43_);}
	.st99{fill:#231F20;}
	.st100{opacity:0.5;fill:url(#SVGID_44_);}
	.st101{opacity:0.75;fill:url(#SVGID_45_);}
	.st102{opacity:0.5;fill:url(#SVGID_46_);}
	.st103{opacity:0.5;fill:url(#SVGID_47_);}
	.st104{opacity:0.5;fill:url(#SVGID_48_);}
	.st105{opacity:0.5;fill:url(#SVGID_49_);}
	.st106{opacity:0.5;fill:url(#SVGID_50_);}
	.st107{opacity:0.5;fill:url(#SVGID_51_);}
	.st108{opacity:0.5;fill:url(#SVGID_52_);}
	.st109{opacity:0.5;fill:url(#SVGID_53_);}
	.st110{opacity:0.5;fill:url(#SVGID_54_);}
	.st111{opacity:0.5;fill:url(#SVGID_55_);}
	.st112{opacity:0.5;fill:url(#SVGID_56_);}
	.st113{opacity:0.5;fill:url(#SVGID_57_);}
	.st114{opacity:0.5;fill:url(#SVGID_58_);}
	.st115{opacity:0.5;fill:url(#SVGID_59_);}
	.st116{opacity:0.5;fill:url(#SVGID_60_);}
	.st117{opacity:0.5;fill:url(#SVGID_61_);}
	.st118{opacity:0.5;fill:url(#SVGID_62_);}
	.st119{opacity:0.5;fill:url(#SVGID_63_);}
	.st120{opacity:0.5;fill:url(#SVGID_64_);}
	.st121{fill:none;}
	.st122{fill:#E5584E;stroke:#000000;stroke-width:5;stroke-miterlimit:10;}
	.st123{fill:#A9463E;stroke:#000000;stroke-width:5;stroke-miterlimit:10;}
	.st124{fill:#F18049;stroke:#000000;stroke-width:5;stroke-miterlimit:10;}
	.st125{fill:#B46638;stroke:#000000;stroke-width:5;stroke-miterlimit:10;}
	.st126{fill:#F5D66A;stroke:#000000;stroke-width:5;stroke-miterlimit:10;}
	.st127{fill:#BDAC4F;stroke:#000000;stroke-width:5;stroke-miterlimit:10;}
	.st128{fill:#184343;stroke:#000000;stroke-width:5;stroke-miterlimit:10;}
	.st129{fill:#2C79AC;stroke:#000000;stroke-width:5;stroke-miterlimit:10;}
	.st130{fill:#39608B;stroke:#000000;stroke-width:5;stroke-miterlimit:10;}
	.st131{fill:#48535D;stroke:#000000;stroke-width:5;stroke-miterlimit:10;}
	.st132{fill:#292D33;stroke:#000000;stroke-width:5;stroke-miterlimit:10;}
	.st133{fill:#0088CC;stroke:#000000;stroke-width:5;stroke-miterlimit:10;}
	.st134{fill:#ECEBEC;stroke:#000000;stroke-width:5;stroke-miterlimit:10;}
	.st135{fill:#333333;stroke:#000000;stroke-width:5;stroke-miterlimit:10;}
	.st136{fill:#C4C4C4;stroke:#000000;stroke-width:5;stroke-miterlimit:10;}
	.st137{fill:#919DA9;stroke:#000000;stroke-width:5;stroke-miterlimit:10;}
	.st138{fill:#7A8594;stroke:#000000;stroke-width:5;stroke-miterlimit:10;}
	.st139{opacity:0.5;fill:url(#SVGID_65_);}
	.st140{fill:#3C8080;}
	.st141{fill:#4BA1A1;}
	.st142{opacity:0.5;fill:url(#SVGID_66_);}
	.st143{opacity:0.5;fill:url(#SVGID_67_);}
	.st144{fill:#005454;}
	.st145{opacity:0.5;fill:url(#SVGID_68_);}
	.st146{opacity:0.5;fill:url(#SVGID_69_);}
	.st147{opacity:0.5;fill:url(#SVGID_70_);}
	.st148{opacity:0.5;fill:url(#SVGID_71_);}
	.st149{opacity:0.5;fill:url(#SVGID_72_);}
	.st150{opacity:0.5;fill:url(#SVGID_73_);}
	.st151{fill:#A3A7E6;}
	.st152{fill:#E2E9FC;}
	.st153{opacity:0.5;fill:url(#SVGID_74_);}
	.st154{opacity:0.5;fill:url(#SVGID_75_);}
	.st155{fill:#333DC9;}
	.st156{opacity:0.5;fill:url(#SVGID_76_);}
	.st157{opacity:0.5;fill:url(#SVGID_77_);}
	.st158{opacity:0.5;fill:url(#SVGID_78_);}
	.st159{opacity:0.5;fill:url(#SVGID_79_);}
	.st160{opacity:0.5;fill:url(#SVGID_80_);}
	.st161{opacity:0.5;fill:url(#SVGID_81_);}
	.st162{opacity:0.5;fill:url(#SVGID_82_);}
	.st163{opacity:0.5;fill:url(#SVGID_83_);}
	.st164{opacity:0.5;fill:url(#SVGID_84_);}
	.st165{opacity:0.5;fill:url(#SVGID_85_);}
	.st166{opacity:0.5;fill:url(#SVGID_86_);}
	.st167{opacity:0.5;fill:url(#SVGID_87_);}
	.st168{opacity:0.5;fill:url(#SVGID_88_);}
	.st169{opacity:0.5;fill:url(#SVGID_89_);}
	.st170{opacity:0.5;fill:url(#SVGID_90_);}
	.st171{opacity:0.5;fill:url(#SVGID_91_);}
	.st172{opacity:0.5;fill:url(#SVGID_92_);}
	.st173{opacity:0.5;fill:url(#SVGID_93_);}
</style>
<g>
	<g>
		<path class="st151" d="M106.3,15.7L34.1,117.4c-3.5,7.1-3.3,15.4,0.4,22.3L180.8,408c6.4,11.7,21.1,16,32.8,9.6L390.7,321
			c11.7-6.4,16-21.1,9.6-32.8L251.2,14.9C247,7.1,238.9,2.5,230,2.5l-102.1,0C118.7,2.5,110.3,7.5,106.3,15.7z"/>
		<path class="st18" d="M202.1,423.1c-9.4,0-18.6-5-23.4-13.9L32.3,140.9c-4.2-7.6-4.3-16.8-0.5-24.6l0.2-0.3l72.1-101.5
			C108.6,5.5,117.7,0,127.9,0H230c9.8,0,18.8,5.2,23.4,13.7l149.1,273.4c3.4,6.2,4.2,13.5,2.2,20.3s-6.6,12.5-12.8,15.9l-177.1,96.6
			C210.8,422,206.4,423.1,202.1,423.1z M36.2,118.7c-3,6.3-2.9,13.7,0.5,19.8L183,406.8c5.7,10.5,18.9,14.4,29.4,8.6l177.1-96.6
			c5.1-2.8,8.8-7.3,10.4-12.9c1.6-5.5,1-11.4-1.8-16.5L249,16.1C245.3,9.2,238,5,230,5H127.9c-8.3,0-15.8,4.5-19.4,11.8l-0.2,0.3
			L36.2,118.7z"/>
	</g>
	<g>
		<path class="st152" d="M31.9,139.4l73.8,105.4c3.7,5.3,9.9,8.5,16.4,8.5l313.1,0c11,0,20-9,20-20V22.5c0-11-9-20-20-20l-313.1,0
			c-6.5,0-12.6,3.2-16.4,8.5L31.9,116.4C27.1,123.3,27.1,132.5,31.9,139.4z"/>
		<path class="st18" d="M435.2,255.8H122.1c-7.3,0-14.2-3.6-18.4-9.6L29.9,140.8c-5.4-7.7-5.4-18.1,0-25.8L103.7,9.6
			c4.2-6,11.1-9.6,18.4-9.6h313.1c12.4,0,22.5,10.1,22.5,22.5v210.8C457.7,245.7,447.6,255.8,435.2,255.8z M122.1,5
			c-5.7,0-11.1,2.8-14.3,7.5L34,117.9c-4.2,6-4.2,14.1,0,20.1l73.8,105.4c3.3,4.7,8.6,7.5,14.3,7.5h313.1c9.6,0,17.5-7.9,17.5-17.5
			V22.5c0-9.6-7.9-17.5-17.5-17.5H122.1z"/>
	</g>
	<g>
		<circle class="st155" cx="66.7" cy="127.8" r="18"/>
		<path class="st18" d="M66.7,148.4c-11.3,0-20.5-9.2-20.5-20.5c0-11.3,9.2-20.5,20.5-20.5s20.5,9.2,20.5,20.5
			C87.2,139.2,78,148.4,66.7,148.4z M66.7,112.3c-8.6,0-15.5,7-15.5,15.5c0,8.6,7,15.5,15.5,15.5s15.5-7,15.5-15.5
			C82.2,119.3,75.2,112.3,66.7,112.3z"/>
	</g>
	<g>
		<path class="st151" d="M12.7,114.6h43.7c5.6,0,10.2,4.6,10.2,10.2v6c0,5.6-4.6,10.2-10.2,10.2H12.7c-5.6,0-10.2-4.6-10.2-10.2l0-6
			C2.5,119.2,7.1,114.6,12.7,114.6z"/>
		<path class="st18" d="M56.4,143.6H12.7c-7,0-12.7-5.7-12.7-12.7v-6c0-7,5.7-12.7,12.7-12.7h43.7c7,0,12.7,5.7,12.7,12.7v6
			C69.2,137.8,63.4,143.6,56.4,143.6z M12.7,117.1c-4.3,0-7.7,3.5-7.7,7.7v6c0,4.3,3.5,7.7,7.7,7.7h43.7c4.3,0,7.7-3.5,7.7-7.7v-6
			c0-4.3-3.5-7.7-7.7-7.7H12.7z"/>
	</g>
	<g>
		<path class="st18" d="M243.8,101c0,14-2.7,24.5-8.1,31.5c-5.4,7-13.4,10.5-23.8,10.5c-10,0-17.8-3.6-23.3-10.8
			c-5.5-7.2-8.2-17.6-8.2-31.3c0-27.8,10.5-41.7,31.5-41.7c10.3,0,18.2,3.6,23.7,10.8C241,77.3,243.8,87.6,243.8,101z M203.4,101.1
			c0,7.7,0.7,13.5,2.1,17.3c1.4,3.8,3.6,5.7,6.6,5.7c5.8,0,8.8-7.7,8.8-23c0-15.2-2.9-22.8-8.8-22.8c-3,0-5.2,1.9-6.6,5.6
			C204,87.7,203.4,93.4,203.4,101.1z M306.6,61.2l-74,133.5h-21.9l74-133.5H306.6z M337.3,154.3c0,13.9-2.7,24.4-8.1,31.5
			c-5.4,7-13.4,10.5-23.8,10.5c-10,0-17.8-3.6-23.3-10.8s-8.2-17.6-8.2-31.2c0-27.8,10.5-41.7,31.5-41.7c10.3,0,18.2,3.6,23.7,10.8
			C334.5,130.6,337.3,140.9,337.3,154.3z M296.8,154.5c0,7.7,0.7,13.5,2.1,17.3c1.4,3.8,3.6,5.7,6.6,5.7c5.8,0,8.8-7.7,8.8-23
			c0-15.2-2.9-22.8-8.8-22.8c-3,0-5.2,1.9-6.6,5.6C297.5,141,296.8,146.7,296.8,154.5z"/>
	</g>
	<linearGradient id="SVGID_1_" gradientUnits="userSpaceOnUse" x1="2.4998" y1="212.7504" x2="396.7928" y2="212.7504">
		<stop  offset="0" style="stop-color:#333DC9"/>
		<stop  offset="1" style="stop-color:#333DC9;stop-opacity:0.2"/>
	</linearGradient>
	<path style="opacity:0.5;fill:url(#SVGID_1_);" d="M367.1,320.9c-142.4,0-257.8-115.4-257.8-257.8c0-20,2.3-39.5,6.6-58.1
		c-2.7,1.5-5,3.5-6.8,6.1L36.5,114.6H12.7c-5.6,0-10.2,4.6-10.2,10.2v6c0,5.6,4.6,10.2,10.2,10.2h23.6l9.9,14.1L184.1,408
		c6.4,11.7,21.1,16,32.8,9.6L394,321c1-0.5,1.9-1.2,2.8-1.8C387,320.3,377.1,320.9,367.1,320.9z"/>
</g>
</svg>
