<?xml version="1.0" encoding="utf-8"?>
<!-- Generator: Adobe Illustrator 21.0.2, SVG Export Plug-In . SVG Version: 6.00 Build 0)  -->
<svg version="1.1" id="Layer_1" xmlns="http://www.w3.org/2000/svg" xmlns:xlink="http://www.w3.org/1999/xlink" x="0px" y="0px"
	 viewBox="0 0 378.6 423" style="enable-background:new 0 0 378.6 423;" xml:space="preserve">
<style type="text/css">
	.st0{fill:#005454;stroke:#000000;stroke-width:5;stroke-miterlimit:10;}
	.st1{fill:#FFC5EC;}
	.st2{fill:#32DCE2;stroke:#000000;stroke-width:5;stroke-miterlimit:10;}
	.st3{opacity:0.5;fill:#2957EF;}
	.st4{opacity:0.5;fill:#833DC9;}
	.st5{opacity:0.5;fill:#333DC9;}
	.st6{fill:none;stroke:#000769;stroke-width:5;stroke-linecap:round;stroke-miterlimit:10;}
	.st7{fill:#333DC9;stroke:#000769;stroke-width:5;stroke-miterlimit:10;}
	.st8{fill:none;stroke:#231F20;stroke-width:5;stroke-miterlimit:10;}
	.st9{fill:none;stroke:#231F20;stroke-miterlimit:10;}
	.st10{fill:url(#SVGID_1_);}
	.st11{fill:none;stroke:#000000;stroke-width:5;stroke-miterlimit:10;}
	.st12{fill:#FFFFFF;stroke:#000000;stroke-width:5;stroke-miterlimit:10;}
	.st13{fill:#939598;stroke:#000000;stroke-width:5;stroke-miterlimit:10;}
	.st14{fill:#D1D3D4;stroke:#000000;stroke-width:5;stroke-miterlimit:10;}
	.st15{fill:#F1F2F2;stroke:#000000;stroke-width:5;stroke-miterlimit:10;}
	.st16{fill:#FFFFFF;stroke:#000769;stroke-width:5;stroke-miterlimit:10;}
	.st17{fill:#A3A7E6;stroke:#000769;stroke-width:5;stroke-miterlimit:10;}
	.st18{fill:#000769;}
	.st19{fill:#E2E9FC;stroke:#000769;stroke-width:5;stroke-miterlimit:10;}
	.st20{fill:url(#SVGID_2_);}
	.st21{fill:url(#SVGID_3_);}
	.st22{fill:url(#SVGID_4_);}
	.st23{fill:url(#SVGID_5_);}
	.st24{fill:url(#SVGID_6_);}
	.st25{fill:url(#SVGID_7_);}
	.st26{fill:url(#SVGID_8_);}
	.st27{fill:url(#SVGID_9_);}
	.st28{fill:url(#SVGID_10_);}
	.st29{fill:#FFFFFF;stroke:#231F20;stroke-width:5;stroke-miterlimit:10;}
	.st30{stroke:#000000;stroke-width:5;stroke-miterlimit:10;}
	.st31{fill:none;stroke:#000000;stroke-miterlimit:10;}
	.st32{fill:none;stroke:#231F20;stroke-width:5;stroke-linecap:round;stroke-miterlimit:10;}
	.st33{fill:none;stroke:#231F20;stroke-width:5;stroke-linecap:round;stroke-linejoin:round;stroke-miterlimit:10;}
	.st34{opacity:0.3;}
	.st35{fill:#FFFFFF;stroke:#231F20;stroke-miterlimit:10;}
	.st36{fill:none;stroke:#000000;stroke-width:10;stroke-miterlimit:10;}
	.st37{fill:none;stroke:#000769;stroke-width:10;stroke-miterlimit:10;}
	.st38{opacity:0.5;fill:#000769;}
	.st39{fill:#F26565;stroke:#000000;stroke-width:5;stroke-miterlimit:10;}
	.st40{fill:#0028A1;stroke:#000000;stroke-width:5;stroke-miterlimit:10;}
	.st41{fill:#678BF7;stroke:#000000;stroke-width:5;stroke-miterlimit:10;}
	.st42{fill:#6FEDED;stroke:#000000;stroke-width:5;stroke-miterlimit:10;}
	.st43{fill:#75FAFA;stroke:#000000;stroke-width:5;stroke-miterlimit:10;}
	.st44{fill:#A9F4F4;}
	.st45{fill:#3C8080;stroke:#000000;stroke-width:5;stroke-miterlimit:10;}
	.st46{fill:#4BA1A1;stroke:#000000;stroke-width:5;stroke-miterlimit:10;}
	.st47{opacity:0.5;fill:url(#SVGID_11_);}
	.st48{opacity:0.5;fill:url(#SVGID_12_);}
	.st49{opacity:0.5;fill:url(#SVGID_13_);}
	.st50{opacity:0.5;fill:url(#SVGID_14_);}
	.st51{fill:#FFFFFF;}
	.st52{opacity:0.5;fill:url(#SVGID_15_);}
	.st53{opacity:0.5;fill:url(#SVGID_16_);}
	.st54{opacity:0.5;fill:url(#SVGID_17_);}
	.st55{opacity:0.5;fill:url(#SVGID_18_);}
	.st56{fill:none;stroke:#005454;stroke-width:5;stroke-linecap:round;stroke-miterlimit:10;}
	.st57{opacity:0.5;fill:url(#SVGID_19_);}
	.st58{opacity:0.5;fill:url(#SVGID_20_);}
	.st59{opacity:0.5;fill:url(#SVGID_21_);}
	.st60{fill:none;stroke:#005454;stroke-width:10;stroke-miterlimit:10;}
	.st61{opacity:0.5;fill:url(#SVGID_22_);}
	.st62{fill:#184343;}
	.st63{opacity:0.5;fill:#184343;}
	.st64{opacity:0.5;fill:url(#SVGID_23_);}
	.st65{opacity:0.5;fill:url(#SVGID_24_);}
	.st66{opacity:0.5;fill:url(#SVGID_25_);}
	.st67{opacity:0.5;fill:url(#SVGID_26_);}
	.st68{opacity:0.5;fill:url(#SVGID_27_);}
	.st69{opacity:0.5;fill:url(#SVGID_28_);}
	.st70{fill:#F6F6F6;stroke:#000000;stroke-width:5;stroke-miterlimit:10;}
	.st71{opacity:0.5;fill:url(#SVGID_29_);}
	.st72{opacity:0.5;fill:url(#SVGID_30_);}
	.st73{fill:none;stroke:#CCCCCC;stroke-miterlimit:10;}
	.st74{fill:#85FBFF;stroke:#000000;stroke-width:5;stroke-miterlimit:10;}
	.st75{fill:#2957EF;stroke:#000000;stroke-width:5;stroke-miterlimit:10;}
	.st76{fill:#0028A1;}
	.st77{opacity:0.5;fill:url(#SVGID_31_);}
	.st78{fill:#C5F8F8;}
	.st79{fill:#5AA7D6;stroke:#000000;stroke-width:5;stroke-miterlimit:10;}
	.st80{fill:#FFFFFF;stroke:#000000;stroke-width:10;stroke-miterlimit:10;}
	.st81{opacity:0.75;fill:#A329EF;}
	.st82{opacity:0.75;fill:#E92B28;}
	.st83{opacity:0.75;fill:#AF157D;}
	.st84{fill:#85FBFF;}
	.st85{fill:#2957EF;}
	.st86{opacity:0.5;fill:url(#SVGID_32_);}
	.st87{opacity:0.5;fill:url(#SVGID_33_);}
	.st88{opacity:0.5;fill:url(#SVGID_34_);}
	.st89{opacity:0.5;fill:url(#SVGID_35_);}
	.st90{fill:#32DCE2;}
	.st91{opacity:0.5;fill:url(#SVGID_36_);}
	.st92{opacity:0.5;fill:url(#SVGID_37_);}
	.st93{opacity:0.5;fill:url(#SVGID_38_);}
	.st94{opacity:0.5;fill:url(#SVGID_39_);}
	.st95{opacity:0.5;fill:url(#SVGID_40_);}
	.st96{opacity:0.5;fill:url(#SVGID_41_);}
	.st97{opacity:0.5;fill:url(#SVGID_42_);}
	.st98{opacity:0.5;fill:url(#SVGID_43_);}
	.st99{fill:#231F20;}
	.st100{opacity:0.5;fill:url(#SVGID_44_);}
	.st101{opacity:0.75;fill:url(#SVGID_45_);}
	.st102{opacity:0.5;fill:url(#SVGID_46_);}
	.st103{opacity:0.5;fill:url(#SVGID_47_);}
	.st104{opacity:0.5;fill:url(#SVGID_48_);}
	.st105{opacity:0.5;fill:url(#SVGID_49_);}
	.st106{opacity:0.5;fill:url(#SVGID_50_);}
	.st107{opacity:0.5;fill:url(#SVGID_51_);}
	.st108{opacity:0.5;fill:url(#SVGID_52_);}
	.st109{opacity:0.5;fill:url(#SVGID_53_);}
	.st110{opacity:0.5;fill:url(#SVGID_54_);}
	.st111{opacity:0.5;fill:url(#SVGID_55_);}
	.st112{opacity:0.5;fill:url(#SVGID_56_);}
	.st113{opacity:0.5;fill:url(#SVGID_57_);}
	.st114{opacity:0.5;fill:url(#SVGID_58_);}
	.st115{opacity:0.5;fill:url(#SVGID_59_);}
	.st116{opacity:0.5;fill:url(#SVGID_60_);}
	.st117{opacity:0.5;fill:url(#SVGID_61_);}
	.st118{opacity:0.5;fill:url(#SVGID_62_);}
	.st119{opacity:0.5;fill:url(#SVGID_63_);}
	.st120{opacity:0.5;fill:url(#SVGID_64_);}
	.st121{fill:none;}
	.st122{fill:#E5584E;stroke:#000000;stroke-width:5;stroke-miterlimit:10;}
	.st123{fill:#A9463E;stroke:#000000;stroke-width:5;stroke-miterlimit:10;}
	.st124{fill:#F18049;stroke:#000000;stroke-width:5;stroke-miterlimit:10;}
	.st125{fill:#B46638;stroke:#000000;stroke-width:5;stroke-miterlimit:10;}
	.st126{fill:#F5D66A;stroke:#000000;stroke-width:5;stroke-miterlimit:10;}
	.st127{fill:#BDAC4F;stroke:#000000;stroke-width:5;stroke-miterlimit:10;}
	.st128{fill:#184343;stroke:#000000;stroke-width:5;stroke-miterlimit:10;}
	.st129{fill:#2C79AC;stroke:#000000;stroke-width:5;stroke-miterlimit:10;}
	.st130{fill:#39608B;stroke:#000000;stroke-width:5;stroke-miterlimit:10;}
	.st131{fill:#48535D;stroke:#000000;stroke-width:5;stroke-miterlimit:10;}
	.st132{fill:#292D33;stroke:#000000;stroke-width:5;stroke-miterlimit:10;}
	.st133{fill:#0088CC;stroke:#000000;stroke-width:5;stroke-miterlimit:10;}
	.st134{fill:#ECEBEC;stroke:#000000;stroke-width:5;stroke-miterlimit:10;}
	.st135{fill:#333333;stroke:#000000;stroke-width:5;stroke-miterlimit:10;}
	.st136{fill:#C4C4C4;stroke:#000000;stroke-width:5;stroke-miterlimit:10;}
	.st137{fill:#919DA9;stroke:#000000;stroke-width:5;stroke-miterlimit:10;}
	.st138{fill:#7A8594;stroke:#000000;stroke-width:5;stroke-miterlimit:10;}
	.st139{opacity:0.5;fill:url(#SVGID_65_);}
	.st140{fill:#3C8080;}
	.st141{fill:#4BA1A1;}
	.st142{opacity:0.5;fill:url(#SVGID_66_);}
	.st143{opacity:0.5;fill:url(#SVGID_67_);}
	.st144{fill:#005454;}
	.st145{opacity:0.5;fill:url(#SVGID_68_);}
	.st146{opacity:0.5;fill:url(#SVGID_69_);}
	.st147{opacity:0.5;fill:url(#SVGID_70_);}
	.st148{opacity:0.5;fill:url(#SVGID_71_);}
	.st149{opacity:0.5;fill:url(#SVGID_72_);}
	.st150{opacity:0.5;fill:url(#SVGID_73_);}
	.st151{fill:#A3A7E6;}
	.st152{fill:#E2E9FC;}
	.st153{opacity:0.5;fill:url(#SVGID_74_);}
	.st154{opacity:0.5;fill:url(#SVGID_75_);}
	.st155{fill:#333DC9;}
	.st156{opacity:0.5;fill:url(#SVGID_76_);}
	.st157{opacity:0.5;fill:url(#SVGID_77_);}
	.st158{opacity:0.5;fill:url(#SVGID_78_);}
	.st159{opacity:0.5;fill:url(#SVGID_79_);}
	.st160{opacity:0.5;fill:url(#SVGID_80_);}
	.st161{opacity:0.5;fill:url(#SVGID_81_);}
</style>
<g>
	<g>
		<path class="st152" d="M356.1,2.5H22.5c-11,0-20,9-20,20v378c0,11,9,20,20,20h333.6c11,0,20-9,20-20v-378
			C376.1,11.5,367.2,2.5,356.1,2.5z"/>
		<path class="st18" d="M356.1,423H22.5C10.1,423,0,413,0,400.5v-378C0,10.1,10.1,0,22.5,0h333.6c12.4,0,22.5,10.1,22.5,22.5v378
			C378.6,413,368.6,423,356.1,423z M22.5,5C12.9,5,5,12.9,5,22.5v378c0,9.6,7.9,17.5,17.5,17.5h333.6c9.6,0,17.5-7.9,17.5-17.5v-378
			c0-9.6-7.9-17.5-17.5-17.5H22.5z"/>
	</g>
	<g>
		<path class="st151" d="M356.1,2.5H22.5c-11,0-20,9-20,20v42.9h373.6V22.5C376.1,11.5,367.2,2.5,356.1,2.5z"/>
		<path class="st18" d="M378.6,68H0V22.5C0,10.1,10.1,0,22.5,0h333.6c12.4,0,22.5,10.1,22.5,22.5V68z M5,63h368.6V22.5
			c0-9.6-7.9-17.5-17.5-17.5H22.5C12.9,5,5,12.9,5,22.5V63z"/>
	</g>
	<g>
		<g>
			<circle class="st152" cx="43.8" cy="34" r="11.3"/>
			<path class="st18" d="M43.8,47.8C36.2,47.8,30,41.6,30,34s6.2-13.8,13.8-13.8S57.6,26.4,57.6,34S51.4,47.8,43.8,47.8z M43.8,25.2
				c-4.9,0-8.8,3.9-8.8,8.8s3.9,8.8,8.8,8.8s8.8-3.9,8.8-8.8S48.7,25.2,43.8,25.2z"/>
		</g>
		<g>
			<circle class="st152" cx="81.9" cy="34" r="11.3"/>
			<path class="st18" d="M81.9,47.8c-7.6,0-13.8-6.2-13.8-13.8s6.2-13.8,13.8-13.8S95.7,26.4,95.7,34S89.5,47.8,81.9,47.8z
				 M81.9,25.2c-4.9,0-8.8,3.9-8.8,8.8s3.9,8.8,8.8,8.8s8.8-3.9,8.8-8.8S86.8,25.2,81.9,25.2z"/>
		</g>
		<g>
			<circle class="st152" cx="120" cy="34" r="11.3"/>
			<path class="st18" d="M120,47.8c-7.6,0-13.8-6.2-13.8-13.8s6.2-13.8,13.8-13.8s13.8,6.2,13.8,13.8S127.6,47.8,120,47.8z
				 M120,25.2c-4.9,0-8.8,3.9-8.8,8.8s3.9,8.8,8.8,8.8s8.8-3.9,8.8-8.8S124.9,25.2,120,25.2z"/>
		</g>
	</g>
	<path class="st18" d="M332.7,128H108.3c-5,0-9.1,4.1-9.1,9.1v0c0,5,4.1,9.1,9.1,9.1h224.4c5,0,9.1-4.1,9.1-9.1v0
		C341.8,132.1,337.7,128,332.7,128z"/>
	<g>
		<path class="st18" d="M48.4,147.9v-3.1c0-2.7,0.6-5,1.7-7s3.3-4.1,6.3-6.3c2.9-2.1,4.9-3.8,5.8-5.1c0.9-1.3,1.4-2.8,1.4-4.4
			c0-1.8-0.7-3.2-2-4.2c-1.3-1-3.2-1.4-5.6-1.4c-4.2,0-9,1.4-14.4,4.1l-4.6-9.2c6.3-3.5,12.9-5.3,19.9-5.3c5.8,0,10.4,1.4,13.8,4.2
			c3.4,2.8,5.1,6.5,5.1,11.1c0,3.1-0.7,5.7-2.1,8c-1.4,2.2-4.1,4.8-8,7.6c-2.7,2-4.4,3.5-5.1,4.5s-1.1,2.4-1.1,4.1v2.5H48.4z
			 M47.1,162.2c0-2.4,0.6-4.1,1.9-5.3c1.3-1.2,3.1-1.8,5.5-1.8c2.3,0,4.1,0.6,5.4,1.9s1.9,3,1.9,5.3c0,2.2-0.6,4-1.9,5.2
			c-1.3,1.3-3.1,1.9-5.4,1.9c-2.4,0-4.2-0.6-5.5-1.9S47.1,164.5,47.1,162.2z"/>
	</g>
	<path class="st18" d="M332.7,234.3H108.3c-5,0-9.1,4.1-9.1,9.1v0c0,5,4.1,9.1,9.1,9.1h224.4c5,0,9.1-4.1,9.1-9.1v0
		C341.8,238.4,337.7,234.3,332.7,234.3z"/>
	<g>
		<path class="st18" d="M48.4,254.2v-3.1c0-2.7,0.6-5,1.7-7s3.3-4.1,6.3-6.3c2.9-2.1,4.9-3.8,5.8-5.1c0.9-1.3,1.4-2.8,1.4-4.4
			c0-1.8-0.7-3.2-2-4.2c-1.3-1-3.2-1.4-5.6-1.4c-4.2,0-9,1.4-14.4,4.1l-4.6-9.2c6.3-3.5,12.9-5.3,19.9-5.3c5.8,0,10.4,1.4,13.8,4.2
			c3.4,2.8,5.1,6.5,5.1,11.1c0,3.1-0.7,5.7-2.1,8c-1.4,2.2-4.1,4.8-8,7.6c-2.7,2-4.4,3.5-5.1,4.5s-1.1,2.4-1.1,4.1v2.5H48.4z
			 M47.1,268.6c0-2.4,0.6-4.1,1.9-5.3c1.3-1.2,3.1-1.8,5.5-1.8c2.3,0,4.1,0.6,5.4,1.9s1.9,3,1.9,5.3c0,2.2-0.6,4-1.9,5.2
			c-1.3,1.3-3.1,1.9-5.4,1.9c-2.4,0-4.2-0.6-5.5-1.9S47.1,270.8,47.1,268.6z"/>
	</g>
	<path class="st18" d="M332.7,340.7H108.3c-5,0-9.1,4.1-9.1,9.1v0c0,5,4.1,9.1,9.1,9.1h224.4c5,0,9.1-4.1,9.1-9.1v0
		C341.8,344.8,337.7,340.7,332.7,340.7z"/>
	<g>
		<path class="st18" d="M48.4,360.5v-3.1c0-2.7,0.6-5,1.7-7s3.3-4.1,6.3-6.3c2.9-2.1,4.9-3.8,5.8-5.1c0.9-1.3,1.4-2.8,1.4-4.4
			c0-1.8-0.7-3.2-2-4.2c-1.3-1-3.2-1.4-5.6-1.4c-4.2,0-9,1.4-14.4,4.1l-4.6-9.2c6.3-3.5,12.9-5.3,19.9-5.3c5.8,0,10.4,1.4,13.8,4.2
			c3.4,2.8,5.1,6.5,5.1,11.1c0,3.1-0.7,5.7-2.1,8c-1.4,2.2-4.1,4.8-8,7.6c-2.7,2-4.4,3.5-5.1,4.5s-1.1,2.4-1.1,4.1v2.5H48.4z
			 M47.1,374.9c0-2.4,0.6-4.1,1.9-5.3c1.3-1.2,3.1-1.8,5.5-1.8c2.3,0,4.1,0.6,5.4,1.9s1.9,3,1.9,5.3c0,2.2-0.6,4-1.9,5.2
			c-1.3,1.3-3.1,1.9-5.4,1.9c-2.4,0-4.2-0.6-5.5-1.9S47.1,377.2,47.1,374.9z"/>
	</g>
	<linearGradient id="SVGID_1_" gradientUnits="userSpaceOnUse" x1="2.5002" y1="211.5233" x2="250.3141" y2="211.5233">
		<stop  offset="0" style="stop-color:#333DC9"/>
		<stop  offset="1" style="stop-color:#333DC9;stop-opacity:0.2"/>
	</linearGradient>
	<path style="opacity:0.5;fill:url(#SVGID_1_);" d="M227.4,2.5H22.5c-11,0-20,9-20,20v378c0,11,9,20,20,20h227.8
		C145.4,315.7,152.8,77,227.4,2.5z"/>
</g>
</svg>
