<?xml version="1.0" encoding="utf-8"?>
<!-- Generator: Adobe Illustrator 21.0.2, SVG Export Plug-In . SVG Version: 6.00 Build 0)  -->
<svg version="1.1" id="Layer_1" xmlns="http://www.w3.org/2000/svg" xmlns:xlink="http://www.w3.org/1999/xlink" x="0px" y="0px"
	 viewBox="0 0 457.8 423" style="enable-background:new 0 0 457.8 423;" xml:space="preserve">
<style type="text/css">
	.st0{fill:#005454;stroke:#000000;stroke-width:5;stroke-miterlimit:10;}
	.st1{fill:#FFC5EC;}
	.st2{fill:#32DCE2;stroke:#000000;stroke-width:5;stroke-miterlimit:10;}
	.st3{opacity:0.5;fill:#2957EF;}
	.st4{opacity:0.5;fill:#833DC9;}
	.st5{opacity:0.5;fill:#333DC9;}
	.st6{fill:none;stroke:#000769;stroke-width:5;stroke-linecap:round;stroke-miterlimit:10;}
	.st7{fill:#333DC9;stroke:#000769;stroke-width:5;stroke-miterlimit:10;}
	.st8{fill:none;stroke:#231F20;stroke-width:5;stroke-miterlimit:10;}
	.st9{fill:none;stroke:#231F20;stroke-miterlimit:10;}
	.st10{fill:url(#SVGID_1_);}
	.st11{fill:none;stroke:#000000;stroke-width:5;stroke-miterlimit:10;}
	.st12{fill:#FFFFFF;stroke:#000000;stroke-width:5;stroke-miterlimit:10;}
	.st13{fill:#939598;stroke:#000000;stroke-width:5;stroke-miterlimit:10;}
	.st14{fill:#D1D3D4;stroke:#000000;stroke-width:5;stroke-miterlimit:10;}
	.st15{fill:#F1F2F2;stroke:#000000;stroke-width:5;stroke-miterlimit:10;}
	.st16{fill:#FFFFFF;stroke:#000769;stroke-width:5;stroke-miterlimit:10;}
	.st17{fill:#A3A7E6;stroke:#000769;stroke-width:5;stroke-miterlimit:10;}
	.st18{fill:#000769;}
	.st19{fill:#E2E9FC;stroke:#000769;stroke-width:5;stroke-miterlimit:10;}
	.st20{fill:url(#SVGID_2_);}
	.st21{fill:url(#SVGID_3_);}
	.st22{fill:url(#SVGID_4_);}
	.st23{fill:url(#SVGID_5_);}
	.st24{fill:url(#SVGID_6_);}
	.st25{fill:url(#SVGID_7_);}
	.st26{fill:url(#SVGID_8_);}
	.st27{fill:url(#SVGID_9_);}
	.st28{fill:url(#SVGID_10_);}
	.st29{fill:#FFFFFF;stroke:#231F20;stroke-width:5;stroke-miterlimit:10;}
	.st30{stroke:#000000;stroke-width:5;stroke-miterlimit:10;}
	.st31{fill:none;stroke:#000000;stroke-miterlimit:10;}
	.st32{fill:none;stroke:#231F20;stroke-width:5;stroke-linecap:round;stroke-miterlimit:10;}
	.st33{fill:none;stroke:#231F20;stroke-width:5;stroke-linecap:round;stroke-linejoin:round;stroke-miterlimit:10;}
	.st34{opacity:0.3;}
	.st35{fill:#FFFFFF;stroke:#231F20;stroke-miterlimit:10;}
	.st36{fill:none;stroke:#000000;stroke-width:10;stroke-miterlimit:10;}
	.st37{fill:none;stroke:#000769;stroke-width:10;stroke-miterlimit:10;}
	.st38{opacity:0.5;fill:#000769;}
	.st39{fill:#F26565;stroke:#000000;stroke-width:5;stroke-miterlimit:10;}
	.st40{fill:#0028A1;stroke:#000000;stroke-width:5;stroke-miterlimit:10;}
	.st41{fill:#678BF7;stroke:#000000;stroke-width:5;stroke-miterlimit:10;}
	.st42{fill:#6FEDED;stroke:#000000;stroke-width:5;stroke-miterlimit:10;}
	.st43{fill:#75FAFA;stroke:#000000;stroke-width:5;stroke-miterlimit:10;}
	.st44{fill:#A9F4F4;}
	.st45{fill:#3C8080;stroke:#000000;stroke-width:5;stroke-miterlimit:10;}
	.st46{fill:#4BA1A1;stroke:#000000;stroke-width:5;stroke-miterlimit:10;}
	.st47{opacity:0.5;fill:url(#SVGID_11_);}
	.st48{opacity:0.5;fill:url(#SVGID_12_);}
	.st49{opacity:0.5;fill:url(#SVGID_13_);}
	.st50{opacity:0.5;fill:url(#SVGID_14_);}
	.st51{fill:#FFFFFF;}
	.st52{opacity:0.5;fill:url(#SVGID_15_);}
	.st53{opacity:0.5;fill:url(#SVGID_16_);}
	.st54{opacity:0.5;fill:url(#SVGID_17_);}
	.st55{opacity:0.5;fill:url(#SVGID_18_);}
	.st56{fill:none;stroke:#005454;stroke-width:5;stroke-linecap:round;stroke-miterlimit:10;}
	.st57{opacity:0.5;fill:url(#SVGID_19_);}
	.st58{opacity:0.5;fill:url(#SVGID_20_);}
	.st59{opacity:0.5;fill:url(#SVGID_21_);}
	.st60{fill:none;stroke:#005454;stroke-width:10;stroke-miterlimit:10;}
	.st61{opacity:0.5;fill:url(#SVGID_22_);}
	.st62{fill:#184343;}
	.st63{opacity:0.5;fill:#184343;}
	.st64{opacity:0.5;fill:url(#SVGID_23_);}
	.st65{opacity:0.5;fill:url(#SVGID_24_);}
	.st66{opacity:0.5;fill:url(#SVGID_25_);}
	.st67{opacity:0.5;fill:url(#SVGID_26_);}
	.st68{opacity:0.5;fill:url(#SVGID_27_);}
	.st69{opacity:0.5;fill:url(#SVGID_28_);}
	.st70{fill:#F6F6F6;stroke:#000000;stroke-width:5;stroke-miterlimit:10;}
	.st71{opacity:0.5;fill:url(#SVGID_29_);}
	.st72{opacity:0.5;fill:url(#SVGID_30_);}
	.st73{fill:none;stroke:#CCCCCC;stroke-miterlimit:10;}
	.st74{fill:#85FBFF;stroke:#000000;stroke-width:5;stroke-miterlimit:10;}
	.st75{fill:#2957EF;stroke:#000000;stroke-width:5;stroke-miterlimit:10;}
	.st76{fill:#0028A1;}
	.st77{opacity:0.5;fill:url(#SVGID_31_);}
	.st78{fill:#C5F8F8;}
	.st79{fill:#5AA7D6;stroke:#000000;stroke-width:5;stroke-miterlimit:10;}
	.st80{fill:#FFFFFF;stroke:#000000;stroke-width:10;stroke-miterlimit:10;}
	.st81{opacity:0.75;fill:#A329EF;}
	.st82{opacity:0.75;fill:#E92B28;}
	.st83{opacity:0.75;fill:#AF157D;}
	.st84{fill:#85FBFF;}
	.st85{fill:#2957EF;}
	.st86{opacity:0.5;fill:url(#SVGID_32_);}
	.st87{opacity:0.5;fill:url(#SVGID_33_);}
	.st88{opacity:0.5;fill:url(#SVGID_34_);}
	.st89{opacity:0.5;fill:url(#SVGID_35_);}
	.st90{fill:#32DCE2;}
	.st91{opacity:0.5;fill:url(#SVGID_36_);}
	.st92{opacity:0.5;fill:url(#SVGID_37_);}
	.st93{opacity:0.5;fill:url(#SVGID_38_);}
	.st94{opacity:0.5;fill:url(#SVGID_39_);}
	.st95{opacity:0.5;fill:url(#SVGID_40_);}
	.st96{opacity:0.5;fill:url(#SVGID_41_);}
	.st97{opacity:0.5;fill:url(#SVGID_42_);}
	.st98{opacity:0.5;fill:url(#SVGID_43_);}
	.st99{fill:#231F20;}
	.st100{opacity:0.5;fill:url(#SVGID_44_);}
	.st101{opacity:0.75;fill:url(#SVGID_45_);}
	.st102{opacity:0.5;fill:url(#SVGID_46_);}
	.st103{opacity:0.5;fill:url(#SVGID_47_);}
	.st104{opacity:0.5;fill:url(#SVGID_48_);}
	.st105{opacity:0.5;fill:url(#SVGID_49_);}
	.st106{opacity:0.5;fill:url(#SVGID_50_);}
	.st107{opacity:0.5;fill:url(#SVGID_51_);}
	.st108{opacity:0.5;fill:url(#SVGID_52_);}
	.st109{opacity:0.5;fill:url(#SVGID_53_);}
	.st110{opacity:0.5;fill:url(#SVGID_54_);}
	.st111{opacity:0.5;fill:url(#SVGID_55_);}
	.st112{opacity:0.5;fill:url(#SVGID_56_);}
	.st113{opacity:0.5;fill:url(#SVGID_57_);}
	.st114{opacity:0.5;fill:url(#SVGID_58_);}
	.st115{opacity:0.5;fill:url(#SVGID_59_);}
	.st116{opacity:0.5;fill:url(#SVGID_60_);}
	.st117{opacity:0.5;fill:url(#SVGID_61_);}
	.st118{opacity:0.5;fill:url(#SVGID_62_);}
	.st119{opacity:0.5;fill:url(#SVGID_63_);}
	.st120{opacity:0.5;fill:url(#SVGID_64_);}
	.st121{fill:none;}
	.st122{fill:#E5584E;stroke:#000000;stroke-width:5;stroke-miterlimit:10;}
	.st123{fill:#A9463E;stroke:#000000;stroke-width:5;stroke-miterlimit:10;}
	.st124{fill:#F18049;stroke:#000000;stroke-width:5;stroke-miterlimit:10;}
	.st125{fill:#B46638;stroke:#000000;stroke-width:5;stroke-miterlimit:10;}
	.st126{fill:#F5D66A;stroke:#000000;stroke-width:5;stroke-miterlimit:10;}
	.st127{fill:#BDAC4F;stroke:#000000;stroke-width:5;stroke-miterlimit:10;}
	.st128{fill:#184343;stroke:#000000;stroke-width:5;stroke-miterlimit:10;}
	.st129{fill:#2C79AC;stroke:#000000;stroke-width:5;stroke-miterlimit:10;}
	.st130{fill:#39608B;stroke:#000000;stroke-width:5;stroke-miterlimit:10;}
	.st131{fill:#48535D;stroke:#000000;stroke-width:5;stroke-miterlimit:10;}
	.st132{fill:#292D33;stroke:#000000;stroke-width:5;stroke-miterlimit:10;}
	.st133{fill:#0088CC;stroke:#000000;stroke-width:5;stroke-miterlimit:10;}
	.st134{fill:#ECEBEC;stroke:#000000;stroke-width:5;stroke-miterlimit:10;}
	.st135{fill:#333333;stroke:#000000;stroke-width:5;stroke-miterlimit:10;}
	.st136{fill:#C4C4C4;stroke:#000000;stroke-width:5;stroke-miterlimit:10;}
	.st137{fill:#919DA9;stroke:#000000;stroke-width:5;stroke-miterlimit:10;}
	.st138{fill:#7A8594;stroke:#000000;stroke-width:5;stroke-miterlimit:10;}
	.st139{opacity:0.5;fill:url(#SVGID_65_);}
	.st140{fill:#3C8080;}
	.st141{fill:#4BA1A1;}
	.st142{opacity:0.5;fill:url(#SVGID_66_);}
	.st143{opacity:0.5;fill:url(#SVGID_67_);}
	.st144{fill:#005454;}
	.st145{opacity:0.5;fill:url(#SVGID_68_);}
	.st146{opacity:0.5;fill:url(#SVGID_69_);}
	.st147{opacity:0.5;fill:url(#SVGID_70_);}
	.st148{opacity:0.5;fill:url(#SVGID_71_);}
	.st149{opacity:0.5;fill:url(#SVGID_72_);}
	.st150{opacity:0.5;fill:url(#SVGID_73_);}
	.st151{fill:#A3A7E6;}
	.st152{fill:#E2E9FC;}
	.st153{opacity:0.5;fill:url(#SVGID_74_);}
	.st154{opacity:0.5;fill:url(#SVGID_75_);}
	.st155{fill:#333DC9;}
	.st156{opacity:0.5;fill:url(#SVGID_76_);}
	.st157{opacity:0.5;fill:url(#SVGID_77_);}
	.st158{opacity:0.5;fill:url(#SVGID_78_);}
	.st159{opacity:0.5;fill:url(#SVGID_79_);}
	.st160{opacity:0.5;fill:url(#SVGID_80_);}
	.st161{opacity:0.5;fill:url(#SVGID_81_);}
</style>
<g>
	<g>
		<path class="st152" d="M217,14.7l28.8,58.4c3.2,6.5,9.4,11,16.5,12l64.4,9.4c18,2.6,25.2,24.7,12.2,37.4l-46.6,45.4
			c-5.2,5-7.5,12.3-6.3,19.4l11,64.2c3.1,17.9-15.7,31.6-31.8,23.1l-57.6-30.3c-6.4-3.4-14-3.4-20.4,0l-57.6,30.3
			c-16.1,8.5-34.9-5.2-31.8-23.1l11-64.2c1.2-7.1-1.1-14.4-6.3-19.4l-46.6-45.4c-13-12.7-5.8-34.8,12.2-37.4l64.4-9.4
			c7.1-1,13.3-5.5,16.5-12l28.8-58.4C185.7-1.6,209-1.6,217,14.7z"/>
		<path class="st18" d="M275.4,289.1c-3.9,0-7.8-0.9-11.4-2.8L206.4,256c-5.7-3-12.4-3-18.1,0l-57.6,30.3
			c-8.3,4.4-18.2,3.6-25.7-1.9c-7.6-5.5-11.3-14.7-9.7-23.9l11-64.2c1.1-6.3-1-12.7-5.6-17.2L54,133.7c-6.7-6.5-9.1-16.1-6.2-25.1
			c2.9-8.9,10.5-15.3,19.7-16.6l64.4-9.4c6.3-0.9,11.8-4.9,14.6-10.6l28.8-58.4C179.6,5.2,188,0,197.3,0c9.4,0,17.8,5.2,21.9,13.6
			L248.1,72c2.8,5.7,8.3,9.7,14.6,10.6l64.4,9.4c9.3,1.3,16.8,7.7,19.7,16.6c2.9,8.9,0.5,18.5-6.2,25.1l-46.6,45.4
			c-4.6,4.5-6.7,10.9-5.6,17.2l11,64.2c1.6,9.2-2.1,18.4-9.7,23.9C285.5,287.6,280.5,289.1,275.4,289.1z M197.3,248.8
			c3.9,0,7.8,0.9,11.4,2.8l57.6,30.3c6.7,3.5,14.4,3,20.5-1.5c6.1-4.4,9-11.6,7.7-19l-11-64.2c-1.4-7.9,1.3-16,7-21.6l46.6-45.4
			c5.4-5.3,7.3-12.7,4.9-19.9s-8.2-12.1-15.7-13.2L262,87.6c-8-1.2-14.8-6.2-18.4-13.4l-28.8-58.4C211.4,9.1,204.9,5,197.3,5
			c-7.6,0-14.1,4.1-17.4,10.8l-28.8,58.4c-3.6,7.2-10.4,12.2-18.4,13.4L68.2,97c-7.5,1.1-13.4,6-15.7,13.2s-0.5,14.7,4.9,19.9
			l46.6,45.4c5.8,5.6,8.4,13.7,7,21.6l-11,64.2c-1.3,7.5,1.6,14.6,7.7,19c6.1,4.4,13.8,5,20.5,1.5l57.6-30.3
			C189.5,249.7,193.4,248.8,197.3,248.8z"/>
	</g>
	<g>
		<path class="st155" d="M24.7,281.4l5,9.2c0.3,0.5,0.7,0.9,1.2,1.2l9.2,5c2.1,1.1,2.1,4.1,0,5.3l-9.2,5c-0.5,0.3-0.9,0.7-1.2,1.2
			l-5,9.2c-1.1,2.1-4.1,2.1-5.3,0l-5-9.2c-0.3-0.5-0.7-0.9-1.2-1.2l-9.2-5c-2.1-1.1-2.1-4.1,0-5.3l9.2-5c0.5-0.3,0.9-0.7,1.2-1.2
			l5-9.2C20.6,279.3,23.6,279.3,24.7,281.4z"/>
		<path class="st18" d="M22.1,321.5c-2,0-3.9-1.1-4.8-2.9l-5-9.2c0-0.1-0.1-0.2-0.2-0.2l-9.2-5c-1.8-1-2.9-2.8-2.9-4.8
			s1.1-3.9,2.9-4.8l9.2-5c0.1,0,0.2-0.1,0.2-0.2l5-9.2c1-1.8,2.8-2.9,4.8-2.9h0c2,0,3.9,1.1,4.8,2.9l5,9.2c0,0.1,0.1,0.2,0.2,0.2
			l9.2,5c1.8,1,2.9,2.8,2.9,4.8s-1.1,3.9-2.9,4.8l-9.2,5c-0.1,0-0.2,0.1-0.2,0.2l-5,9.2C26,320.4,24.1,321.5,22.1,321.5L22.1,321.5z
			 M22.1,282.3c-0.2,0-0.3,0.1-0.4,0.3l-5,9.2c-0.5,0.9-1.3,1.7-2.2,2.2l-9.2,5c-0.2,0.1-0.3,0.2-0.3,0.4s0.1,0.3,0.3,0.4l9.2,5
			c0.9,0.5,1.7,1.3,2.2,2.2l5,9.2c0.2,0.3,0.7,0.3,0.9,0l5-9.2c0.5-0.9,1.3-1.7,2.2-2.2l9.2-5c0.2-0.1,0.3-0.2,0.3-0.4
			s-0.1-0.3-0.3-0.4l-9.2-5c-0.9-0.5-1.7-1.3-2.2-2.2l-5-9.2C22.5,282.4,22.3,282.3,22.1,282.3L22.1,282.3z"/>
	</g>
	<g>
		<path class="st151" d="M378.7,270.4l8.9,16.3c0.3,0.5,0.7,0.9,1.2,1.2l16.3,8.9c2.1,1.1,2.1,4.1,0,5.3l-16.3,8.9
			c-0.5,0.3-0.9,0.7-1.2,1.2l-8.9,16.3c-1.1,2.1-4.1,2.1-5.3,0l-8.9-16.3c-0.3-0.5-0.7-0.9-1.2-1.2l-16.3-8.9
			c-2.1-1.1-2.1-4.1,0-5.3l16.3-8.9c0.5-0.3,0.9-0.7,1.2-1.2l8.9-16.3C374.6,268.4,377.6,268.4,378.7,270.4z"/>
		<path class="st18" d="M376.1,332.4c-2,0-3.9-1.1-4.8-2.9l-8.9-16.3c0-0.1-0.1-0.2-0.2-0.2l-16.3-8.9c-1.8-1-2.9-2.8-2.9-4.8
			s1.1-3.9,2.9-4.8l16.3-8.9c0.1,0,0.2-0.1,0.2-0.2l8.9-16.3c1-1.8,2.8-2.9,4.8-2.9s3.9,1.1,4.8,2.9l8.9,16.3c0,0.1,0.1,0.2,0.2,0.2
			l16.3,8.9c1.8,1,2.9,2.8,2.9,4.8s-1.1,3.9-2.9,4.8l-16.3,8.9c-0.1,0-0.2,0.1-0.2,0.2l-8.9,16.3C380,331.3,378.1,332.4,376.1,332.4
			z M376.1,271.4c-0.2,0-0.3,0.1-0.4,0.3l-8.9,16.3c-0.5,0.9-1.3,1.7-2.2,2.2l-16.3,8.9c-0.2,0.1-0.3,0.2-0.3,0.4s0.1,0.3,0.3,0.4
			l16.3,8.9c0.9,0.5,1.7,1.3,2.2,2.2l8.9,16.3c0.2,0.3,0.7,0.3,0.9,0l8.9-16.3c0.5-0.9,1.3-1.7,2.2-2.2l16.3-8.9
			c0.2-0.1,0.3-0.2,0.3-0.4s-0.1-0.3-0.3-0.4l-16.3-8.9c-0.9-0.5-1.7-1.3-2.2-2.2l-8.9-16.3C376.5,271.5,376.3,271.4,376.1,271.4z"
			/>
	</g>
	<g>
		<path class="st151" d="M149.8,361l8.9,16.3c0.3,0.5,0.7,0.9,1.2,1.2l16.3,8.9c2.1,1.1,2.1,4.1,0,5.3l-16.3,8.9
			c-0.5,0.3-0.9,0.7-1.2,1.2l-8.9,16.3c-1.1,2.1-4.1,2.1-5.3,0l-8.9-16.3c-0.3-0.5-0.7-0.9-1.2-1.2l-16.3-8.9
			c-2.1-1.1-2.1-4.1,0-5.3l16.3-8.9c0.5-0.3,0.9-0.7,1.2-1.2l8.9-16.3C145.7,359,148.7,359,149.8,361z"/>
		<path class="st18" d="M147.2,423c-2,0-3.9-1.1-4.8-2.9l-8.9-16.3c0-0.1-0.1-0.2-0.2-0.2l-16.3-8.9c-1.8-1-2.9-2.8-2.9-4.8
			s1.1-3.9,2.9-4.8l16.3-8.9c0.1,0,0.2-0.1,0.2-0.2l8.9-16.3c1-1.8,2.8-2.9,4.8-2.9s3.9,1.1,4.8,2.9l8.9,16.3c0,0.1,0.1,0.2,0.2,0.2
			l16.3,8.9c1.8,1,2.9,2.8,2.9,4.8s-1.1,3.9-2.9,4.8l-16.3,8.9c-0.1,0-0.2,0.1-0.2,0.2l-8.9,16.3C151,421.9,149.2,423,147.2,423z
			 M147.2,362c-0.2,0-0.3,0.1-0.4,0.3l-8.9,16.3c-0.5,0.9-1.3,1.7-2.2,2.2l-16.3,8.9c-0.2,0.1-0.3,0.2-0.3,0.4s0.1,0.3,0.3,0.4
			l16.3,8.9c0.9,0.5,1.7,1.3,2.2,2.2l8.9,16.3c0.2,0.3,0.7,0.3,0.9,0l8.9-16.3c0.5-0.9,1.3-1.7,2.2-2.2l16.3-8.9
			c0.2-0.1,0.3-0.2,0.3-0.4s-0.1-0.3-0.3-0.4l-16.3-8.9c-0.9-0.5-1.7-1.3-2.2-2.2l-8.9-16.3C147.5,362.1,147.4,362,147.2,362z"/>
	</g>
	<g>
		<path class="st155" d="M265.4,372l5,9.2c0.3,0.5,0.7,0.9,1.2,1.2l9.2,5c2.1,1.1,2.1,4.1,0,5.3l-9.2,5c-0.5,0.3-0.9,0.7-1.2,1.2
			l-5,9.2c-1.1,2.1-4.1,2.1-5.3,0l-5-9.2c-0.3-0.5-0.7-0.9-1.2-1.2l-9.2-5c-2.1-1.1-2.1-4.1,0-5.3l9.2-5c0.5-0.3,0.9-0.7,1.2-1.2
			l5-9.2C261.3,369.9,264.3,369.9,265.4,372z"/>
		<path class="st18" d="M262.8,412.1c-2,0-3.9-1.1-4.8-2.9l-5-9.2c0-0.1-0.1-0.2-0.2-0.2l-9.2-5c-1.8-1-2.9-2.8-2.9-4.8
			s1.1-3.9,2.9-4.8l9.2-5c0.1,0,0.2-0.1,0.2-0.2l5-9.2c1-1.8,2.8-2.9,4.8-2.9s3.9,1.1,4.8,2.9l5,9.2c0,0.1,0.1,0.2,0.2,0.2l9.2,5
			c1.8,1,2.9,2.8,2.9,4.8s-1.1,3.9-2.9,4.8l-9.2,5c-0.1,0-0.2,0.1-0.2,0.2l-5,9.2C266.6,411,264.8,412.1,262.8,412.1z M262.8,372.9
			c-0.2,0-0.3,0.1-0.4,0.3l-5,9.2c-0.5,0.9-1.3,1.7-2.2,2.2l-9.2,5c-0.2,0.1-0.3,0.2-0.3,0.4s0.1,0.3,0.3,0.4l9.2,5
			c0.9,0.5,1.7,1.3,2.2,2.2l5,9.2c0.2,0.3,0.7,0.3,0.9,0l5-9.2c0.5-0.9,1.3-1.7,2.2-2.2l9.2-5c0.2-0.1,0.3-0.2,0.3-0.4
			s-0.1-0.3-0.3-0.4l-9.2-5c-0.9-0.5-1.7-1.3-2.2-2.2l-5-9.2C263.1,373,263,372.9,262.8,372.9z"/>
	</g>
	<linearGradient id="SVGID_1_" gradientUnits="userSpaceOnUse" x1="49.0625" y1="144.5864" x2="217.0089" y2="144.5864">
		<stop  offset="0" style="stop-color:#333DC9"/>
		<stop  offset="1" style="stop-color:#333DC9;stop-opacity:0.2"/>
	</linearGradient>
	<path style="opacity:0.5;fill:url(#SVGID_1_);" d="M217,14.7c-8.1-16.3-31.3-16.3-39.4,0l-28.8,58.4c-3.2,6.5-9.4,11-16.5,12
		l-64.4,9.4c-18,2.6-25.2,24.7-12.2,37.4l46.6,45.4c5.2,5,7.5,12.3,6.3,19.4l-11,64.2c-3.1,17.9,15.7,31.6,31.8,23.1
		C111.5,149.4,171.6,47.9,217,14.7z"/>
</g>
</svg>
