<?xml version="1.0" encoding="utf-8"?>
<!-- Generator: Adobe Illustrator 21.0.2, SVG Export Plug-In . SVG Version: 6.00 Build 0)  -->
<svg version="1.1" xmlns="http://www.w3.org/2000/svg" xmlns:xlink="http://www.w3.org/1999/xlink" x="0px" y="0px"
	 viewBox="0 0 423 423" style="enable-background:new 0 0 423 423;" xml:space="preserve">
<style type="text/css">
	.st0{opacity:0.5;fill:#833DC9;}
	.st1{opacity:0.5;fill:#333DC9;}
	.st2{fill:none;stroke:#000769;stroke-width:5;stroke-linecap:round;stroke-miterlimit:10;}
	.st3{fill:#333DC9;stroke:#000769;stroke-width:5;stroke-miterlimit:10;}
	.st4{fill:none;stroke:#231F20;stroke-width:5;stroke-miterlimit:10;}
	.st5{fill:none;stroke:#231F20;stroke-miterlimit:10;}
	.st6{fill:url(#SVGID_1_);}
	.st7{fill:none;stroke:#000000;stroke-width:5;stroke-miterlimit:10;}
	.st8{fill:#FFFFFF;stroke:#000000;stroke-width:5;stroke-miterlimit:10;}
	.st9{fill:#939598;stroke:#000000;stroke-width:5;stroke-miterlimit:10;}
	.st10{fill:#D1D3D4;stroke:#000000;stroke-width:5;stroke-miterlimit:10;}
	.st11{fill:#F1F2F2;stroke:#000000;stroke-width:5;stroke-miterlimit:10;}
	.st12{fill:#FFFFFF;stroke:#000769;stroke-width:5;stroke-miterlimit:10;}
	.st13{fill:#A3A7E6;stroke:#000769;stroke-width:5;stroke-miterlimit:10;}
	.st14{fill:#000769;}
	.st15{fill:#E2E9FC;stroke:#000769;stroke-width:5;stroke-miterlimit:10;}
	.st16{fill:url(#SVGID_2_);}
	.st17{fill:url(#SVGID_3_);}
	.st18{fill:url(#SVGID_4_);}
	.st19{fill:url(#SVGID_5_);}
	.st20{fill:url(#SVGID_6_);}
	.st21{fill:url(#SVGID_7_);}
	.st22{fill:url(#SVGID_8_);}
	.st23{fill:url(#SVGID_9_);}
	.st24{fill:url(#SVGID_10_);}
	.st25{fill:#FFFFFF;stroke:#231F20;stroke-width:5;stroke-miterlimit:10;}
	.st26{stroke:#000000;stroke-width:5;stroke-miterlimit:10;}
	.st27{fill:none;stroke:#000000;stroke-miterlimit:10;}
	.st28{fill:none;stroke:#231F20;stroke-width:5;stroke-linecap:round;stroke-miterlimit:10;}
	.st29{fill:none;stroke:#231F20;stroke-width:5;stroke-linecap:round;stroke-linejoin:round;stroke-miterlimit:10;}
	.st30{opacity:0.3;}
	.st31{fill:#FFFFFF;stroke:#231F20;stroke-miterlimit:10;}
	.st32{fill:none;stroke:#000000;stroke-width:10;stroke-miterlimit:10;}
	.st33{fill:none;stroke:#000769;stroke-width:10;stroke-miterlimit:10;}
	.st34{opacity:0.5;fill:#000769;}
	.st35{fill:#FFFFFF;}
	.st36{fill:#E5584E;stroke:#000000;stroke-width:5;stroke-miterlimit:10;}
	.st37{fill:#A9463E;stroke:#000000;stroke-width:5;stroke-miterlimit:10;}
	.st38{fill:#F18049;stroke:#000000;stroke-width:5;stroke-miterlimit:10;}
	.st39{fill:#B46638;stroke:#000000;stroke-width:5;stroke-miterlimit:10;}
	.st40{fill:#F5D66A;stroke:#000000;stroke-width:5;stroke-miterlimit:10;}
	.st41{fill:#BDAC4F;stroke:#000000;stroke-width:5;stroke-miterlimit:10;}
	.st42{fill:#4BA1A1;stroke:#000000;stroke-width:5;stroke-miterlimit:10;}
	.st43{fill:#3C8080;stroke:#000000;stroke-width:5;stroke-miterlimit:10;}
	.st44{fill:#005454;stroke:#000000;stroke-width:5;stroke-miterlimit:10;}
	.st45{fill:#184343;stroke:#000000;stroke-width:5;stroke-miterlimit:10;}
	.st46{fill:#2C79AC;stroke:#000000;stroke-width:5;stroke-miterlimit:10;}
	.st47{fill:#39608B;stroke:#000000;stroke-width:5;stroke-miterlimit:10;}
	.st48{fill:#48535D;stroke:#000000;stroke-width:5;stroke-miterlimit:10;}
	.st49{fill:#292D33;stroke:#000000;stroke-width:5;stroke-miterlimit:10;}
	.st50{fill:#F6F6F6;stroke:#000000;stroke-width:5;stroke-miterlimit:10;}
	.st51{fill:#0088CC;stroke:#000000;stroke-width:5;stroke-miterlimit:10;}
	.st52{fill:#ECEBEC;stroke:#000000;stroke-width:5;stroke-miterlimit:10;}
	.st53{fill:#333333;stroke:#000000;stroke-width:5;stroke-miterlimit:10;}
	.st54{fill:#C4C4C4;stroke:#000000;stroke-width:5;stroke-miterlimit:10;}
	.st55{fill:#919DA9;stroke:#000000;stroke-width:5;stroke-miterlimit:10;}
	.st56{fill:#7A8594;stroke:#000000;stroke-width:5;stroke-miterlimit:10;}
	.st57{fill:#A3A7E6;}
	.st58{fill:#E2E9FC;}
	.st59{opacity:0.5;fill:url(#SVGID_11_);}
	.st60{opacity:0.5;fill:url(#SVGID_12_);}
	.st61{fill:#333DC9;}
	.st62{opacity:0.5;fill:url(#SVGID_13_);}
	.st63{opacity:0.5;fill:url(#SVGID_14_);}
	.st64{opacity:0.5;fill:url(#SVGID_15_);}
	.st65{opacity:0.5;fill:url(#SVGID_16_);}
	.st66{opacity:0.5;fill:url(#SVGID_17_);}
	.st67{opacity:0.5;fill:url(#SVGID_18_);}
	.st68{opacity:0.5;fill:url(#SVGID_19_);}
	.st69{opacity:0.5;fill:url(#SVGID_20_);}
	.st70{opacity:0.5;fill:url(#SVGID_21_);}
	.st71{opacity:0.5;fill:url(#SVGID_22_);}
	.st72{opacity:0.5;fill:url(#SVGID_23_);}
	.st73{opacity:0.5;fill:url(#SVGID_24_);}
	.st74{opacity:0.5;fill:url(#SVGID_25_);}
	.st75{opacity:0.5;fill:url(#SVGID_26_);}
	.st76{opacity:0.5;fill:url(#SVGID_27_);}
	.st77{opacity:0.5;fill:url(#SVGID_28_);}
	.st78{opacity:0.5;fill:url(#SVGID_29_);}
	.st79{opacity:0.5;fill:url(#SVGID_30_);}
	.st80{opacity:0.5;fill:url(#Path_10_);enable-background:new    ;}
	.st81{fill:#FFFFFF;stroke:#000769;stroke-width:5;}
	.st82{fill:#E2E9FC;stroke:#000769;stroke-width:5.7143;}
	.st83{fill:#A3A7E6;stroke:#000769;stroke-width:5.7143;}
	.st84{fill:#FFFFFF;stroke:#000769;stroke-width:5.7143;}
	.st85{fill:url(#Rectangle_5_);fill-opacity:0.5;}
	.st86{fill:#A3A7E6;stroke:#000769;stroke-width:4.6731;}
	.st87{fill:url(#Combined-Shape_1_);stroke:#000769;stroke-width:5.6077;}
	.st88{fill:#E2E9FC;stroke:#000769;stroke-width:4.6731;}
	.st89{fill:url(#Rectangle_8_);stroke:#000769;stroke-width:4.6731;}
	.st90{fill:#FFFFFF;stroke:#000769;stroke-width:4.6731;}
	.st91{fill:url(#shadow_1_);fill-opacity:0.6;}
	.st92{fill:url(#Combined-Shape_2_);}
	.st93{fill:#231F20;}
	.st94{fill:url(#SVGID_31_);}
	.st95{fill:url(#SVGID_32_);}
	.st96{fill:url(#SVGID_33_);}
	.st97{fill:url(#SVGID_34_);}
	.st98{fill:url(#SVGID_35_);}
	.st99{fill:url(#SVGID_36_);}
	.st100{fill:url(#SVGID_37_);}
	.st101{fill:url(#SVGID_38_);}
	.st102{fill:url(#SVGID_39_);}
	.st103{fill:url(#SVGID_40_);}
	.st104{fill:url(#SVGID_41_);}
	.st105{fill:url(#Combined-Shape_3_);stroke:#000769;stroke-width:5.6077;}
	.st106{fill:url(#SVGID_42_);stroke:#000769;stroke-width:5.6077;}
	.st107{fill:#A3A7E6;stroke:#231F20;stroke-width:5;stroke-miterlimit:10;}
	.st108{opacity:0.5;fill:url(#SVGID_43_);}
	.st109{opacity:0.5;fill:url(#SVGID_44_);}
	.st110{opacity:0.5;fill:url(#SVGID_45_);}
	.st111{opacity:0.5;fill:url(#SVGID_46_);}
	.st112{fill:url(#SVGID_47_);}
	.st113{fill:url(#SVGID_48_);}
	.st114{fill:url(#SVGID_49_);}
	.st115{fill:url(#SVGID_50_);}
	.st116{fill:url(#SVGID_51_);}
</style>
<g id="Layer_1">
	<g>
		<g>
			<linearGradient id="SVGID_1_" gradientUnits="userSpaceOnUse" x1="75.049" y1="321.7719" x2="351.4752" y2="98.468">
				<stop  offset="0" style="stop-color:#C2C2FF"/>
				<stop  offset="1" style="stop-color:#F3F6FE"/>
			</linearGradient>
			<circle class="st6" cx="211.5" cy="211.5" r="177.7"/>
			<path class="st14" d="M211.5,392C112,392,31,311,31,211.5S112,31,211.5,31C311,31,392,112,392,211.5S311,392,211.5,392z
				 M211.5,36.7c-96.4,0-174.9,78.4-174.9,174.9s78.4,174.9,174.9,174.9s174.9-78.4,174.9-174.9S307.9,36.7,211.5,36.7z"/>
		</g>
		<g>
			<path class="st57" d="M211.5,2.5c-115.4,0-209,93.6-209,209c0,115.4,93.6,209,209,209s209-93.6,209-209
				C420.5,96.1,327,2.5,211.5,2.5z M389.2,211.5c0,43.5-15.6,83.3-41.6,114.2L97.3,75.4c30.9-26,70.7-41.6,114.2-41.6
				C309.6,33.9,389.2,113.4,389.2,211.5z M33.9,211.5c0-43.3,15.5-83,41.3-113.9l250.2,250.2c-30.8,25.8-70.5,41.3-113.9,41.3
				C113.4,389.2,33.9,309.6,33.9,211.5z"/>
			<path class="st93" d="M211.5,423C94.9,423,0,328.2,0,211.5S94.9,0,211.5,0S423,94.9,423,211.5S328.2,423,211.5,423z M211.5,5
				C97.6,5,5,97.6,5,211.5C5,325.4,97.6,418,211.5,418S418,325.4,418,211.5C418,97.6,325.4,5,211.5,5z M211.5,391.7
				c-99.3,0-180.2-80.8-180.2-180.2c0-42.2,14.9-83.2,41.9-115.5l1.8-2.1l254.1,254.1l-2.1,1.8C294.7,376.8,253.7,391.7,211.5,391.7
				z M75.3,101.4c-25.2,31.1-39,70.1-39,110.2c0,96.6,78.6,175.2,175.2,175.2c40.1,0,79.1-13.8,110.2-39L75.3,101.4z M347.8,329.4
				L93.6,75.3l2.1-1.8c32.4-27.2,73.5-42.2,115.8-42.2c99.3,0,180.2,80.8,180.2,180.2c0,42.3-15,83.5-42.2,115.8L347.8,329.4z
				 M101,75.6L347.4,322c25.3-31.1,39.3-70.3,39.3-110.5c0-96.6-78.6-175.2-175.2-175.2C171.3,36.4,132.2,50.3,101,75.6z"/>
		</g>
		<linearGradient id="SVGID_2_" gradientUnits="userSpaceOnUse" x1="-68.5929" y1="-29.652" x2="192.4504" y2="195.1033">
			<stop  offset="0" style="stop-color:#333DC9;stop-opacity:0.4959"/>
			<stop  offset="1" style="stop-color:#333DC9;stop-opacity:0.2"/>
		</linearGradient>
		<path class="st16" d="M74.8,277.2c0-126.5,102.5-229,229-229c14.8,0,29.2,1.4,43.2,4.1C310.5,21.3,263.2,2.5,211.5,2.5
			c-115.4,0-209,93.6-209,209c0,76.7,41.3,143.7,102.9,180.1C86,358,74.8,318.9,74.8,277.2z"/>
	</g>
</g>
<g id="Layer_2">
</g>
</svg>
