<?xml version="1.0" encoding="utf-8"?>
<!-- Generator: Adobe Illustrator 21.0.2, SVG Export Plug-In . SVG Version: 6.00 Build 0)  -->
<svg version="1.1" xmlns="http://www.w3.org/2000/svg" xmlns:xlink="http://www.w3.org/1999/xlink" x="0px" y="0px"
	 viewBox="0 0 398 418" style="enable-background:new 0 0 398 418;" xml:space="preserve">
<style type="text/css">
	.st0{opacity:0.5;fill:#833DC9;}
	.st1{opacity:0.5;fill:#333DC9;}
	.st2{fill:none;stroke:#000769;stroke-width:5;stroke-linecap:round;stroke-miterlimit:10;}
	.st3{fill:#333DC9;stroke:#000769;stroke-width:5;stroke-miterlimit:10;}
	.st4{fill:none;stroke:#231F20;stroke-width:5;stroke-miterlimit:10;}
	.st5{fill:none;stroke:#231F20;stroke-miterlimit:10;}
	.st6{fill:url(#SVGID_1_);}
	.st7{fill:none;stroke:#000000;stroke-width:5;stroke-miterlimit:10;}
	.st8{fill:#FFFFFF;stroke:#000000;stroke-width:5;stroke-miterlimit:10;}
	.st9{fill:#939598;stroke:#000000;stroke-width:5;stroke-miterlimit:10;}
	.st10{fill:#D1D3D4;stroke:#000000;stroke-width:5;stroke-miterlimit:10;}
	.st11{fill:#F1F2F2;stroke:#000000;stroke-width:5;stroke-miterlimit:10;}
	.st12{fill:#FFFFFF;stroke:#000769;stroke-width:5;stroke-miterlimit:10;}
	.st13{fill:#A3A7E6;stroke:#000769;stroke-width:5;stroke-miterlimit:10;}
	.st14{fill:#000769;}
	.st15{fill:#E2E9FC;stroke:#000769;stroke-width:5;stroke-miterlimit:10;}
	.st16{fill:url(#SVGID_2_);}
	.st17{fill:url(#SVGID_3_);}
	.st18{fill:url(#SVGID_4_);}
	.st19{fill:url(#SVGID_5_);}
	.st20{fill:url(#SVGID_6_);}
	.st21{fill:url(#SVGID_7_);}
	.st22{fill:url(#SVGID_8_);}
	.st23{fill:url(#SVGID_9_);}
	.st24{fill:url(#SVGID_10_);}
	.st25{fill:#FFFFFF;stroke:#231F20;stroke-width:5;stroke-miterlimit:10;}
	.st26{stroke:#000000;stroke-width:5;stroke-miterlimit:10;}
	.st27{fill:none;stroke:#000000;stroke-miterlimit:10;}
	.st28{fill:none;stroke:#231F20;stroke-width:5;stroke-linecap:round;stroke-miterlimit:10;}
	.st29{fill:none;stroke:#231F20;stroke-width:5;stroke-linecap:round;stroke-linejoin:round;stroke-miterlimit:10;}
	.st30{opacity:0.3;}
	.st31{fill:#FFFFFF;stroke:#231F20;stroke-miterlimit:10;}
	.st32{fill:none;stroke:#000000;stroke-width:10;stroke-miterlimit:10;}
	.st33{fill:none;stroke:#000769;stroke-width:10;stroke-miterlimit:10;}
	.st34{opacity:0.5;fill:#000769;}
	.st35{fill:#FFFFFF;}
	.st36{fill:#E5584E;stroke:#000000;stroke-width:5;stroke-miterlimit:10;}
	.st37{fill:#A9463E;stroke:#000000;stroke-width:5;stroke-miterlimit:10;}
	.st38{fill:#F18049;stroke:#000000;stroke-width:5;stroke-miterlimit:10;}
	.st39{fill:#B46638;stroke:#000000;stroke-width:5;stroke-miterlimit:10;}
	.st40{fill:#F5D66A;stroke:#000000;stroke-width:5;stroke-miterlimit:10;}
	.st41{fill:#BDAC4F;stroke:#000000;stroke-width:5;stroke-miterlimit:10;}
	.st42{fill:#4BA1A1;stroke:#000000;stroke-width:5;stroke-miterlimit:10;}
	.st43{fill:#3C8080;stroke:#000000;stroke-width:5;stroke-miterlimit:10;}
	.st44{fill:#005454;stroke:#000000;stroke-width:5;stroke-miterlimit:10;}
	.st45{fill:#184343;stroke:#000000;stroke-width:5;stroke-miterlimit:10;}
	.st46{fill:#2C79AC;stroke:#000000;stroke-width:5;stroke-miterlimit:10;}
	.st47{fill:#39608B;stroke:#000000;stroke-width:5;stroke-miterlimit:10;}
	.st48{fill:#48535D;stroke:#000000;stroke-width:5;stroke-miterlimit:10;}
	.st49{fill:#292D33;stroke:#000000;stroke-width:5;stroke-miterlimit:10;}
	.st50{fill:#F6F6F6;stroke:#000000;stroke-width:5;stroke-miterlimit:10;}
	.st51{fill:#0088CC;stroke:#000000;stroke-width:5;stroke-miterlimit:10;}
	.st52{fill:#ECEBEC;stroke:#000000;stroke-width:5;stroke-miterlimit:10;}
	.st53{fill:#333333;stroke:#000000;stroke-width:5;stroke-miterlimit:10;}
	.st54{fill:#C4C4C4;stroke:#000000;stroke-width:5;stroke-miterlimit:10;}
	.st55{fill:#919DA9;stroke:#000000;stroke-width:5;stroke-miterlimit:10;}
	.st56{fill:#7A8594;stroke:#000000;stroke-width:5;stroke-miterlimit:10;}
	.st57{fill:#A3A7E6;}
	.st58{fill:#E2E9FC;}
	.st59{opacity:0.5;fill:url(#SVGID_11_);}
	.st60{opacity:0.5;fill:url(#SVGID_12_);}
	.st61{fill:#333DC9;}
	.st62{opacity:0.5;fill:url(#SVGID_13_);}
	.st63{opacity:0.5;fill:url(#SVGID_14_);}
	.st64{opacity:0.5;fill:url(#SVGID_15_);}
	.st65{opacity:0.5;fill:url(#SVGID_16_);}
	.st66{opacity:0.5;fill:url(#SVGID_17_);}
	.st67{opacity:0.5;fill:url(#SVGID_18_);}
	.st68{opacity:0.5;fill:url(#SVGID_19_);}
	.st69{opacity:0.5;fill:url(#SVGID_20_);}
	.st70{opacity:0.5;fill:url(#SVGID_21_);}
	.st71{opacity:0.5;fill:url(#SVGID_22_);}
	.st72{opacity:0.5;fill:url(#SVGID_23_);}
	.st73{opacity:0.5;fill:url(#SVGID_24_);}
	.st74{opacity:0.5;fill:url(#SVGID_25_);}
	.st75{opacity:0.5;fill:url(#SVGID_26_);}
	.st76{opacity:0.5;fill:url(#SVGID_27_);}
	.st77{opacity:0.5;fill:url(#SVGID_28_);}
	.st78{opacity:0.5;fill:url(#SVGID_29_);}
	.st79{opacity:0.5;fill:url(#SVGID_30_);}
	.st80{opacity:0.5;fill:url(#Path_27_);enable-background:new    ;}
	.st81{fill:#FFFFFF;stroke:#000769;stroke-width:5;}
	.st82{fill:#E2E9FC;stroke:#000769;stroke-width:5.7143;}
	.st83{fill:#A3A7E6;stroke:#000769;stroke-width:5.7143;}
	.st84{fill:#FFFFFF;stroke:#000769;stroke-width:5.7143;}
	.st85{fill:url(#Rectangle_14_);fill-opacity:0.5;}
	.st86{fill:#A3A7E6;stroke:#000769;stroke-width:4.6731;}
	.st87{fill:url(#Combined-Shape_9_);stroke:#000769;stroke-width:5.6077;}
	.st88{fill:#E2E9FC;stroke:#000769;stroke-width:4.6731;}
	.st89{fill:url(#Rectangle_15_);stroke:#000769;stroke-width:4.6731;}
	.st90{fill:#FFFFFF;stroke:#000769;stroke-width:4.6731;}
	.st91{fill:url(#shadow_4_);fill-opacity:0.6;}
	.st92{fill:url(#Combined-Shape_10_);}
	.st93{fill:#231F20;}
	.st94{fill:url(#SVGID_31_);}
	.st95{fill:url(#SVGID_32_);}
	.st96{fill:url(#SVGID_33_);}
	.st97{fill:url(#SVGID_34_);}
	.st98{fill:url(#SVGID_35_);}
	.st99{fill:url(#SVGID_36_);}
	.st100{opacity:0.5;fill:url(#SVGID_37_);}
	.st101{opacity:0.5;fill:url(#SVGID_38_);}
	.st102{opacity:0.5;fill:url(#SVGID_39_);}
	.st103{opacity:0.5;fill:url(#SVGID_40_);}
	.st104{fill:url(#SVGID_41_);}
	.st105{fill:url(#SVGID_42_);}
	.st106{opacity:0.5;fill:url(#SVGID_43_);}
	.st107{fill:url(#Combined-Shape_11_);stroke:#000769;stroke-width:5.6077;}
	.st108{fill:url(#SVGID_44_);stroke:#000769;stroke-width:5.6077;}
	.st109{fill:#A3A7E6;stroke:#231F20;stroke-width:5;stroke-miterlimit:10;}
	.st110{fill:url(#SVGID_45_);}
	.st111{fill:url(#SVGID_46_);}
	.st112{fill:url(#SVGID_47_);}
	.st113{opacity:0.5;fill:url(#SVGID_48_);}
	.st114{opacity:0.5;fill:url(#SVGID_49_);}
	.st115{opacity:0.5;fill:url(#SVGID_50_);}
	.st116{fill:url(#Rectangle_16_);stroke:#000769;stroke-width:4.6731;}
	.st117{fill:url(#shadow_5_);fill-opacity:0.6;}
	.st118{fill:url(#SVGID_51_);fill-opacity:0.6;}
	.st119{fill:url(#SVGID_52_);fill-opacity:0.6;}
	.st120{fill:url(#SVGID_53_);fill-opacity:0.6;}
	.st121{fill:url(#SVGID_54_);fill-opacity:0.6;}
	.st122{fill:url(#SVGID_55_);fill-opacity:0.6;}
	.st123{fill:url(#SVGID_56_);fill-opacity:0.6;}
	.st124{fill:url(#SVGID_57_);fill-opacity:0.6;}
	.st125{fill:url(#SVGID_58_);fill-opacity:0.6;}
	.st126{fill:url(#Rectangle_17_);fill-opacity:0.5;}
	.st127{opacity:0.5;fill:url(#SVGID_59_);}
	.st128{opacity:0.5;fill:url(#SVGID_60_);}
</style>
<g id="Layer_1">
	<g>
		<g>
			<path class="st58" d="M378,0H20C9,0,0,9,0,20v378c0,11,9,20,20,20h358c11,0,20-9,20-20V20C398,9,389,0,378,0z"/>
			<path class="st14" d="M378,5c8.3,0,15,6.7,15,15v378c0,8.3-6.7,15-15,15H20c-8.3,0-15-6.7-15-15V20c0-8.3,6.7-15,15-15H378
				 M378,0H20C9,0,0,9,0,20v378c0,11,9,20,20,20h358c11,0,20-9,20-20V20C398,9,389,0,378,0L378,0z"/>
		</g>
		<g>
			<path class="st57" d="M378,0H20C9,0,0,9,0,20V63h398V20C398,9,389,0,378,0z"/>
			<path class="st14" d="M378,5c8.3,0,15,6.7,15,15v38H5V20c0-8.3,6.7-15,15-15H378 M378,0H20C9,0,0,9,0,20v43h398V20
				C398,9,389,0,378,0L378,0z"/>
		</g>
		<path class="st14" d="M332.9,108.1c8.3,0,15,6.7,15,15v234.7c0,8.3-6.7,15-15,15H65c-8.3,0-15-6.7-15-15V123.1c0-8.3,6.7-15,15-15
			H332.9 M332.9,103.1H65c-11,0-20,9-20,20v234.7c0,11,9,20,20,20h267.9c11,0,20-9,20-20V123.1C352.9,112.1,344,103.1,332.9,103.1
			L332.9,103.1z"/>
		<g>
			<path class="st35" d="M96.9,259.5h204.2c11,0,20-9,20-20v-84.9c0-11-9-20-20-20H96.9c-11,0-20,9-20,20v84.9
				C76.9,250.6,85.8,259.5,96.9,259.5z"/>
			<path class="st14" d="M301.1,139.6c8.3,0,15,6.7,15,15v84.9c0,8.3-6.7,15-15,15H96.9c-8.3,0-15-6.7-15-15v-84.9
				c0-8.3,6.7-15,15-15H301.1 M301.1,134.6H96.9c-11,0-20,9-20,20v84.9c0,11,9,20,20,20h204.2c11,0,20-9,20-20v-84.9
				C321.1,143.6,312.1,134.6,301.1,134.6L301.1,134.6z"/>
		</g>
		<g>
			<path class="st14" d="M44.2,22.2c5.1,0,9.2,4.1,9.2,9.2s-4.1,9.2-9.2,9.2c-5.1,0-9.2-4.1-9.2-9.2S39.1,22.2,44.2,22.2 M44.2,17.2
				c-7.9,0-14.2,6.4-14.2,14.2s6.4,14.2,14.2,14.2c7.9,0,14.2-6.4,14.2-14.2S52.1,17.2,44.2,17.2L44.2,17.2z"/>
			<path class="st14" d="M92.3,22.2c5.1,0,9.2,4.1,9.2,9.2s-4.1,9.2-9.2,9.2s-9.2-4.1-9.2-9.2S87.2,22.2,92.3,22.2 M92.3,17.2
				c-7.9,0-14.2,6.4-14.2,14.2s6.4,14.2,14.2,14.2s14.2-6.4,14.2-14.2S100.2,17.2,92.3,17.2L92.3,17.2z"/>
			<path class="st14" d="M140.4,22.2c5.1,0,9.2,4.1,9.2,9.2s-4.1,9.2-9.2,9.2s-9.2-4.1-9.2-9.2S135.3,22.2,140.4,22.2 M140.4,17.2
				c-7.9,0-14.2,6.4-14.2,14.2s6.4,14.2,14.2,14.2s14.2-6.4,14.2-14.2S148.3,17.2,140.4,17.2L140.4,17.2z"/>
		</g>
		<path class="st14" d="M277.3,287.5H120.7c-4.2,0-7.7,3.4-7.7,7.7v2.9c0,4.2,3.4,7.7,7.7,7.7h156.6c4.2,0,7.7-3.4,7.7-7.7v-2.9
			C285,291,281.5,287.5,277.3,287.5z"/>
		<path class="st14" d="M277.3,329H120.7c-4.2,0-7.7,3.4-7.7,7.7v2.9c0,4.2,3.4,7.7,7.7,7.7h156.6c4.2,0,7.7-3.4,7.7-7.7v-2.9
			C285,332.5,281.5,329,277.3,329z"/>
		<linearGradient id="SVGID_1_" gradientUnits="userSpaceOnUse" x1="-33.8619" y1="310.1488" x2="155.4684" y2="206.9948">
			<stop  offset="0" style="stop-color:#333DC9"/>
			<stop  offset="1" style="stop-color:#333DC9;stop-opacity:0.2"/>
		</linearGradient>
		<path style="opacity:0.5;fill:url(#SVGID_1_);" d="M20,0C9,0,0,9,0,20v378c0,11,9,20,20,20h268.6C164.6,322.3,82.1,131.6,82.2,0
			H20z"/>
	</g>
</g>
<g id="Layer_2">
</g>
</svg>
