<?xml version="1.0" encoding="utf-8"?>
<!-- Generator: Adobe Illustrator 21.0.2, SVG Export Plug-In . SVG Version: 6.00 Build 0)  -->
<svg version="1.1" xmlns="http://www.w3.org/2000/svg" xmlns:xlink="http://www.w3.org/1999/xlink" x="0px" y="0px"
	 viewBox="0 0 376.4 418" style="enable-background:new 0 0 376.4 418;" xml:space="preserve">
<style type="text/css">
	.st0{opacity:0.5;fill:#833DC9;}
	.st1{opacity:0.5;fill:#333DC9;}
	.st2{fill:none;stroke:#000769;stroke-width:5;stroke-linecap:round;stroke-miterlimit:10;}
	.st3{fill:#333DC9;stroke:#000769;stroke-width:5;stroke-miterlimit:10;}
	.st4{fill:none;stroke:#231F20;stroke-width:5;stroke-miterlimit:10;}
	.st5{fill:none;stroke:#231F20;stroke-miterlimit:10;}
	.st6{fill:url(#SVGID_1_);}
	.st7{fill:none;stroke:#000000;stroke-width:5;stroke-miterlimit:10;}
	.st8{fill:#FFFFFF;stroke:#000000;stroke-width:5;stroke-miterlimit:10;}
	.st9{fill:#939598;stroke:#000000;stroke-width:5;stroke-miterlimit:10;}
	.st10{fill:#D1D3D4;stroke:#000000;stroke-width:5;stroke-miterlimit:10;}
	.st11{fill:#F1F2F2;stroke:#000000;stroke-width:5;stroke-miterlimit:10;}
	.st12{fill:#FFFFFF;stroke:#000769;stroke-width:5;stroke-miterlimit:10;}
	.st13{fill:#A3A7E6;stroke:#000769;stroke-width:5;stroke-miterlimit:10;}
	.st14{fill:#000769;}
	.st15{fill:#E2E9FC;stroke:#000769;stroke-width:5;stroke-miterlimit:10;}
	.st16{fill:url(#SVGID_2_);}
	.st17{fill:url(#SVGID_3_);}
	.st18{fill:url(#SVGID_4_);}
	.st19{fill:url(#SVGID_5_);}
	.st20{fill:url(#SVGID_6_);}
	.st21{fill:url(#SVGID_7_);}
	.st22{fill:url(#SVGID_8_);}
	.st23{fill:url(#SVGID_9_);}
	.st24{fill:url(#SVGID_10_);}
	.st25{fill:#FFFFFF;stroke:#231F20;stroke-width:5;stroke-miterlimit:10;}
	.st26{stroke:#000000;stroke-width:5;stroke-miterlimit:10;}
	.st27{fill:none;stroke:#000000;stroke-miterlimit:10;}
	.st28{fill:none;stroke:#231F20;stroke-width:5;stroke-linecap:round;stroke-miterlimit:10;}
	.st29{fill:none;stroke:#231F20;stroke-width:5;stroke-linecap:round;stroke-linejoin:round;stroke-miterlimit:10;}
	.st30{opacity:0.3;}
	.st31{fill:#FFFFFF;stroke:#231F20;stroke-miterlimit:10;}
	.st32{fill:none;stroke:#000000;stroke-width:10;stroke-miterlimit:10;}
	.st33{fill:none;stroke:#000769;stroke-width:10;stroke-miterlimit:10;}
	.st34{opacity:0.5;fill:#000769;}
	.st35{fill:#FFFFFF;}
	.st36{fill:#E5584E;stroke:#000000;stroke-width:5;stroke-miterlimit:10;}
	.st37{fill:#A9463E;stroke:#000000;stroke-width:5;stroke-miterlimit:10;}
	.st38{fill:#F18049;stroke:#000000;stroke-width:5;stroke-miterlimit:10;}
	.st39{fill:#B46638;stroke:#000000;stroke-width:5;stroke-miterlimit:10;}
	.st40{fill:#F5D66A;stroke:#000000;stroke-width:5;stroke-miterlimit:10;}
	.st41{fill:#BDAC4F;stroke:#000000;stroke-width:5;stroke-miterlimit:10;}
	.st42{fill:#4BA1A1;stroke:#000000;stroke-width:5;stroke-miterlimit:10;}
	.st43{fill:#3C8080;stroke:#000000;stroke-width:5;stroke-miterlimit:10;}
	.st44{fill:#005454;stroke:#000000;stroke-width:5;stroke-miterlimit:10;}
	.st45{fill:#184343;stroke:#000000;stroke-width:5;stroke-miterlimit:10;}
	.st46{fill:#2C79AC;stroke:#000000;stroke-width:5;stroke-miterlimit:10;}
	.st47{fill:#39608B;stroke:#000000;stroke-width:5;stroke-miterlimit:10;}
	.st48{fill:#48535D;stroke:#000000;stroke-width:5;stroke-miterlimit:10;}
	.st49{fill:#292D33;stroke:#000000;stroke-width:5;stroke-miterlimit:10;}
	.st50{fill:#F6F6F6;stroke:#000000;stroke-width:5;stroke-miterlimit:10;}
	.st51{fill:#0088CC;stroke:#000000;stroke-width:5;stroke-miterlimit:10;}
	.st52{fill:#ECEBEC;stroke:#000000;stroke-width:5;stroke-miterlimit:10;}
	.st53{fill:#333333;stroke:#000000;stroke-width:5;stroke-miterlimit:10;}
	.st54{fill:#C4C4C4;stroke:#000000;stroke-width:5;stroke-miterlimit:10;}
	.st55{fill:#919DA9;stroke:#000000;stroke-width:5;stroke-miterlimit:10;}
	.st56{fill:#7A8594;stroke:#000000;stroke-width:5;stroke-miterlimit:10;}
	.st57{fill:#A3A7E6;}
	.st58{fill:#E2E9FC;}
	.st59{opacity:0.5;fill:url(#SVGID_11_);}
	.st60{opacity:0.5;fill:url(#SVGID_12_);}
	.st61{fill:#333DC9;}
	.st62{opacity:0.5;fill:url(#SVGID_13_);}
	.st63{opacity:0.5;fill:url(#SVGID_14_);}
	.st64{opacity:0.5;fill:url(#SVGID_15_);}
	.st65{opacity:0.5;fill:url(#SVGID_16_);}
	.st66{opacity:0.5;fill:url(#SVGID_17_);}
	.st67{opacity:0.5;fill:url(#SVGID_18_);}
	.st68{opacity:0.5;fill:url(#SVGID_19_);}
	.st69{opacity:0.5;fill:url(#SVGID_20_);}
	.st70{opacity:0.5;fill:url(#SVGID_21_);}
	.st71{opacity:0.5;fill:url(#SVGID_22_);}
	.st72{opacity:0.5;fill:url(#SVGID_23_);}
	.st73{opacity:0.5;fill:url(#SVGID_24_);}
	.st74{opacity:0.5;fill:url(#SVGID_25_);}
	.st75{opacity:0.5;fill:url(#SVGID_26_);}
	.st76{opacity:0.5;fill:url(#SVGID_27_);}
	.st77{opacity:0.5;fill:url(#SVGID_28_);}
	.st78{opacity:0.5;fill:url(#SVGID_29_);}
	.st79{opacity:0.5;fill:url(#SVGID_30_);}
	.st80{opacity:0.5;fill:url(#Path_27_);enable-background:new    ;}
	.st81{fill:#FFFFFF;stroke:#000769;stroke-width:5;}
	.st82{fill:#E2E9FC;stroke:#000769;stroke-width:5.7143;}
	.st83{fill:#A3A7E6;stroke:#000769;stroke-width:5.7143;}
	.st84{fill:#FFFFFF;stroke:#000769;stroke-width:5.7143;}
	.st85{fill:url(#Rectangle_14_);fill-opacity:0.5;}
	.st86{fill:#A3A7E6;stroke:#000769;stroke-width:4.6731;}
	.st87{fill:url(#Combined-Shape_9_);stroke:#000769;stroke-width:5.6077;}
	.st88{fill:#E2E9FC;stroke:#000769;stroke-width:4.6731;}
	.st89{fill:url(#Rectangle_15_);stroke:#000769;stroke-width:4.6731;}
	.st90{fill:#FFFFFF;stroke:#000769;stroke-width:4.6731;}
	.st91{fill:url(#shadow_4_);fill-opacity:0.6;}
	.st92{fill:url(#Combined-Shape_10_);}
	.st93{fill:#231F20;}
	.st94{fill:url(#SVGID_31_);}
	.st95{fill:url(#SVGID_32_);}
	.st96{fill:url(#SVGID_33_);}
	.st97{fill:url(#SVGID_34_);}
	.st98{fill:url(#SVGID_35_);}
	.st99{fill:url(#SVGID_36_);}
	.st100{opacity:0.5;fill:url(#SVGID_37_);}
	.st101{opacity:0.5;fill:url(#SVGID_38_);}
	.st102{opacity:0.5;fill:url(#SVGID_39_);}
	.st103{opacity:0.5;fill:url(#SVGID_40_);}
	.st104{fill:url(#SVGID_41_);}
	.st105{fill:url(#SVGID_42_);}
	.st106{opacity:0.5;fill:url(#SVGID_43_);}
	.st107{fill:url(#Combined-Shape_11_);stroke:#000769;stroke-width:5.6077;}
	.st108{fill:url(#SVGID_44_);stroke:#000769;stroke-width:5.6077;}
	.st109{fill:#A3A7E6;stroke:#231F20;stroke-width:5;stroke-miterlimit:10;}
	.st110{fill:url(#SVGID_45_);}
	.st111{fill:url(#SVGID_46_);}
	.st112{fill:url(#SVGID_47_);}
	.st113{opacity:0.5;fill:url(#SVGID_48_);}
	.st114{opacity:0.5;fill:url(#SVGID_49_);}
	.st115{opacity:0.5;fill:url(#SVGID_50_);}
	.st116{fill:url(#Rectangle_16_);stroke:#000769;stroke-width:4.6731;}
	.st117{fill:url(#shadow_5_);fill-opacity:0.6;}
	.st118{fill:url(#SVGID_51_);fill-opacity:0.6;}
	.st119{fill:url(#SVGID_52_);fill-opacity:0.6;}
	.st120{fill:url(#SVGID_53_);fill-opacity:0.6;}
	.st121{fill:url(#SVGID_54_);fill-opacity:0.6;}
	.st122{fill:url(#SVGID_55_);fill-opacity:0.6;}
	.st123{fill:url(#SVGID_56_);fill-opacity:0.6;}
	.st124{fill:url(#SVGID_57_);fill-opacity:0.6;}
	.st125{fill:url(#SVGID_58_);fill-opacity:0.6;}
	.st126{fill:url(#Rectangle_17_);fill-opacity:0.5;}
	.st127{opacity:0.5;fill:url(#SVGID_59_);}
	.st128{opacity:0.5;fill:url(#SVGID_60_);}
</style>
<g id="Layer_1">
	<g>
		<path class="st57" d="M213.2,0H19.1C8.5,0,0,8.5,0,19.1L0,399C0,409.5,8.5,418,19.1,418h194.1c10.5,0,19.1-8.5,19.1-19.1V19.1
			C232.3,8.5,223.8,0,213.2,0z"/>
		<path class="st14" d="M213.2,5c7.8,0,14.1,6.3,14.1,14.1V399c0,7.8-6.3,14.1-14.1,14.1H19.1C11.3,413,5,406.7,5,399V19.1
			C5,11.3,11.3,5,19.1,5H213.2 M213.2,0H19.1C8.5,0,0,8.5,0,19.1V399C0,409.5,8.5,418,19.1,418h194.1c10.5,0,19.1-8.5,19.1-19.1
			V19.1C232.3,8.5,223.8,0,213.2,0L213.2,0z"/>
		<path class="st58" d="M186.6,31.2H45.7c-7.8,0-14.1,6.3-14.1,14.1v286.9c0,7.8,6.3,14.1,14.1,14.1h140.9c7.8,0,14.1-6.3,14.1-14.1
			V45.3C200.8,37.5,194.4,31.2,186.6,31.2z"/>
		<path class="st14" d="M186.6,36.2c5,0,9.1,4.1,9.1,9.1v286.9c0,5-4.1,9.1-9.1,9.1H45.7c-5,0-9.1-4.1-9.1-9.1V45.3
			c0-5,4.1-9.1,9.1-9.1H186.6 M186.6,31.2H45.7c-7.8,0-14.1,6.3-14.1,14.1v286.9c0,7.8,6.3,14.1,14.1,14.1h140.9
			c7.8,0,14.1-6.3,14.1-14.1V45.3C200.8,37.5,194.4,31.2,186.6,31.2L186.6,31.2z"/>
		<linearGradient id="SVGID_1_" gradientUnits="userSpaceOnUse" x1="-37.2558" y1="323.1113" x2="113.7084" y2="210.8397">
			<stop  offset="0" style="stop-color:#333DC9"/>
			<stop  offset="1" style="stop-color:#333DC9;stop-opacity:0.2"/>
		</linearGradient>
		<path style="fill:url(#SVGID_1_);fill-opacity:0.6;" d="M0,19.1V399C0,409.5,8.5,418,19.1,418h194.1c10.5,0,19.1-8.5,19.1-19.1
			L19.1,0C8.5,0,0,8.5,0,19.1z"/>
		<path class="st14" d="M116.3,367.5c7.5,0,13.5,6.1,13.5,13.5s-6.1,13.5-13.5,13.5s-13.5-6.1-13.5-13.5S108.8,367.5,116.3,367.5
			 M116.3,362.5c-10.2,0-18.5,8.3-18.5,18.5c0,10.2,8.3,18.5,18.5,18.5c10.2,0,18.5-8.3,18.5-18.5
			C134.8,370.8,126.5,362.5,116.3,362.5L116.3,362.5z"/>
		<path class="st35" d="M355.3,243.4c11.7,0,21.2-9,21.2-20v-93.1c0-11-9.5-20-21.2-20H109.3c-11.7,0-21.2,9-21.2,20v93.1
			c0,11,9.5,20,21.2,20h22.8v33.3l45.8-33.3L355.3,243.4z"/>
		<path class="st14" d="M355.3,115.4c8.9,0,16.2,6.7,16.2,15v93.1c0,8.3-7.3,15-16.2,15l-177.3,0h-1.6l-1.3,1l-37.8,27.5v-23.5v-5
			h-5h-22.8c-8.9,0-16.2-6.7-16.2-15v-93.1c0-8.3,7.3-15,16.2-15H355.3 M355.3,110.4H109.3c-11.7,0-21.2,9-21.2,20v93.1
			c0,11,9.5,20,21.2,20h22.8v33.3l45.8-33.3l177.3,0c11.7,0,21.2-9,21.2-20v-93.1C376.4,119.3,367,110.4,355.3,110.4L355.3,110.4z"
			/>
		<path class="st14" d="M336.9,149H123.8c-4.5,0-8.2,3.7-8.2,8.2v1.9c0,4.5,3.7,8.2,8.2,8.2h213.1c4.5,0,8.2-3.7,8.2-8.2v-1.9
			C345.1,152.7,341.4,149,336.9,149z"/>
		<path class="st14" d="M265.1,183.7H124.8c-5,0-9.1,4.1-9.1,9.1v0c0,5,4.1,9.1,9.1,9.1h140.3c5,0,9.1-4.1,9.1-9.1v0
			C274.2,187.8,270.1,183.7,265.1,183.7z"/>
	</g>
</g>
<g id="Layer_2">
</g>
</svg>
