<?xml version="1.0" encoding="utf-8"?>
<!-- Generator: Adobe Illustrator 21.0.2, SVG Export Plug-In . SVG Version: 6.00 Build 0)  -->
<svg version="1.1" xmlns="http://www.w3.org/2000/svg" xmlns:xlink="http://www.w3.org/1999/xlink" x="0px" y="0px"
	 viewBox="0 0 539.6 423" style="enable-background:new 0 0 539.6 423;" xml:space="preserve">
<style type="text/css">
	.st0{opacity:0.5;fill:#833DC9;}
	.st1{opacity:0.5;fill:#333DC9;}
	.st2{fill:none;stroke:#000769;stroke-width:5;stroke-linecap:round;stroke-miterlimit:10;}
	.st3{fill:#333DC9;stroke:#000769;stroke-width:5;stroke-miterlimit:10;}
	.st4{fill:none;stroke:#231F20;stroke-width:5;stroke-miterlimit:10;}
	.st5{fill:none;stroke:#231F20;stroke-miterlimit:10;}
	.st6{fill:url(#SVGID_1_);}
	.st7{fill:none;stroke:#000000;stroke-width:5;stroke-miterlimit:10;}
	.st8{fill:#FFFFFF;stroke:#000000;stroke-width:5;stroke-miterlimit:10;}
	.st9{fill:#939598;stroke:#000000;stroke-width:5;stroke-miterlimit:10;}
	.st10{fill:#D1D3D4;stroke:#000000;stroke-width:5;stroke-miterlimit:10;}
	.st11{fill:#F1F2F2;stroke:#000000;stroke-width:5;stroke-miterlimit:10;}
	.st12{fill:#FFFFFF;stroke:#000769;stroke-width:5;stroke-miterlimit:10;}
	.st13{fill:#A3A7E6;stroke:#000769;stroke-width:5;stroke-miterlimit:10;}
	.st14{fill:#000769;}
	.st15{fill:#E2E9FC;stroke:#000769;stroke-width:5;stroke-miterlimit:10;}
	.st16{fill:url(#SVGID_2_);}
	.st17{fill:url(#SVGID_3_);}
	.st18{fill:url(#SVGID_4_);}
	.st19{fill:url(#SVGID_5_);}
	.st20{fill:url(#SVGID_6_);}
	.st21{fill:url(#SVGID_7_);}
	.st22{fill:url(#SVGID_8_);}
	.st23{fill:url(#SVGID_9_);}
	.st24{fill:url(#SVGID_10_);}
	.st25{fill:#FFFFFF;stroke:#231F20;stroke-width:5;stroke-miterlimit:10;}
	.st26{stroke:#000000;stroke-width:5;stroke-miterlimit:10;}
	.st27{fill:none;stroke:#000000;stroke-miterlimit:10;}
	.st28{fill:none;stroke:#231F20;stroke-width:5;stroke-linecap:round;stroke-miterlimit:10;}
	.st29{fill:none;stroke:#231F20;stroke-width:5;stroke-linecap:round;stroke-linejoin:round;stroke-miterlimit:10;}
	.st30{opacity:0.3;}
	.st31{fill:#FFFFFF;stroke:#231F20;stroke-miterlimit:10;}
	.st32{fill:none;stroke:#000000;stroke-width:10;stroke-miterlimit:10;}
	.st33{fill:none;stroke:#000769;stroke-width:10;stroke-miterlimit:10;}
	.st34{opacity:0.5;fill:#000769;}
	.st35{fill:#FFFFFF;}
	.st36{fill:#E5584E;stroke:#000000;stroke-width:5;stroke-miterlimit:10;}
	.st37{fill:#A9463E;stroke:#000000;stroke-width:5;stroke-miterlimit:10;}
	.st38{fill:#F18049;stroke:#000000;stroke-width:5;stroke-miterlimit:10;}
	.st39{fill:#B46638;stroke:#000000;stroke-width:5;stroke-miterlimit:10;}
	.st40{fill:#F5D66A;stroke:#000000;stroke-width:5;stroke-miterlimit:10;}
	.st41{fill:#BDAC4F;stroke:#000000;stroke-width:5;stroke-miterlimit:10;}
	.st42{fill:#4BA1A1;stroke:#000000;stroke-width:5;stroke-miterlimit:10;}
	.st43{fill:#3C8080;stroke:#000000;stroke-width:5;stroke-miterlimit:10;}
	.st44{fill:#005454;stroke:#000000;stroke-width:5;stroke-miterlimit:10;}
	.st45{fill:#184343;stroke:#000000;stroke-width:5;stroke-miterlimit:10;}
	.st46{fill:#2C79AC;stroke:#000000;stroke-width:5;stroke-miterlimit:10;}
	.st47{fill:#39608B;stroke:#000000;stroke-width:5;stroke-miterlimit:10;}
	.st48{fill:#48535D;stroke:#000000;stroke-width:5;stroke-miterlimit:10;}
	.st49{fill:#292D33;stroke:#000000;stroke-width:5;stroke-miterlimit:10;}
	.st50{fill:#F6F6F6;stroke:#000000;stroke-width:5;stroke-miterlimit:10;}
	.st51{fill:#0088CC;stroke:#000000;stroke-width:5;stroke-miterlimit:10;}
	.st52{fill:#ECEBEC;stroke:#000000;stroke-width:5;stroke-miterlimit:10;}
	.st53{fill:#333333;stroke:#000000;stroke-width:5;stroke-miterlimit:10;}
	.st54{fill:#C4C4C4;stroke:#000000;stroke-width:5;stroke-miterlimit:10;}
	.st55{fill:#919DA9;stroke:#000000;stroke-width:5;stroke-miterlimit:10;}
	.st56{fill:#7A8594;stroke:#000000;stroke-width:5;stroke-miterlimit:10;}
	.st57{fill:#A3A7E6;}
	.st58{fill:#E2E9FC;}
	.st59{opacity:0.5;fill:url(#SVGID_11_);}
	.st60{opacity:0.5;fill:url(#SVGID_12_);}
	.st61{fill:#333DC9;}
	.st62{opacity:0.5;fill:url(#SVGID_13_);}
	.st63{opacity:0.5;fill:url(#SVGID_14_);}
	.st64{opacity:0.5;fill:url(#SVGID_15_);}
	.st65{opacity:0.5;fill:url(#SVGID_16_);}
	.st66{opacity:0.5;fill:url(#SVGID_17_);}
	.st67{opacity:0.5;fill:url(#SVGID_18_);}
	.st68{opacity:0.5;fill:url(#SVGID_19_);}
	.st69{opacity:0.5;fill:url(#SVGID_20_);}
	.st70{opacity:0.5;fill:url(#SVGID_21_);}
	.st71{opacity:0.5;fill:url(#SVGID_22_);}
	.st72{opacity:0.5;fill:url(#SVGID_23_);}
	.st73{opacity:0.5;fill:url(#SVGID_24_);}
	.st74{opacity:0.5;fill:url(#SVGID_25_);}
	.st75{opacity:0.5;fill:url(#SVGID_26_);}
	.st76{opacity:0.5;fill:url(#SVGID_27_);}
	.st77{opacity:0.5;fill:url(#SVGID_28_);}
	.st78{opacity:0.5;fill:url(#SVGID_29_);}
	.st79{opacity:0.5;fill:url(#SVGID_30_);}
	.st80{opacity:0.5;fill:url(#Path_37_);enable-background:new    ;}
	.st81{fill:#FFFFFF;stroke:#000769;stroke-width:5;}
	.st82{fill:#E2E9FC;stroke:#000769;stroke-width:5.7143;}
	.st83{fill:#A3A7E6;stroke:#000769;stroke-width:5.7143;}
	.st84{fill:#FFFFFF;stroke:#000769;stroke-width:5.7143;}
	.st85{fill:url(#Rectangle_14_);fill-opacity:0.5;}
	.st86{fill:#A3A7E6;stroke:#000769;stroke-width:4.6731;}
	.st87{fill:url(#Combined-Shape_9_);stroke:#000769;stroke-width:5.6077;}
	.st88{fill:#E2E9FC;stroke:#000769;stroke-width:4.6731;}
	.st89{fill:url(#Rectangle_15_);stroke:#000769;stroke-width:4.6731;}
	.st90{fill:#FFFFFF;stroke:#000769;stroke-width:4.6731;}
	.st91{fill:url(#shadow_4_);fill-opacity:0.6;}
	.st92{fill:url(#Combined-Shape_10_);}
	.st93{fill:#231F20;}
	.st94{fill:url(#SVGID_31_);}
	.st95{fill:url(#SVGID_32_);}
	.st96{fill:url(#SVGID_33_);}
	.st97{fill:url(#SVGID_34_);}
	.st98{fill:url(#SVGID_35_);}
	.st99{fill:url(#SVGID_36_);}
	.st100{opacity:0.5;fill:url(#SVGID_37_);}
	.st101{opacity:0.5;fill:url(#SVGID_38_);}
	.st102{opacity:0.5;fill:url(#SVGID_39_);}
	.st103{opacity:0.5;fill:url(#SVGID_40_);}
	.st104{fill:url(#SVGID_41_);}
	.st105{fill:url(#SVGID_42_);}
	.st106{opacity:0.5;fill:url(#SVGID_43_);}
	.st107{fill:url(#Combined-Shape_11_);stroke:#000769;stroke-width:5.6077;}
	.st108{fill:url(#SVGID_44_);stroke:#000769;stroke-width:5.6077;}
	.st109{fill:#A3A7E6;stroke:#231F20;stroke-width:5;stroke-miterlimit:10;}
	.st110{fill:url(#SVGID_45_);}
	.st111{fill:url(#SVGID_46_);}
	.st112{fill:url(#SVGID_47_);}
	.st113{opacity:0.5;fill:url(#SVGID_48_);}
	.st114{opacity:0.5;fill:url(#SVGID_49_);}
	.st115{opacity:0.5;fill:url(#SVGID_50_);}
	.st116{fill:url(#Rectangle_16_);stroke:#000769;stroke-width:4.6731;}
	.st117{fill:url(#shadow_5_);fill-opacity:0.6;}
	.st118{fill:url(#SVGID_51_);fill-opacity:0.6;}
	.st119{fill:url(#SVGID_52_);fill-opacity:0.6;}
	.st120{fill:url(#SVGID_53_);fill-opacity:0.6;}
	.st121{fill:url(#SVGID_54_);fill-opacity:0.6;}
	.st122{fill:url(#SVGID_55_);fill-opacity:0.6;}
	.st123{fill:url(#SVGID_56_);fill-opacity:0.6;}
	.st124{fill:url(#SVGID_57_);fill-opacity:0.6;}
	.st125{fill:url(#SVGID_58_);fill-opacity:0.6;}
	.st126{fill:url(#Rectangle_17_);fill-opacity:0.5;}
	.st127{opacity:0.5;fill:url(#SVGID_59_);}
	.st128{opacity:0.5;fill:url(#SVGID_60_);}
	.st129{opacity:0.5;fill:url(#Path_39_);enable-background:new    ;}
	.st130{opacity:0.5;fill:url(#Path_40_);enable-background:new    ;}
	.st131{opacity:0.5;fill:url(#SVGID_61_);}
	.st132{opacity:0.5;fill:url(#SVGID_62_);}
	.st133{opacity:0.5;fill:url(#SVGID_63_);}
	.st134{opacity:0.5;fill:url(#SVGID_64_);enable-background:new    ;}
	.st135{opacity:0.5;fill:url(#SVGID_65_);enable-background:new    ;}
	.st136{opacity:0.5;fill:url(#SVGID_66_);}
</style>
<g id="Layer_1">
	<g>
		<g>
			<path class="st58" d="M386.8,111.3c11.2,0,20.2-9.1,20.2-20.2V20.2C407,9.1,397.9,0,386.8,0H20.2C9.1,0,0,9.1,0,20.2v70.9
				c0,11.2,9.1,20.2,20.2,20.2H42V145l43.8-33.6L386.8,111.3z"/>
			<path class="st14" d="M386.8,5.1c8.4,0,15.2,6.8,15.2,15.2v70.9c0,8.4-6.8,15.2-15.2,15.2l-301,0h-1.7l-1.4,1l-35.6,27.4v-23.4
				v-5.1H42H20.2c-8.4,0-15.2-6.8-15.2-15.2V20.2c0-8.4,6.8-15.2,15.2-15.2H386.8 M386.8,0H20.2C9.1,0,0,9.1,0,20.2v70.9
				c0,11.2,9.1,20.2,20.2,20.2H42V145l43.8-33.6l301,0c11.2,0,20.2-9.1,20.2-20.2V20.2C407,9.1,397.9,0,386.8,0L386.8,0z"/>
		</g>
		<g>
			<path class="st57" d="M152.9,235.2c-11.2,0-20.2-9.1-20.2-20.2v-40.5c0-11.2,9.1-20.2,20.2-20.2h366.5c11.2,0,20.2,9.1,20.2,20.2
				V215c0,11.2-9.1,20.2-20.2,20.2h-21.8v33.6l-43.8-33.6L152.9,235.2z"/>
			<path class="st14" d="M519.4,159.3c8.4,0,15.2,6.8,15.2,15.2V215c0,8.4-6.8,15.2-15.2,15.2h-21.8h-5.1v5.1v23.4l-35.6-27.4
				l-1.4-1h-1.7l-301,0c-8.4,0-15.2-6.8-15.2-15.2v-40.5c0-8.4,6.8-15.2,15.2-15.2H519.4 M519.4,154.2H152.9
				c-11.2,0-20.2,9.1-20.2,20.2V215c0,11.2,9.1,20.2,20.2,20.2l301,0l43.8,33.6v-33.6h21.8c11.2,0,20.2-9.1,20.2-20.2v-40.5
				C539.6,163.3,530.6,154.2,519.4,154.2L519.4,154.2z"/>
		</g>
		<path class="st14" d="M314.3,47.5h-271c-5.1,0-9.2,4.1-9.2,9.2v0c0,5.1,4.1,9.2,9.2,9.2h271c5.1,0,9.2-4.1,9.2-9.2v0
			C323.6,51.6,319.4,47.5,314.3,47.5z"/>
		<path class="st14" d="M500.7,186.3h-271c-5.1,0-9.2,4.1-9.2,9.2v0c0,5.1,4.1,9.2,9.2,9.2h271c5.1,0,9.2-4.1,9.2-9.2v0
			C510,190.5,505.8,186.3,500.7,186.3z"/>
		<g>
			<path class="st58" d="M386.8,389.4c11.2,0,20.2-9.1,20.2-20.2v-70.9c0-11.2-9.1-20.2-20.2-20.2H20.2C9.1,278.1,0,287.1,0,298.3
				v70.9c0,11.2,9.1,20.2,20.2,20.2H42V423l43.8-33.6L386.8,389.4z"/>
			<path class="st14" d="M386.8,283.1c8.4,0,15.2,6.8,15.2,15.2v70.9c0,8.4-6.8,15.2-15.2,15.2l-301,0h-1.7l-1.4,1l-35.6,27.4v-23.4
				v-5.1H42H20.2c-8.4,0-15.2-6.8-15.2-15.2v-70.9c0-8.4,6.8-15.2,15.2-15.2H386.8 M386.8,278.1H20.2C9.1,278.1,0,287.1,0,298.3
				v70.9c0,11.2,9.1,20.2,20.2,20.2H42V423l43.8-33.6l301,0c11.2,0,20.2-9.1,20.2-20.2v-70.9C407,287.1,397.9,278.1,386.8,278.1
				L386.8,278.1z"/>
		</g>
		<path class="st14" d="M356,324.4H43.3c-5.1,0-9.2,4.1-9.2,9.2v0c0,5.1,4.1,9.2,9.2,9.2H356c5.1,0,9.2-4.1,9.2-9.2v0
			C365.2,328.6,361.1,324.4,356,324.4z"/>
		
			<linearGradient id="SVGID_1_" gradientUnits="userSpaceOnUse" x1="-46.4605" y1="271.6627" x2="332.9279" y2="271.6627" gradientTransform="matrix(1 5.905738e-03 -6.125959e-03 1.0373 5.0235 67.9117)">
			<stop  offset="0" style="stop-color:#333DC9"/>
			<stop  offset="1" style="stop-color:#333DC9;stop-opacity:0.2"/>
		</linearGradient>
		<path style="opacity:0.5;fill:url(#SVGID_1_);" d="M20.2,278.1C9.1,278.1,0,287.1,0,298.3v70.9c0,11.2,9.1,20.2,20.2,20.2H42V423
			l43.8-33.6l200.5,0c-15.4-34.1-25.9-72.2-31.9-111.3H20.2z"/>
		
			<linearGradient id="SVGID_2_" gradientUnits="userSpaceOnUse" x1="-46.4607" y1="121.1086" x2="332.9278" y2="121.1086" gradientTransform="matrix(1 5.905738e-03 -6.125959e-03 1.0373 5.0235 67.9117)">
			<stop  offset="0" style="stop-color:#333DC9"/>
			<stop  offset="1" style="stop-color:#333DC9;stop-opacity:0.2"/>
		</linearGradient>
		<path style="opacity:0.5;fill:url(#SVGID_2_);" d="M250.1,154.2h-97.2c-11.2,0-20.2,9.1-20.2,20.2V215c0,11.2,9.1,20.2,20.2,20.2
			l96.8,0C247.8,207.8,247.9,180.5,250.1,154.2z"/>
		
			<linearGradient id="SVGID_3_" gradientUnits="userSpaceOnUse" x1="-46.4605" y1="3.4865" x2="332.9279" y2="3.4865" gradientTransform="matrix(1 5.905738e-03 -6.125959e-03 1.0373 5.0235 67.9117)">
			<stop  offset="0" style="stop-color:#333DC9"/>
			<stop  offset="1" style="stop-color:#333DC9;stop-opacity:0.2"/>
		</linearGradient>
		<path style="opacity:0.5;fill:url(#SVGID_3_);" d="M20.2,0C9.1,0,0,9.1,0,20.2v70.9c0,11.2,9.1,20.2,20.2,20.2H42V145l43.8-33.6
			l169.6,0C262.8,67.6,276,28.7,294,0H20.2z"/>
	</g>
</g>
<g id="Layer_2">
</g>
</svg>
