<?xml version="1.0" encoding="utf-8"?>
<!-- Generator: Adobe Illustrator 21.0.2, SVG Export Plug-In . SVG Version: 6.00 Build 0)  -->
<svg version="1.1" id="Layer_1" xmlns="http://www.w3.org/2000/svg" xmlns:xlink="http://www.w3.org/1999/xlink" x="0px" y="0px"
	 viewBox="0 0 408.3 423" style="enable-background:new 0 0 408.3 423;" xml:space="preserve">
<style type="text/css">
	.st0{fill:#005454;stroke:#000000;stroke-width:5;stroke-miterlimit:10;}
	.st1{fill:#FFC5EC;}
	.st2{fill:#32DCE2;stroke:#000000;stroke-width:5;stroke-miterlimit:10;}
	.st3{opacity:0.5;fill:#2957EF;}
	.st4{opacity:0.5;fill:#833DC9;}
	.st5{opacity:0.5;fill:#333DC9;}
	.st6{fill:none;stroke:#000769;stroke-width:5;stroke-linecap:round;stroke-miterlimit:10;}
	.st7{fill:#333DC9;stroke:#000769;stroke-width:5;stroke-miterlimit:10;}
	.st8{fill:none;stroke:#231F20;stroke-width:5;stroke-miterlimit:10;}
	.st9{fill:none;stroke:#231F20;stroke-miterlimit:10;}
	.st10{fill:url(#SVGID_1_);}
	.st11{fill:none;stroke:#000000;stroke-width:5;stroke-miterlimit:10;}
	.st12{fill:#FFFFFF;stroke:#000000;stroke-width:5;stroke-miterlimit:10;}
	.st13{fill:#939598;stroke:#000000;stroke-width:5;stroke-miterlimit:10;}
	.st14{fill:#D1D3D4;stroke:#000000;stroke-width:5;stroke-miterlimit:10;}
	.st15{fill:#F1F2F2;stroke:#000000;stroke-width:5;stroke-miterlimit:10;}
	.st16{fill:#FFFFFF;stroke:#000769;stroke-width:5;stroke-miterlimit:10;}
	.st17{fill:#A3A7E6;stroke:#000769;stroke-width:5;stroke-miterlimit:10;}
	.st18{fill:#000769;}
	.st19{fill:#E2E9FC;stroke:#000769;stroke-width:5;stroke-miterlimit:10;}
	.st20{fill:url(#SVGID_2_);}
	.st21{fill:url(#SVGID_3_);}
	.st22{fill:url(#SVGID_4_);}
	.st23{fill:url(#SVGID_5_);}
	.st24{fill:url(#SVGID_6_);}
	.st25{fill:url(#SVGID_7_);}
	.st26{fill:url(#SVGID_8_);}
	.st27{fill:url(#SVGID_9_);}
	.st28{fill:url(#SVGID_10_);}
	.st29{fill:#FFFFFF;stroke:#231F20;stroke-width:5;stroke-miterlimit:10;}
	.st30{stroke:#000000;stroke-width:5;stroke-miterlimit:10;}
	.st31{fill:none;stroke:#000000;stroke-miterlimit:10;}
	.st32{fill:none;stroke:#231F20;stroke-width:5;stroke-linecap:round;stroke-miterlimit:10;}
	.st33{fill:none;stroke:#231F20;stroke-width:5;stroke-linecap:round;stroke-linejoin:round;stroke-miterlimit:10;}
	.st34{opacity:0.3;}
	.st35{fill:#FFFFFF;stroke:#231F20;stroke-miterlimit:10;}
	.st36{fill:none;stroke:#000000;stroke-width:10;stroke-miterlimit:10;}
	.st37{fill:none;stroke:#000769;stroke-width:10;stroke-miterlimit:10;}
	.st38{opacity:0.5;fill:#000769;}
	.st39{fill:#F26565;stroke:#000000;stroke-width:5;stroke-miterlimit:10;}
	.st40{fill:#0028A1;stroke:#000000;stroke-width:5;stroke-miterlimit:10;}
	.st41{fill:#678BF7;stroke:#000000;stroke-width:5;stroke-miterlimit:10;}
	.st42{fill:#6FEDED;stroke:#000000;stroke-width:5;stroke-miterlimit:10;}
	.st43{fill:#75FAFA;stroke:#000000;stroke-width:5;stroke-miterlimit:10;}
	.st44{fill:#A9F4F4;}
	.st45{fill:#3C8080;stroke:#000000;stroke-width:5;stroke-miterlimit:10;}
	.st46{fill:#4BA1A1;stroke:#000000;stroke-width:5;stroke-miterlimit:10;}
	.st47{opacity:0.5;fill:url(#SVGID_11_);}
	.st48{opacity:0.5;fill:url(#SVGID_12_);}
	.st49{opacity:0.5;fill:url(#SVGID_13_);}
	.st50{opacity:0.5;fill:url(#SVGID_14_);}
	.st51{fill:#FFFFFF;}
	.st52{opacity:0.5;fill:url(#SVGID_15_);}
	.st53{opacity:0.5;fill:url(#SVGID_16_);}
	.st54{opacity:0.5;fill:url(#SVGID_17_);}
	.st55{opacity:0.5;fill:url(#SVGID_18_);}
	.st56{fill:none;stroke:#005454;stroke-width:5;stroke-linecap:round;stroke-miterlimit:10;}
	.st57{opacity:0.5;fill:url(#SVGID_19_);}
	.st58{opacity:0.5;fill:url(#SVGID_20_);}
	.st59{opacity:0.5;fill:url(#SVGID_21_);}
	.st60{fill:none;stroke:#005454;stroke-width:10;stroke-miterlimit:10;}
	.st61{opacity:0.5;fill:url(#SVGID_22_);}
	.st62{fill:#184343;}
	.st63{opacity:0.5;fill:#184343;}
	.st64{opacity:0.5;fill:url(#SVGID_23_);}
	.st65{opacity:0.5;fill:url(#SVGID_24_);}
	.st66{opacity:0.5;fill:url(#SVGID_25_);}
	.st67{opacity:0.5;fill:url(#SVGID_26_);}
	.st68{opacity:0.5;fill:url(#SVGID_27_);}
	.st69{opacity:0.5;fill:url(#SVGID_28_);}
	.st70{fill:#F6F6F6;stroke:#000000;stroke-width:5;stroke-miterlimit:10;}
	.st71{opacity:0.5;fill:url(#SVGID_29_);}
	.st72{opacity:0.5;fill:url(#SVGID_30_);}
	.st73{fill:none;stroke:#CCCCCC;stroke-miterlimit:10;}
	.st74{fill:#85FBFF;stroke:#000000;stroke-width:5;stroke-miterlimit:10;}
	.st75{fill:#2957EF;stroke:#000000;stroke-width:5;stroke-miterlimit:10;}
	.st76{fill:#0028A1;}
	.st77{opacity:0.5;fill:url(#SVGID_31_);}
	.st78{fill:#C5F8F8;}
	.st79{fill:#5AA7D6;stroke:#000000;stroke-width:5;stroke-miterlimit:10;}
	.st80{fill:#FFFFFF;stroke:#000000;stroke-width:10;stroke-miterlimit:10;}
	.st81{opacity:0.75;fill:#A329EF;}
	.st82{opacity:0.75;fill:#E92B28;}
	.st83{opacity:0.75;fill:#AF157D;}
	.st84{fill:#85FBFF;}
	.st85{fill:#2957EF;}
	.st86{opacity:0.5;fill:url(#SVGID_32_);}
	.st87{opacity:0.5;fill:url(#SVGID_33_);}
	.st88{opacity:0.5;fill:url(#SVGID_34_);}
	.st89{opacity:0.5;fill:url(#SVGID_35_);}
	.st90{fill:#32DCE2;}
	.st91{opacity:0.5;fill:url(#SVGID_36_);}
	.st92{opacity:0.5;fill:url(#SVGID_37_);}
	.st93{opacity:0.5;fill:url(#SVGID_38_);}
	.st94{opacity:0.5;fill:url(#SVGID_39_);}
	.st95{opacity:0.5;fill:url(#SVGID_40_);}
	.st96{opacity:0.5;fill:url(#SVGID_41_);}
	.st97{opacity:0.5;fill:url(#SVGID_42_);}
	.st98{opacity:0.5;fill:url(#SVGID_43_);}
	.st99{fill:#231F20;}
	.st100{opacity:0.5;fill:url(#SVGID_44_);}
	.st101{opacity:0.75;fill:url(#SVGID_45_);}
	.st102{opacity:0.5;fill:url(#SVGID_46_);}
	.st103{opacity:0.5;fill:url(#SVGID_47_);}
	.st104{opacity:0.5;fill:url(#SVGID_48_);}
	.st105{opacity:0.5;fill:url(#SVGID_49_);}
	.st106{opacity:0.5;fill:url(#SVGID_50_);}
	.st107{opacity:0.5;fill:url(#SVGID_51_);}
	.st108{opacity:0.5;fill:url(#SVGID_52_);}
	.st109{opacity:0.5;fill:url(#SVGID_53_);}
	.st110{opacity:0.5;fill:url(#SVGID_54_);}
	.st111{opacity:0.5;fill:url(#SVGID_55_);}
	.st112{opacity:0.5;fill:url(#SVGID_56_);}
	.st113{opacity:0.5;fill:url(#SVGID_57_);}
	.st114{opacity:0.5;fill:url(#SVGID_58_);}
	.st115{opacity:0.5;fill:url(#SVGID_59_);}
	.st116{opacity:0.5;fill:url(#SVGID_60_);}
	.st117{opacity:0.5;fill:url(#SVGID_61_);}
	.st118{opacity:0.5;fill:url(#SVGID_62_);}
	.st119{opacity:0.5;fill:url(#SVGID_63_);}
	.st120{opacity:0.5;fill:url(#SVGID_64_);}
	.st121{fill:none;}
	.st122{fill:#E5584E;stroke:#000000;stroke-width:5;stroke-miterlimit:10;}
	.st123{fill:#A9463E;stroke:#000000;stroke-width:5;stroke-miterlimit:10;}
	.st124{fill:#F18049;stroke:#000000;stroke-width:5;stroke-miterlimit:10;}
	.st125{fill:#B46638;stroke:#000000;stroke-width:5;stroke-miterlimit:10;}
	.st126{fill:#F5D66A;stroke:#000000;stroke-width:5;stroke-miterlimit:10;}
	.st127{fill:#BDAC4F;stroke:#000000;stroke-width:5;stroke-miterlimit:10;}
	.st128{fill:#184343;stroke:#000000;stroke-width:5;stroke-miterlimit:10;}
	.st129{fill:#2C79AC;stroke:#000000;stroke-width:5;stroke-miterlimit:10;}
	.st130{fill:#39608B;stroke:#000000;stroke-width:5;stroke-miterlimit:10;}
	.st131{fill:#48535D;stroke:#000000;stroke-width:5;stroke-miterlimit:10;}
	.st132{fill:#292D33;stroke:#000000;stroke-width:5;stroke-miterlimit:10;}
	.st133{fill:#0088CC;stroke:#000000;stroke-width:5;stroke-miterlimit:10;}
	.st134{fill:#ECEBEC;stroke:#000000;stroke-width:5;stroke-miterlimit:10;}
	.st135{fill:#333333;stroke:#000000;stroke-width:5;stroke-miterlimit:10;}
	.st136{fill:#C4C4C4;stroke:#000000;stroke-width:5;stroke-miterlimit:10;}
	.st137{fill:#919DA9;stroke:#000000;stroke-width:5;stroke-miterlimit:10;}
	.st138{fill:#7A8594;stroke:#000000;stroke-width:5;stroke-miterlimit:10;}
	.st139{opacity:0.5;fill:url(#SVGID_65_);}
	.st140{fill:#3C8080;}
	.st141{fill:#4BA1A1;}
	.st142{opacity:0.5;fill:url(#SVGID_66_);}
	.st143{opacity:0.5;fill:url(#SVGID_67_);}
	.st144{fill:#005454;}
	.st145{opacity:0.5;fill:url(#SVGID_68_);}
	.st146{opacity:0.5;fill:url(#SVGID_69_);}
	.st147{opacity:0.5;fill:url(#SVGID_70_);}
	.st148{opacity:0.5;fill:url(#SVGID_71_);}
	.st149{opacity:0.5;fill:url(#SVGID_72_);}
	.st150{opacity:0.5;fill:url(#SVGID_73_);}
	.st151{fill:#A3A7E6;}
	.st152{fill:#E2E9FC;}
	.st153{opacity:0.5;fill:url(#SVGID_74_);}
	.st154{opacity:0.5;fill:url(#SVGID_75_);}
	.st155{fill:#333DC9;}
	.st156{opacity:0.5;fill:url(#SVGID_76_);}
	.st157{opacity:0.5;fill:url(#SVGID_77_);}
	.st158{opacity:0.5;fill:url(#SVGID_78_);}
	.st159{opacity:0.5;fill:url(#SVGID_79_);}
	.st160{opacity:0.5;fill:url(#SVGID_80_);}
	.st161{opacity:0.5;fill:url(#SVGID_81_);}
	.st162{opacity:0.5;fill:url(#SVGID_82_);}
	.st163{opacity:0.5;fill:url(#SVGID_83_);}
	.st164{opacity:0.5;fill:url(#SVGID_84_);}
	.st165{opacity:0.5;fill:url(#SVGID_85_);}
	.st166{opacity:0.5;fill:url(#SVGID_86_);}
	.st167{opacity:0.5;fill:url(#SVGID_87_);}
	.st168{opacity:0.5;fill:url(#SVGID_88_);}
	.st169{opacity:0.5;fill:url(#SVGID_89_);}
	.st170{opacity:0.5;fill:url(#SVGID_90_);}
	.st171{opacity:0.5;fill:url(#SVGID_91_);}
	.st172{opacity:0.5;fill:url(#SVGID_92_);}
</style>
<g>
	<path class="st18" d="M92.8,408.5c-0.9,0-1.7-0.4-2.2-1.2c-12.2-21-1.7-32.4,6.7-41.6c4.9-5.4,9.2-10.1,9.2-16
		c0-8.1-5.2-12.9-10.7-18.1c-6-5.6-12.1-11.3-12.1-21.4c0-10,4.2-16.9,7.8-23c4.1-6.8,7.7-12.8,4.9-21.9c-0.4-1.3,0.4-2.7,1.7-3.1
		c1.3-0.4,2.7,0.4,3.1,1.7c3.4,11.2-1.1,18.7-5.4,25.9c-3.5,5.8-7.1,11.9-7.1,20.5c0,7.9,5.1,12.6,10.5,17.7
		c5.7,5.4,12.3,11.5,12.3,21.7c0,7.8-5.4,13.7-10.5,19.3c-8.4,9.2-16.4,17.9-6,35.7c0.7,1.2,0.3,2.7-0.9,3.4
		C93.7,408.4,93.3,408.5,92.8,408.5z"/>
	<path class="st18" d="M303.3,408.6c-0.9,0-1.7-0.4-2.2-1.2c-12.2-21-1.7-32.4,6.7-41.6c4.9-5.4,9.2-10.1,9.2-16
		c0-8.1-5.2-12.9-10.7-18.1c-6-5.6-12.1-11.3-12.1-21.4c0-10,4.2-16.9,7.8-23.1c4.1-6.8,7.7-12.8,4.9-21.9c-0.4-1.3,0.4-2.7,1.7-3.1
		c1.3-0.4,2.7,0.4,3.1,1.7c3.4,11.2-1.1,18.7-5.4,25.9c-3.5,5.8-7.1,11.9-7.1,20.5c0,7.9,5.1,12.6,10.5,17.7
		c5.7,5.4,12.3,11.5,12.3,21.7c0,7.8-5.4,13.7-10.5,19.3c-8.4,9.2-16.4,17.9-6,35.7c0.7,1.2,0.3,2.7-0.9,3.4
		C304.1,408.5,303.7,408.6,303.3,408.6z"/>
	<g>
		<path class="st151" d="M111.7,274.8H86.2c-1.7,0-2.6-2-1.5-3.3l12.8-15.3c0.8-1,2.3-1,3.1,0l12.8,15.3
			C114.3,272.9,113.4,274.8,111.7,274.8z"/>
		<path class="st18" d="M111.7,277.3H86.2c-1.8,0-3.3-1-4.1-2.6c-0.8-1.6-0.5-3.4,0.6-4.8l12.8-15.3c0.9-1,2.1-1.6,3.5-1.6
			c1.3,0,2.6,0.6,3.5,1.6l12.8,15.3c1.1,1.4,1.4,3.2,0.6,4.8C115,276.3,113.5,277.3,111.7,277.3z M87.3,272.3h23.4l-11.7-14
			L87.3,272.3z"/>
	</g>
	<g>
		<path class="st151" d="M322.2,274.9h-25.5c-1.7,0-2.6-2-1.5-3.3l12.8-15.3c0.8-1,2.3-1,3.1,0l12.8,15.3
			C324.8,272.9,323.9,274.9,322.2,274.9z"/>
		<path class="st18" d="M322.2,277.4h-25.5c-1.8,0-3.3-1-4.1-2.6s-0.5-3.4,0.6-4.8l12.8-15.3c0.9-1,2.1-1.6,3.5-1.6
			c1.3,0,2.6,0.6,3.5,1.6l12.8,15.3c1.1,1.4,1.4,3.2,0.6,4.8S323.9,277.4,322.2,277.4z M297.7,272.4h23.4l-11.7-14L297.7,272.4z"/>
	</g>
	<g>
		<ellipse class="st151" cx="98.9" cy="151.2" rx="96.4" ry="108.7"/>
		<path class="st18" d="M98.9,262.4C44.4,262.4,0,212.5,0,151.2S44.4,39.9,98.9,39.9s98.9,49.9,98.9,111.2S153.5,262.4,98.9,262.4z
			 M98.9,44.9C47.1,44.9,5,92.6,5,151.2s42.1,106.2,93.9,106.2s93.9-47.7,93.9-106.2S150.8,44.9,98.9,44.9z"/>
	</g>
	<g>
		<ellipse class="st151" cx="309.4" cy="151.2" rx="96.4" ry="108.7"/>
		<path class="st18" d="M309.4,262.5c-54.6,0-98.9-49.9-98.9-111.2S254.8,40,309.4,40s98.9,49.9,98.9,111.2S364,262.5,309.4,262.5z
			 M309.4,45c-51.8,0-93.9,47.7-93.9,106.2s42.1,106.2,93.9,106.2s93.9-47.7,93.9-106.2S361.2,45,309.4,45z"/>
	</g>
	<linearGradient id="SVGID_1_" gradientUnits="userSpaceOnUse" x1="2.5004" y1="151.2252" x2="75.8349" y2="151.2252">
		<stop  offset="0" style="stop-color:#333DC9"/>
		<stop  offset="1" style="stop-color:#333DC9;stop-opacity:0.2"/>
	</linearGradient>
	<path style="opacity:0.5;fill:url(#SVGID_1_);" d="M27.7,151.2c0-43.8,19.1-82.5,48.1-105.6C33.7,57.3,2.5,100.2,2.5,151.2
		s31.2,93.9,73.3,105.6C46.8,233.7,27.7,195,27.7,151.2z"/>
	<linearGradient id="SVGID_2_" gradientUnits="userSpaceOnUse" x1="212.9489" y1="151.2252" x2="286.2833" y2="151.2252">
		<stop  offset="0" style="stop-color:#333DC9"/>
		<stop  offset="1" style="stop-color:#333DC9;stop-opacity:0.2"/>
	</linearGradient>
	<path style="opacity:0.5;fill:url(#SVGID_2_);" d="M238.2,151.2c0-43.8,19.1-82.5,48.1-105.6c-42.1,11.7-73.3,54.5-73.3,105.6
		s31.2,93.9,73.3,105.6C257.2,233.7,238.2,195,238.2,151.2z"/>
	<path class="st18" d="M197.1,423c-0.9,0-1.7-0.4-2.2-1.2c-13.8-23.9-1.9-37,7.6-47.4c5.5-6,10.7-11.7,10.7-18.6
		c0-9.5-6-15.1-12.4-21c-6.8-6.4-13.8-12.9-13.8-24.3c0-11.4,4.8-19.3,9-26.3c4.8-7.9,8.9-14.8,5.7-25.5c-0.4-1.3,0.4-2.7,1.7-3.1
		c1.3-0.4,2.7,0.4,3.1,1.7c3.8,12.8-1.3,21.3-6.2,29.5c-4.1,6.7-8.2,13.7-8.2,23.7c0,9.2,5.9,14.8,12.2,20.6
		c6.9,6.4,14,13.1,14,24.7c0,8.8-6.1,15.5-12,22c-9.8,10.7-19,20.8-7,41.5c0.7,1.2,0.3,2.7-0.9,3.4C198,422.9,197.5,423,197.1,423z"
		/>
	<g>
		<path class="st151" d="M219.4,269.7h-30.6c-1.7,0-2.6-2-1.5-3.3l15.3-18.4c0.8-1,2.3-1,3.1,0l15.3,18.4
			C222.1,267.7,221.1,269.7,219.4,269.7z"/>
		<path class="st18" d="M219.4,272.2h-30.6c-1.8,0-3.3-1-4.1-2.6s-0.5-3.4,0.6-4.8l15.3-18.4c0.9-1,2.1-1.6,3.5-1.6s2.6,0.6,3.5,1.6
			l15.3,18.4c1.1,1.4,1.4,3.2,0.6,4.8S221.2,272.2,219.4,272.2z M189.9,267.2h28.5l-14.2-17.1L189.9,267.2z"/>
	</g>
	<g>
		<ellipse class="st152" cx="204.1" cy="127.5" rx="110.9" ry="125"/>
		<path class="st18" d="M204.1,255c-62.5,0-113.4-57.2-113.4-127.5S141.6,0,204.1,0s113.4,57.2,113.4,127.5S266.7,255,204.1,255z
			 M204.1,5C144.4,5,95.7,60,95.7,127.5S144.4,250,204.1,250s108.4-55,108.4-122.5S263.9,5,204.1,5z"/>
	</g>
	<linearGradient id="SVGID_3_" gradientUnits="userSpaceOnUse" x1="93.2394" y1="125.8507" x2="186.0217" y2="125.8507">
		<stop  offset="0" style="stop-color:#333DC9"/>
		<stop  offset="1" style="stop-color:#333DC9;stop-opacity:0.2"/>
	</linearGradient>
	<path style="opacity:0.5;fill:url(#SVGID_3_);" d="M124.3,125.9c0-52.7,24.8-98.8,61.7-123.4c-52.6,9.8-92.8,61.3-92.8,123.4
		s40.2,113.6,92.8,123.4C149.1,224.6,124.3,178.6,124.3,125.9z"/>
</g>
</svg>
