<?xml version="1.0" encoding="utf-8"?>
<!-- Generator: Adobe Illustrator 21.0.2, SVG Export Plug-In . SVG Version: 6.00 Build 0)  -->
<svg version="1.1" id="Layer_1" xmlns="http://www.w3.org/2000/svg" xmlns:xlink="http://www.w3.org/1999/xlink" x="0px" y="0px"
	 viewBox="0 0 402.6 423" style="enable-background:new 0 0 402.6 423;" xml:space="preserve">
<style type="text/css">
	.st0{fill:#005454;stroke:#000000;stroke-width:5;stroke-miterlimit:10;}
	.st1{fill:#FFC5EC;}
	.st2{fill:#32DCE2;stroke:#000000;stroke-width:5;stroke-miterlimit:10;}
	.st3{opacity:0.5;fill:#2957EF;}
	.st4{opacity:0.5;fill:#833DC9;}
	.st5{opacity:0.5;fill:#333DC9;}
	.st6{fill:none;stroke:#000769;stroke-width:5;stroke-linecap:round;stroke-miterlimit:10;}
	.st7{fill:#333DC9;stroke:#000769;stroke-width:5;stroke-miterlimit:10;}
	.st8{fill:none;stroke:#231F20;stroke-width:5;stroke-miterlimit:10;}
	.st9{fill:none;stroke:#231F20;stroke-miterlimit:10;}
	.st10{fill:url(#SVGID_1_);}
	.st11{fill:none;stroke:#000000;stroke-width:5;stroke-miterlimit:10;}
	.st12{fill:#FFFFFF;stroke:#000000;stroke-width:5;stroke-miterlimit:10;}
	.st13{fill:#939598;stroke:#000000;stroke-width:5;stroke-miterlimit:10;}
	.st14{fill:#D1D3D4;stroke:#000000;stroke-width:5;stroke-miterlimit:10;}
	.st15{fill:#F1F2F2;stroke:#000000;stroke-width:5;stroke-miterlimit:10;}
	.st16{fill:#FFFFFF;stroke:#000769;stroke-width:5;stroke-miterlimit:10;}
	.st17{fill:#A3A7E6;stroke:#000769;stroke-width:5;stroke-miterlimit:10;}
	.st18{fill:#000769;}
	.st19{fill:#E2E9FC;stroke:#000769;stroke-width:5;stroke-miterlimit:10;}
	.st20{fill:url(#SVGID_2_);}
	.st21{fill:url(#SVGID_3_);}
	.st22{fill:url(#SVGID_4_);}
	.st23{fill:url(#SVGID_5_);}
	.st24{fill:url(#SVGID_6_);}
	.st25{fill:url(#SVGID_7_);}
	.st26{fill:url(#SVGID_8_);}
	.st27{fill:url(#SVGID_9_);}
	.st28{fill:url(#SVGID_10_);}
	.st29{fill:#FFFFFF;stroke:#231F20;stroke-width:5;stroke-miterlimit:10;}
	.st30{stroke:#000000;stroke-width:5;stroke-miterlimit:10;}
	.st31{fill:none;stroke:#000000;stroke-miterlimit:10;}
	.st32{fill:none;stroke:#231F20;stroke-width:5;stroke-linecap:round;stroke-miterlimit:10;}
	.st33{fill:none;stroke:#231F20;stroke-width:5;stroke-linecap:round;stroke-linejoin:round;stroke-miterlimit:10;}
	.st34{opacity:0.3;}
	.st35{fill:#FFFFFF;stroke:#231F20;stroke-miterlimit:10;}
	.st36{fill:none;stroke:#000000;stroke-width:10;stroke-miterlimit:10;}
	.st37{fill:none;stroke:#000769;stroke-width:10;stroke-miterlimit:10;}
	.st38{opacity:0.5;fill:#000769;}
	.st39{fill:#F26565;stroke:#000000;stroke-width:5;stroke-miterlimit:10;}
	.st40{fill:#0028A1;stroke:#000000;stroke-width:5;stroke-miterlimit:10;}
	.st41{fill:#678BF7;stroke:#000000;stroke-width:5;stroke-miterlimit:10;}
	.st42{fill:#6FEDED;stroke:#000000;stroke-width:5;stroke-miterlimit:10;}
	.st43{fill:#75FAFA;stroke:#000000;stroke-width:5;stroke-miterlimit:10;}
	.st44{fill:#A9F4F4;}
	.st45{fill:#3C8080;stroke:#000000;stroke-width:5;stroke-miterlimit:10;}
	.st46{fill:#4BA1A1;stroke:#000000;stroke-width:5;stroke-miterlimit:10;}
	.st47{opacity:0.5;fill:url(#SVGID_11_);}
	.st48{opacity:0.5;fill:url(#SVGID_12_);}
	.st49{opacity:0.5;fill:url(#SVGID_13_);}
	.st50{opacity:0.5;fill:url(#SVGID_14_);}
	.st51{fill:#FFFFFF;}
	.st52{opacity:0.5;fill:url(#SVGID_15_);}
	.st53{opacity:0.5;fill:url(#SVGID_16_);}
	.st54{opacity:0.5;fill:url(#SVGID_17_);}
	.st55{opacity:0.5;fill:url(#SVGID_18_);}
	.st56{fill:none;stroke:#005454;stroke-width:5;stroke-linecap:round;stroke-miterlimit:10;}
	.st57{opacity:0.5;fill:url(#SVGID_19_);}
	.st58{opacity:0.5;fill:url(#SVGID_20_);}
	.st59{opacity:0.5;fill:url(#SVGID_21_);}
	.st60{fill:none;stroke:#005454;stroke-width:10;stroke-miterlimit:10;}
	.st61{opacity:0.5;fill:url(#SVGID_22_);}
	.st62{fill:#184343;}
	.st63{opacity:0.5;fill:#184343;}
	.st64{opacity:0.5;fill:url(#SVGID_23_);}
	.st65{opacity:0.5;fill:url(#SVGID_24_);}
	.st66{opacity:0.5;fill:url(#SVGID_25_);}
	.st67{opacity:0.5;fill:url(#SVGID_26_);}
	.st68{opacity:0.5;fill:url(#SVGID_27_);}
	.st69{opacity:0.5;fill:url(#SVGID_28_);}
	.st70{fill:#F6F6F6;stroke:#000000;stroke-width:5;stroke-miterlimit:10;}
	.st71{opacity:0.5;fill:url(#SVGID_29_);}
	.st72{opacity:0.5;fill:url(#SVGID_30_);}
	.st73{fill:none;stroke:#CCCCCC;stroke-miterlimit:10;}
	.st74{fill:#85FBFF;stroke:#000000;stroke-width:5;stroke-miterlimit:10;}
	.st75{fill:#2957EF;stroke:#000000;stroke-width:5;stroke-miterlimit:10;}
	.st76{fill:#0028A1;}
	.st77{opacity:0.5;fill:url(#SVGID_31_);}
	.st78{fill:#C5F8F8;}
	.st79{fill:#5AA7D6;stroke:#000000;stroke-width:5;stroke-miterlimit:10;}
	.st80{fill:#FFFFFF;stroke:#000000;stroke-width:10;stroke-miterlimit:10;}
	.st81{opacity:0.75;fill:#A329EF;}
	.st82{opacity:0.75;fill:#E92B28;}
	.st83{opacity:0.75;fill:#AF157D;}
	.st84{fill:#85FBFF;}
	.st85{fill:#2957EF;}
	.st86{opacity:0.5;fill:url(#SVGID_32_);}
	.st87{opacity:0.5;fill:url(#SVGID_33_);}
	.st88{opacity:0.5;fill:url(#SVGID_34_);}
	.st89{opacity:0.5;fill:url(#SVGID_35_);}
	.st90{fill:#32DCE2;}
	.st91{opacity:0.5;fill:url(#SVGID_36_);}
	.st92{opacity:0.5;fill:url(#SVGID_37_);}
	.st93{opacity:0.5;fill:url(#SVGID_38_);}
	.st94{opacity:0.5;fill:url(#SVGID_39_);}
	.st95{opacity:0.5;fill:url(#SVGID_40_);}
	.st96{opacity:0.5;fill:url(#SVGID_41_);}
	.st97{opacity:0.5;fill:url(#SVGID_42_);}
	.st98{opacity:0.5;fill:url(#SVGID_43_);}
	.st99{fill:#231F20;}
	.st100{opacity:0.5;fill:url(#SVGID_44_);}
	.st101{opacity:0.75;fill:url(#SVGID_45_);}
	.st102{opacity:0.5;fill:url(#SVGID_46_);}
	.st103{opacity:0.5;fill:url(#SVGID_47_);}
	.st104{opacity:0.5;fill:url(#SVGID_48_);}
	.st105{opacity:0.5;fill:url(#SVGID_49_);}
	.st106{opacity:0.5;fill:url(#SVGID_50_);}
	.st107{opacity:0.5;fill:url(#SVGID_51_);}
	.st108{opacity:0.5;fill:url(#SVGID_52_);}
	.st109{opacity:0.5;fill:url(#SVGID_53_);}
	.st110{opacity:0.5;fill:url(#SVGID_54_);}
	.st111{opacity:0.5;fill:url(#SVGID_55_);}
	.st112{opacity:0.5;fill:url(#SVGID_56_);}
	.st113{opacity:0.5;fill:url(#SVGID_57_);}
	.st114{opacity:0.5;fill:url(#SVGID_58_);}
	.st115{opacity:0.5;fill:url(#SVGID_59_);}
	.st116{opacity:0.5;fill:url(#SVGID_60_);}
	.st117{opacity:0.5;fill:url(#SVGID_61_);}
	.st118{opacity:0.5;fill:url(#SVGID_62_);}
	.st119{opacity:0.5;fill:url(#SVGID_63_);}
	.st120{opacity:0.5;fill:url(#SVGID_64_);}
	.st121{fill:none;}
	.st122{fill:#E5584E;stroke:#000000;stroke-width:5;stroke-miterlimit:10;}
	.st123{fill:#A9463E;stroke:#000000;stroke-width:5;stroke-miterlimit:10;}
	.st124{fill:#F18049;stroke:#000000;stroke-width:5;stroke-miterlimit:10;}
	.st125{fill:#B46638;stroke:#000000;stroke-width:5;stroke-miterlimit:10;}
	.st126{fill:#F5D66A;stroke:#000000;stroke-width:5;stroke-miterlimit:10;}
	.st127{fill:#BDAC4F;stroke:#000000;stroke-width:5;stroke-miterlimit:10;}
	.st128{fill:#184343;stroke:#000000;stroke-width:5;stroke-miterlimit:10;}
	.st129{fill:#2C79AC;stroke:#000000;stroke-width:5;stroke-miterlimit:10;}
	.st130{fill:#39608B;stroke:#000000;stroke-width:5;stroke-miterlimit:10;}
	.st131{fill:#48535D;stroke:#000000;stroke-width:5;stroke-miterlimit:10;}
	.st132{fill:#292D33;stroke:#000000;stroke-width:5;stroke-miterlimit:10;}
	.st133{fill:#0088CC;stroke:#000000;stroke-width:5;stroke-miterlimit:10;}
	.st134{fill:#ECEBEC;stroke:#000000;stroke-width:5;stroke-miterlimit:10;}
	.st135{fill:#333333;stroke:#000000;stroke-width:5;stroke-miterlimit:10;}
	.st136{fill:#C4C4C4;stroke:#000000;stroke-width:5;stroke-miterlimit:10;}
	.st137{fill:#919DA9;stroke:#000000;stroke-width:5;stroke-miterlimit:10;}
	.st138{fill:#7A8594;stroke:#000000;stroke-width:5;stroke-miterlimit:10;}
	.st139{opacity:0.5;fill:url(#SVGID_65_);}
	.st140{fill:#3C8080;}
	.st141{fill:#4BA1A1;}
	.st142{opacity:0.5;fill:url(#SVGID_66_);}
	.st143{opacity:0.5;fill:url(#SVGID_67_);}
	.st144{fill:#005454;}
	.st145{opacity:0.5;fill:url(#SVGID_68_);}
	.st146{opacity:0.5;fill:url(#SVGID_69_);}
	.st147{opacity:0.5;fill:url(#SVGID_70_);}
	.st148{opacity:0.5;fill:url(#SVGID_71_);}
	.st149{opacity:0.5;fill:url(#SVGID_72_);}
	.st150{opacity:0.5;fill:url(#SVGID_73_);}
	.st151{fill:#A3A7E6;}
	.st152{fill:#E2E9FC;}
	.st153{opacity:0.5;fill:url(#SVGID_74_);}
	.st154{opacity:0.5;fill:url(#SVGID_75_);}
	.st155{fill:#333DC9;}
	.st156{opacity:0.5;fill:url(#SVGID_76_);}
	.st157{opacity:0.5;fill:url(#SVGID_77_);}
	.st158{opacity:0.5;fill:url(#SVGID_78_);}
	.st159{opacity:0.5;fill:url(#SVGID_79_);}
	.st160{opacity:0.5;fill:url(#SVGID_80_);}
	.st161{opacity:0.5;fill:url(#SVGID_81_);}
	.st162{opacity:0.5;fill:url(#SVGID_82_);}
	.st163{opacity:0.5;fill:url(#SVGID_83_);}
	.st164{opacity:0.5;fill:url(#SVGID_84_);}
	.st165{opacity:0.5;fill:url(#SVGID_85_);}
	.st166{opacity:0.5;fill:url(#SVGID_86_);}
	.st167{opacity:0.5;fill:url(#SVGID_87_);}
	.st168{opacity:0.5;fill:url(#SVGID_88_);}
	.st169{opacity:0.5;fill:url(#SVGID_89_);}
	.st170{opacity:0.5;fill:url(#SVGID_90_);}
	.st171{opacity:0.5;fill:url(#SVGID_91_);}
	.st172{opacity:0.5;fill:url(#SVGID_92_);}
</style>
<g>
	<path class="st155" d="M382.8,403.2H19.9C8.9,403.2,0,412.1,0,423v0h402.6v0C402.6,412.1,393.8,403.2,382.8,403.2z"/>
	<path class="st152" d="M352.3,239.1H50.4c-11.2,0-20.2,9.1-20.2,20.2v143.8h342.4V259.4C372.5,248.2,363.5,239.1,352.3,239.1z"/>
	<path class="st18" d="M375,405.7H27.6V259.4c0-12.6,10.2-22.8,22.8-22.8h301.9c12.6,0,22.8,10.2,22.8,22.8V405.7z M32.7,400.7H370
		V259.4c0-9.8-7.9-17.7-17.7-17.7H50.4c-9.8,0-17.7,7.9-17.7,17.7V400.7z"/>
	<path class="st152" d="M294.3,118.2h-186c-11.2,0-20.2,9.1-20.2,20.2v100.8h226.5V138.4C314.6,127.2,305.5,118.2,294.3,118.2z"/>
	<path class="st18" d="M317.1,241.7H85.5V138.4c0-12.6,10.2-22.8,22.8-22.8h186c12.6,0,22.8,10.2,22.8,22.8V241.7z M90.6,236.6H312
		v-98.2c0-9.8-7.9-17.7-17.7-17.7h-186c-9.8,0-17.7,7.9-17.7,17.7V236.6z"/>
	<path class="st51" d="M201.4,78.8c12.2,0,22.2-9.9,22.2-22.2c0-22.1-22.2-31.5-22.2-56.6c0,25.1-22.2,34.5-22.2,56.6
		C179.2,68.8,189.1,78.8,201.4,78.8z"/>
	<path class="st18" d="M201.4,81.3c-13.6,0-24.7-11.1-24.7-24.7c0-11.4,5.6-19.7,11-27.7c5.5-8.2,13.7-16.6,13.7-28.8l0,0
		c0,12.2,8.2,20.7,13.7,28.8c5.4,8,11,16.3,11,27.7C226.1,70.2,215,81.3,201.4,81.3z M201.4,14.5c-2.3,6.4-6,11.8-9.5,17.1
		c-5.2,7.7-10.1,15-10.1,24.9c0,10.8,8.8,19.6,19.6,19.6c10.8,0,19.6-8.8,19.6-19.6c0-9.9-4.9-17.2-10.1-24.9
		C207.4,26.4,203.7,21,201.4,14.5z"/>
	<path class="st18" d="M201.3,67c5.9,0,10.8-4.8,10.8-10.8c0-10.7-10.8-15.3-10.8-27.5c0,12.2-10.8,16.8-10.8,27.5
		C190.6,62.2,195.4,67,201.3,67z"/>
	<rect x="198.8" y="78.8" class="st18" width="5.1" height="39.4"/>
	<path class="st151" d="M352.3,239.1H50.4c-11.2,0-20.2,9.1-20.2,20.2v67.6c49.8,0,47.7-31.8,85.6-31.8c37.9,0,31.5,31.8,85.6,31.8
		c49.8,0,47.7-31.8,85.6-31.8c37.9,0,31.5,31.8,85.6,31.8v-67.6C372.5,248.2,363.5,239.1,352.3,239.1z"/>
	<path class="st18" d="M375,329.5h-2.5c-30.3,0-42.4-9.9-53-18.6c-8.7-7.1-16.2-13.2-32.6-13.2c-16.8,0-25.1,6.4-34.7,13.7
		c-11,8.5-23.4,18-50.9,18c-30.3,0-42.4-9.9-53-18.6c-8.7-7.1-16.2-13.2-32.6-13.2c-16.8,0-25.1,6.4-34.7,13.7
		c-11,8.5-23.4,18-50.9,18h-2.5v-70.1c0-12.6,10.2-22.8,22.8-22.8h301.9c12.6,0,22.8,10.2,22.8,22.8V329.5z M115.7,292.6
		c18.2,0,26.7,7,35.8,14.4c10.5,8.6,21.3,17.4,49.8,17.4c25.8,0,37-8.6,47.8-17c9.9-7.6,19.2-14.8,37.8-14.8
		c18.2,0,26.7,7,35.8,14.4c10.2,8.3,20.7,16.9,47.3,17.4v-65c0-9.8-7.9-17.7-17.7-17.7H50.4c-9.8,0-17.7,7.9-17.7,17.7v65
		c24-0.5,34.8-8.9,45.3-17C87.9,299.8,97.2,292.6,115.7,292.6z"/>
	<path class="st151" d="M294.3,118.2h-186c-11.2,0-20.2,9.1-20.2,20.2v37.4c33,0,31.5-24.3,56.6-24.3c25.1,0,20.9,24.3,56.6,24.3
		c33,0,31.5-24.3,56.6-24.3c25.1,0,20.9,24.3,56.6,24.3v-37.4C314.6,127.2,305.5,118.2,294.3,118.2z"/>
	<path class="st18" d="M317.1,178.3h-2.5c-20.5,0-28.6-7.7-35.8-14.4c-5.6-5.3-10.4-9.9-20.9-9.9c-10.7,0-16.1,4.8-22.3,10.3
		c-7.4,6.6-15.8,14-34.3,14c-20.5,0-28.6-7.7-35.8-14.4c-5.6-5.3-10.4-9.9-20.9-9.9c-10.7,0-16.1,4.8-22.3,10.3
		c-7.4,6.6-15.8,14-34.3,14h-2.5v-39.9c0-12.6,10.2-22.8,22.8-22.8h186c12.6,0,22.8,10.2,22.8,22.8V178.3z M144.7,149
		c12.4,0,18.5,5.7,24.3,11.2c6.8,6.4,13.8,13.1,32.3,13.1c16.6,0,23.9-6.5,31-12.8c6.4-5.7,13-11.6,25.6-11.6
		c12.4,0,18.5,5.7,24.3,11.2c6.5,6.1,13.2,12.4,29.8,13v-34.8c0-9.8-7.9-17.7-17.7-17.7h-186c-9.8,0-17.7,7.9-17.7,17.7v34.8
		c14.9-0.6,21.8-6.8,28.5-12.7C125.4,154.8,132,149,144.7,149z"/>
	<linearGradient id="SVGID_1_" gradientUnits="userSpaceOnUse" x1="25.8037" y1="270.5992" x2="188.2374" y2="270.5992">
		<stop  offset="0" style="stop-color:#333DC9"/>
		<stop  offset="1" style="stop-color:#333DC9;stop-opacity:0.2"/>
	</linearGradient>
	<path style="opacity:0.5;fill:url(#SVGID_1_);" d="M148.3,239.1c5.3-46.7,22.8-90.8,53-121h-93c-11.2,0-20.2,9.1-20.2,20.2v100.7
		H50.4c-11.2,0-20.2,9.1-20.2,20.2v143.8H19.9C8.9,403.2,0,412.1,0,423h201.3c-6-6-11.6-12.7-16.6-19.9
		C154.1,359.8,141.7,297.5,148.3,239.1z"/>
</g>
</svg>
