<?xml version="1.0" encoding="utf-8"?>
<!-- Generator: Adobe Illustrator 21.0.2, SVG Export Plug-In . SVG Version: 6.00 Build 0)  -->
<svg version="1.1" id="Layer_1" xmlns="http://www.w3.org/2000/svg" xmlns:xlink="http://www.w3.org/1999/xlink" x="0px" y="0px"
	 viewBox="0 0 417.2 417.2" style="enable-background:new 0 0 417.2 417.2;" xml:space="preserve">
<style type="text/css">
	.st0{fill:#005454;stroke:#000000;stroke-width:5;stroke-miterlimit:10;}
	.st1{fill:#FFC5EC;}
	.st2{fill:#32DCE2;stroke:#000000;stroke-width:5;stroke-miterlimit:10;}
	.st3{opacity:0.5;fill:#2957EF;}
	.st4{opacity:0.5;fill:#833DC9;}
	.st5{opacity:0.5;fill:#333DC9;}
	.st6{fill:none;stroke:#000769;stroke-width:5;stroke-linecap:round;stroke-miterlimit:10;}
	.st7{fill:#333DC9;stroke:#000769;stroke-width:5;stroke-miterlimit:10;}
	.st8{fill:none;stroke:#231F20;stroke-width:5;stroke-miterlimit:10;}
	.st9{fill:none;stroke:#231F20;stroke-miterlimit:10;}
	.st10{fill:url(#SVGID_1_);}
	.st11{fill:none;stroke:#000000;stroke-width:5;stroke-miterlimit:10;}
	.st12{fill:#FFFFFF;stroke:#000000;stroke-width:5;stroke-miterlimit:10;}
	.st13{fill:#939598;stroke:#000000;stroke-width:5;stroke-miterlimit:10;}
	.st14{fill:#D1D3D4;stroke:#000000;stroke-width:5;stroke-miterlimit:10;}
	.st15{fill:#F1F2F2;stroke:#000000;stroke-width:5;stroke-miterlimit:10;}
	.st16{fill:#FFFFFF;stroke:#000769;stroke-width:5;stroke-miterlimit:10;}
	.st17{fill:#A3A7E6;stroke:#000769;stroke-width:5;stroke-miterlimit:10;}
	.st18{fill:#000769;}
	.st19{fill:#E2E9FC;stroke:#000769;stroke-width:5;stroke-miterlimit:10;}
	.st20{fill:url(#SVGID_2_);}
	.st21{fill:url(#SVGID_3_);}
	.st22{fill:url(#SVGID_4_);}
	.st23{fill:url(#SVGID_5_);}
	.st24{fill:url(#SVGID_6_);}
	.st25{fill:url(#SVGID_7_);}
	.st26{fill:url(#SVGID_8_);}
	.st27{fill:url(#SVGID_9_);}
	.st28{fill:url(#SVGID_10_);}
	.st29{fill:#FFFFFF;stroke:#231F20;stroke-width:5;stroke-miterlimit:10;}
	.st30{stroke:#000000;stroke-width:5;stroke-miterlimit:10;}
	.st31{fill:none;stroke:#000000;stroke-miterlimit:10;}
	.st32{fill:none;stroke:#231F20;stroke-width:5;stroke-linecap:round;stroke-miterlimit:10;}
	.st33{fill:none;stroke:#231F20;stroke-width:5;stroke-linecap:round;stroke-linejoin:round;stroke-miterlimit:10;}
	.st34{opacity:0.3;}
	.st35{fill:#FFFFFF;stroke:#231F20;stroke-miterlimit:10;}
	.st36{fill:none;stroke:#000000;stroke-width:10;stroke-miterlimit:10;}
	.st37{fill:none;stroke:#000769;stroke-width:10;stroke-miterlimit:10;}
	.st38{opacity:0.5;fill:#000769;}
	.st39{fill:#F26565;stroke:#000000;stroke-width:5;stroke-miterlimit:10;}
	.st40{fill:#0028A1;stroke:#000000;stroke-width:5;stroke-miterlimit:10;}
	.st41{fill:#678BF7;stroke:#000000;stroke-width:5;stroke-miterlimit:10;}
	.st42{fill:#6FEDED;stroke:#000000;stroke-width:5;stroke-miterlimit:10;}
	.st43{fill:#75FAFA;stroke:#000000;stroke-width:5;stroke-miterlimit:10;}
	.st44{fill:#A9F4F4;}
	.st45{fill:#3C8080;stroke:#000000;stroke-width:5;stroke-miterlimit:10;}
	.st46{fill:#4BA1A1;stroke:#000000;stroke-width:5;stroke-miterlimit:10;}
	.st47{opacity:0.5;fill:url(#SVGID_11_);}
	.st48{opacity:0.5;fill:url(#SVGID_12_);}
	.st49{opacity:0.5;fill:url(#SVGID_13_);}
	.st50{opacity:0.5;fill:url(#SVGID_14_);}
	.st51{fill:#FFFFFF;}
	.st52{opacity:0.5;fill:url(#SVGID_15_);}
	.st53{opacity:0.5;fill:url(#SVGID_16_);}
	.st54{opacity:0.5;fill:url(#SVGID_17_);}
	.st55{opacity:0.5;fill:url(#SVGID_18_);}
	.st56{fill:none;stroke:#005454;stroke-width:5;stroke-linecap:round;stroke-miterlimit:10;}
	.st57{opacity:0.5;fill:url(#SVGID_19_);}
	.st58{opacity:0.5;fill:url(#SVGID_20_);}
	.st59{opacity:0.5;fill:url(#SVGID_21_);}
	.st60{fill:none;stroke:#005454;stroke-width:10;stroke-miterlimit:10;}
	.st61{opacity:0.5;fill:url(#SVGID_22_);}
	.st62{fill:#184343;}
	.st63{opacity:0.5;fill:#184343;}
	.st64{opacity:0.5;fill:url(#SVGID_23_);}
	.st65{opacity:0.5;fill:url(#SVGID_24_);}
	.st66{opacity:0.5;fill:url(#SVGID_25_);}
	.st67{opacity:0.5;fill:url(#SVGID_26_);}
	.st68{opacity:0.5;fill:url(#SVGID_27_);}
	.st69{opacity:0.5;fill:url(#SVGID_28_);}
	.st70{fill:#F6F6F6;stroke:#000000;stroke-width:5;stroke-miterlimit:10;}
	.st71{opacity:0.5;fill:url(#SVGID_29_);}
	.st72{opacity:0.5;fill:url(#SVGID_30_);}
	.st73{fill:none;stroke:#CCCCCC;stroke-miterlimit:10;}
	.st74{fill:#85FBFF;stroke:#000000;stroke-width:5;stroke-miterlimit:10;}
	.st75{fill:#2957EF;stroke:#000000;stroke-width:5;stroke-miterlimit:10;}
	.st76{fill:#0028A1;}
	.st77{opacity:0.5;fill:url(#SVGID_31_);}
	.st78{fill:#C5F8F8;}
	.st79{fill:#5AA7D6;stroke:#000000;stroke-width:5;stroke-miterlimit:10;}
	.st80{fill:#FFFFFF;stroke:#000000;stroke-width:10;stroke-miterlimit:10;}
	.st81{opacity:0.75;fill:#A329EF;}
	.st82{opacity:0.75;fill:#E92B28;}
	.st83{opacity:0.75;fill:#AF157D;}
	.st84{fill:#85FBFF;}
	.st85{fill:#2957EF;}
	.st86{opacity:0.5;fill:url(#SVGID_32_);}
	.st87{opacity:0.5;fill:url(#SVGID_33_);}
	.st88{opacity:0.5;fill:url(#SVGID_34_);}
	.st89{opacity:0.5;fill:url(#SVGID_35_);}
	.st90{fill:#32DCE2;}
	.st91{opacity:0.5;fill:url(#SVGID_36_);}
	.st92{opacity:0.5;fill:url(#SVGID_37_);}
	.st93{opacity:0.5;fill:url(#SVGID_38_);}
	.st94{opacity:0.5;fill:url(#SVGID_39_);}
	.st95{opacity:0.5;fill:url(#SVGID_40_);}
	.st96{opacity:0.5;fill:url(#SVGID_41_);}
	.st97{opacity:0.5;fill:url(#SVGID_42_);}
	.st98{opacity:0.5;fill:url(#SVGID_43_);}
	.st99{fill:#231F20;}
	.st100{opacity:0.5;fill:url(#SVGID_44_);}
	.st101{opacity:0.75;fill:url(#SVGID_45_);}
	.st102{opacity:0.5;fill:url(#SVGID_46_);}
	.st103{opacity:0.5;fill:url(#SVGID_47_);}
	.st104{opacity:0.5;fill:url(#SVGID_48_);}
	.st105{opacity:0.5;fill:url(#SVGID_49_);}
	.st106{opacity:0.5;fill:url(#SVGID_50_);}
	.st107{opacity:0.5;fill:url(#SVGID_51_);}
	.st108{opacity:0.5;fill:url(#SVGID_52_);}
	.st109{opacity:0.5;fill:url(#SVGID_53_);}
	.st110{opacity:0.5;fill:url(#SVGID_54_);}
	.st111{opacity:0.5;fill:url(#SVGID_55_);}
	.st112{opacity:0.5;fill:url(#SVGID_56_);}
	.st113{opacity:0.5;fill:url(#SVGID_57_);}
	.st114{opacity:0.5;fill:url(#SVGID_58_);}
	.st115{opacity:0.5;fill:url(#SVGID_59_);}
	.st116{opacity:0.5;fill:url(#SVGID_60_);}
	.st117{opacity:0.5;fill:url(#SVGID_61_);}
	.st118{opacity:0.5;fill:url(#SVGID_62_);}
	.st119{opacity:0.5;fill:url(#SVGID_63_);}
	.st120{opacity:0.5;fill:url(#SVGID_64_);}
	.st121{fill:none;}
	.st122{fill:#E5584E;stroke:#000000;stroke-width:5;stroke-miterlimit:10;}
	.st123{fill:#A9463E;stroke:#000000;stroke-width:5;stroke-miterlimit:10;}
	.st124{fill:#F18049;stroke:#000000;stroke-width:5;stroke-miterlimit:10;}
	.st125{fill:#B46638;stroke:#000000;stroke-width:5;stroke-miterlimit:10;}
	.st126{fill:#F5D66A;stroke:#000000;stroke-width:5;stroke-miterlimit:10;}
	.st127{fill:#BDAC4F;stroke:#000000;stroke-width:5;stroke-miterlimit:10;}
	.st128{fill:#184343;stroke:#000000;stroke-width:5;stroke-miterlimit:10;}
	.st129{fill:#2C79AC;stroke:#000000;stroke-width:5;stroke-miterlimit:10;}
	.st130{fill:#39608B;stroke:#000000;stroke-width:5;stroke-miterlimit:10;}
	.st131{fill:#48535D;stroke:#000000;stroke-width:5;stroke-miterlimit:10;}
	.st132{fill:#292D33;stroke:#000000;stroke-width:5;stroke-miterlimit:10;}
	.st133{fill:#0088CC;stroke:#000000;stroke-width:5;stroke-miterlimit:10;}
	.st134{fill:#ECEBEC;stroke:#000000;stroke-width:5;stroke-miterlimit:10;}
	.st135{fill:#333333;stroke:#000000;stroke-width:5;stroke-miterlimit:10;}
	.st136{fill:#C4C4C4;stroke:#000000;stroke-width:5;stroke-miterlimit:10;}
	.st137{fill:#919DA9;stroke:#000000;stroke-width:5;stroke-miterlimit:10;}
	.st138{fill:#7A8594;stroke:#000000;stroke-width:5;stroke-miterlimit:10;}
	.st139{opacity:0.5;fill:url(#SVGID_65_);}
	.st140{fill:#3C8080;}
	.st141{fill:#4BA1A1;}
	.st142{opacity:0.5;fill:url(#SVGID_66_);}
	.st143{opacity:0.5;fill:url(#SVGID_67_);}
	.st144{fill:#005454;}
	.st145{opacity:0.5;fill:url(#SVGID_68_);}
	.st146{opacity:0.5;fill:url(#SVGID_69_);}
	.st147{opacity:0.5;fill:url(#SVGID_70_);}
	.st148{opacity:0.5;fill:url(#SVGID_71_);}
	.st149{opacity:0.5;fill:url(#SVGID_72_);}
	.st150{opacity:0.5;fill:url(#SVGID_73_);}
	.st151{fill:#A3A7E6;}
	.st152{fill:#E2E9FC;}
	.st153{opacity:0.5;fill:url(#SVGID_74_);}
	.st154{opacity:0.5;fill:url(#SVGID_75_);}
	.st155{fill:#333DC9;}
	.st156{opacity:0.5;fill:url(#SVGID_76_);}
	.st157{opacity:0.5;fill:url(#SVGID_77_);}
	.st158{opacity:0.5;fill:url(#SVGID_78_);}
	.st159{opacity:0.5;fill:url(#SVGID_79_);}
	.st160{opacity:0.5;fill:url(#SVGID_80_);}
	.st161{opacity:0.5;fill:url(#SVGID_81_);}
	.st162{opacity:0.5;fill:url(#SVGID_82_);}
	.st163{opacity:0.5;fill:url(#SVGID_83_);}
	.st164{opacity:0.5;fill:url(#SVGID_84_);}
	.st165{opacity:0.5;fill:url(#SVGID_85_);}
	.st166{opacity:0.5;fill:url(#SVGID_86_);}
	.st167{opacity:0.5;fill:url(#SVGID_87_);}
	.st168{opacity:0.5;fill:url(#SVGID_88_);}
	.st169{opacity:0.5;fill:url(#SVGID_89_);}
	.st170{opacity:0.5;fill:url(#SVGID_90_);}
	.st171{opacity:0.5;fill:url(#SVGID_91_);}
	.st172{opacity:0.5;fill:url(#SVGID_92_);}
	.st173{opacity:0.5;fill:url(#SVGID_93_);}
</style>
<g>
	<g>
		<path class="st151" d="M223.4,8.4l22.5,21.4c5.3,5,12.7,7,19.8,5.3l30.2-7.3c11.1-2.7,22.4,3.8,25.6,14.8l8.8,29.8
			c2.1,7,7.5,12.4,14.5,14.5l29.8,8.8c11,3.2,17.4,14.5,14.8,25.6l-7.3,30.2c-1.7,7.1,0.3,14.5,5.3,19.8l21.4,22.5
			c7.9,8.3,7.9,21.3,0,29.5l-21.4,22.5c-5,5.3-7,12.7-5.3,19.8l7.3,30.2c2.7,11.1-3.8,22.4-14.8,25.6l-29.8,8.8
			c-7,2.1-12.4,7.5-14.5,14.5l-8.8,29.8c-3.2,11-14.5,17.4-25.6,14.8l-30.2-7.3c-7.1-1.7-14.5,0.3-19.8,5.3l-22.5,21.4
			c-8.3,7.9-21.3,7.9-29.5,0l-22.5-21.4c-5.3-5-12.7-7-19.8-5.3l-30.2,7.3c-11.1,2.7-22.4-3.8-25.6-14.8l-8.8-29.8
			c-2.1-7-7.5-12.4-14.5-14.5l-29.8-8.8c-11-3.2-17.4-14.5-14.8-25.6l7.3-30.2c1.7-7.1-0.3-14.5-5.3-19.8L8.4,223.4
			c-7.9-8.3-7.9-21.3,0-29.5l21.4-22.5c5-5.3,7-12.7,5.3-19.8l-7.3-30.2c-2.7-11.1,3.8-22.4,14.8-25.6l29.8-8.8
			c7-2.1,12.4-7.5,14.5-14.5l8.8-29.8c3.2-11,14.5-17.4,25.6-14.8l30.2,7.3c7.1,1.7,14.5-0.3,19.8-5.3l22.5-21.4
			C202.1,0.5,215.1,0.5,223.4,8.4z"/>
		<path class="st18" d="M208.6,417.2c-5.9,0-11.9-2.2-16.5-6.6l-22.5-21.4c-4.7-4.5-11.2-6.2-17.5-4.7l-30.2,7.3
			c-12.4,3-24.9-4.2-28.5-16.5l-8.8-29.8c-1.8-6.2-6.6-11-12.8-12.8l-29.8-8.8c-12.2-3.6-19.5-16.1-16.5-28.5l7.3-30.2
			c1.5-6.3-0.2-12.8-4.7-17.5L6.6,225.1c-8.8-9.2-8.8-23.7,0-32.9L28,169.6c4.5-4.7,6.2-11.2,4.7-17.5l-7.3-30.2
			c-3-12.4,4.2-24.9,16.5-28.5l29.8-8.8c6.2-1.8,11-6.6,12.8-12.8l8.8-29.8c3.6-12.2,16.1-19.5,28.5-16.5l30.2,7.3
			c6.3,1.5,12.8-0.2,17.5-4.7l22.5-21.4c9.2-8.8,23.7-8.8,32.9,0L247.6,28c4.7,4.5,11.2,6.2,17.5,4.7l30.2-7.3
			c12.4-3,24.9,4.2,28.5,16.5l8.8,29.8c1.8,6.2,6.6,11,12.8,12.8l29.8,8.8c12.2,3.6,19.5,16.1,16.5,28.5l-7.3,30.2
			c-1.5,6.3,0.2,12.8,4.7,17.5l21.4,22.5c8.8,9.2,8.8,23.7,0,32.9l-21.4,22.5c-4.5,4.7-6.2,11.2-4.7,17.5l7.3,30.2
			c3,12.4-4.2,24.9-16.5,28.5l-29.8,8.8c-6.2,1.8-11,6.6-12.8,12.8l-8.8,29.8c-3.6,12.2-16.1,19.5-28.5,16.5l-30.2-7.3
			c-6.3-1.5-12.8,0.2-17.5,4.7l-22.5,21.4C220.5,415,214.5,417.2,208.6,417.2z M156.6,379.1c6.1,0,11.9,2.3,16.4,6.6l22.5,21.4
			c7.3,7,18.8,7,26.1,0l22.5-21.4c5.9-5.6,14.2-7.8,22.1-5.9l30.2,7.3c9.8,2.4,19.8-3.4,22.6-13.1l8.8-29.8
			c2.3-7.8,8.3-13.9,16.2-16.2l29.8-8.8c9.7-2.9,15.4-12.8,13.1-22.6l-7.3-30.2c-1.9-7.9,0.3-16.2,5.9-22.1l21.4-22.5
			c7-7.3,7-18.8,0-26.1L385.6,173c-5.6-5.9-7.8-14.2-5.9-22.1l7.3-30.2c2.4-9.8-3.4-19.8-13.1-22.6l-29.8-8.8
			c-7.8-2.3-13.9-8.3-16.2-16.2l-8.8-29.8c-2.9-9.7-12.8-15.4-22.6-13.1l-30.2,7.3c-7.9,1.9-16.2-0.3-22.1-5.9l-22.5-21.4
			c-7.3-7-18.8-7-26.1,0L173,31.6c-5.9,5.6-14.2,7.8-22.1,5.9l-30.2-7.3c-9.8-2.4-19.8,3.4-22.6,13.1l-8.8,29.8
			C87,80.9,80.9,87,73.1,89.3l-29.8,8.8c-9.7,2.9-15.4,12.8-13.1,22.6l7.3,30.2c1.9,7.9-0.3,16.2-5.9,22.1l-21.4,22.5
			c-7,7.3-7,18.8,0,26.1l21.4,22.5c5.6,5.9,7.8,14.2,5.9,22.1l-7.3,30.2c-2.4,9.8,3.4,19.8,13.1,22.6l29.8,8.8
			c7.8,2.3,13.9,8.3,16.2,16.2l8.8,29.8c2.9,9.7,12.8,15.4,22.6,13.1l30.2-7.3C152.8,379.3,154.7,379.1,156.6,379.1z"/>
	</g>
	<g>
		<circle class="st152" cx="208.6" cy="208.6" r="118"/>
		<path class="st18" d="M208.6,329.1c-66.4,0-120.5-54.1-120.5-120.5S142.2,88.1,208.6,88.1s120.5,54.1,120.5,120.5
			S275.1,329.1,208.6,329.1z M208.6,93.1c-63.7,0-115.6,51.8-115.6,115.6s51.8,115.6,115.6,115.6s115.6-51.8,115.6-115.6
			S272.3,93.1,208.6,93.1z"/>
	</g>
	<linearGradient id="SVGID_1_" gradientUnits="userSpaceOnUse" x1="2.4723" y1="208.6205" x2="308.6767" y2="208.6205">
		<stop  offset="0" style="stop-color:#333DC9"/>
		<stop  offset="1" style="stop-color:#333DC9;stop-opacity:0.2"/>
	</linearGradient>
	<path style="opacity:0.5;fill:url(#SVGID_1_);" d="M208.6,2.5c-5.3,0-10.6,2-14.8,5.9l-22.5,21.4c-5.3,5-12.7,7-19.8,5.3l-30.2-7.3
		c-11.1-2.7-22.4,3.8-25.6,14.8l-8.8,29.8c-2.1,7-7.5,12.4-14.5,14.5l-29.8,8.8c-11,3.2-17.4,14.5-14.8,25.6l7.3,30.2
		c1.7,7.1-0.3,14.5-5.3,19.8L8.4,193.9c-7.9,8.3-7.9,21.3,0,29.5l21.4,22.5c5,5.3,7,12.7,5.3,19.8L27.8,296
		c-2.7,11.1,3.8,22.4,14.8,25.6l29.8,8.8c7,2.1,12.4,7.5,14.5,14.5l8.8,29.8c3.2,11,14.5,17.4,25.6,14.8l30.2-7.3
		c7.1-1.7,14.5,0.3,19.8,5.3l22.5,21.4c8.3,7.9,21.3,7.9,29.5,0l22.5-21.4c5.3-5,12.7-7,19.8-5.3l30.2,7.3c4.4,1.1,8.8,0.7,12.7-0.9
		C129.1,272.3,187.1,42.3,208.6,2.5z"/>
	<g>
		<path class="st18" d="M196.3,185.3c0,11.5-2.2,20.1-6.7,25.9c-4.4,5.8-11,8.6-19.5,8.6c-8.2,0-14.6-3-19.1-8.9
			c-4.5-5.9-6.7-14.5-6.7-25.6c0-22.8,8.6-34.2,25.8-34.2c8.4,0,14.9,3,19.4,8.9C194.1,165.9,196.3,174.4,196.3,185.3z M163.2,185.5
			c0,6.3,0.6,11.1,1.7,14.2c1.1,3.1,2.9,4.7,5.4,4.7c4.8,0,7.2-6.3,7.2-18.9c0-12.5-2.4-18.7-7.2-18.7c-2.5,0-4.3,1.5-5.4,4.6
			C163.7,174.5,163.2,179.2,163.2,185.5z M247.8,152.7l-60.7,109.4h-18l60.7-109.4H247.8z M272.9,229.1c0,11.4-2.2,20-6.7,25.8
			c-4.4,5.8-11,8.6-19.5,8.6c-8.2,0-14.6-3-19.1-8.9c-4.5-5.9-6.7-14.4-6.7-25.6c0-22.8,8.6-34.2,25.8-34.2c8.4,0,14.9,3,19.4,8.9
			C270.7,209.6,272.9,218.1,272.9,229.1z M239.8,229.2c0,6.3,0.6,11.1,1.7,14.2c1.1,3.1,2.9,4.7,5.4,4.7c4.8,0,7.2-6.3,7.2-18.9
			c0-12.5-2.4-18.7-7.2-18.7c-2.5,0-4.3,1.5-5.4,4.6C240.3,218.2,239.8,222.9,239.8,229.2z"/>
	</g>
</g>
</svg>
