<?xml version="1.0" encoding="utf-8"?>
<!-- Generator: Adobe Illustrator 21.0.2, SVG Export Plug-In . SVG Version: 6.00 Build 0)  -->
<svg version="1.1" id="Layer_1" xmlns="http://www.w3.org/2000/svg" xmlns:xlink="http://www.w3.org/1999/xlink" x="0px" y="0px"
	 viewBox="0 0 402.9 419.5" style="enable-background:new 0 0 402.9 419.5;" xml:space="preserve">
<style type="text/css">
	.st0{fill:#005454;stroke:#000000;stroke-width:5;stroke-miterlimit:10;}
	.st1{fill:#FFC5EC;}
	.st2{fill:#32DCE2;stroke:#000000;stroke-width:5;stroke-miterlimit:10;}
	.st3{opacity:0.5;fill:#2957EF;}
	.st4{opacity:0.5;fill:#833DC9;}
	.st5{opacity:0.5;fill:#333DC9;}
	.st6{fill:none;stroke:#000769;stroke-width:5;stroke-linecap:round;stroke-miterlimit:10;}
	.st7{fill:#333DC9;stroke:#000769;stroke-width:5;stroke-miterlimit:10;}
	.st8{fill:none;stroke:#231F20;stroke-width:5;stroke-miterlimit:10;}
	.st9{fill:none;stroke:#231F20;stroke-miterlimit:10;}
	.st10{fill:url(#SVGID_1_);}
	.st11{fill:none;stroke:#000000;stroke-width:5;stroke-miterlimit:10;}
	.st12{fill:#FFFFFF;stroke:#000000;stroke-width:5;stroke-miterlimit:10;}
	.st13{fill:#939598;stroke:#000000;stroke-width:5;stroke-miterlimit:10;}
	.st14{fill:#D1D3D4;stroke:#000000;stroke-width:5;stroke-miterlimit:10;}
	.st15{fill:#F1F2F2;stroke:#000000;stroke-width:5;stroke-miterlimit:10;}
	.st16{fill:#FFFFFF;stroke:#000769;stroke-width:5;stroke-miterlimit:10;}
	.st17{fill:#A3A7E6;stroke:#000769;stroke-width:5;stroke-miterlimit:10;}
	.st18{fill:#000769;}
	.st19{fill:#E2E9FC;stroke:#000769;stroke-width:5;stroke-miterlimit:10;}
	.st20{fill:url(#SVGID_2_);}
	.st21{fill:url(#SVGID_3_);}
	.st22{fill:url(#SVGID_4_);}
	.st23{fill:url(#SVGID_5_);}
	.st24{fill:url(#SVGID_6_);}
	.st25{fill:url(#SVGID_7_);}
	.st26{fill:url(#SVGID_8_);}
	.st27{fill:url(#SVGID_9_);}
	.st28{fill:url(#SVGID_10_);}
	.st29{fill:#FFFFFF;stroke:#231F20;stroke-width:5;stroke-miterlimit:10;}
	.st30{stroke:#000000;stroke-width:5;stroke-miterlimit:10;}
	.st31{fill:none;stroke:#000000;stroke-miterlimit:10;}
	.st32{fill:none;stroke:#231F20;stroke-width:5;stroke-linecap:round;stroke-miterlimit:10;}
	.st33{fill:none;stroke:#231F20;stroke-width:5;stroke-linecap:round;stroke-linejoin:round;stroke-miterlimit:10;}
	.st34{opacity:0.3;}
	.st35{fill:#FFFFFF;stroke:#231F20;stroke-miterlimit:10;}
	.st36{fill:none;stroke:#000000;stroke-width:10;stroke-miterlimit:10;}
	.st37{fill:none;stroke:#000769;stroke-width:10;stroke-miterlimit:10;}
	.st38{opacity:0.5;fill:#000769;}
	.st39{fill:#F26565;stroke:#000000;stroke-width:5;stroke-miterlimit:10;}
	.st40{fill:#0028A1;stroke:#000000;stroke-width:5;stroke-miterlimit:10;}
	.st41{fill:#678BF7;stroke:#000000;stroke-width:5;stroke-miterlimit:10;}
	.st42{fill:#6FEDED;stroke:#000000;stroke-width:5;stroke-miterlimit:10;}
	.st43{fill:#75FAFA;stroke:#000000;stroke-width:5;stroke-miterlimit:10;}
	.st44{fill:#A9F4F4;}
	.st45{fill:#3C8080;stroke:#000000;stroke-width:5;stroke-miterlimit:10;}
	.st46{fill:#4BA1A1;stroke:#000000;stroke-width:5;stroke-miterlimit:10;}
	.st47{opacity:0.5;fill:url(#SVGID_11_);}
	.st48{opacity:0.5;fill:url(#SVGID_12_);}
	.st49{opacity:0.5;fill:url(#SVGID_13_);}
	.st50{opacity:0.5;fill:url(#SVGID_14_);}
	.st51{fill:#FFFFFF;}
	.st52{opacity:0.5;fill:url(#SVGID_15_);}
	.st53{opacity:0.5;fill:url(#SVGID_16_);}
	.st54{opacity:0.5;fill:url(#SVGID_17_);}
	.st55{opacity:0.5;fill:url(#SVGID_18_);}
	.st56{fill:none;stroke:#005454;stroke-width:5;stroke-linecap:round;stroke-miterlimit:10;}
	.st57{opacity:0.5;fill:url(#SVGID_19_);}
	.st58{opacity:0.5;fill:url(#SVGID_20_);}
	.st59{opacity:0.5;fill:url(#SVGID_21_);}
	.st60{fill:none;stroke:#005454;stroke-width:10;stroke-miterlimit:10;}
	.st61{opacity:0.5;fill:url(#SVGID_22_);}
	.st62{fill:#184343;}
	.st63{opacity:0.5;fill:#184343;}
	.st64{opacity:0.5;fill:url(#SVGID_23_);}
	.st65{opacity:0.5;fill:url(#SVGID_24_);}
	.st66{opacity:0.5;fill:url(#SVGID_25_);}
	.st67{opacity:0.5;fill:url(#SVGID_26_);}
	.st68{opacity:0.5;fill:url(#SVGID_27_);}
	.st69{opacity:0.5;fill:url(#SVGID_28_);}
	.st70{fill:#F6F6F6;stroke:#000000;stroke-width:5;stroke-miterlimit:10;}
	.st71{opacity:0.5;fill:url(#SVGID_29_);}
	.st72{opacity:0.5;fill:url(#SVGID_30_);}
	.st73{fill:none;stroke:#CCCCCC;stroke-miterlimit:10;}
	.st74{fill:#85FBFF;stroke:#000000;stroke-width:5;stroke-miterlimit:10;}
	.st75{fill:#2957EF;stroke:#000000;stroke-width:5;stroke-miterlimit:10;}
	.st76{fill:#0028A1;}
	.st77{opacity:0.5;fill:url(#SVGID_31_);}
	.st78{fill:#C5F8F8;}
	.st79{fill:#5AA7D6;stroke:#000000;stroke-width:5;stroke-miterlimit:10;}
	.st80{fill:#FFFFFF;stroke:#000000;stroke-width:10;stroke-miterlimit:10;}
	.st81{opacity:0.75;fill:#A329EF;}
	.st82{opacity:0.75;fill:#E92B28;}
	.st83{opacity:0.75;fill:#AF157D;}
	.st84{fill:#85FBFF;}
	.st85{fill:#2957EF;}
	.st86{opacity:0.5;fill:url(#SVGID_32_);}
	.st87{opacity:0.5;fill:url(#SVGID_33_);}
	.st88{opacity:0.5;fill:url(#SVGID_34_);}
	.st89{opacity:0.5;fill:url(#SVGID_35_);}
	.st90{fill:#32DCE2;}
	.st91{opacity:0.5;fill:url(#SVGID_36_);}
	.st92{opacity:0.5;fill:url(#SVGID_37_);}
	.st93{opacity:0.5;fill:url(#SVGID_38_);}
	.st94{opacity:0.5;fill:url(#SVGID_39_);}
	.st95{opacity:0.5;fill:url(#SVGID_40_);}
	.st96{opacity:0.5;fill:url(#SVGID_41_);}
	.st97{opacity:0.5;fill:url(#SVGID_42_);}
	.st98{opacity:0.5;fill:url(#SVGID_43_);}
	.st99{fill:#231F20;}
	.st100{opacity:0.5;fill:url(#SVGID_44_);}
	.st101{opacity:0.75;fill:url(#SVGID_45_);}
	.st102{opacity:0.5;fill:url(#SVGID_46_);}
	.st103{opacity:0.5;fill:url(#SVGID_47_);}
	.st104{opacity:0.5;fill:url(#SVGID_48_);}
	.st105{opacity:0.5;fill:url(#SVGID_49_);}
	.st106{opacity:0.5;fill:url(#SVGID_50_);}
	.st107{opacity:0.5;fill:url(#SVGID_51_);}
	.st108{opacity:0.5;fill:url(#SVGID_52_);}
	.st109{opacity:0.5;fill:url(#SVGID_53_);}
	.st110{opacity:0.5;fill:url(#SVGID_54_);}
	.st111{opacity:0.5;fill:url(#SVGID_55_);}
	.st112{opacity:0.5;fill:url(#SVGID_56_);}
	.st113{opacity:0.5;fill:url(#SVGID_57_);}
	.st114{opacity:0.5;fill:url(#SVGID_58_);}
	.st115{opacity:0.5;fill:url(#SVGID_59_);}
	.st116{opacity:0.5;fill:url(#SVGID_60_);}
	.st117{opacity:0.5;fill:url(#SVGID_61_);}
	.st118{opacity:0.5;fill:url(#SVGID_62_);}
	.st119{opacity:0.5;fill:url(#SVGID_63_);}
	.st120{opacity:0.5;fill:url(#SVGID_64_);}
	.st121{fill:none;}
	.st122{fill:#E5584E;stroke:#000000;stroke-width:5;stroke-miterlimit:10;}
	.st123{fill:#A9463E;stroke:#000000;stroke-width:5;stroke-miterlimit:10;}
	.st124{fill:#F18049;stroke:#000000;stroke-width:5;stroke-miterlimit:10;}
	.st125{fill:#B46638;stroke:#000000;stroke-width:5;stroke-miterlimit:10;}
	.st126{fill:#F5D66A;stroke:#000000;stroke-width:5;stroke-miterlimit:10;}
	.st127{fill:#BDAC4F;stroke:#000000;stroke-width:5;stroke-miterlimit:10;}
	.st128{fill:#184343;stroke:#000000;stroke-width:5;stroke-miterlimit:10;}
	.st129{fill:#2C79AC;stroke:#000000;stroke-width:5;stroke-miterlimit:10;}
	.st130{fill:#39608B;stroke:#000000;stroke-width:5;stroke-miterlimit:10;}
	.st131{fill:#48535D;stroke:#000000;stroke-width:5;stroke-miterlimit:10;}
	.st132{fill:#292D33;stroke:#000000;stroke-width:5;stroke-miterlimit:10;}
	.st133{fill:#0088CC;stroke:#000000;stroke-width:5;stroke-miterlimit:10;}
	.st134{fill:#ECEBEC;stroke:#000000;stroke-width:5;stroke-miterlimit:10;}
	.st135{fill:#333333;stroke:#000000;stroke-width:5;stroke-miterlimit:10;}
	.st136{fill:#C4C4C4;stroke:#000000;stroke-width:5;stroke-miterlimit:10;}
	.st137{fill:#919DA9;stroke:#000000;stroke-width:5;stroke-miterlimit:10;}
	.st138{fill:#7A8594;stroke:#000000;stroke-width:5;stroke-miterlimit:10;}
	.st139{opacity:0.5;fill:url(#SVGID_65_);}
	.st140{fill:#3C8080;}
	.st141{fill:#4BA1A1;}
	.st142{opacity:0.5;fill:url(#SVGID_66_);}
	.st143{opacity:0.5;fill:url(#SVGID_67_);}
	.st144{fill:#005454;}
	.st145{opacity:0.5;fill:url(#SVGID_68_);}
	.st146{opacity:0.5;fill:url(#SVGID_69_);}
	.st147{opacity:0.5;fill:url(#SVGID_70_);}
	.st148{opacity:0.5;fill:url(#SVGID_71_);}
	.st149{opacity:0.5;fill:url(#SVGID_72_);}
	.st150{opacity:0.5;fill:url(#SVGID_73_);}
	.st151{fill:#A3A7E6;}
	.st152{fill:#E2E9FC;}
	.st153{opacity:0.5;fill:url(#SVGID_74_);}
	.st154{opacity:0.5;fill:url(#SVGID_75_);}
	.st155{fill:#333DC9;}
	.st156{opacity:0.5;fill:url(#SVGID_76_);}
	.st157{opacity:0.5;fill:url(#SVGID_77_);}
	.st158{opacity:0.5;fill:url(#SVGID_78_);}
	.st159{opacity:0.5;fill:url(#SVGID_79_);}
	.st160{opacity:0.5;fill:url(#SVGID_80_);}
	.st161{opacity:0.5;fill:url(#SVGID_81_);}
</style>
<g>
	<g>
		<path class="st155" d="M9,175.2L194.7,5.1c3.8-3.5,9.7-3.5,13.5,0l185.7,170.1c4.1,3.8,6.5,9.1,6.5,14.7v207c0,11-9,20-20,20H22.5
			c-11,0-20-9-20-20V190C2.5,184.4,4.9,179,9,175.2z"/>
		<path class="st18" d="M380.4,419.5H22.5C10.1,419.5,0,409.4,0,397V190c0-6.3,2.7-12.3,7.3-16.6L193,3.3c4.8-4.4,12.1-4.4,16.9,0
			l185.7,170.1c4.6,4.3,7.3,10.3,7.3,16.6v207C402.9,409.4,392.8,419.5,380.4,419.5z M201.4,5c-1.8,0-3.6,0.7-5.1,2L10.7,177.1
			c-3.6,3.3-5.7,8-5.7,12.9v207c0,9.6,7.9,17.5,17.5,17.5h357.9c9.6,0,17.5-7.9,17.5-17.5V190c0-4.9-2.1-9.6-5.7-12.9L206.5,7
			C205.1,5.7,203.3,5,201.4,5z"/>
	</g>
	<g>
		<path class="st51" d="M327.4,34.6h-252c-11,0-20,9-20,20V417h292V54.6C347.4,43.6,338.5,34.6,327.4,34.6z"/>
		<path class="st18" d="M349.9,419.5h-297V54.6c0-12.4,10.1-22.5,22.5-22.5h252c12.4,0,22.5,10.1,22.5,22.5V419.5z M57.9,414.5h287
			V54.6c0-9.6-7.9-17.5-17.5-17.5h-252c-9.6,0-17.5,7.9-17.5,17.5V414.5z"/>
		<linearGradient id="SVGID_1_" gradientUnits="userSpaceOnUse" x1="55.4392" y1="225.8079" x2="223.0564" y2="225.8079">
			<stop  offset="0" style="stop-color:#333DC9"/>
			<stop  offset="1" style="stop-color:#333DC9;stop-opacity:0.2"/>
		</linearGradient>
		<path style="opacity:0.5;fill:url(#SVGID_1_);" d="M75.4,34.6c-11,0-20,9-20,20V417h292L75.4,34.6z"/>
	</g>
	<g>
		<path class="st151" d="M10,412.6c3.4,2.8,7.8,4.4,12.5,4.4h357.9c11,0,20-9,20-20V190c0-2.7-0.6-5.4-1.6-7.8L10,412.6z"/>
		<path class="st18" d="M380.4,419.5H22.5c-5.1,0-10.1-1.8-14.1-5l-2.8-2.3L400,178.5l1.1,2.6c1.2,2.8,1.8,5.8,1.8,8.8v207
			C402.9,409.4,392.8,419.5,380.4,419.5z M14.7,412.7c2.4,1.2,5,1.8,7.8,1.8h357.9c9.6,0,17.5-7.9,17.5-17.5V190
			c0-1.4-0.2-2.8-0.5-4.1L14.7,412.7z"/>
	</g>
	<path class="st18" d="M314.1,85.6H89.6c-5,0-9.1,4.1-9.1,9.1v0c0,5,4.1,9.1,9.1,9.1h224.4c5,0,9.1-4.1,9.1-9.1v0
		C323.2,89.7,319.1,85.6,314.1,85.6z"/>
	<path class="st18" d="M314.1,128.6H89.6c-5,0-9.1,4.1-9.1,9.1v0c0,5,4.1,9.1,9.1,9.1h224.4c5,0,9.1-4.1,9.1-9.1v0
		C323.2,132.7,319.1,128.6,314.1,128.6z"/>
	<path class="st18" d="M314.1,171.6H89.6c-5,0-9.1,4.1-9.1,9.1v0c0,5,4.1,9.1,9.1,9.1h224.4c5,0,9.1-4.1,9.1-9.1v0
		C323.2,175.7,319.1,171.6,314.1,171.6z"/>
	<path class="st18" d="M278.8,214.6H123.6c-5,0-9.1,4.1-9.1,9.1v0c0,5,4.1,9.1,9.1,9.1h155.2c5,0,9.1-4.1,9.1-9.1v0
		C288,218.7,283.9,214.6,278.8,214.6z"/>
	<g>
		<path class="st152" d="M2.5,190v207c0,11,9,20,20,20h357.9c4.7,0,9.1-1.7,12.5-4.4L4.1,182.1C3.1,184.6,2.5,187.3,2.5,190z"/>
		<path class="st18" d="M380.4,419.5H22.5C10.1,419.5,0,409.4,0,397V190c0-3,0.6-6,1.8-8.8l1.1-2.6l2.5,1.5l391.9,232.3l-2.8,2.3
			C390.5,417.7,385.5,419.5,380.4,419.5z M5.5,185.9C5.2,187.2,5,188.6,5,190v207c0,9.6,7.9,17.5,17.5,17.5h357.9
			c2.8,0,5.4-0.6,7.8-1.8L5.5,185.9z"/>
	</g>
</g>
</svg>
