<?xml version="1.0" encoding="utf-8"?>
<!-- Generator: Adobe Illustrator 21.0.2, SVG Export Plug-In . SVG Version: 6.00 Build 0)  -->
<svg version="1.1" id="Layer_1" xmlns="http://www.w3.org/2000/svg" xmlns:xlink="http://www.w3.org/1999/xlink" x="0px" y="0px"
	 viewBox="0 0 394.7 420.3" style="enable-background:new 0 0 394.7 420.3;" xml:space="preserve">
<style type="text/css">
	.st0{fill:#005454;stroke:#000000;stroke-width:5;stroke-miterlimit:10;}
	.st1{fill:#FFC5EC;}
	.st2{fill:#32DCE2;stroke:#000000;stroke-width:5;stroke-miterlimit:10;}
	.st3{opacity:0.5;fill:#2957EF;}
	.st4{opacity:0.5;fill:#833DC9;}
	.st5{opacity:0.5;fill:#333DC9;}
	.st6{fill:none;stroke:#000769;stroke-width:5;stroke-linecap:round;stroke-miterlimit:10;}
	.st7{fill:#333DC9;stroke:#000769;stroke-width:5;stroke-miterlimit:10;}
	.st8{fill:none;stroke:#231F20;stroke-width:5;stroke-miterlimit:10;}
	.st9{fill:none;stroke:#231F20;stroke-miterlimit:10;}
	.st10{fill:url(#SVGID_1_);}
	.st11{fill:none;stroke:#000000;stroke-width:5;stroke-miterlimit:10;}
	.st12{fill:#FFFFFF;stroke:#000000;stroke-width:5;stroke-miterlimit:10;}
	.st13{fill:#939598;stroke:#000000;stroke-width:5;stroke-miterlimit:10;}
	.st14{fill:#D1D3D4;stroke:#000000;stroke-width:5;stroke-miterlimit:10;}
	.st15{fill:#F1F2F2;stroke:#000000;stroke-width:5;stroke-miterlimit:10;}
	.st16{fill:#FFFFFF;stroke:#000769;stroke-width:5;stroke-miterlimit:10;}
	.st17{fill:#A3A7E6;stroke:#000769;stroke-width:5;stroke-miterlimit:10;}
	.st18{fill:#000769;}
	.st19{fill:#E2E9FC;stroke:#000769;stroke-width:5;stroke-miterlimit:10;}
	.st20{fill:url(#SVGID_2_);}
	.st21{fill:url(#SVGID_3_);}
	.st22{fill:url(#SVGID_4_);}
	.st23{fill:url(#SVGID_5_);}
	.st24{fill:url(#SVGID_6_);}
	.st25{fill:url(#SVGID_7_);}
	.st26{fill:url(#SVGID_8_);}
	.st27{fill:url(#SVGID_9_);}
	.st28{fill:url(#SVGID_10_);}
	.st29{fill:#FFFFFF;stroke:#231F20;stroke-width:5;stroke-miterlimit:10;}
	.st30{stroke:#000000;stroke-width:5;stroke-miterlimit:10;}
	.st31{fill:none;stroke:#000000;stroke-miterlimit:10;}
	.st32{fill:none;stroke:#231F20;stroke-width:5;stroke-linecap:round;stroke-miterlimit:10;}
	.st33{fill:none;stroke:#231F20;stroke-width:5;stroke-linecap:round;stroke-linejoin:round;stroke-miterlimit:10;}
	.st34{opacity:0.3;}
	.st35{fill:#FFFFFF;stroke:#231F20;stroke-miterlimit:10;}
	.st36{fill:none;stroke:#000000;stroke-width:10;stroke-miterlimit:10;}
	.st37{fill:none;stroke:#000769;stroke-width:10;stroke-miterlimit:10;}
	.st38{opacity:0.5;fill:#000769;}
	.st39{fill:#F26565;stroke:#000000;stroke-width:5;stroke-miterlimit:10;}
	.st40{fill:#0028A1;stroke:#000000;stroke-width:5;stroke-miterlimit:10;}
	.st41{fill:#678BF7;stroke:#000000;stroke-width:5;stroke-miterlimit:10;}
	.st42{fill:#6FEDED;stroke:#000000;stroke-width:5;stroke-miterlimit:10;}
	.st43{fill:#75FAFA;stroke:#000000;stroke-width:5;stroke-miterlimit:10;}
	.st44{fill:#A9F4F4;}
	.st45{fill:#3C8080;stroke:#000000;stroke-width:5;stroke-miterlimit:10;}
	.st46{fill:#4BA1A1;stroke:#000000;stroke-width:5;stroke-miterlimit:10;}
	.st47{opacity:0.5;fill:url(#SVGID_11_);}
	.st48{opacity:0.5;fill:url(#SVGID_12_);}
	.st49{opacity:0.5;fill:url(#SVGID_13_);}
	.st50{opacity:0.5;fill:url(#SVGID_14_);}
	.st51{fill:#FFFFFF;}
	.st52{opacity:0.5;fill:url(#SVGID_15_);}
	.st53{opacity:0.5;fill:url(#SVGID_16_);}
	.st54{opacity:0.5;fill:url(#SVGID_17_);}
	.st55{opacity:0.5;fill:url(#SVGID_18_);}
	.st56{fill:none;stroke:#005454;stroke-width:5;stroke-linecap:round;stroke-miterlimit:10;}
	.st57{opacity:0.5;fill:url(#SVGID_19_);}
	.st58{opacity:0.5;fill:url(#SVGID_20_);}
	.st59{opacity:0.5;fill:url(#SVGID_21_);}
	.st60{fill:none;stroke:#005454;stroke-width:10;stroke-miterlimit:10;}
	.st61{opacity:0.5;fill:url(#SVGID_22_);}
	.st62{fill:#184343;}
	.st63{opacity:0.5;fill:#184343;}
	.st64{opacity:0.5;fill:url(#SVGID_23_);}
	.st65{opacity:0.5;fill:url(#SVGID_24_);}
	.st66{opacity:0.5;fill:url(#SVGID_25_);}
	.st67{opacity:0.5;fill:url(#SVGID_26_);}
	.st68{opacity:0.5;fill:url(#SVGID_27_);}
	.st69{opacity:0.5;fill:url(#SVGID_28_);}
	.st70{fill:#F6F6F6;stroke:#000000;stroke-width:5;stroke-miterlimit:10;}
	.st71{opacity:0.5;fill:url(#SVGID_29_);}
	.st72{opacity:0.5;fill:url(#SVGID_30_);}
	.st73{fill:none;stroke:#CCCCCC;stroke-miterlimit:10;}
	.st74{fill:#85FBFF;stroke:#000000;stroke-width:5;stroke-miterlimit:10;}
	.st75{fill:#2957EF;stroke:#000000;stroke-width:5;stroke-miterlimit:10;}
	.st76{fill:#0028A1;}
	.st77{opacity:0.5;fill:url(#SVGID_31_);}
	.st78{fill:#C5F8F8;}
	.st79{fill:#5AA7D6;stroke:#000000;stroke-width:5;stroke-miterlimit:10;}
	.st80{fill:#FFFFFF;stroke:#000000;stroke-width:10;stroke-miterlimit:10;}
	.st81{opacity:0.75;fill:#A329EF;}
	.st82{opacity:0.75;fill:#E92B28;}
	.st83{opacity:0.75;fill:#AF157D;}
	.st84{fill:#85FBFF;}
	.st85{fill:#2957EF;}
	.st86{opacity:0.5;fill:url(#SVGID_32_);}
	.st87{opacity:0.5;fill:url(#SVGID_33_);}
	.st88{opacity:0.5;fill:url(#SVGID_34_);}
	.st89{opacity:0.5;fill:url(#SVGID_35_);}
	.st90{fill:#32DCE2;}
	.st91{opacity:0.5;fill:url(#SVGID_36_);}
	.st92{opacity:0.5;fill:url(#SVGID_37_);}
	.st93{opacity:0.5;fill:url(#SVGID_38_);}
	.st94{opacity:0.5;fill:url(#SVGID_39_);}
	.st95{opacity:0.5;fill:url(#SVGID_40_);}
	.st96{opacity:0.5;fill:url(#SVGID_41_);}
	.st97{opacity:0.5;fill:url(#SVGID_42_);}
	.st98{opacity:0.5;fill:url(#SVGID_43_);}
	.st99{fill:#231F20;}
	.st100{opacity:0.5;fill:url(#SVGID_44_);}
	.st101{opacity:0.75;fill:url(#SVGID_45_);}
	.st102{opacity:0.5;fill:url(#SVGID_46_);}
	.st103{opacity:0.5;fill:url(#SVGID_47_);}
	.st104{opacity:0.5;fill:url(#SVGID_48_);}
	.st105{opacity:0.5;fill:url(#SVGID_49_);}
	.st106{opacity:0.5;fill:url(#SVGID_50_);}
	.st107{opacity:0.5;fill:url(#SVGID_51_);}
	.st108{opacity:0.5;fill:url(#SVGID_52_);}
	.st109{opacity:0.5;fill:url(#SVGID_53_);}
	.st110{opacity:0.5;fill:url(#SVGID_54_);}
	.st111{opacity:0.5;fill:url(#SVGID_55_);}
	.st112{opacity:0.5;fill:url(#SVGID_56_);}
	.st113{opacity:0.5;fill:url(#SVGID_57_);}
	.st114{opacity:0.5;fill:url(#SVGID_58_);}
	.st115{opacity:0.5;fill:url(#SVGID_59_);}
	.st116{opacity:0.5;fill:url(#SVGID_60_);}
	.st117{opacity:0.5;fill:url(#SVGID_61_);}
	.st118{opacity:0.5;fill:url(#SVGID_62_);}
	.st119{opacity:0.5;fill:url(#SVGID_63_);}
	.st120{opacity:0.5;fill:url(#SVGID_64_);}
	.st121{fill:none;}
	.st122{fill:#E5584E;stroke:#000000;stroke-width:5;stroke-miterlimit:10;}
	.st123{fill:#A9463E;stroke:#000000;stroke-width:5;stroke-miterlimit:10;}
	.st124{fill:#F18049;stroke:#000000;stroke-width:5;stroke-miterlimit:10;}
	.st125{fill:#B46638;stroke:#000000;stroke-width:5;stroke-miterlimit:10;}
	.st126{fill:#F5D66A;stroke:#000000;stroke-width:5;stroke-miterlimit:10;}
	.st127{fill:#BDAC4F;stroke:#000000;stroke-width:5;stroke-miterlimit:10;}
	.st128{fill:#184343;stroke:#000000;stroke-width:5;stroke-miterlimit:10;}
	.st129{fill:#2C79AC;stroke:#000000;stroke-width:5;stroke-miterlimit:10;}
	.st130{fill:#39608B;stroke:#000000;stroke-width:5;stroke-miterlimit:10;}
	.st131{fill:#48535D;stroke:#000000;stroke-width:5;stroke-miterlimit:10;}
	.st132{fill:#292D33;stroke:#000000;stroke-width:5;stroke-miterlimit:10;}
	.st133{fill:#0088CC;stroke:#000000;stroke-width:5;stroke-miterlimit:10;}
	.st134{fill:#ECEBEC;stroke:#000000;stroke-width:5;stroke-miterlimit:10;}
	.st135{fill:#333333;stroke:#000000;stroke-width:5;stroke-miterlimit:10;}
	.st136{fill:#C4C4C4;stroke:#000000;stroke-width:5;stroke-miterlimit:10;}
	.st137{fill:#919DA9;stroke:#000000;stroke-width:5;stroke-miterlimit:10;}
	.st138{fill:#7A8594;stroke:#000000;stroke-width:5;stroke-miterlimit:10;}
	.st139{opacity:0.5;fill:url(#SVGID_65_);}
	.st140{fill:#3C8080;}
	.st141{fill:#4BA1A1;}
	.st142{opacity:0.5;fill:url(#SVGID_66_);}
	.st143{opacity:0.5;fill:url(#SVGID_67_);}
	.st144{fill:#005454;}
	.st145{opacity:0.5;fill:url(#SVGID_68_);}
	.st146{opacity:0.5;fill:url(#SVGID_69_);}
	.st147{opacity:0.5;fill:url(#SVGID_70_);}
	.st148{opacity:0.5;fill:url(#SVGID_71_);}
	.st149{opacity:0.5;fill:url(#SVGID_72_);}
	.st150{opacity:0.5;fill:url(#SVGID_73_);}
	.st151{fill:#A3A7E6;}
	.st152{fill:#E2E9FC;}
	.st153{opacity:0.5;fill:url(#SVGID_74_);}
	.st154{opacity:0.5;fill:url(#SVGID_75_);}
	.st155{fill:#333DC9;}
	.st156{opacity:0.5;fill:url(#SVGID_76_);}
	.st157{opacity:0.5;fill:url(#SVGID_77_);}
	.st158{opacity:0.5;fill:url(#SVGID_78_);}
	.st159{opacity:0.5;fill:url(#SVGID_79_);}
	.st160{opacity:0.5;fill:url(#SVGID_80_);}
	.st161{opacity:0.5;fill:url(#SVGID_81_);}
	.st162{opacity:0.5;fill:url(#SVGID_82_);}
	.st163{opacity:0.5;fill:url(#SVGID_83_);}
	.st164{opacity:0.5;fill:url(#SVGID_84_);}
	.st165{opacity:0.5;fill:url(#SVGID_85_);}
	.st166{opacity:0.5;fill:url(#SVGID_86_);}
	.st167{opacity:0.5;fill:url(#SVGID_87_);}
	.st168{opacity:0.5;fill:url(#SVGID_88_);}
	.st169{opacity:0.5;fill:url(#SVGID_89_);}
	.st170{opacity:0.5;fill:url(#SVGID_90_);}
	.st171{opacity:0.5;fill:url(#SVGID_91_);}
	.st172{opacity:0.5;fill:url(#SVGID_92_);}
</style>
<g>
	<g>
		<path class="st152" d="M270,247.4c-35.7,0-64.6,25.5-64.6,57s28.9,57,64.6,57H127.6c35.7,0,64.6-25.5,64.6-57s-28.9-57-64.6-57
			H270z"/>
		<path class="st18" d="M270,363.8H127.6v-5c34.2,0,62.1-24.4,62.1-54.5s-27.8-54.5-62.1-54.5v-5H270v5c-34.2,0-62.1,24.4-62.1,54.5
			s27.8,54.5,62.1,54.5V363.8z M154.5,358.8H243c-23.6-9.2-40.2-30.2-40.2-54.5s16.5-45.3,40.2-54.5h-88.6
			c23.6,9.2,40.2,30.2,40.2,54.5S178.1,349.6,154.5,358.8z"/>
	</g>
	<g>
		<path class="st151" d="M384.4,55.5L316,55.1c-4.3,0-7.9,3.5-7.9,7.8l-0.6,124c0,4.8,4.3,8.5,9,7.8c36.9-5.3,73.1-44.7,75.6-131.2
			C392.3,59.1,388.8,55.5,384.4,55.5z M326.6,175.1c-5.1,1.9-10.6-2-10.5-7.4l0.4-89.1c0-4.3,3.6-7.8,7.9-7.8l41.5,0.2
			c4.4,0,8,3.7,7.8,8.2C371.4,134.3,348.4,167,326.6,175.1z"/>
		<path class="st18" d="M315.4,197.3c-2.5,0-4.9-0.9-6.8-2.6c-2.3-2-3.6-4.8-3.6-7.9l0.6-124c0-2.8,1.1-5.4,3.1-7.3
			c2-1.9,4.6-3,7.3-3l68.4,0.3c2.8,0,5.4,1.1,7.4,3.2c2,2,3,4.7,2.9,7.5c-1.2,40.8-9.7,73.5-25.3,97.3c-13.4,20.4-32,33.3-52.5,36.3
			C316.4,197.3,315.9,197.3,315.4,197.3z M316,57.6c-1.4,0-2.8,0.6-3.8,1.6c-1,1-1.6,2.4-1.6,3.8l-0.6,124c0,1.6,0.6,3,1.8,4.1
			c1.2,1,2.8,1.5,4.3,1.3c33.9-4.9,71-41.3,73.5-128.8c0-1.5-0.5-2.8-1.5-3.9c-1-1-2.4-1.6-3.8-1.6L316,57.6
			C316,57.6,316,57.6,316,57.6z M323.9,178.1c-2.1,0-4.2-0.6-5.9-1.9c-2.8-2-4.5-5.2-4.4-8.6l0.4-89.1c0-2.8,1.1-5.4,3.1-7.3
			c2-1.9,4.5-3,7.3-3c0,0,0,0,0,0l41.5,0.2c2.8,0,5.5,1.2,7.5,3.2c2,2,3,4.7,2.8,7.5c-1.1,25.8-6.8,48.9-16.5,66.8
			c-8.6,15.8-20,27-32.2,31.5C326.3,177.9,325.1,178.1,323.9,178.1z M324.4,73.2c-1.4,0-2.8,0.6-3.8,1.6c-1,1-1.6,2.4-1.6,3.8
			l-0.4,89.1c0,1.8,0.8,3.4,2.3,4.4c1.4,1,3.2,1.2,4.9,0.6l0,0c21-7.8,43.2-39.8,45.4-93.8c0.1-1.5-0.5-2.8-1.5-3.9
			c-1-1.1-2.4-1.7-3.9-1.7L324.4,73.2C324.4,73.2,324.4,73.2,324.4,73.2z"/>
	</g>
	<g>
		<path class="st151" d="M86.6,63c0-4.3-3.6-7.8-7.9-7.8l-68.4,0.3c-4.4,0-8,3.7-7.8,8.1C5,150,41.2,189.4,78.2,194.7
			c4.8,0.7,9.1-3,9-7.8L86.6,63z M68.1,175.1c-21.8-8.1-44.8-40.8-47.1-96c-0.2-4.4,3.4-8.1,7.8-8.2l41.5-0.2c4.3,0,7.9,3.5,7.9,7.8
			l0.4,89.1C78.7,173.1,73.2,177,68.1,175.1z"/>
		<path class="st18" d="M79.3,197.3c-0.5,0-1,0-1.5-0.1c-20.4-2.9-39.1-15.8-52.5-36.3C9.7,137.1,1.2,104.4,0,63.6
			c-0.1-2.8,1-5.5,2.9-7.5c2-2,4.6-3.2,7.4-3.2l68.4-0.3c0,0,0,0,0,0c2.8,0,5.3,1.1,7.3,3c2,1.9,3.1,4.5,3.1,7.3l0.6,124
			c0,3-1.3,5.9-3.6,7.9C84.2,196.4,81.8,197.3,79.3,197.3z M78.7,57.6C78.7,57.6,78.7,57.6,78.7,57.6L10.3,58
			c-1.5,0-2.8,0.6-3.8,1.6c-1,1-1.5,2.4-1.5,3.9c1.7,57.4,21.9,121.4,73.5,128.8c1.6,0.2,3.1-0.2,4.3-1.3c1.2-1,1.8-2.5,1.8-4.1
			L84.1,63c0-1.4-0.6-2.8-1.6-3.8C81.5,58.2,80.1,57.6,78.7,57.6z M70.8,178.1c-1.2,0-2.4-0.2-3.6-0.6C55.1,172.9,43.6,161.8,35,146
			c-9.7-17.9-15.4-41-16.5-66.8c-0.1-2.8,0.9-5.5,2.8-7.5c2-2.1,4.6-3.2,7.5-3.2l41.5-0.2c0,0,0,0,0,0c5.7,0,10.3,4.6,10.4,10.3
			l0.4,89.1c0,3.4-1.6,6.6-4.4,8.6C74.9,177.5,72.9,178.1,70.8,178.1z M70.3,73.2C70.3,73.2,70.3,73.2,70.3,73.2l-41.5,0.2
			c-1.5,0-2.8,0.6-3.9,1.7c-1,1.1-1.5,2.4-1.5,3.9c2.3,54,24.5,86,45.4,93.8c1.6,0.6,3.4,0.4,4.9-0.6c1.5-1,2.3-2.7,2.3-4.4
			l-0.4-89.1C75.7,75.6,73.3,73.2,70.3,73.2z"/>
	</g>
	<path class="st18" d="M315.8,420.3h-234v-23.1c0-11,9-20,20-20h194c11,0,20,9,20,20V420.3z"/>
	<g>
		<path class="st151" d="M334.9,22.5H62.6c-5.5,0-10-4.5-10-10v0c0-5.5,4.5-10,10-10h272.3c5.5,0,10,4.5,10,10v0
			C344.9,18,340.4,22.5,334.9,22.5z"/>
		<path class="st18" d="M334.9,25H62.6c-6.9,0-12.5-5.6-12.5-12.5S55.7,0,62.6,0h272.3c6.9,0,12.5,5.6,12.5,12.5S341.8,25,334.9,25z
			 M62.6,5c-4.1,0-7.5,3.4-7.5,7.5s3.4,7.5,7.5,7.5h272.3c4.1,0,7.5-3.4,7.5-7.5S339.1,5,334.9,5H62.6z"/>
	</g>
	<g>
		<path class="st155" d="M281.4,377.2H116.1v-5.9c0-5.5,4.5-10,10-10h145.4c5.5,0,10,4.5,10,10V377.2z"/>
		<path class="st18" d="M283.9,379.7H113.6v-8.4c0-6.9,5.6-12.5,12.5-12.5h145.4c6.9,0,12.5,5.6,12.5,12.5V379.7z M118.6,374.7
			h160.4v-3.4c0-4.1-3.4-7.5-7.5-7.5H126.1c-4.1,0-7.5,3.4-7.5,7.5V374.7z"/>
	</g>
	<g>
		<path class="st152" d="M198.8,289.3L198.8,289.3c-69.6,0-126-36.4-126-106V22.5h251.9v160.8C324.7,252.9,268.3,289.3,198.8,289.3z
			"/>
		<path class="st18" d="M198.8,291.8c-41.9,0-68-9.7-90.6-27.4c-24.8-19.3-37.9-47.4-37.9-81V20h256.9v163.3
			c0,33.7-13.1,61.7-37.9,81C266.7,282,234.5,291.8,198.8,291.8z M75.3,25v158.3c0,32.1,12.4,58.7,35.9,77.1
			c21.8,17,52.9,26.4,87.5,26.4s65.8-9.4,87.5-26.4c23.5-18.3,35.9-45,35.9-77.1V25H75.3z"/>
	</g>
	<g>
		<circle class="st151" cx="198.8" cy="144.1" r="77.3"/>
		<path class="st18" d="M198.8,223.9c-44,0-79.8-35.8-79.8-79.8c0-44,35.8-79.8,79.8-79.8c44,0,79.8,35.8,79.8,79.8
			C278.6,188.1,242.8,223.9,198.8,223.9z M198.8,69.3c-41.2,0-74.8,33.6-74.8,74.8c0,41.2,33.6,74.8,74.8,74.8
			c41.2,0,74.8-33.6,74.8-74.8C273.6,102.9,240,69.3,198.8,69.3z"/>
	</g>
	<g>
		<path class="st51" d="M205.2,101.7l9.4,19c1,2.1,3.1,3.6,5.4,3.9l21,3.1c5.9,0.9,8.2,8.1,4,12.2l-15.2,14.8
			c-1.7,1.6-2.5,4-2.1,6.3l3.6,20.9c1,5.8-5.1,10.3-10.4,7.5l-18.8-9.9c-2.1-1.1-4.6-1.1-6.7,0l-18.8,9.9
			c-5.3,2.8-11.4-1.7-10.4-7.5l3.6-20.9c0.4-2.3-0.4-4.7-2.1-6.3L152.6,140c-4.2-4.1-1.9-11.4,4-12.2l21-3.1
			c2.3-0.3,4.3-1.8,5.4-3.9l9.4-19C195,96.4,202.6,96.4,205.2,101.7z"/>
		<path class="st18" d="M224.2,192.9c-1.5,0-3.1-0.4-4.5-1.1l-18.8-9.9c-1.4-0.7-3-0.7-4.3,0l-18.8,9.9c-3.3,1.7-7.2,1.4-10.2-0.7
			s-4.5-5.8-3.8-9.4l3.6-20.9c0.3-1.5-0.2-3.1-1.3-4.1l-15.2-14.8c-2.7-2.6-3.6-6.4-2.4-9.9c1.1-3.5,4.1-6,7.8-6.6l21-3.1
			c1.5-0.2,2.8-1.2,3.5-2.5l9.4-19c1.6-3.3,5-5.4,8.7-5.4c0,0,0,0,0,0c3.7,0,7,2.1,8.7,5.4l9.4,19c0.7,1.4,2,2.3,3.5,2.5l21,3.1
			c3.7,0.5,6.7,3.1,7.8,6.6c1.1,3.5,0.2,7.3-2.4,9.9l-15.2,14.8c-1.1,1.1-1.6,2.6-1.3,4.1l3.6,20.9c0.6,3.7-0.8,7.3-3.8,9.4
			C228.2,192.3,226.2,192.9,224.2,192.9z M198.8,100.3c-1.8,0-3.4,1-4.2,2.6l-9.4,19c-1.4,2.9-4.1,4.8-7.3,5.3l-21,3.1
			c-1.8,0.3-3.2,1.4-3.8,3.2s-0.1,3.5,1.2,4.8l15.2,14.8c2.3,2.2,3.3,5.4,2.8,8.5l-3.6,20.9c-0.3,1.8,0.4,3.5,1.9,4.6
			c1.5,1.1,3.3,1.2,4.9,0.4l18.8-9.9c2.8-1.5,6.2-1.5,9,0l18.8,9.9c1.6,0.8,3.4,0.7,4.9-0.4c1.5-1.1,2.2-2.8,1.9-4.6l-3.6-20.9
			c-0.5-3.1,0.5-6.3,2.8-8.5l15.2-14.8c1.3-1.3,1.7-3.1,1.2-4.8c-0.6-1.7-2-2.9-3.8-3.2l-21-3.1c-3.1-0.5-5.9-2.4-7.3-5.3l-9.4-19
			C202.1,101.2,200.6,100.3,198.8,100.3C198.8,100.3,198.8,100.3,198.8,100.3z"/>
	</g>
	<linearGradient id="SVGID_1_" gradientUnits="userSpaceOnUse" x1="-16.1043" y1="210.1594" x2="255.7213" y2="210.1594">
		<stop  offset="0" style="stop-color:#333DC9"/>
		<stop  offset="1" style="stop-color:#333DC9;stop-opacity:0.2"/>
	</linearGradient>
	<path style="opacity:0.5;fill:url(#SVGID_1_);" d="M171.4,377.2c3.7-5.3,6.7-10.8,9.7-15.9c21.5-35.5,20.5-62.4,17.7-72.1l0,0l0,0
		C175.5,216,200.3,30.7,255.7,0H62.6c-6.9,0-12.5,5.6-12.5,12.5S55.7,25,62.6,25h7.7v27.7l-60,0.3c-2.8,0-5.4,1.1-7.4,3.2
		c-2,2-3,4.7-2.9,7.5c1.2,40.8,9.7,73.5,25.3,97.3c11.9,18.1,27.9,30.3,45.6,34.9c2.9,28.1,15.6,51.6,37.2,68.5
		c20.6,16.1,44.1,25.6,79.7,27.2c1.1,4.1,1.8,8.4,1.8,12.8c0,30-27.8,54.5-62.1,54.5h-1.5c-6.9,0-12.5,5.6-12.5,12.5v5.9h-11.8
		c-11,0-20,9-20,20v23.1h45.8C146.9,406.8,161.1,391.9,171.4,377.2z M70.3,173.1c-0.5,0-0.9-0.1-1.4-0.3C48,165,25.8,133,23.5,79
		c-0.1-1.5,0.5-2.8,1.5-3.9c1-1.1,2.4-1.7,3.9-1.7l41.5-0.2V173.1z"/>
</g>
</svg>
